<svg width="96" height="206" viewBox="0 0 96 206" fill="none" xmlns="http://www.w3.org/2000/svg">
<path d="M72.3941 73.2433C72.3941 76.7786 69.5282 79.6445 65.993 79.6445C62.6513 79.6445 58.4493 77.6489 54.6436 75.1146C53.6872 74.4777 52.8026 73.8388 52.0188 73.2433C52.8026 72.6479 53.6872 72.009 54.6436 71.3721C58.4493 68.8378 62.6513 66.8422 65.993 66.8422C69.5282 66.8422 72.3941 69.7081 72.3941 73.2433Z" stroke="white" stroke-width="8"/>
<path d="M26.0776 73.2433C26.0776 76.7786 28.9435 79.6445 32.4787 79.6445C35.8204 79.6445 40.0224 77.6489 43.8281 75.1146C44.7845 74.4777 45.6691 73.8388 46.4529 73.2433C45.6691 72.6479 44.7845 72.009 43.8281 71.3721C40.0224 68.8378 35.8204 66.8422 32.4787 66.8422C28.9435 66.8422 26.0776 69.7081 26.0776 73.2433Z" stroke="white" stroke-width="8"/>
<path d="M48.6973 4.76929L48.6973 95.7693" stroke="white" stroke-width="8" stroke-linecap="round"/>
<circle cx="48.0802" cy="158.386" r="43.3829" stroke="white" stroke-width="8"/>
<path d="M36.6973 95.7693C32.279 95.7693 28.6973 99.351 28.6973 103.769V113.769C28.6973 115.978 30.4881 117.769 32.6973 117.769H33.6973C35.3541 117.769 36.6973 116.426 36.6973 114.769C36.6973 113.112 38.0404 111.769 39.6973 111.769C41.3541 111.769 42.6973 113.112 42.6973 114.769C42.6973 116.426 44.0404 117.769 45.6973 117.769H49.6973C51.3541 117.769 52.6973 116.426 52.6973 114.769C52.6973 113.112 54.0404 111.769 55.6973 111.769H56.6973C58.3541 111.769 59.6973 113.112 59.6973 114.769C59.6973 116.426 61.0404 117.769 62.6973 117.769H63.6973C65.9064 117.769 67.6973 115.978 67.6973 113.769V103.769C67.6973 99.351 64.1155 95.7693 59.6973 95.7693H36.6973Z" fill="#324C9A"/>
</svg>
