<svg width="62" height="211" viewBox="0 0 62 211" fill="none" xmlns="http://www.w3.org/2000/svg">
<circle cx="14.6173" cy="163.574" r="47.3829" fill="#324C9A"/>
<mask id="path-2-outside-1" maskUnits="userSpaceOnUse" x="-12.7656" y="92.9567" width="55" height="36" fill="black">
<rect fill="white" x="-12.7656" y="92.9567" width="55" height="36"/>
<path fill-rule="evenodd" clip-rule="evenodd" d="M10.2344 100.957H3.23438C-1.1839 100.957 -4.76562 104.538 -4.76562 108.957V114.957V116.957C-4.76562 119.166 -2.97476 120.957 -0.765625 120.957H0.234375C1.89123 120.957 3.23438 119.614 3.23438 117.957C3.23438 116.3 4.57752 114.957 6.23438 114.957H7.23438C8.89123 114.957 10.2344 116.3 10.2344 117.957C10.2344 119.614 11.5775 120.957 13.2344 120.957H15.2344C16.8912 120.957 18.2344 119.614 18.2344 117.957C18.2344 116.3 19.5775 114.957 21.2344 114.957H23.2344C24.8912 114.957 26.2344 116.3 26.2344 117.957C26.2344 119.614 27.5775 120.957 29.2344 120.957H30.2344C32.4435 120.957 34.2344 119.166 34.2344 116.957V114.957V108.957C34.2344 104.538 30.6527 100.957 26.2344 100.957H18.2344H10.2344Z"/>
</mask>
<path fill-rule="evenodd" clip-rule="evenodd" d="M10.2344 100.957H3.23438C-1.1839 100.957 -4.76562 104.538 -4.76562 108.957V114.957V116.957C-4.76562 119.166 -2.97476 120.957 -0.765625 120.957H0.234375C1.89123 120.957 3.23438 119.614 3.23438 117.957C3.23438 116.3 4.57752 114.957 6.23438 114.957H7.23438C8.89123 114.957 10.2344 116.3 10.2344 117.957C10.2344 119.614 11.5775 120.957 13.2344 120.957H15.2344C16.8912 120.957 18.2344 119.614 18.2344 117.957C18.2344 116.3 19.5775 114.957 21.2344 114.957H23.2344C24.8912 114.957 26.2344 116.3 26.2344 117.957C26.2344 119.614 27.5775 120.957 29.2344 120.957H30.2344C32.4435 120.957 34.2344 119.166 34.2344 116.957V114.957V108.957C34.2344 104.538 30.6527 100.957 26.2344 100.957H18.2344H10.2344Z" fill="#4FB4BB"/>
<path d="M3.23438 108.957H10.2344V92.9567H3.23438V108.957ZM3.23438 114.957V108.957H-12.7656V114.957H3.23438ZM3.23438 116.957V114.957H-12.7656V116.957H3.23438ZM0.234375 112.957H-0.765625V128.957H0.234375V112.957ZM7.23438 106.957H6.23438V122.957H7.23438V106.957ZM15.2344 112.957H13.2344V128.957H15.2344V112.957ZM23.2344 106.957H21.2344V122.957H23.2344V106.957ZM30.2344 112.957H29.2344V128.957H30.2344V112.957ZM26.2344 114.957V116.957H42.2344V114.957H26.2344ZM26.2344 108.957V114.957H42.2344V108.957H26.2344ZM18.2344 108.957H26.2344V92.9567H18.2344V108.957ZM10.2344 108.957H18.2344V92.9567H10.2344V108.957ZM42.2344 108.957C42.2344 100.12 35.0709 92.9567 26.2344 92.9567V108.957H42.2344ZM18.2344 117.957C18.2344 124.032 23.1592 128.957 29.2344 128.957V112.957C31.9958 112.957 34.2344 115.195 34.2344 117.957H18.2344ZM23.2344 122.957C20.473 122.957 18.2344 120.718 18.2344 117.957H34.2344C34.2344 111.882 29.3095 106.957 23.2344 106.957V122.957ZM26.2344 117.957C26.2344 120.718 23.9958 122.957 21.2344 122.957V106.957C15.1592 106.957 10.2344 111.882 10.2344 117.957H26.2344ZM15.2344 128.957C21.3095 128.957 26.2344 124.032 26.2344 117.957H10.2344C10.2344 115.195 12.473 112.957 15.2344 112.957V128.957ZM2.23438 117.957C2.23438 124.032 7.15924 128.957 13.2344 128.957V112.957C15.9958 112.957 18.2344 115.195 18.2344 117.957H2.23438ZM11.2344 117.957C11.2344 120.718 8.9958 122.957 6.23438 122.957V106.957C0.159242 106.957 -4.76562 111.882 -4.76562 117.957H11.2344ZM0.234375 128.957C6.30951 128.957 11.2344 124.032 11.2344 117.957H-4.76562C-4.76562 115.195 -2.52705 112.957 0.234375 112.957V128.957ZM-12.7656 116.957C-12.7656 123.584 -7.39304 128.957 -0.765625 128.957V112.957C1.44351 112.957 3.23438 114.748 3.23438 116.957H-12.7656ZM7.23438 122.957C4.47295 122.957 2.23438 120.718 2.23438 117.957H18.2344C18.2344 111.882 13.3095 106.957 7.23438 106.957V122.957ZM30.2344 128.957C36.8618 128.957 42.2344 123.584 42.2344 116.957H26.2344C26.2344 114.748 28.0252 112.957 30.2344 112.957V128.957ZM3.23438 92.9567C-5.60218 92.9567 -12.7656 100.12 -12.7656 108.957H3.23438V92.9567Z" fill="white" mask="url(#path-2-outside-1)"/>
<path d="M38.9312 73.4306C38.9312 76.9658 36.0653 79.8317 32.5301 79.8317C29.1884 79.8317 24.9864 77.8362 21.1807 75.3018C20.2243 74.6649 19.3397 74.026 18.5559 73.4306C19.3397 72.8352 20.2243 72.1963 21.1807 71.5594C24.9864 69.025 29.1884 67.0295 32.5301 67.0295C36.0653 67.0295 38.9312 69.8954 38.9312 73.4306Z" stroke="white" stroke-width="8"/>
<path d="M-7.38529 73.4306C-7.38529 76.9658 -4.51941 79.8317 -0.984171 79.8317C2.35748 79.8317 6.55954 77.8362 10.3652 75.3018C11.3216 74.6649 12.2062 74.026 12.99 73.4306C12.2062 72.8352 11.3216 72.1963 10.3652 71.5594C6.55954 69.025 2.35748 67.0295 -0.984171 67.0295C-4.51941 67.0295 -7.38529 69.8954 -7.38529 73.4306Z" stroke="white" stroke-width="8"/>
<path d="M15.2344 4.95654L15.2344 95.9565" stroke="white" stroke-width="8" stroke-linecap="round"/>
</svg>
