<svg width="815" height="121" viewBox="0 0 815 121" fill="none" xmlns="http://www.w3.org/2000/svg">
<path d="M3.17619 40.3459C2.78753 40.3459 2.41653 40.2046 2.06319 39.9219C1.74519 39.6393 1.55086 39.2859 1.4802 38.8619C1.3742 38.0493 1.2682 36.8833 1.1622 35.3639C1.09153 33.8446 1.03853 32.0779 1.0032 30.0639C0.967862 28.0499 0.950195 25.9476 0.950195 23.7569C0.950195 21.0009 0.967862 18.2449 1.0032 15.4889C1.03853 12.7329 1.09153 10.2243 1.1622 7.96293C1.2682 5.66626 1.3742 3.8996 1.4802 2.66293C1.5862 1.74426 2.09853 1.23193 3.0172 1.12593C4.1832 1.01993 5.73786 0.931595 7.6812 0.860928C9.62453 0.790262 11.7799 0.737262 14.1472 0.701929C16.5145 0.666594 18.8819 0.648926 21.2492 0.648926C23.3692 0.648926 25.4009 0.666594 27.3442 0.701929C29.2875 0.737262 31.0365 0.790262 32.5912 0.860928C34.1459 0.931595 35.3649 1.01993 36.2482 1.12593C36.7075 1.16126 37.0785 1.3556 37.3612 1.70893C37.6792 2.06226 37.8029 2.48626 37.7322 2.98093C37.5909 3.54626 37.3435 3.97026 36.9902 4.25293C36.6369 4.50026 36.2659 4.58859 35.8772 4.51793C34.2519 4.41193 32.4145 4.3236 30.3652 4.25293C28.3159 4.18226 26.1605 4.12926 23.8992 4.09393C21.6732 4.05859 19.4649 4.04093 17.2742 4.04093C14.8009 4.04093 12.4689 4.07626 10.2782 4.14693C8.08753 4.18226 6.23253 4.27059 4.7132 4.41193C4.64253 5.64859 4.57186 7.29159 4.5012 9.34093C4.43053 11.3549 4.37753 13.5633 4.3422 15.9659C4.30686 18.3686 4.2892 20.7889 4.2892 23.2269C4.2892 25.4529 4.30686 27.5906 4.3422 29.6399C4.37753 31.6539 4.43053 33.4383 4.5012 34.9929C4.6072 36.5123 4.7132 37.6429 4.8192 38.3849C4.88986 38.9503 4.73086 39.4096 4.3422 39.7629C3.95353 40.1516 3.56486 40.3459 3.17619 40.3459Z" fill="white"/>
<path d="M72.6062 40.8229C69.3202 40.8229 66.4582 40.1339 64.0202 38.7559C61.6175 37.3779 59.7449 35.4523 58.4022 32.9789C57.0949 30.4703 56.4412 27.5199 56.4412 24.1279C56.4412 20.7359 57.0772 17.7856 58.3492 15.2769C59.6212 12.7683 61.4585 10.8249 63.8612 9.44693C66.2639 8.06893 69.1789 7.37993 72.6062 7.37993C76.1395 7.37993 79.1075 8.06893 81.5102 9.44693C83.9129 10.8249 85.7325 12.7683 86.9692 15.2769C88.2059 17.7503 88.8242 20.7006 88.8242 24.1279C88.8242 29.5693 87.4285 33.7033 84.6372 36.5299C81.8812 39.3919 77.8709 40.8229 72.6062 40.8229ZM72.6062 37.4839C77.0229 37.4839 80.2735 36.3709 82.3582 34.1449C84.4429 31.9189 85.4852 28.5799 85.4852 24.1279C85.4852 19.9233 84.4075 16.6373 82.2522 14.2699C80.0969 11.9026 76.8815 10.7189 72.6062 10.7189C68.3309 10.7189 65.1155 11.9379 62.9602 14.3759C60.8049 16.7786 59.7272 20.0293 59.7272 24.1279C59.7272 28.2266 60.8402 31.4773 63.0662 33.8799C65.3275 36.2826 68.5075 37.4839 72.6062 37.4839Z" fill="white"/>
<path d="M125.394 40.1869C124.9 40.1869 124.493 40.0279 124.175 39.7099C123.857 39.3919 123.698 38.9856 123.698 38.4909V14.7469C122.992 14.7469 122.02 14.7646 120.783 14.7999C119.547 14.7999 118.257 14.8176 116.914 14.8529C115.572 14.8883 114.37 14.9236 113.31 14.9589C112.25 14.9589 111.544 14.9766 111.19 15.0119C110.731 15.0119 110.342 14.8706 110.024 14.5879C109.742 14.2699 109.565 13.8813 109.494 13.4219C109.494 12.3619 110.024 11.7789 111.084 11.6729C111.826 11.6023 112.975 11.5669 114.529 11.5669C116.084 11.5316 117.868 11.5139 119.882 11.5139C121.932 11.4786 123.999 11.4609 126.083 11.4609C128.839 11.4609 131.454 11.4786 133.927 11.5139C136.401 11.5139 138.291 11.5316 139.598 11.5669C140.093 11.5669 140.499 11.7436 140.817 12.0969C141.171 12.4149 141.312 12.8213 141.241 13.3159C141.241 13.8813 141.047 14.3053 140.658 14.5879C140.305 14.8353 139.934 14.9589 139.545 14.9589C138.909 14.8883 138.114 14.8529 137.16 14.8529C136.206 14.8176 134.934 14.7999 133.344 14.7999C131.754 14.7999 129.652 14.7999 127.037 14.7999V38.4909C127.037 38.9503 126.878 39.3389 126.56 39.6569C126.278 40.0103 125.889 40.1869 125.394 40.1869Z" fill="white"/>
<path d="M178.606 40.8229C175.32 40.8229 172.458 40.1339 170.02 38.7559C167.618 37.3779 165.745 35.4523 164.402 32.9789C163.095 30.4703 162.441 27.5199 162.441 24.1279C162.441 20.7359 163.077 17.7856 164.349 15.2769C165.621 12.7683 167.459 10.8249 169.861 9.44693C172.264 8.06893 175.179 7.37993 178.606 7.37993C182.14 7.37993 185.108 8.06893 187.51 9.44693C189.913 10.8249 191.733 12.7683 192.969 15.2769C194.206 17.7503 194.824 20.7006 194.824 24.1279C194.824 29.5693 193.429 33.7033 190.637 36.5299C187.881 39.3919 183.871 40.8229 178.606 40.8229ZM178.606 37.4839C183.023 37.4839 186.274 36.3709 188.358 34.1449C190.443 31.9189 191.485 28.5799 191.485 24.1279C191.485 19.9233 190.408 16.6373 188.252 14.2699C186.097 11.9026 182.882 10.7189 178.606 10.7189C174.331 10.7189 171.116 11.9379 168.96 14.3759C166.805 16.7786 165.727 20.0293 165.727 24.1279C165.727 28.2266 166.84 31.4773 169.066 33.8799C171.328 36.2826 174.508 37.4839 178.606 37.4839Z" fill="white"/>
<path d="M230.228 39.9219C229.274 39.9573 228.179 39.9573 226.942 39.9219C225.741 39.8866 224.575 39.7983 223.444 39.6569C222.314 39.5509 221.395 39.4273 220.688 39.2859C220.37 39.1446 220.07 38.9503 219.787 38.7029C219.505 38.4556 219.328 38.1729 219.257 37.8549C219.081 37.3249 218.922 36.3003 218.78 34.7809C218.674 33.2263 218.568 31.3889 218.462 29.2689C218.392 27.1489 218.321 24.9406 218.25 22.6439C218.215 20.3119 218.197 18.1213 218.197 16.0719C218.197 14.2699 218.215 12.6799 218.25 11.3019C218.286 9.88859 218.339 8.84626 218.409 8.17493C218.657 7.36226 219.134 6.84993 219.84 6.63793C221.819 6.35526 223.692 6.14326 225.458 6.00193C227.26 5.82526 229.009 5.73693 230.705 5.73693C233.108 5.73693 235.369 5.94893 237.489 6.37293C239.645 6.7616 241.535 7.39759 243.16 8.28093C244.821 9.12893 246.128 10.2419 247.082 11.6199C248.036 12.9626 248.513 14.5703 248.513 16.4429C248.513 18.5983 247.771 20.3649 246.287 21.7429C244.839 23.0856 243.001 24.1279 240.775 24.8699C242.189 25.3999 243.337 26.3363 244.22 27.6789C245.139 29.0216 245.598 30.5233 245.598 32.1839C245.598 33.7033 245.121 34.9576 244.167 35.9469C243.249 36.9363 242.03 37.6959 240.51 38.2259C239.026 38.7913 237.383 39.1976 235.581 39.4449C233.779 39.6923 231.995 39.8513 230.228 39.9219ZM228.903 36.5299C231.129 36.5299 233.249 36.3886 235.263 36.1059C237.313 35.8233 238.991 35.3639 240.298 34.7279C241.606 34.0566 242.259 33.1909 242.259 32.1309C242.259 30.6823 241.747 29.5693 240.722 28.7919C239.733 27.9793 238.426 27.3786 236.8 26.9899C235.21 26.6013 233.532 26.3363 231.765 26.1949C231.306 26.1243 230.917 25.9299 230.599 25.6119C230.317 25.2586 230.193 24.8523 230.228 24.3929C230.228 23.7923 230.44 23.3683 230.864 23.1209C231.288 22.8383 231.836 22.6969 232.507 22.6969C233.991 22.7676 235.493 22.6793 237.012 22.4319C238.532 22.1493 239.91 21.7253 241.146 21.1599C242.418 20.5593 243.408 19.8349 244.114 18.9869C244.856 18.1036 245.174 17.0966 245.068 15.9659C244.927 14.3053 244.132 12.9803 242.683 11.9909C241.235 10.9663 239.433 10.2243 237.277 9.76493C235.122 9.3056 232.878 9.07593 230.546 9.07593C229.062 9.11126 227.578 9.18193 226.094 9.28793C224.61 9.39393 223.144 9.55293 221.695 9.76493C221.625 10.3303 221.572 11.0899 221.536 12.0439C221.501 12.9979 221.483 14.0756 221.483 15.2769C221.483 16.9729 221.501 18.8279 221.536 20.8419C221.607 22.8206 221.695 24.7993 221.801 26.7779C221.907 28.7566 222.013 30.5763 222.119 32.2369C222.225 33.8623 222.331 35.1696 222.437 36.1589C223.462 36.3003 224.522 36.3886 225.617 36.4239C226.713 36.4946 227.808 36.5299 228.903 36.5299Z" fill="white"/>
<path d="M272.628 40.0279C271.957 39.9219 271.568 39.4803 271.462 38.7029C271.321 37.7843 271.197 36.5653 271.091 35.0459C270.985 33.5266 270.897 31.8306 270.826 29.9579C270.791 28.0853 270.756 26.1773 270.72 24.2339C270.685 22.2553 270.667 20.3649 270.667 18.5629C270.667 16.7256 270.667 15.1179 270.667 13.7399C270.738 13.1393 270.95 12.6976 271.303 12.4149C271.692 12.1323 272.081 12.0263 272.469 12.0969C272.893 12.0969 273.247 12.2736 273.529 12.6269C273.847 12.9803 274.006 13.4043 274.006 13.8989C273.971 14.5703 273.936 15.2593 273.9 15.9659C273.9 16.6373 273.9 17.3439 273.9 18.0859C273.9 20.4533 273.971 22.9796 274.112 25.6649C274.254 28.3503 274.395 31.2299 274.536 34.3039C277.999 30.3113 281.444 26.5306 284.871 22.9619C288.299 19.3933 291.779 16.0543 295.312 12.9449C295.701 12.6269 296.09 12.4679 296.478 12.4679C296.867 12.4679 297.22 12.6093 297.538 12.8919C297.892 13.1746 298.104 13.5103 298.174 13.8989C298.351 15.2063 298.492 16.5136 298.598 17.8209C298.74 19.1283 298.828 20.6476 298.863 22.3789C298.934 24.1103 298.969 26.2303 298.969 28.7389C299.005 31.2476 299.022 34.3569 299.022 38.0669C299.022 38.6323 298.828 39.0386 298.439 39.2859C298.051 39.5686 297.662 39.7099 297.273 39.7099C296.708 39.7099 296.284 39.5156 296.001 39.1269C295.754 38.7736 295.63 38.4026 295.63 38.0139C295.666 37.4486 295.683 36.8303 295.683 36.1589C295.683 35.4876 295.683 34.7633 295.683 33.9859C295.683 32.2899 295.666 30.4879 295.63 28.5799C295.595 26.6366 295.542 24.7463 295.471 22.9089C295.401 21.0716 295.312 19.4816 295.206 18.1389C293.157 19.8349 291.302 21.4426 289.641 22.9619C288.016 24.4813 286.426 26.0536 284.871 27.6789C283.352 29.3043 281.744 31.0886 280.048 33.0319C278.388 34.9399 276.497 37.1306 274.377 39.6039C274.024 39.9573 273.706 40.1339 273.423 40.1339C273.317 40.1339 273.194 40.1163 273.052 40.0809C272.946 40.0809 272.805 40.0633 272.628 40.0279Z" fill="white"/>
<path d="M352.075 39.6569C351.969 39.6569 351.81 39.6216 351.598 39.5509C351.139 39.3743 350.786 39.1093 350.538 38.7559C350.326 38.4026 350.273 37.9963 350.379 37.5369C350.839 36.0176 351.174 34.3569 351.386 32.5549C351.598 30.7176 351.704 28.8803 351.704 27.0429C351.704 25.9829 351.669 24.9583 351.598 23.9689C351.527 22.9443 351.422 21.9726 351.28 21.0539C351.104 19.7819 350.785 18.6159 350.326 17.5559C349.867 16.4606 349.249 15.5949 348.471 14.9589C347.694 14.2876 346.704 13.9519 345.503 13.9519C344.267 13.9519 343.224 14.3583 342.376 15.1709C341.528 15.9836 340.839 17.0613 340.309 18.4039C339.815 19.7466 339.408 21.2483 339.09 22.9089C338.984 23.6863 338.472 24.1633 337.553 24.3399C336.635 24.3399 336.069 23.8806 335.857 22.9619C335.539 21.4073 335.08 19.9586 334.479 18.6159C333.879 17.2379 333.154 16.1249 332.306 15.2769C331.458 14.3936 330.434 13.9519 329.232 13.9519C328.137 13.9519 327.201 14.3406 326.423 15.1179C325.646 15.8953 325.027 16.9199 324.568 18.1919C324.144 19.4639 323.826 20.8419 323.614 22.3259C323.402 23.8099 323.296 25.2586 323.296 26.6719C323.296 28.4739 323.402 30.3113 323.614 32.1839C323.826 34.0566 324.109 35.8763 324.462 37.6429C324.533 38.2436 324.427 38.7029 324.144 39.0209C323.897 39.3389 323.561 39.5333 323.137 39.6039C322.643 39.7453 322.219 39.6393 321.865 39.2859C321.512 38.9679 321.3 38.6323 321.229 38.2789C320.876 36.4769 320.576 34.6219 320.328 32.7139C320.116 30.7706 320.01 28.8449 320.01 26.9369C320.01 24.8876 320.169 22.9089 320.487 21.0009C320.805 19.0576 321.318 17.3086 322.024 15.7539C322.766 14.1993 323.738 12.9626 324.939 12.0439C326.176 11.1253 327.695 10.6659 329.497 10.6659C330.734 10.6659 331.882 10.9663 332.942 11.5669C334.002 12.1676 334.903 12.9449 335.645 13.8989C336.423 14.8176 336.988 15.8246 337.341 16.9199C338.26 14.9059 339.373 13.3689 340.68 12.3089C342.023 11.2136 343.666 10.6659 345.609 10.6659C347.411 10.6659 348.913 11.1076 350.114 11.9909C351.316 12.8389 352.27 14.0226 352.976 15.5419C353.683 17.0259 354.195 18.7219 354.513 20.6299C354.69 21.6546 354.814 22.7499 354.884 23.9159C354.99 25.0819 355.043 26.2656 355.043 27.4669C355.043 29.4103 354.92 31.3359 354.672 33.2439C354.46 35.1519 354.107 36.8833 353.612 38.4379C353.506 38.8266 353.294 39.1269 352.976 39.3389C352.694 39.5509 352.393 39.6569 352.075 39.6569Z" fill="white"/>
<path d="M392.143 40.8229C388.751 40.8229 385.819 40.1339 383.345 38.7559C380.907 37.4133 379.017 35.5053 377.674 33.0319C376.332 30.5586 375.66 27.6966 375.66 24.4459C375.66 21.1599 376.332 18.2803 377.674 15.8069C379.017 13.3336 380.925 11.4256 383.398 10.0829C385.872 8.70493 388.787 8.01593 392.143 8.01593C394.652 8.01593 396.842 8.35159 398.715 9.02293C400.588 9.69426 402.284 10.7719 403.803 12.2559C404.157 12.6093 404.333 12.9979 404.333 13.4219C404.333 13.8106 404.174 14.1993 403.856 14.5879C403.609 14.9413 403.255 15.1179 402.796 15.1179C402.337 15.1179 401.913 14.9589 401.524 14.6409C400.323 13.4749 398.91 12.6446 397.284 12.1499C395.659 11.6199 393.945 11.3549 392.143 11.3549C389.458 11.3549 387.126 11.8849 385.147 12.9449C383.204 14.0049 381.685 15.5243 380.589 17.5029C379.529 19.4463 378.999 21.7606 378.999 24.4459C378.999 27.0253 379.582 29.3043 380.748 31.2829C381.914 33.2616 383.487 34.7986 385.465 35.8939C387.479 36.9893 389.705 37.5369 392.143 37.5369C393.981 37.5369 395.836 37.2189 397.708 36.5829C399.581 35.9823 401.065 35.0459 402.16 33.7739C402.443 33.4559 402.832 33.2969 403.326 33.2969C403.75 33.2969 404.139 33.4206 404.492 33.6679C404.846 33.9153 405.022 34.2863 405.022 34.7809C405.022 35.2049 404.881 35.6113 404.598 35.9999C402.902 37.6959 401.03 38.9149 398.98 39.6569C396.931 40.4343 394.652 40.8229 392.143 40.8229Z" fill="white"/>
<path d="M453.729 39.8689C453.199 39.8689 452.775 39.6923 452.457 39.3389C452.175 39.0209 452.033 38.7029 452.033 38.3849C452.069 38.2436 452.086 37.8549 452.086 37.2189C452.122 36.6183 452.139 35.9293 452.139 35.1519C452.175 34.3393 452.192 33.5619 452.192 32.8199C452.228 32.0779 452.245 31.5126 452.245 31.1239C451.044 31.3006 449.86 31.4419 448.694 31.5479C447.528 31.6539 446.38 31.7069 445.249 31.7069C443.589 31.7069 441.91 31.6009 440.214 31.3889C438.942 32.5549 437.706 33.7563 436.504 34.9929C435.303 36.1943 434.261 37.3603 433.377 38.4909C432.953 39.0209 432.512 39.2859 432.052 39.2859C431.805 39.2859 431.469 39.1976 431.045 39.0209C430.763 38.8443 430.551 38.6323 430.409 38.3849C430.303 38.1376 430.25 37.8903 430.25 37.6429C430.25 37.2896 430.339 36.9716 430.515 36.6889C430.975 36.1236 431.575 35.4699 432.317 34.7279C433.059 33.9506 433.801 33.1909 434.543 32.4489C435.321 31.6716 435.992 31.0356 436.557 30.5409C433.66 29.5163 431.487 27.9969 430.038 25.9829C428.625 23.9689 427.918 21.5663 427.918 18.7749C427.918 16.4783 428.643 14.3759 430.091 12.4679C431.54 10.5246 433.395 9.07593 435.656 8.12193C437.105 7.52126 438.695 7.06193 440.426 6.74393C442.193 6.42592 443.96 6.26693 445.726 6.26693C448.906 6.26693 451.768 6.72626 454.312 7.64493C454.701 7.78626 454.966 8.01593 455.107 8.33393C455.284 8.65193 455.39 8.9346 455.425 9.18193C455.531 11.7613 455.62 14.4113 455.69 17.1319C455.761 19.8526 455.796 22.5203 455.796 25.1349C455.796 27.5023 455.761 29.7989 455.69 32.0249C455.655 34.2509 455.566 36.3533 455.425 38.3319C455.39 38.8266 455.178 39.1976 454.789 39.4449C454.401 39.7276 454.047 39.8689 453.729 39.8689ZM452.245 27.6789C452.245 23.1563 452.228 19.3579 452.192 16.2839C452.192 13.2099 452.157 11.2843 452.086 10.5069C450.072 9.90626 447.882 9.60593 445.514 9.60593C443.536 9.60593 441.592 9.83559 439.684 10.2949C437.811 10.7543 436.204 11.4609 434.861 12.4149C433.625 13.2983 432.706 14.2169 432.105 15.1709C431.54 16.1249 431.257 17.3263 431.257 18.7749C431.257 21.0716 431.84 22.9266 433.006 24.3399C434.208 25.7179 435.833 26.7249 437.882 27.3609C439.967 27.9969 442.317 28.3149 444.931 28.3149C447.263 28.3149 449.701 28.1029 452.245 27.6789ZM452.033 38.2259V38.3849C452.033 38.4909 452.033 38.4379 452.033 38.2259Z" fill="white"/>
<path d="M527.008 39.9219C526.054 39.9573 524.958 39.9573 523.721 39.9219C522.52 39.8866 521.354 39.7983 520.224 39.6569C519.093 39.5509 518.174 39.4273 517.467 39.2859C517.149 39.1446 516.849 38.9503 516.566 38.7029C516.284 38.4556 516.107 38.1729 516.036 37.8549C515.86 37.3249 515.701 36.3003 515.56 34.7809C515.453 33.2263 515.347 31.3889 515.241 29.2689C515.171 27.1489 515.1 24.9406 515.029 22.6439C514.994 20.3119 514.977 18.1213 514.977 16.0719C514.977 14.2699 514.994 12.6799 515.029 11.3019C515.065 9.88859 515.118 8.84626 515.188 8.17493C515.436 7.36226 515.913 6.84993 516.62 6.63793C518.598 6.35526 520.471 6.14326 522.237 6.00193C524.039 5.82526 525.789 5.73693 527.484 5.73693C529.887 5.73693 532.148 5.94893 534.268 6.37293C536.424 6.7616 538.314 7.39759 539.939 8.28093C541.6 9.12893 542.908 10.2419 543.862 11.6199C544.815 12.9626 545.292 14.5703 545.292 16.4429C545.292 18.5983 544.55 20.3649 543.066 21.7429C541.618 23.0856 539.781 24.1279 537.555 24.8699C538.968 25.3999 540.116 26.3363 540.999 27.6789C541.918 29.0216 542.378 30.5233 542.378 32.1839C542.378 33.7033 541.9 34.9576 540.946 35.9469C540.028 36.9363 538.809 37.6959 537.289 38.2259C535.805 38.7913 534.162 39.1976 532.36 39.4449C530.558 39.6923 528.774 39.8513 527.008 39.9219ZM525.682 36.5299C527.909 36.5299 530.029 36.3886 532.042 36.1059C534.092 35.8233 535.77 35.3639 537.077 34.7279C538.385 34.0566 539.038 33.1909 539.038 32.1309C539.038 30.6823 538.526 29.5693 537.501 28.7919C536.512 27.9793 535.205 27.3786 533.579 26.9899C531.989 26.6013 530.311 26.3363 528.544 26.1949C528.085 26.1243 527.696 25.9299 527.378 25.6119C527.096 25.2586 526.972 24.8523 527.008 24.3929C527.008 23.7923 527.219 23.3683 527.643 23.1209C528.068 22.8383 528.615 22.6969 529.286 22.6969C530.771 22.7676 532.272 22.6793 533.792 22.4319C535.311 22.1493 536.689 21.7253 537.925 21.1599C539.197 20.5593 540.187 19.8349 540.893 18.9869C541.635 18.1036 541.953 17.0966 541.847 15.9659C541.706 14.3053 540.911 12.9803 539.462 11.9909C538.014 10.9663 536.212 10.2243 534.056 9.76493C531.901 9.3056 529.657 9.07593 527.326 9.07593C525.841 9.11126 524.357 9.18193 522.873 9.28793C521.389 9.39393 519.923 9.55293 518.474 9.76493C518.404 10.3303 518.351 11.0899 518.315 12.0439C518.28 12.9979 518.262 14.0756 518.262 15.2769C518.262 16.9729 518.28 18.8279 518.315 20.8419C518.386 22.8206 518.474 24.7993 518.581 26.7779C518.687 28.7566 518.792 30.5763 518.898 32.2369C519.005 33.8623 519.11 35.1696 519.216 36.1589C520.241 36.3003 521.301 36.3886 522.396 36.4239C523.492 36.4946 524.587 36.5299 525.682 36.5299Z" fill="white"/>
<path d="M595.854 39.6569C595.748 39.6569 595.589 39.6216 595.378 39.5509C594.918 39.3743 594.565 39.1093 594.318 38.7559C594.106 38.4026 594.052 37.9963 594.159 37.5369C594.618 36.0176 594.953 34.3569 595.165 32.5549C595.377 30.7176 595.483 28.8803 595.483 27.0429C595.483 25.9829 595.448 24.9583 595.378 23.9689C595.307 22.9443 595.201 21.9726 595.06 21.0539C594.883 19.7819 594.565 18.6159 594.105 17.5559C593.646 16.4606 593.028 15.5949 592.25 14.9589C591.473 14.2876 590.484 13.9519 589.282 13.9519C588.046 13.9519 587.003 14.3583 586.155 15.1709C585.307 15.9836 584.619 17.0613 584.089 18.4039C583.594 19.7466 583.188 21.2483 582.87 22.9089C582.763 23.6863 582.251 24.1633 581.332 24.3399C580.414 24.3399 579.848 23.8806 579.636 22.9619C579.318 21.4073 578.859 19.9586 578.258 18.6159C577.658 17.2379 576.934 16.1249 576.086 15.2769C575.237 14.3936 574.213 13.9519 573.011 13.9519C571.916 13.9519 570.98 14.3406 570.202 15.1179C569.425 15.8953 568.807 16.9199 568.347 18.1919C567.923 19.4639 567.605 20.8419 567.393 22.3259C567.182 23.8099 567.076 25.2586 567.076 26.6719C567.076 28.4739 567.182 30.3113 567.393 32.1839C567.605 34.0566 567.888 35.8763 568.241 37.6429C568.312 38.2436 568.206 38.7029 567.923 39.0209C567.676 39.3389 567.341 39.5333 566.917 39.6039C566.422 39.7453 565.998 39.6393 565.644 39.2859C565.291 38.9679 565.079 38.6323 565.008 38.2789C564.655 36.4769 564.355 34.6219 564.107 32.7139C563.896 30.7706 563.789 28.8449 563.789 26.9369C563.789 24.8876 563.948 22.9089 564.266 21.0009C564.584 19.0576 565.097 17.3086 565.803 15.7539C566.545 14.1993 567.517 12.9626 568.719 12.0439C569.955 11.1253 571.474 10.6659 573.276 10.6659C574.513 10.6659 575.661 10.9663 576.721 11.5669C577.781 12.1676 578.682 12.9449 579.424 13.8989C580.202 14.8176 580.767 15.8246 581.12 16.9199C582.039 14.9059 583.152 13.3689 584.459 12.3089C585.802 11.2136 587.445 10.6659 589.388 10.6659C591.19 10.6659 592.692 11.1076 593.893 11.9909C595.095 12.8389 596.049 14.0226 596.755 15.5419C597.462 17.0259 597.974 18.7219 598.292 20.6299C598.469 21.6546 598.593 22.7499 598.664 23.9159C598.77 25.0819 598.823 26.2656 598.823 27.4669C598.823 29.4103 598.699 31.3359 598.451 33.2439C598.24 35.1519 597.886 36.8833 597.391 38.4379C597.285 38.8266 597.073 39.1269 596.755 39.3389C596.473 39.5509 596.172 39.6569 595.854 39.6569Z" fill="white"/>
<path d="M634.279 40.8759C630.958 40.8759 628.043 40.1693 625.534 38.7559C623.061 37.3426 621.135 35.3816 619.758 32.8729C618.38 30.3289 617.69 27.3786 617.69 24.0219C617.69 20.8419 618.362 17.9976 619.704 15.4889C621.082 12.9803 622.99 11.0193 625.428 9.60593C627.902 8.15726 630.799 7.43293 634.12 7.43293C637.089 7.43293 639.756 8.15726 642.123 9.60593C644.491 11.0546 646.381 13.0333 647.794 15.5419C649.208 18.0153 649.967 20.8419 650.073 24.0219C650.073 24.9406 649.579 25.5236 648.589 25.7709C647.812 25.8769 646.664 25.9653 645.144 26.0359C643.625 26.1066 641.876 26.1773 639.897 26.2479C637.919 26.2833 635.834 26.3186 633.643 26.3539C631.453 26.3539 629.28 26.3539 627.124 26.3539C624.969 26.3539 622.973 26.3539 621.135 26.3539C621.383 28.6506 622.089 30.6469 623.255 32.3429C624.457 34.0389 625.994 35.3286 627.866 36.2119C629.774 37.1306 631.895 37.5899 634.227 37.5899C636.311 37.5899 638.36 37.2366 640.374 36.5299C642.424 35.8233 644.155 34.8516 645.568 33.6149C645.922 33.3676 646.31 33.2439 646.734 33.2439C647.229 33.2439 647.635 33.4206 647.953 33.7739C648.165 34.0919 648.271 34.4453 648.271 34.8339C648.271 35.3639 648.095 35.7703 647.741 36.0529C645.798 37.6783 643.661 38.8796 641.328 39.6569C638.997 40.4696 636.647 40.8759 634.279 40.8759ZM621.029 23.0149C623.326 23.0149 625.746 23.0149 628.29 23.0149C630.834 22.9796 633.308 22.9443 635.711 22.9089C638.113 22.8383 640.268 22.7853 642.176 22.7499C644.12 22.6793 645.604 22.6263 646.628 22.5909C646.346 20.1176 645.604 17.9976 644.402 16.2309C643.201 14.4643 641.664 13.1039 639.792 12.1499C637.919 11.1959 635.799 10.7189 633.431 10.7189C631.135 10.7543 629.086 11.3019 627.284 12.3619C625.482 13.4219 624.033 14.8706 622.938 16.7079C621.842 18.5099 621.206 20.6123 621.029 23.0149Z" fill="white"/>
<path d="M688.922 40.8229C685.53 40.8229 682.598 40.1339 680.124 38.7559C677.686 37.4133 675.796 35.5053 674.453 33.0319C673.111 30.5586 672.439 27.6966 672.439 24.4459C672.439 21.1599 673.111 18.2803 674.453 15.8069C675.796 13.3336 677.704 11.4256 680.177 10.0829C682.651 8.70493 685.566 8.01593 688.922 8.01593C691.431 8.01593 693.622 8.35159 695.495 9.02293C697.367 9.69426 699.063 10.7719 700.582 12.2559C700.936 12.6093 701.112 12.9979 701.112 13.4219C701.112 13.8106 700.953 14.1993 700.635 14.5879C700.388 14.9413 700.035 15.1179 699.576 15.1179C699.116 15.1179 698.692 14.9589 698.303 14.6409C697.102 13.4749 695.689 12.6446 694.063 12.1499C692.438 11.6199 690.724 11.3549 688.922 11.3549C686.237 11.3549 683.905 11.8849 681.926 12.9449C679.983 14.0049 678.464 15.5243 677.368 17.5029C676.308 19.4463 675.779 21.7606 675.779 24.4459C675.779 27.0253 676.361 29.3043 677.527 31.2829C678.693 33.2616 680.266 34.7986 682.245 35.8939C684.258 36.9893 686.484 37.5369 688.922 37.5369C690.76 37.5369 692.615 37.2189 694.487 36.5829C696.36 35.9823 697.844 35.0459 698.939 33.7739C699.222 33.4559 699.611 33.2969 700.105 33.2969C700.529 33.2969 700.918 33.4206 701.271 33.6679C701.625 33.9153 701.801 34.2863 701.801 34.7809C701.801 35.2049 701.66 35.6113 701.378 35.9999C699.682 37.6959 697.809 38.9149 695.759 39.6569C693.71 40.4343 691.431 40.8229 688.922 40.8229Z" fill="white"/>
<path d="M740.173 40.1869C739.679 40.1869 739.272 40.0279 738.954 39.7099C738.636 39.3919 738.477 38.9856 738.477 38.4909V14.7469C737.771 14.7469 736.799 14.7646 735.562 14.7999C734.326 14.7999 733.036 14.8176 731.693 14.8529C730.351 14.8883 729.149 14.9236 728.089 14.9589C727.029 14.9589 726.323 14.9766 725.969 15.0119C725.51 15.0119 725.121 14.8706 724.803 14.5879C724.521 14.2699 724.344 13.8813 724.273 13.4219C724.273 12.3619 724.803 11.7789 725.863 11.6729C726.605 11.6023 727.754 11.5669 729.308 11.5669C730.863 11.5316 732.648 11.5139 734.661 11.5139C736.711 11.4786 738.778 11.4609 740.862 11.4609C743.618 11.4609 746.233 11.4786 748.706 11.5139C751.18 11.5139 753.07 11.5316 754.378 11.5669C754.872 11.5669 755.279 11.7436 755.596 12.0969C755.95 12.4149 756.091 12.8213 756.021 13.3159C756.021 13.8813 755.826 14.3053 755.438 14.5879C755.084 14.8353 754.713 14.9589 754.324 14.9589C753.688 14.8883 752.893 14.8529 751.939 14.8529C750.985 14.8176 749.714 14.7999 748.123 14.7999C746.533 14.7999 744.431 14.7999 741.816 14.7999V38.4909C741.816 38.9503 741.657 39.3389 741.339 39.6569C741.057 40.0103 740.668 40.1869 740.173 40.1869Z" fill="white"/>
<path d="M793.279 40.8759C789.958 40.8759 787.043 40.1693 784.534 38.7559C782.061 37.3426 780.135 35.3816 778.758 32.8729C777.38 30.3289 776.69 27.3786 776.69 24.0219C776.69 20.8419 777.362 17.9976 778.704 15.4889C780.082 12.9803 781.99 11.0193 784.428 9.60593C786.902 8.15726 789.799 7.43293 793.12 7.43293C796.089 7.43293 798.756 8.15726 801.123 9.60593C803.491 11.0546 805.381 13.0333 806.794 15.5419C808.208 18.0153 808.967 20.8419 809.073 24.0219C809.073 24.9406 808.579 25.5236 807.589 25.7709C806.812 25.8769 805.664 25.9653 804.144 26.0359C802.625 26.1066 800.876 26.1773 798.897 26.2479C796.919 26.2833 794.834 26.3186 792.643 26.3539C790.453 26.3539 788.28 26.3539 786.124 26.3539C783.969 26.3539 781.973 26.3539 780.135 26.3539C780.383 28.6506 781.089 30.6469 782.255 32.3429C783.457 34.0389 784.994 35.3286 786.866 36.2119C788.774 37.1306 790.895 37.5899 793.227 37.5899C795.311 37.5899 797.36 37.2366 799.374 36.5299C801.424 35.8233 803.155 34.8516 804.568 33.6149C804.922 33.3676 805.31 33.2439 805.734 33.2439C806.229 33.2439 806.635 33.4206 806.953 33.7739C807.165 34.0919 807.271 34.4453 807.271 34.8339C807.271 35.3639 807.095 35.7703 806.741 36.0529C804.798 37.6783 802.661 38.8796 800.328 39.6569C797.997 40.4696 795.647 40.8759 793.279 40.8759ZM780.029 23.0149C782.326 23.0149 784.746 23.0149 787.29 23.0149C789.834 22.9796 792.308 22.9443 794.711 22.9089C797.113 22.8383 799.268 22.7853 801.176 22.7499C803.12 22.6793 804.604 22.6263 805.628 22.5909C805.346 20.1176 804.604 17.9976 803.402 16.2309C802.201 14.4643 800.664 13.1039 798.792 12.1499C796.919 11.1959 794.799 10.7189 792.431 10.7189C790.135 10.7543 788.086 11.3019 786.284 12.3619C784.482 13.4219 783.033 14.8706 781.938 16.7079C780.842 18.5099 780.206 20.6123 780.029 23.0149Z" fill="white"/>
<path d="M8.8472 116.763C8.3172 116.763 7.92853 116.586 7.6812 116.233C7.43386 115.915 7.27486 115.579 7.2042 115.226C7.13353 114.661 7.08053 113.795 7.0452 112.629C7.00986 111.463 6.97453 109.838 6.9392 107.753C6.90386 105.668 6.8862 102.983 6.8862 99.6969C6.8862 96.3756 6.8862 92.2946 6.8862 87.4539C6.8862 86.8886 7.08053 86.4823 7.46919 86.2349C7.85786 85.9523 8.24653 85.8109 8.6352 85.8109C9.23586 85.8463 9.65986 86.0583 9.90719 86.4469C10.1545 86.8003 10.2782 87.1713 10.2782 87.5599C10.2782 87.8779 10.2605 88.5316 10.2252 89.5209C10.2252 90.5103 10.2252 91.7116 10.2252 93.1249C10.2252 94.5029 10.2075 95.9693 10.1722 97.5239C10.1722 99.0786 10.1722 100.58 10.1722 102.029C12.7162 101.994 15.1719 101.658 17.5392 101.022C19.9419 100.386 22.0795 99.4849 23.9522 98.3189C25.8249 97.1176 27.2735 95.6866 28.2982 94.0259C29.3229 92.3299 29.7645 90.4396 29.6232 88.3549C29.6232 87.2949 30.1709 86.7119 31.2662 86.6059C32.3262 86.6059 32.9092 87.1536 33.0152 88.2489C33.0859 91.3229 32.3262 93.9906 30.7362 96.2519C29.1462 98.5133 27.0792 100.386 24.5352 101.87C26.8319 104.273 28.7929 106.499 30.4182 108.548C32.0789 110.562 33.1389 112.24 33.5982 113.583C33.7042 113.795 33.7572 114.025 33.7572 114.272C33.7572 114.696 33.5982 115.067 33.2802 115.385C32.9622 115.738 32.5205 115.915 31.9552 115.915C31.2485 115.915 30.7539 115.562 30.4712 114.855C30.0119 113.795 29.2345 112.576 28.1392 111.198C27.0792 109.785 25.9309 108.389 24.6942 107.011C23.4575 105.598 22.3269 104.396 21.3022 103.407C20.7369 103.654 19.9772 103.902 19.0232 104.149C18.0692 104.396 17.0269 104.626 15.8962 104.838C14.8009 105.015 13.7409 105.156 12.7162 105.262C11.7269 105.368 10.8965 105.421 10.2252 105.421C10.2959 107.965 10.3312 109.979 10.3312 111.463C10.3665 112.912 10.4372 114.06 10.5432 114.908C10.6139 115.438 10.4902 115.88 10.1722 116.233C9.88953 116.586 9.44786 116.763 8.8472 116.763Z" fill="white"/>
<path d="M117.37 116.763C116.911 116.728 116.505 116.533 116.151 116.18C115.798 115.862 115.639 115.456 115.674 114.961C115.674 114.643 115.674 113.989 115.674 113C115.71 112.011 115.745 110.898 115.78 109.661C115.816 108.389 115.833 107.17 115.833 106.004C115.869 104.838 115.886 103.937 115.886 103.301H93.1495C93.1495 104.679 93.1495 105.933 93.1495 107.064C93.1848 108.195 93.2202 109.378 93.2555 110.615C93.2908 111.816 93.3262 113.265 93.3615 114.961C93.4322 115.42 93.2908 115.827 92.9375 116.18C92.6195 116.533 92.2132 116.71 91.7185 116.71C91.1532 116.781 90.7292 116.622 90.4465 116.233C90.1992 115.88 90.0402 115.509 89.9695 115.12C89.9342 114.413 89.8988 113.283 89.8635 111.728C89.8635 110.173 89.8458 108.389 89.8105 106.375C89.8105 104.326 89.8105 102.276 89.8105 100.227C89.8105 98.4249 89.8105 96.7113 89.8105 95.0859C89.8458 93.4253 89.8635 91.9766 89.8635 90.7399C89.8988 89.5033 89.9342 88.6199 89.9695 88.0899C90.0755 87.0299 90.6055 86.4999 91.5595 86.4999C92.2662 86.4999 92.7432 86.6943 92.9905 87.0829C93.2732 87.4363 93.3792 87.8426 93.3085 88.3019C93.3085 88.6199 93.2908 89.2913 93.2555 90.3159C93.2555 91.3053 93.2378 92.4359 93.2025 93.7079C93.1672 94.9799 93.1318 96.1813 93.0965 97.3119C93.0965 98.4426 93.0965 99.3083 93.0965 99.9089H115.886C115.886 99.3083 115.869 98.4249 115.833 97.2589C115.833 96.0929 115.816 94.8916 115.78 93.6549C115.745 92.3829 115.71 91.2523 115.674 90.2629C115.674 89.2383 115.674 88.5846 115.674 88.3019C115.639 87.7013 115.816 87.2596 116.204 86.9769C116.593 86.6589 117 86.4999 117.424 86.4999C117.848 86.4999 118.218 86.6413 118.536 86.9239C118.854 87.2066 119.013 87.5953 119.013 88.0899C119.119 88.8319 119.19 89.9096 119.226 91.3229C119.296 92.7363 119.331 94.3439 119.331 96.1459C119.367 97.9126 119.384 99.7323 119.384 101.605C119.384 103.478 119.367 105.315 119.331 107.117C119.331 108.884 119.296 110.474 119.226 111.887C119.19 113.265 119.119 114.343 119.013 115.12C119.013 115.544 118.854 115.915 118.536 116.233C118.218 116.586 117.83 116.763 117.37 116.763Z" fill="white"/>
<path d="M157.385 117.823C154.1 117.823 151.238 117.134 148.799 115.756C146.397 114.378 144.524 112.452 143.182 109.979C141.874 107.47 141.22 104.52 141.22 101.128C141.22 97.7359 141.856 94.7856 143.128 92.2769C144.4 89.7683 146.238 87.8249 148.641 86.4469C151.043 85.0689 153.958 84.3799 157.385 84.3799C160.919 84.3799 163.887 85.0689 166.289 86.4469C168.692 87.8249 170.512 89.7683 171.749 92.2769C172.985 94.7503 173.604 97.7006 173.604 101.128C173.604 106.569 172.208 110.703 169.417 113.53C166.661 116.392 162.65 117.823 157.385 117.823ZM157.385 114.484C161.802 114.484 165.053 113.371 167.137 111.145C169.222 108.919 170.264 105.58 170.264 101.128C170.264 96.9233 169.187 93.6373 167.031 91.2699C164.876 88.9026 161.661 87.7189 157.385 87.7189C153.11 87.7189 149.895 88.9379 147.74 91.3759C145.584 93.7786 144.507 97.0293 144.507 101.128C144.507 105.227 145.619 108.477 147.845 110.88C150.107 113.283 153.287 114.484 157.385 114.484Z" fill="white"/>
<path d="M209.007 116.922C208.053 116.957 206.958 116.957 205.721 116.922C204.52 116.887 203.354 116.798 202.223 116.657C201.093 116.551 200.174 116.427 199.467 116.286C199.15 116.145 198.849 115.95 198.566 115.703C198.284 115.456 198.107 115.173 198.036 114.855C197.86 114.325 197.701 113.3 197.559 111.781C197.453 110.226 197.348 108.389 197.242 106.269C197.171 104.149 197.1 101.941 197.029 99.6439C196.994 97.3119 196.977 95.1213 196.977 93.0719C196.977 91.2699 196.994 89.6799 197.029 88.3019C197.065 86.8886 197.118 85.8463 197.188 85.1749C197.436 84.3623 197.913 83.8499 198.619 83.6379C200.598 83.3553 202.471 83.1433 204.238 83.0019C206.04 82.8253 207.788 82.7369 209.484 82.7369C211.887 82.7369 214.148 82.9489 216.268 83.3729C218.424 83.7616 220.314 84.3976 221.939 85.2809C223.6 86.1289 224.908 87.2419 225.861 88.6199C226.815 89.9626 227.292 91.5703 227.292 93.4429C227.292 95.5983 226.55 97.3649 225.066 98.7429C223.618 100.086 221.78 101.128 219.554 101.87C220.968 102.4 222.116 103.336 222.999 104.679C223.918 106.022 224.378 107.523 224.378 109.184C224.378 110.703 223.9 111.958 222.947 112.947C222.028 113.936 220.809 114.696 219.289 115.226C217.805 115.791 216.162 116.198 214.36 116.445C212.558 116.692 210.774 116.851 209.007 116.922ZM207.682 113.53C209.908 113.53 212.028 113.389 214.042 113.106C216.092 112.823 217.77 112.364 219.077 111.728C220.385 111.057 221.038 110.191 221.038 109.131C221.038 107.682 220.526 106.569 219.501 105.792C218.512 104.979 217.205 104.379 215.579 103.99C213.99 103.601 212.311 103.336 210.544 103.195C210.085 103.124 209.696 102.93 209.378 102.612C209.096 102.259 208.972 101.852 209.007 101.393C209.007 100.792 209.219 100.368 209.643 100.121C210.067 99.8383 210.615 99.6969 211.286 99.6969C212.77 99.7676 214.272 99.6793 215.792 99.4319C217.311 99.1493 218.689 98.7253 219.925 98.1599C221.197 97.5593 222.187 96.8349 222.893 95.9869C223.635 95.1036 223.954 94.0966 223.848 92.9659C223.706 91.3053 222.911 89.9803 221.462 88.9909C220.014 87.9663 218.212 87.2243 216.057 86.7649C213.901 86.3056 211.658 86.0759 209.326 86.0759C207.842 86.1113 206.357 86.1819 204.873 86.2879C203.389 86.3939 201.923 86.5529 200.475 86.7649C200.404 87.3303 200.351 88.0899 200.315 89.0439C200.28 89.9979 200.262 91.0756 200.262 92.2769C200.262 93.9729 200.28 95.8279 200.315 97.8419C200.386 99.8206 200.474 101.799 200.58 103.778C200.686 105.757 200.792 107.576 200.898 109.237C201.005 110.862 201.11 112.17 201.216 113.159C202.241 113.3 203.301 113.389 204.396 113.424C205.492 113.495 206.587 113.53 207.682 113.53Z" fill="white"/>
<path d="M263.385 117.823C260.099 117.823 257.237 117.134 254.799 115.756C252.397 114.378 250.524 112.452 249.182 109.979C247.874 107.47 247.22 104.52 247.22 101.128C247.22 97.7359 247.856 94.7856 249.128 92.2769C250.4 89.7683 252.238 87.8249 254.64 86.4469C257.043 85.0689 259.958 84.3799 263.385 84.3799C266.919 84.3799 269.887 85.0689 272.289 86.4469C274.692 87.8249 276.512 89.7683 277.748 92.2769C278.985 94.7503 279.603 97.7006 279.603 101.128C279.603 106.569 278.208 110.703 275.416 113.53C272.66 116.392 268.65 117.823 263.385 117.823ZM263.385 114.484C267.802 114.484 271.053 113.371 273.137 111.145C275.222 108.919 276.264 105.58 276.264 101.128C276.264 96.9233 275.187 93.6373 273.031 91.2699C270.876 88.9026 267.661 87.7189 263.385 87.7189C259.11 87.7189 255.895 88.9379 253.739 91.3759C251.584 93.7786 250.506 97.0293 250.506 101.128C250.506 105.227 251.62 108.477 253.846 110.88C256.107 113.283 259.287 114.484 263.385 114.484Z" fill="white"/>
<path d="M330.854 116.657C330.749 116.657 330.589 116.622 330.377 116.551C329.918 116.374 329.565 116.109 329.317 115.756C329.105 115.403 329.052 114.996 329.158 114.537C329.618 113.018 329.953 111.357 330.165 109.555C330.377 107.718 330.483 105.88 330.483 104.043C330.483 102.983 330.448 101.958 330.377 100.969C330.307 99.9443 330.201 98.9726 330.059 98.0539C329.883 96.7819 329.565 95.6159 329.105 94.5559C328.646 93.4606 328.028 92.5949 327.25 91.9589C326.473 91.2876 325.484 90.9519 324.282 90.9519C323.046 90.9519 322.003 91.3583 321.155 92.1709C320.307 92.9836 319.618 94.0613 319.088 95.4039C318.594 96.7466 318.187 98.2483 317.869 99.9089C317.763 100.686 317.251 101.163 316.332 101.34C315.414 101.34 314.848 100.881 314.636 99.9619C314.318 98.4073 313.859 96.9586 313.258 95.6159C312.658 94.2379 311.933 93.1249 311.085 92.2769C310.237 91.3936 309.213 90.9519 308.011 90.9519C306.916 90.9519 305.98 91.3406 305.202 92.1179C304.425 92.8953 303.807 93.9199 303.347 95.1919C302.923 96.4639 302.605 97.8419 302.393 99.3259C302.181 100.81 302.075 102.259 302.075 103.672C302.075 105.474 302.181 107.311 302.393 109.184C302.605 111.057 302.888 112.876 303.241 114.643C303.312 115.244 303.206 115.703 302.923 116.021C302.676 116.339 302.34 116.533 301.916 116.604C301.422 116.745 300.998 116.639 300.644 116.286C300.291 115.968 300.079 115.632 300.008 115.279C299.655 113.477 299.355 111.622 299.107 109.714C298.895 107.771 298.789 105.845 298.789 103.937C298.789 101.888 298.948 99.9089 299.266 98.0009C299.584 96.0576 300.097 94.3086 300.803 92.7539C301.545 91.1993 302.517 89.9626 303.718 89.0439C304.955 88.1253 306.474 87.6659 308.276 87.6659C309.513 87.6659 310.661 87.9663 311.721 88.5669C312.781 89.1676 313.682 89.9449 314.424 90.8989C315.202 91.8176 315.767 92.8246 316.12 93.9199C317.039 91.9059 318.152 90.3689 319.459 89.3089C320.802 88.2136 322.445 87.6659 324.388 87.6659C326.19 87.6659 327.692 88.1076 328.893 88.9909C330.095 89.8389 331.049 91.0226 331.755 92.5419C332.462 94.0259 332.974 95.7219 333.292 97.6299C333.469 98.6546 333.593 99.7499 333.663 100.916C333.769 102.082 333.822 103.266 333.822 104.467C333.822 106.41 333.699 108.336 333.451 110.244C333.239 112.152 332.886 113.883 332.391 115.438C332.285 115.827 332.073 116.127 331.755 116.339C331.473 116.551 331.172 116.657 330.854 116.657Z" fill="white"/>
<path d="M358.626 119.731C358.273 119.413 358.096 119.024 358.096 118.565C358.096 118.106 358.255 117.699 358.573 117.346C359.386 116.498 360.34 115.403 361.435 114.06C362.531 112.753 363.626 111.428 364.721 110.085C365.852 108.707 366.806 107.523 367.583 106.534C367.159 106.075 366.506 105.297 365.622 104.202C364.739 103.107 363.75 101.87 362.654 100.492C361.559 99.0786 360.481 97.6829 359.421 96.3049C358.397 94.9269 357.496 93.7256 356.718 92.7009C355.976 91.6409 355.517 90.9166 355.34 90.5279C355.199 90.2806 355.128 90.0156 355.128 89.7329C355.128 89.1323 355.411 88.6376 355.976 88.2489C356.224 88.1076 356.489 88.0369 356.771 88.0369C357.337 88.0369 357.831 88.3019 358.255 88.8319C358.538 89.3266 359.015 90.0686 359.686 91.0579C360.393 92.0473 361.206 93.1603 362.124 94.3969C363.078 95.5983 364.032 96.8173 364.986 98.0539C365.976 99.2906 366.895 100.421 367.742 101.446C368.59 102.471 369.244 103.248 369.703 103.778C370.905 102.153 371.947 100.739 372.83 99.5379C373.714 98.3366 374.509 97.2236 375.215 96.1989C375.922 95.1389 376.611 94.0436 377.282 92.9129C377.954 91.7469 378.678 90.4219 379.455 88.9379C379.632 88.5846 379.862 88.3373 380.144 88.1959C380.427 88.0546 380.71 87.9839 380.992 87.9839C381.275 87.9839 381.522 88.0369 381.734 88.1429C382.37 88.4963 382.688 88.9909 382.688 89.6269C382.688 89.8743 382.635 90.1393 382.529 90.4219C381.787 91.9059 380.763 93.6549 379.455 95.6689C378.183 97.6829 376.735 99.8206 375.109 102.082C373.519 104.308 371.876 106.516 370.18 108.707C368.484 110.898 366.841 112.947 365.251 114.855C363.661 116.763 362.248 118.371 361.011 119.678C360.623 120.031 360.199 120.208 359.739 120.208C359.315 120.208 358.944 120.049 358.626 119.731Z" fill="white"/>
<path d="M431.746 117.187C431.145 117.187 430.686 117.028 430.368 116.71C430.085 116.427 429.944 116.092 429.944 115.703C429.944 114.996 430.368 114.466 431.216 114.113C432.806 113.548 434.466 112.894 436.198 112.152C437.929 111.41 439.643 110.615 441.339 109.767C443.035 108.919 444.607 108.106 446.056 107.329C447.716 106.446 449.377 105.421 451.038 104.255C452.734 103.054 454.271 101.764 455.649 100.386C457.027 98.9726 458.14 97.4709 458.988 95.8809C459.836 94.2909 460.26 92.6303 460.26 90.8989C460.26 89.2029 459.871 87.6659 459.094 86.2879C458.316 84.8746 457.274 83.6733 455.967 82.6839C454.659 81.6593 453.175 80.8819 451.515 80.3519C449.889 79.7866 448.211 79.5039 446.48 79.5039C444.642 79.5039 442.805 79.8043 440.968 80.4049C439.13 80.9703 437.47 81.8006 435.986 82.8959C434.537 83.9913 433.442 85.3163 432.7 86.8709C432.452 87.4716 432.028 87.7719 431.428 87.7719C431.18 87.7719 430.898 87.7189 430.58 87.6129C430.226 87.4363 429.979 87.2419 429.838 87.0299C429.732 86.7826 429.679 86.5353 429.679 86.2879C429.679 86.0053 429.732 85.7403 429.838 85.4929C430.827 83.5143 432.205 81.8536 433.972 80.5109C435.774 79.1683 437.788 78.1436 440.014 77.4369C442.24 76.7303 444.483 76.3769 446.745 76.3769C449.041 76.3769 451.197 76.7479 453.211 77.4899C455.225 78.2319 456.991 79.2743 458.511 80.6169C460.065 81.9596 461.267 83.5319 462.115 85.3339C462.998 87.1359 463.44 89.0969 463.44 91.2169C463.44 93.5843 462.857 95.7573 461.691 97.7359C460.525 99.7146 458.952 101.57 456.974 103.301C455.03 105.032 452.822 106.746 450.349 108.442C447.663 110.279 444.236 112.134 440.067 114.007H461.585C462.15 114.007 462.556 114.184 462.804 114.537C463.051 114.89 463.175 115.244 463.175 115.597C463.175 115.95 463.033 116.304 462.751 116.657C462.468 117.01 462.079 117.187 461.585 117.187H431.746Z" fill="white"/>
<path d="M486.802 118.247C482.668 118.247 479.17 117.311 476.308 115.438C473.481 113.565 471.326 111.004 469.842 107.753C468.393 104.502 467.669 100.81 467.669 96.6759C467.669 92.3653 468.376 88.5846 469.789 85.3339C471.202 82.0833 473.322 79.5569 476.149 77.7549C478.976 75.9529 482.527 75.0519 486.802 75.0519C491.113 75.0519 494.681 75.9706 497.508 77.8079C500.335 79.6099 502.437 82.1363 503.815 85.3869C505.228 88.6376 505.935 92.4006 505.935 96.6759C505.935 100.881 505.158 104.608 503.603 107.859C502.084 111.11 499.893 113.654 497.031 115.491C494.204 117.328 490.795 118.247 486.802 118.247ZM486.802 115.067C490.265 115.067 493.18 114.29 495.547 112.735C497.914 111.145 499.699 108.972 500.9 106.216C502.137 103.425 502.755 100.245 502.755 96.6759C502.755 92.9659 502.19 89.7329 501.059 86.9769C499.928 84.1856 498.179 82.0303 495.812 80.5109C493.48 78.9916 490.477 78.2319 486.802 78.2319C483.198 78.2319 480.212 78.9916 477.845 80.5109C475.513 81.9949 473.764 84.1149 472.598 86.8709C471.432 89.6269 470.849 92.8953 470.849 96.6759C470.849 100.315 471.45 103.513 472.651 106.269C473.852 109.025 475.637 111.18 478.004 112.735C480.371 114.29 483.304 115.067 486.802 115.067Z" fill="white"/>
<path d="M512.229 117.187C511.629 117.187 511.169 117.028 510.851 116.71C510.569 116.427 510.427 116.092 510.427 115.703C510.427 114.996 510.851 114.466 511.699 114.113C513.289 113.548 514.95 112.894 516.681 112.152C518.412 111.41 520.126 110.615 521.822 109.767C523.518 108.919 525.091 108.106 526.539 107.329C528.2 106.446 529.861 105.421 531.521 104.255C533.217 103.054 534.754 101.764 536.132 100.386C537.51 98.9726 538.623 97.4709 539.471 95.8809C540.319 94.2909 540.743 92.6303 540.743 90.8989C540.743 89.2029 540.354 87.6659 539.577 86.2879C538.8 84.8746 537.758 83.6733 536.45 82.6839C535.143 81.6593 533.659 80.8819 531.998 80.3519C530.373 79.7866 528.695 79.5039 526.963 79.5039C525.126 79.5039 523.289 79.8043 521.451 80.4049C519.614 80.9703 517.953 81.8006 516.469 82.8959C515.021 83.9913 513.925 85.3163 513.183 86.8709C512.936 87.4716 512.512 87.7719 511.911 87.7719C511.664 87.7719 511.381 87.7189 511.063 87.6129C510.71 87.4363 510.462 87.2419 510.321 87.0299C510.215 86.7826 510.162 86.5353 510.162 86.2879C510.162 86.0053 510.215 85.7403 510.321 85.4929C511.31 83.5143 512.689 81.8536 514.455 80.5109C516.257 79.1683 518.271 78.1436 520.497 77.4369C522.723 76.7303 524.967 76.3769 527.228 76.3769C529.525 76.3769 531.68 76.7479 533.694 77.4899C535.708 78.2319 537.475 79.2743 538.994 80.6169C540.549 81.9596 541.75 83.5319 542.598 85.3339C543.482 87.1359 543.923 89.0969 543.923 91.2169C543.923 93.5843 543.34 95.7573 542.174 97.7359C541.008 99.7146 539.436 101.57 537.457 103.301C535.514 105.032 533.305 106.746 530.832 108.442C528.147 110.279 524.719 112.134 520.55 114.007H542.068C542.633 114.007 543.04 114.184 543.287 114.537C543.534 114.89 543.658 115.244 543.658 115.597C543.658 115.95 543.517 116.304 543.234 116.657C542.952 117.01 542.563 117.187 542.068 117.187H512.229Z" fill="white"/>
<path d="M550.219 117.187C549.619 117.187 549.159 117.028 548.841 116.71C548.559 116.427 548.417 116.092 548.417 115.703C548.417 114.996 548.841 114.466 549.689 114.113C551.279 113.548 552.94 112.894 554.671 112.152C556.403 111.41 558.116 110.615 559.812 109.767C561.508 108.919 563.081 108.106 564.529 107.329C566.19 106.446 567.851 105.421 569.511 104.255C571.207 103.054 572.744 101.764 574.122 100.386C575.5 98.9726 576.613 97.4709 577.461 95.8809C578.309 94.2909 578.733 92.6303 578.733 90.8989C578.733 89.2029 578.345 87.6659 577.567 86.2879C576.79 84.8746 575.748 83.6733 574.44 82.6839C573.133 81.6593 571.649 80.8819 569.988 80.3519C568.363 79.7866 566.685 79.5039 564.953 79.5039C563.116 79.5039 561.279 79.8043 559.441 80.4049C557.604 80.9703 555.943 81.8006 554.459 82.8959C553.011 83.9913 551.915 85.3163 551.173 86.8709C550.926 87.4716 550.502 87.7719 549.901 87.7719C549.654 87.7719 549.371 87.7189 549.053 87.6129C548.7 87.4363 548.453 87.2419 548.311 87.0299C548.205 86.7826 548.152 86.5353 548.152 86.2879C548.152 86.0053 548.205 85.7403 548.311 85.4929C549.301 83.5143 550.679 81.8536 552.445 80.5109C554.247 79.1683 556.261 78.1436 558.487 77.4369C560.713 76.7303 562.957 76.3769 565.218 76.3769C567.515 76.3769 569.67 76.7479 571.684 77.4899C573.698 78.2319 575.465 79.2743 576.984 80.6169C578.539 81.9596 579.74 83.5319 580.588 85.3339C581.472 87.1359 581.913 89.0969 581.913 91.2169C581.913 93.5843 581.33 95.7573 580.164 97.7359C578.998 99.7146 577.426 101.57 575.447 103.301C573.504 105.032 571.296 106.746 568.822 108.442C566.137 110.279 562.71 112.134 558.54 114.007H580.058C580.624 114.007 581.03 114.184 581.277 114.537C581.525 114.89 581.648 115.244 581.648 115.597C581.648 115.95 581.507 116.304 581.224 116.657C580.942 117.01 580.553 117.187 580.058 117.187H550.219Z" fill="white"/>
<path d="M630.96 117.134C630.501 117.134 630.094 116.993 629.741 116.71C629.423 116.427 629.229 116.056 629.158 115.597C629.052 114.749 628.964 113.636 628.893 112.258C628.822 110.845 628.769 109.29 628.734 107.594C628.699 105.898 628.681 104.184 628.681 102.453C628.681 99.9443 628.716 97.5593 628.787 95.2979C628.893 93.0013 629.017 91.2699 629.158 90.1039C629.229 89.6093 629.405 89.2559 629.688 89.0439C630.006 88.8319 630.324 88.7083 630.642 88.6729C631.702 88.4963 632.974 88.3903 634.458 88.3549C635.977 88.2843 637.603 88.2489 639.334 88.2489C641.701 88.2489 644.228 88.3019 646.913 88.4079C649.634 88.4786 652.372 88.5669 655.128 88.6729C655.623 88.7083 656.029 88.9026 656.347 89.2559C656.665 89.6093 656.771 90.0333 656.665 90.5279C656.63 90.9873 656.435 91.3759 656.082 91.6939C655.729 91.9766 655.305 92.1003 654.81 92.0649C653.609 91.9943 652.195 91.9413 650.57 91.9059C648.945 91.8353 647.249 91.7823 645.482 91.7469C643.715 91.7116 641.984 91.6939 640.288 91.6939C638.663 91.6939 637.161 91.7116 635.783 91.7469C634.405 91.7823 633.257 91.8353 632.338 91.9059C632.267 92.6479 632.197 93.8316 632.126 95.4569C632.091 97.0823 632.073 98.8843 632.073 100.863C632.073 102.736 632.091 104.644 632.126 106.587C632.161 108.495 632.214 110.226 632.285 111.781C632.356 113.3 632.426 114.449 632.497 115.226C632.603 115.721 632.479 116.162 632.126 116.551C631.808 116.94 631.419 117.134 630.96 117.134Z" fill="white"/>
<path d="M695.408 117.823C692.122 117.823 689.26 117.134 686.822 115.756C684.419 114.378 682.547 112.452 681.204 109.979C679.897 107.47 679.243 104.52 679.243 101.128C679.243 97.7359 679.879 94.7856 681.151 92.2769C682.423 89.7683 684.26 87.8249 686.663 86.4469C689.066 85.0689 691.981 84.3799 695.408 84.3799C698.941 84.3799 701.909 85.0689 704.312 86.4469C706.715 87.8249 708.534 89.7683 709.771 92.2769C711.008 94.7503 711.626 97.7006 711.626 101.128C711.626 106.569 710.23 110.703 707.439 113.53C704.683 116.392 700.673 117.823 695.408 117.823ZM695.408 114.484C699.825 114.484 703.075 113.371 705.16 111.145C707.245 108.919 708.287 105.58 708.287 101.128C708.287 96.9233 707.209 93.6373 705.054 91.2699C702.899 88.9026 699.683 87.7189 695.408 87.7189C691.133 87.7189 687.917 88.9379 685.762 91.3759C683.607 93.7786 682.529 97.0293 682.529 101.128C682.529 105.227 683.642 108.477 685.868 110.88C688.129 113.283 691.309 114.484 695.408 114.484Z" fill="white"/>
<path d="M733.886 118.671C733.427 118.671 733.056 118.494 732.773 118.141C732.49 117.788 732.349 117.364 732.349 116.869C732.561 115.173 732.808 113.283 733.091 111.198C733.374 109.113 733.692 106.976 734.045 104.785C734.398 102.559 734.752 100.421 735.105 98.3719C735.494 96.2873 735.865 94.4323 736.218 92.8069C736.571 91.1463 736.889 89.8389 737.172 88.8849C737.313 88.4609 737.525 88.1606 737.808 87.9839C738.091 87.8073 738.391 87.7189 738.709 87.7189C739.133 87.7189 739.522 87.8426 739.875 88.0899C740.052 88.0193 740.193 87.9486 740.299 87.8779C740.405 87.8073 740.546 87.7543 740.723 87.7189C742.03 87.5069 743.55 87.3479 745.281 87.2419C747.048 87.1006 748.761 87.0299 750.422 87.0299C752.966 87.0299 755.068 87.2066 756.729 87.5599C758.425 87.9133 759.679 88.6199 760.492 89.6799C761.34 90.7046 761.764 92.2239 761.764 94.2379C761.764 94.4853 761.764 94.7326 761.764 94.9799C761.764 95.2273 761.746 95.4923 761.711 95.7749C761.57 97.1176 761.446 98.5663 761.34 100.121C761.269 101.64 761.234 103.16 761.234 104.679C761.234 106.87 761.375 108.884 761.658 110.721C761.941 112.558 762.435 113.83 763.142 114.537C763.495 114.89 763.831 115.12 764.149 115.226C764.502 115.332 764.926 115.367 765.421 115.332C765.916 115.261 766.322 115.367 766.64 115.65C766.993 115.968 767.17 116.392 767.17 116.922C767.276 118.088 766.622 118.671 765.209 118.671C763.336 118.671 761.87 118.123 760.81 117.028C759.75 115.933 759.008 114.519 758.584 112.788C758.478 113.035 758.266 113.265 757.948 113.477C757.63 113.689 757.312 113.795 756.994 113.795H736.059C736.024 114.007 735.971 114.36 735.9 114.855C735.865 115.35 735.829 115.809 735.794 116.233C735.759 116.692 735.741 116.993 735.741 117.134C735.494 118.159 734.875 118.671 733.886 118.671ZM758.213 110.986C758.072 110.456 757.966 109.873 757.895 109.237C757.86 108.566 757.842 107.841 757.842 107.064C757.842 105.651 757.895 104.096 758.001 102.4C758.142 100.669 758.248 98.8489 758.319 96.9409C758.354 96.6229 758.372 96.3226 758.372 96.0399C758.372 95.7573 758.372 95.4923 758.372 95.2449C758.372 93.6903 758.142 92.5773 757.683 91.9059C757.259 91.1993 756.482 90.7753 755.351 90.6339C754.22 90.4573 752.648 90.3689 750.634 90.3689C749.185 90.3689 747.648 90.4396 746.023 90.5809C744.433 90.7223 742.843 90.8813 741.253 91.0579C740.9 91.0579 740.652 91.0403 740.511 91.0049C740.405 90.9696 740.281 90.9166 740.14 90.8459C739.469 93.2486 738.939 95.5276 738.55 97.6829C738.161 99.8383 737.826 101.958 737.543 104.043C737.26 106.128 736.925 108.265 736.536 110.456H756.994C757.453 110.456 757.86 110.633 758.213 110.986Z" fill="white"/>
<path d="M790.649 119.731C790.296 119.413 790.119 119.024 790.119 118.565C790.119 118.106 790.278 117.699 790.596 117.346C791.409 116.498 792.363 115.403 793.458 114.06C794.553 112.753 795.649 111.428 796.744 110.085C797.875 108.707 798.829 107.523 799.606 106.534C799.182 106.075 798.528 105.297 797.645 104.202C796.762 103.107 795.772 101.87 794.677 100.492C793.582 99.0786 792.504 97.6829 791.444 96.3049C790.419 94.9269 789.518 93.7256 788.741 92.7009C787.999 91.6409 787.54 90.9166 787.363 90.5279C787.222 90.2806 787.151 90.0156 787.151 89.7329C787.151 89.1323 787.434 88.6376 787.999 88.2489C788.246 88.1076 788.511 88.0369 788.794 88.0369C789.359 88.0369 789.854 88.3019 790.278 88.8319C790.561 89.3266 791.038 90.0686 791.709 91.0579C792.416 92.0473 793.228 93.1603 794.147 94.3969C795.101 95.5983 796.055 96.8173 797.009 98.0539C797.998 99.2906 798.917 100.421 799.765 101.446C800.613 102.471 801.267 103.248 801.726 103.778C802.927 102.153 803.97 100.739 804.853 99.5379C805.736 98.3366 806.531 97.2236 807.238 96.1989C807.945 95.1389 808.634 94.0436 809.305 92.9129C809.976 91.7469 810.701 90.4219 811.478 88.9379C811.655 88.5846 811.884 88.3373 812.167 88.1959C812.45 88.0546 812.732 87.9839 813.015 87.9839C813.298 87.9839 813.545 88.0369 813.757 88.1429C814.393 88.4963 814.711 88.9909 814.711 89.6269C814.711 89.8743 814.658 90.1393 814.552 90.4219C813.81 91.9059 812.785 93.6549 811.478 95.6689C810.206 97.6829 808.757 99.8206 807.132 102.082C805.542 104.308 803.899 106.516 802.203 108.707C800.507 110.898 798.864 112.947 797.274 114.855C795.684 116.763 794.271 118.371 793.034 119.678C792.645 120.031 792.221 120.208 791.762 120.208C791.338 120.208 790.967 120.049 790.649 119.731Z" fill="white"/>
</svg>
