<svg width="24" height="24" viewBox="0 0 24 24" fill="none" xmlns="http://www.w3.org/2000/svg">
<path fill-rule="evenodd" clip-rule="evenodd" d="M18.9979 18V3.04998C20.1391 3.28156 20.998 4.29047 20.998 5.5V15C20.998 15.8284 21.6696 16.5 22.498 16.5C23.3265 16.5 23.998 15.8284 23.998 15V5.5C23.998 2.46243 21.5356 0 18.498 0H4.71974C2.24798 0 0.36781 2.21947 0.774164 4.6576L1.91626 11.5102C1.97059 11.8362 1.9979 12.1661 1.9979 12.4966V18C1.9979 21.3137 4.68419 24 7.9979 24H12.9979C16.3116 24 18.9979 21.3137 18.9979 18ZM6.99805 3H4.71974C4.1018 3 3.63176 3.55487 3.73335 4.1644L4.87544 11.017C4.95694 11.506 4.9979 12.0008 4.9979 12.4966V18C4.9979 19.6569 6.34104 21 7.9979 21H12.9979C14.6548 21 15.9979 19.6569 15.9979 18V3H9.99805V14.5C9.99805 15.3284 9.32647 16 8.49805 16C7.66962 16 6.99805 15.3284 6.99805 14.5V3Z" fill="#324C9A"/>
</svg>
