<svg width="24" height="24" viewBox="0 0 24 24" fill="none" xmlns="http://www.w3.org/2000/svg">
<path fill-rule="evenodd" clip-rule="evenodd" d="M15 3H9C6.79086 3 5 4.79086 5 7V17C5 19.2091 6.79086 21 9 21H15C17.2091 21 19 19.2091 19 17V7C19 4.79086 17.2091 3 15 3ZM9 0C5.13401 0 2 3.13401 2 7V17C2 20.866 5.13401 24 9 24H15C18.866 24 22 20.866 22 17V7C22 3.13401 18.866 0 15 0H9Z" fill="#324C9A"/>
<path d="M7 7C7 5.89543 7.89543 5 9 5C10.1046 5 11 5.89543 11 7V9C11 10.1046 10.1046 11 9 11C7.89543 11 7 10.1046 7 9V7Z" fill="#324C9A"/>
</svg>
