<svg width="24" height="24" viewBox="0 0 24 24" fill="none" xmlns="http://www.w3.org/2000/svg">
<path fill-rule="evenodd" clip-rule="evenodd" d="M8.00142 8.00154C5.39499 10.608 4.01503 13.0116 3.28084 14.8389C2.56493 16.6208 3.29558 18.703 5.04514 20.4526L5.85343 21.2609C6.43921 21.8467 6.43921 22.7964 5.85343 23.3822C5.26764 23.968 4.31789 23.968 3.73211 23.3822L2.92382 22.5739C0.750576 20.4007 -0.855215 17.0863 0.497122 13.7205C1.38185 11.5184 2.98681 8.77351 5.8801 5.88022C8.77339 2.98694 11.5183 1.38197 13.7203 0.497244C17.0862 -0.855093 20.4005 0.750696 22.5738 2.92394L23.3821 3.73223C23.9679 4.31801 23.9679 5.26776 23.3821 5.85355C22.7963 6.43933 21.8465 6.43933 21.2608 5.85355L20.4525 5.04526C18.7029 3.29571 16.6206 2.56505 14.8388 3.28096C13.0114 4.01515 10.6079 5.39511 8.00142 8.00154Z" fill="#324C9A"/>
<path fill-rule="evenodd" clip-rule="evenodd" d="M4.51066 15.8202C5.09644 15.2344 6.04619 15.2344 6.63198 15.8202L8.96204 18.1503C9.54783 18.7361 9.54783 19.6858 8.96204 20.2716C8.37625 20.8574 7.42651 20.8574 6.84072 20.2716L4.51066 17.9415C3.92487 17.3557 3.92487 16.406 4.51066 15.8202Z" fill="#324C9A"/>
<path fill-rule="evenodd" clip-rule="evenodd" d="M15.8962 4.43468C16.482 3.8489 17.4317 3.8489 18.0175 4.43468L20.3476 6.76475C20.9334 7.35053 20.9334 8.30028 20.3476 8.88607C19.7618 9.47185 18.812 9.47185 18.2262 8.88607L15.8962 6.556C15.3104 5.97022 15.3104 5.02047 15.8962 4.43468Z" fill="#324C9A"/>
<path fill-rule="evenodd" clip-rule="evenodd" d="M6.34437 12.0302C6.93016 11.4444 7.87991 11.4444 8.46569 12.0302L11.7738 15.3383C12.3596 15.9241 12.3596 16.8739 11.7738 17.4597C11.188 18.0454 10.2383 18.0454 9.65249 17.4597L6.34437 14.1515C5.75859 13.5657 5.75859 12.616 6.34437 12.0302Z" fill="#324C9A"/>
<path fill-rule="evenodd" clip-rule="evenodd" d="M8.70272 8.70408C9.2885 8.11829 10.2383 8.11829 10.824 8.70408L14.6162 12.4962C15.202 13.082 15.202 14.0318 14.6162 14.6175C14.0304 15.2033 13.0806 15.2033 12.4949 14.6175L8.70272 10.8254C8.11693 10.2396 8.11693 9.28987 8.70272 8.70408Z" fill="#324C9A"/>
<path fill-rule="evenodd" clip-rule="evenodd" d="M12.0675 6.30707C12.6533 5.72128 13.6031 5.72128 14.1888 6.30707L17.497 9.61519C18.0827 10.201 18.0827 11.1507 17.497 11.7365C16.9112 12.3223 15.9614 12.3223 15.3756 11.7365L12.0675 8.42839C11.4817 7.8426 11.4817 6.89285 12.0675 6.30707Z" fill="#324C9A"/>
</svg>
