<svg width="24" height="24" viewBox="0 0 24 24" fill="none" xmlns="http://www.w3.org/2000/svg">
<path fill-rule="evenodd" clip-rule="evenodd" d="M18.0705 4.28707C16.0735 2.2901 12.8358 2.2901 10.8388 4.28707L4.92198 10.2039C4.37735 10.7485 3.49433 10.7485 2.9497 10.2039C2.40508 9.65926 2.40508 8.77624 2.9497 8.23161L8.86652 2.31479C11.9528 -0.771435 16.9565 -0.771435 20.0427 2.31479C23.129 5.40102 23.129 10.4048 20.0427 13.491L11.1675 22.3662C8.989 24.5448 5.45693 24.5448 3.27842 22.3662C1.0999 20.1877 1.0999 16.6557 3.27842 14.4771L12.1536 5.60191C13.4244 4.33112 15.4848 4.33111 16.7556 5.60191C18.0264 6.87271 18.0264 8.93309 16.7556 10.2039L11.4962 15.4633C10.9516 16.0079 10.0686 16.0079 9.52395 15.4633C8.97932 14.9187 8.97932 14.0356 9.52395 13.491L14.7833 8.23161C14.9649 8.05007 14.9649 7.75573 14.7833 7.57419C14.6018 7.39265 14.3075 7.39264 14.1259 7.57419L5.25069 16.4494C4.16143 17.5387 4.16143 19.3047 5.25069 20.394C6.33995 21.4832 8.10598 21.4832 9.19524 20.394L18.0705 11.5187C20.0674 9.52176 20.0674 6.28404 18.0705 4.28707Z" fill="#324C9A"/>
</svg>
