<svg width="24" height="22" viewBox="0 0 24 22" fill="none" xmlns="http://www.w3.org/2000/svg">
<path fill-rule="evenodd" clip-rule="evenodd" d="M10.418 4.54932C10.418 3.69365 11.1116 3 11.9673 3C12.4449 3 12.871 3.21429 13.1576 3.55745C13.6886 4.19333 14.6345 4.27835 15.2704 3.74735C15.9063 3.21636 15.9913 2.27042 15.4603 1.63455C14.6281 0.638041 13.3715 0 11.9673 0C9.45477 0 7.41797 2.0368 7.41797 4.54932C7.41797 6.53692 8.69262 8.22682 10.4691 8.84617V9.81998L0.522221 18.3711C0.0465265 18.78 -0.12445 19.4418 0.0936241 20.03C0.311698 20.6182 0.872758 21.0086 1.50007 21.0086H22.4363C23.0636 21.0086 23.6246 20.6182 23.8427 20.0301C24.0608 19.4419 23.8899 18.7802 23.4143 18.3712L13.4691 9.82006V7.74438C13.4691 7.71363 13.4682 7.68308 13.4663 7.65278C13.467 7.63481 13.4673 7.61676 13.4673 7.59863C13.4673 6.77021 12.7957 6.09863 11.9673 6.09863C11.1116 6.09863 10.418 5.40498 10.418 4.54932ZM5.54587 18.0086L11.969 12.4867L18.391 18.0086H5.54587Z" fill="#324C9A"/>
</svg>
