<svg width="24" height="24" viewBox="0 0 24 24" fill="none" xmlns="http://www.w3.org/2000/svg">
<path fill-rule="evenodd" clip-rule="evenodd" d="M5.5434 5.00012C4.57296 2.8993 5.90321 0.00012207 8.73322 0.00012207H15.1481C17.971 0.00012207 19.3118 2.89638 18.3372 5.00012H20.5C22.433 5.00012 24 6.56713 24 8.50012V10.0001C24 11.3963 23.1825 12.6016 22 13.1633V20.5001C22 22.4331 20.433 24.0001 18.5 24.0001H5.5C3.567 24.0001 2 22.4331 2 20.5001V13.1633C0.817526 12.6016 0 11.3963 0 10.0001V8.50012C0 6.56713 1.567 5.00012 3.5 5.00012H5.5434ZM10.5 8.00012H3.5C3.22386 8.00012 3 8.22398 3 8.50012V10.0001C3 10.2763 3.22386 10.5001 3.5 10.5001H10.5V8.00012ZM10.5 13.5001H5V20.5001C5 20.7763 5.22386 21.0001 5.5 21.0001H10.5V13.5001ZM13.5 21.0001V13.5001H19V20.5001C19 20.7763 18.7761 21.0001 18.5 21.0001H13.5ZM13.5 10.5001V8.00012H20.5C20.7761 8.00012 21 8.22398 21 8.50012V10.0001C21 10.2763 20.7761 10.5001 20.5 10.5001H13.5ZM13.5 4.83874L15.3631 3.95155C15.5213 3.87622 15.5821 3.7889 15.6125 3.71988C15.6496 3.63567 15.6649 3.51867 15.6358 3.38993C15.6067 3.26119 15.5426 3.16215 15.4729 3.10207C15.4158 3.05282 15.3233 3.00012 15.1481 3.00012H13.5V4.83874ZM10.5 3.00012H8.73322C8.55533 3.00012 8.46289 3.05379 8.40638 3.10302C8.33691 3.16353 8.27282 3.26376 8.24455 3.39427C8.21628 3.52479 8.23315 3.64255 8.27135 3.72638C8.30243 3.79459 8.36437 3.88169 8.52632 3.9553L10.5 4.85243V3.00012Z" fill="#324C9A"/>
</svg>
