<svg width="24" height="24" viewBox="0 0 24 24" fill="none" xmlns="http://www.w3.org/2000/svg">
<path fill-rule="evenodd" clip-rule="evenodd" d="M8.28632 3.72164C7.55223 2.06851 8.76237 0.207031 10.5712 0.207031L13.46 0.207031C15.2851 0.207031 16.4951 2.09939 15.7292 3.75607L13.4682 8.64702V9.94628C13.5014 9.95938 13.5345 9.97295 13.5675 9.98697L20.7638 13.0499C24.0084 14.4309 24.0084 19.0299 20.7638 20.4109L13.5675 23.4738C12.5666 23.8998 11.4354 23.8998 10.4345 23.4738L3.23819 20.4109C-0.00647783 19.0299 -0.00647998 14.4309 3.23819 13.0499L10.4345 9.98697L10.4682 9.97279V8.63515L8.28632 3.72164ZM11.9957 4.68295L12.678 3.20703H11.3403L11.9957 4.68295ZM11.6093 12.7473L4.41306 15.8102C3.6019 16.1555 3.60189 17.3052 4.41306 17.6505L11.6093 20.7134C11.8596 20.8199 12.1424 20.8199 12.3926 20.7134L18.1855 18.2478H11.1309C10.3024 18.2478 9.63086 17.5762 9.63086 16.7478C9.63086 15.9194 10.3024 15.2478 11.1309 15.2478L18.2674 15.2478L12.3926 12.7473C12.1424 12.6408 11.8596 12.6408 11.6093 12.7473Z" fill="#324C9A"/>
</svg>
