<svg width="24" height="24" viewBox="0 0 24 24" fill="none" xmlns="http://www.w3.org/2000/svg">
<path fill-rule="evenodd" clip-rule="evenodd" d="M6.61927 2.40542C6.83248 1.80842 7.39797 1.40991 8.03189 1.40991H15.9468C16.5797 1.40991 17.1445 1.80713 17.3585 2.40273L23.8903 20.583C24.0554 21.0425 23.9865 21.5537 23.7055 21.9531C23.4246 22.3525 22.9669 22.5902 22.4786 22.5902H1.53907C1.05128 22.5902 0.593946 22.353 0.312951 21.9542C0.0319569 21.5555 -0.0376041 21.045 0.126456 20.5857L6.61927 2.40542ZM7.96795 7.54884L11.8976 19.5902H3.66757L7.96795 7.54884ZM15.0534 19.5902H20.3458L14.8919 4.40991H10.0993L15.0534 19.5902Z" fill="#324C9A"/>
</svg>
