<svg width="96" height="206" fill="none" xmlns="http://www.w3.org/2000/svg"><path d="M72.394 73.243a6.401 6.401 0 01-6.401 6.401c-3.342 0-7.544-1.995-11.35-4.53a52.034 52.034 0 01-2.624-1.87 52.1 52.1 0 012.625-1.872c3.805-2.534 8.007-4.53 11.349-4.53a6.401 6.401 0 016.401 6.401zm-46.316 0a6.401 6.401 0 006.4 6.401c3.342 0 7.544-1.995 11.35-4.53a52.034 52.034 0 002.625-1.87 52.1 52.1 0 00-2.625-1.872c-3.806-2.534-8.008-4.53-11.35-4.53a6.401 6.401 0 00-6.4 6.401z" stroke="#fff" stroke-width="8"/><path d="M48.697 4.77v91" stroke="#fff" stroke-width="8" stroke-linecap="round"/><circle cx="48.08" cy="158.386" r="43.383" stroke="#fff" stroke-width="8"/><path d="M36.697 95.77a8 8 0 00-8 7.999v10a4 4 0 004 4h1a3 3 0 003-3 3 3 0 116 0 3 3 0 003 3h4a3 3 0 003-3 3 3 0 013-3h1a3 3 0 013 3 3 3 0 003 3h1a4 4 0 004-4v-10a8 8 0 00-8-8h-23z" fill="#324C9A"/></svg>