<svg width="62" height="211" fill="none" xmlns="http://www.w3.org/2000/svg"><circle cx="14.617" cy="163.574" r="47.383" fill="#324C9A"/><mask id="a" maskUnits="userSpaceOnUse" x="-12.766" y="92.957" width="55" height="36" fill="#000"><path fill="#fff" d="M-12.766 92.957h55v36h-55z"/><path fill-rule="evenodd" clip-rule="evenodd" d="M10.234 100.957h-7a8 8 0 00-8 8v8a4 4 0 004 4h1a3 3 0 003-3 3 3 0 013-3h1a3 3 0 013 3 3 3 0 003 3h2a3 3 0 003-3 3 3 0 013-3h2a3 3 0 013 3 3 3 0 003 3h1a4 4 0 004-4v-8a8 8 0 00-8-8h-16z"/></mask><path fill-rule="evenodd" clip-rule="evenodd" d="M10.234 100.957h-7a8 8 0 00-8 8v8a4 4 0 004 4h1a3 3 0 003-3 3 3 0 013-3h1a3 3 0 013 3 3 3 0 003 3h2a3 3 0 003-3 3 3 0 013-3h2a3 3 0 013 3 3 3 0 003 3h1a4 4 0 004-4v-8a8 8 0 00-8-8h-16z" fill="#4FB4BB"/><path d="M3.234 108.957h7v-16h-7v16zm0 6v-6h-16v6h16zm0 2v-2h-16v2h16zm-3-4h-1v16h1v-16zm7-6h-1v16h1v-16zm8 6h-2v16h2v-16zm8-6h-2v16h2v-16zm7 6h-1v16h1v-16zm-4 2v2h16v-2h-16zm0-6v6h16v-6h-16zm-8 0h8v-16h-8v16zm-8 0h8v-16h-8v16zm32 0c0-8.837-7.163-16-16-16v16h16zm-24 9c0 6.075 4.925 11 11 11v-16a5 5 0 015 5h-16zm5 5a5 5 0 01-5-5h16c0-6.075-4.925-11-11-11v16zm3-5a5 5 0 01-5 5v-16c-6.075 0-11 4.925-11 11h16zm-11 11c6.075 0 11-4.925 11-11h-16a5 5 0 015-5v16zm-13-11c0 6.075 4.925 11 11 11v-16a5 5 0 015 5h-16zm9 0a5 5 0 01-5 5v-16c-6.075 0-11 4.925-11 11h16zm-11 11c6.076 0 11-4.925 11-11h-16a5 5 0 015-5v16zm-13-12c0 6.627 5.373 12 12 12v-16a4 4 0 014 4h-16zm20 6a5 5 0 01-5-5h16c0-6.075-4.925-11-11-11v16zm23 6c6.628 0 12-5.373 12-12h-16a4 4 0 014-4v16zm-27-36c-8.836 0-16 7.163-16 16h16v-16z" fill="#fff" mask="url(#a)"/><path d="M38.931 73.43a6.401 6.401 0 01-6.4 6.402c-3.343 0-7.545-1.996-11.35-4.53a52.1 52.1 0 01-2.625-1.871 52.1 52.1 0 012.625-1.872c3.805-2.534 8.007-4.53 11.35-4.53a6.401 6.401 0 016.4 6.402zm-46.316 0a6.401 6.401 0 006.4 6.402c3.342 0 7.545-1.996 11.35-4.53a52.1 52.1 0 002.625-1.871 52.1 52.1 0 00-2.625-1.872c-3.805-2.534-8.008-4.53-11.35-4.53a6.401 6.401 0 00-6.4 6.402z" stroke="#fff" stroke-width="8"/><path d="M15.234 4.957v91" stroke="#fff" stroke-width="8" stroke-linecap="round"/></svg>