<svg width="815" height="121" fill="none" xmlns="http://www.w3.org/2000/svg"><path d="M3.176 40.346c-.388 0-.76-.141-1.113-.424a1.766 1.766 0 01-.583-1.06c-.106-.813-.212-1.979-.318-3.498-.07-1.52-.123-3.286-.159-5.3a359.972 359.972 0 01-.053-6.307c0-2.756.018-5.512.053-8.268.036-2.756.089-5.265.16-7.526.105-2.297.211-4.063.317-5.3.106-.919.619-1.431 1.537-1.537C4.183 1.02 5.737.932 7.681.86 9.625.79 11.78.737 14.147.7 16.515.668 18.882.65 21.25.65c2.12 0 4.152.018 6.095.053 1.944.035 3.692.088 5.247.159 1.555.07 2.774.159 3.657.265.46.035.83.23 1.113.583.318.353.442.777.371 1.272-.141.565-.389.99-.742 1.272-.353.247-.724.336-1.113.265a181.814 181.814 0 00-5.512-.265 343.77 343.77 0 00-6.466-.16 417.359 417.359 0 00-6.625-.052c-2.473 0-4.805.035-6.996.106-2.19.035-4.045.124-5.565.265-.07 1.237-.141 2.88-.212 4.929-.07 2.014-.123 4.222-.159 6.625a493.725 493.725 0 00-.053 7.26c0 2.227.018 4.365.053 6.414.036 2.014.089 3.798.16 5.353.105 1.52.211 2.65.317 3.392.07.565-.088 1.025-.477 1.378-.388.389-.777.583-1.166.583zm69.43.477c-3.286 0-6.148-.69-8.586-2.067-2.402-1.378-4.275-3.304-5.618-5.777-1.307-2.509-1.96-5.46-1.96-8.851 0-3.392.635-6.342 1.907-8.851 1.272-2.509 3.11-4.452 5.512-5.83 2.403-1.378 5.318-2.067 8.745-2.067 3.534 0 6.502.689 8.904 2.067 2.403 1.378 4.222 3.321 5.46 5.83 1.236 2.473 1.854 5.424 1.854 8.85 0 5.442-1.395 9.576-4.187 12.403-2.756 2.862-6.766 4.293-12.03 4.293zm0-3.34c4.417 0 7.668-1.112 9.752-3.338 2.085-2.226 3.127-5.565 3.127-10.017 0-4.205-1.078-7.49-3.233-9.858-2.155-2.367-5.37-3.551-9.646-3.551-4.275 0-7.49 1.219-9.646 3.657-2.155 2.403-3.233 5.653-3.233 9.752 0 4.099 1.113 7.35 3.34 9.752 2.26 2.403 5.44 3.604 9.54 3.604zm52.788 2.704c-.494 0-.901-.16-1.219-.477-.318-.318-.477-.724-.477-1.22V14.748c-.706 0-1.678.018-2.915.053-1.236 0-2.526.018-3.869.053-1.342.035-2.544.07-3.604.106-1.06 0-1.766.018-2.12.053-.459 0-.848-.141-1.166-.424a2.228 2.228 0 01-.53-1.166c0-1.06.53-1.643 1.59-1.75.742-.07 1.891-.105 3.445-.105 1.555-.035 3.339-.053 5.353-.053 2.05-.035 4.117-.053 6.201-.053 2.756 0 5.371.018 7.844.053a228 228 0 015.671.053c.495 0 .901.177 1.219.53.354.318.495.724.424 1.219 0 .565-.194.99-.583 1.272a1.91 1.91 0 01-1.113.37 22.24 22.24 0 00-2.385-.105 109.05 109.05 0 00-3.816-.053h-6.307v23.69c0 .46-.159.849-.477 1.167-.282.353-.671.53-1.166.53zm53.212.636c-3.286 0-6.148-.69-8.586-2.067-2.402-1.378-4.275-3.304-5.618-5.777-1.307-2.509-1.961-5.46-1.961-8.851 0-3.392.636-6.342 1.908-8.851 1.272-2.509 3.11-4.452 5.512-5.83 2.403-1.378 5.318-2.067 8.745-2.067 3.534 0 6.502.689 8.904 2.067 2.403 1.378 4.223 3.321 5.459 5.83 1.237 2.473 1.855 5.424 1.855 8.85 0 5.442-1.395 9.576-4.187 12.403-2.756 2.862-6.766 4.293-12.031 4.293zm0-3.34c4.417 0 7.668-1.112 9.752-3.338 2.085-2.226 3.127-5.565 3.127-10.017 0-4.205-1.077-7.49-3.233-9.858-2.155-2.367-5.37-3.551-9.646-3.551-4.275 0-7.49 1.219-9.646 3.657-2.155 2.403-3.233 5.653-3.233 9.752 0 4.099 1.113 7.35 3.339 9.752 2.262 2.403 5.442 3.604 9.54 3.604zm51.622 2.439c-.954.035-2.049.035-3.286 0a36.942 36.942 0 01-3.498-.265c-1.13-.106-2.049-.23-2.756-.371a3.57 3.57 0 01-.901-.583c-.282-.247-.459-.53-.53-.848-.176-.53-.335-1.555-.477-3.074a310.196 310.196 0 01-.318-5.512c-.07-2.12-.141-4.328-.212-6.625a439.586 439.586 0 01-.053-6.572c0-1.802.018-3.392.053-4.77.036-1.413.089-2.456.159-3.127.248-.813.725-1.325 1.431-1.537a91.415 91.415 0 015.618-.636 53.79 53.79 0 015.247-.265c2.403 0 4.664.212 6.784.636 2.156.389 4.046 1.025 5.671 1.908 1.661.848 2.968 1.96 3.922 3.339.954 1.343 1.431 2.95 1.431 4.823 0 2.155-.742 3.922-2.226 5.3-1.448 1.343-3.286 2.385-5.512 3.127 1.414.53 2.562 1.466 3.445 2.809.919 1.343 1.378 2.844 1.378 4.505 0 1.52-.477 2.774-1.431 3.763-.918.99-2.137 1.749-3.657 2.279-1.484.565-3.127.972-4.929 1.219a55.68 55.68 0 01-5.353.477zm-1.325-3.392c2.226 0 4.346-.141 6.36-.424 2.05-.283 3.728-.742 5.035-1.378 1.308-.671 1.961-1.537 1.961-2.597 0-1.449-.512-2.562-1.537-3.34-.989-.812-2.296-1.412-3.922-1.801a31.906 31.906 0 00-5.035-.795 2.045 2.045 0 01-1.166-.583 1.682 1.682 0 01-.371-1.22c0-.6.212-1.024.636-1.271.424-.283.972-.424 1.643-.424a21.65 21.65 0 004.505-.265c1.52-.283 2.898-.707 4.134-1.272 1.272-.6 2.262-1.325 2.968-2.173.742-.883 1.06-1.89.954-3.021-.141-1.66-.936-2.986-2.385-3.975-1.448-1.025-3.25-1.767-5.406-2.226a32.212 32.212 0 00-6.731-.69 93.819 93.819 0 00-4.452.213c-1.484.106-2.95.265-4.399.477a28.09 28.09 0 00-.159 2.279 88.963 88.963 0 00-.053 3.233c0 1.696.018 3.55.053 5.565.071 1.979.159 3.957.265 5.936.106 1.979.212 3.798.318 5.459a98.94 98.94 0 00.318 3.922 30.47 30.47 0 003.18.265c1.096.07 2.191.106 3.286.106zm43.725 3.498c-.671-.106-1.06-.548-1.166-1.325-.141-.919-.265-2.138-.371-3.657-.106-1.52-.194-3.215-.265-5.088l-.106-5.724a321.319 321.319 0 01-.053-5.671V13.74c.071-.6.283-1.042.636-1.325.389-.283.778-.389 1.166-.318.424 0 .778.177 1.06.53.318.353.477.777.477 1.272l-.106 2.067v2.12c0 2.367.071 4.894.212 7.579.142 2.685.283 5.565.424 8.639a303.111 303.111 0 0110.335-11.342 172.76 172.76 0 0110.441-10.017c.389-.318.778-.477 1.166-.477.389 0 .742.141 1.06.424.354.283.566.618.636 1.007a73.51 73.51 0 01.424 3.922c.142 1.307.23 2.827.265 4.558.071 1.731.106 3.851.106 6.36.036 2.509.053 5.618.053 9.328 0 .565-.194.972-.583 1.219-.388.283-.777.424-1.166.424-.565 0-.989-.194-1.272-.583a1.913 1.913 0 01-.371-1.113 29.38 29.38 0 00.053-1.855v-2.173c0-1.696-.017-3.498-.053-5.406a275.37 275.37 0 00-.159-5.671 119.33 119.33 0 00-.265-4.77 149.675 149.675 0 00-5.565 4.823 120.493 120.493 0 00-4.77 4.717 212.596 212.596 0 00-4.823 5.353c-1.66 1.908-3.551 4.099-5.671 6.572-.353.353-.671.53-.954.53a1.58 1.58 0 01-.371-.053c-.106 0-.247-.018-.424-.053zm79.447-.371c-.106 0-.265-.035-.477-.106-.459-.177-.812-.442-1.06-.795-.212-.353-.265-.76-.159-1.22.46-1.518.795-3.18 1.007-4.981.212-1.837.318-3.675.318-5.512 0-1.06-.035-2.085-.106-3.074a34.918 34.918 0 00-.318-2.915 13.38 13.38 0 00-.954-3.498c-.459-1.095-1.077-1.961-1.855-2.597-.777-.671-1.767-1.007-2.968-1.007-1.236 0-2.279.406-3.127 1.219-.848.813-1.537 1.89-2.067 3.233-.494 1.343-.901 2.844-1.219 4.505-.106.777-.618 1.254-1.537 1.43-.918 0-1.484-.458-1.696-1.377a20.812 20.812 0 00-1.378-4.346c-.6-1.378-1.325-2.491-2.173-3.34-.848-.882-1.872-1.324-3.074-1.324-1.095 0-2.031.389-2.809 1.166-.777.777-1.396 1.802-1.855 3.074a23.629 23.629 0 00-.954 4.134 30.717 30.717 0 00-.318 4.346c0 1.802.106 3.64.318 5.512.212 1.873.495 3.692.848 5.459.071.6-.035 1.06-.318 1.378a1.547 1.547 0 01-1.007.583c-.494.141-.918.035-1.272-.318-.353-.318-.565-.654-.636-1.007a87.858 87.858 0 01-.901-5.565 53.238 53.238 0 01-.318-5.777c0-2.05.159-4.028.477-5.936.318-1.943.831-3.692 1.537-5.247.742-1.555 1.714-2.791 2.915-3.71 1.237-.919 2.756-1.378 4.558-1.378 1.237 0 2.385.3 3.445.9a9.028 9.028 0 012.703 2.333 8.838 8.838 0 011.696 3.02c.919-2.013 2.032-3.55 3.339-4.61 1.343-1.095 2.986-1.643 4.929-1.643 1.802 0 3.304.442 4.505 1.325 1.202.848 2.156 2.032 2.862 3.55.707 1.485 1.219 3.18 1.537 5.089a29.84 29.84 0 01.371 3.286c.106 1.166.159 2.35.159 3.55 0 1.944-.123 3.87-.371 5.778-.212 1.908-.565 3.64-1.06 5.194a1.525 1.525 0 01-.636.9 1.475 1.475 0 01-.901.319zm40.068 1.166c-3.392 0-6.324-.69-8.798-2.067-2.438-1.343-4.328-3.25-5.671-5.724-1.342-2.473-2.014-5.335-2.014-8.586 0-3.286.672-6.166 2.014-8.64a13.964 13.964 0 015.724-5.723c2.474-1.378 5.389-2.067 8.745-2.067 2.509 0 4.699.336 6.572 1.007 1.873.671 3.569 1.749 5.088 3.233.354.353.53.742.53 1.166 0 .389-.159.777-.477 1.166-.247.353-.601.53-1.06.53-.459 0-.883-.16-1.272-.477a10.3 10.3 0 00-4.24-2.491 16.477 16.477 0 00-5.141-.795c-2.685 0-5.017.53-6.996 1.59-1.943 1.06-3.462 2.58-4.558 4.558-1.06 1.943-1.59 4.258-1.59 6.943 0 2.58.583 4.858 1.749 6.837 1.166 1.979 2.739 3.516 4.717 4.61 2.014 1.096 4.24 1.644 6.678 1.644 1.838 0 3.693-.318 5.565-.954 1.873-.6 3.357-1.537 4.452-2.81.283-.317.672-.476 1.166-.476.424 0 .813.124 1.166.37.354.248.53.62.53 1.114 0 .424-.141.83-.424 1.219-1.696 1.696-3.568 2.915-5.618 3.657-2.049.777-4.328 1.166-6.837 1.166zm61.586-.954c-.53 0-.954-.177-1.272-.53-.282-.318-.424-.636-.424-.954.036-.141.053-.53.053-1.166.036-.6.053-1.29.053-2.067.036-.813.053-1.59.053-2.332a37.52 37.52 0 00.053-1.696 64.55 64.55 0 01-3.551.424 38.036 38.036 0 01-3.445.159c-1.66 0-3.339-.106-5.035-.318a89.72 89.72 0 00-3.71 3.604 38.761 38.761 0 00-3.127 3.498c-.424.53-.865.795-1.325.795-.247 0-.583-.088-1.007-.265a1.834 1.834 0 01-.636-.636 1.87 1.87 0 01-.159-.742c0-.353.089-.671.265-.954.46-.565 1.06-1.22 1.802-1.961.742-.777 1.484-1.537 2.226-2.28a43.354 43.354 0 012.014-1.907c-2.897-1.025-5.07-2.544-6.519-4.558-1.413-2.014-2.12-4.417-2.12-7.208 0-2.297.725-4.4 2.173-6.307 1.449-1.943 3.304-3.392 5.565-4.346 1.449-.6 3.039-1.06 4.77-1.378a29.87 29.87 0 015.3-.477c3.18 0 6.042.46 8.586 1.378.389.141.654.37.795.689.177.318.283.6.318.848.106 2.58.195 5.23.265 7.95.071 2.72.106 5.388.106 8.003 0 2.367-.035 4.664-.106 6.89a114.146 114.146 0 01-.265 6.307c-.035.495-.247.866-.636 1.113-.388.283-.742.424-1.06.424zm-1.484-12.19c0-4.523-.017-8.321-.053-11.395 0-3.074-.035-5-.106-5.777-2.014-.6-4.204-.901-6.572-.901-1.978 0-3.922.23-5.83.689-1.873.46-3.48 1.166-4.823 2.12-1.236.883-2.155 1.802-2.756 2.756-.565.954-.848 2.155-.848 3.604 0 2.297.583 4.152 1.749 5.565 1.202 1.378 2.827 2.385 4.876 3.02 2.085.637 4.435.955 7.049.955 2.332 0 4.77-.212 7.314-.636zm-.212 10.547v-.001zm74.975 1.696a50.67 50.67 0 01-3.287 0 36.895 36.895 0 01-3.497-.265c-1.131-.106-2.05-.23-2.757-.371a3.57 3.57 0 01-.901-.583c-.282-.247-.459-.53-.53-.848-.176-.53-.335-1.555-.476-3.074a300.064 300.064 0 01-.319-5.512c-.07-2.12-.141-4.328-.212-6.625a439.007 439.007 0 01-.052-6.572c0-1.802.017-3.392.052-4.77.036-1.413.089-2.456.159-3.127.248-.813.725-1.325 1.432-1.537a91.3 91.3 0 015.617-.636 53.806 53.806 0 015.247-.265c2.403 0 4.664.212 6.784.636 2.156.389 4.046 1.025 5.671 1.908 1.661.848 2.969 1.96 3.923 3.339.953 1.343 1.43 2.95 1.43 4.823 0 2.155-.742 3.922-2.226 5.3-1.448 1.343-3.285 2.385-5.511 3.127 1.413.53 2.561 1.466 3.444 2.809.919 1.343 1.379 2.844 1.379 4.505 0 1.52-.478 2.774-1.432 3.763-.918.99-2.137 1.749-3.657 2.279-1.484.565-3.127.972-4.929 1.219a55.689 55.689 0 01-5.352.477zm-1.326-3.392c2.227 0 4.347-.141 6.36-.424 2.05-.283 3.728-.742 5.035-1.378 1.308-.671 1.961-1.537 1.961-2.597 0-1.449-.512-2.562-1.537-3.34-.989-.812-2.296-1.412-3.922-1.801a31.906 31.906 0 00-5.035-.795 2.045 2.045 0 01-1.166-.583 1.677 1.677 0 01-.37-1.22c0-.6.211-1.024.635-1.271.425-.283.972-.424 1.643-.424 1.485.07 2.986-.018 4.506-.265 1.519-.283 2.897-.707 4.133-1.272 1.272-.6 2.262-1.325 2.968-2.173.742-.883 1.06-1.89.954-3.021-.141-1.66-.936-2.986-2.385-3.975-1.448-1.025-3.25-1.767-5.406-2.226a32.21 32.21 0 00-6.73-.69 93.798 93.798 0 00-4.453.213c-1.484.106-2.95.265-4.399.477a28.09 28.09 0 00-.159 2.279 88.963 88.963 0 00-.053 3.233c0 1.696.018 3.55.053 5.565.071 1.979.159 3.957.266 5.936.106 1.979.211 3.798.317 5.459.107 1.625.212 2.933.318 3.922a30.47 30.47 0 003.18.265c1.096.07 2.191.106 3.286.106zm70.172 3.127c-.106 0-.265-.035-.476-.106-.46-.177-.813-.442-1.06-.795-.212-.353-.266-.76-.159-1.22.459-1.518.794-3.18 1.006-4.981.212-1.837.318-3.675.318-5.512 0-1.06-.035-2.085-.105-3.074a35.346 35.346 0 00-.318-2.915c-.177-1.272-.495-2.438-.955-3.498-.459-1.095-1.077-1.961-1.855-2.597-.777-.671-1.766-1.007-2.968-1.007-1.236 0-2.279.406-3.127 1.219-.848.813-1.536 1.89-2.066 3.233-.495 1.343-.901 2.844-1.219 4.505-.107.777-.619 1.254-1.538 1.43-.918 0-1.484-.458-1.696-1.377a20.812 20.812 0 00-1.378-4.346c-.6-1.378-1.324-2.491-2.172-3.34-.849-.882-1.873-1.324-3.075-1.324-1.095 0-2.031.389-2.809 1.166-.777.777-1.395 1.802-1.855 3.074a23.629 23.629 0 00-.954 4.134 30.862 30.862 0 00-.317 4.346c0 1.802.106 3.64.317 5.512.212 1.873.495 3.692.848 5.459.071.6-.035 1.06-.318 1.378a1.545 1.545 0 01-1.006.583c-.495.141-.919.035-1.273-.318-.353-.318-.565-.654-.636-1.007a87.858 87.858 0 01-.901-5.565 53.492 53.492 0 01-.318-5.777c0-2.05.159-4.028.477-5.936.318-1.943.831-3.692 1.537-5.247.742-1.555 1.714-2.791 2.916-3.71 1.236-.919 2.755-1.378 4.557-1.378 1.237 0 2.385.3 3.445.9a9.028 9.028 0 012.703 2.333 8.838 8.838 0 011.696 3.02c.919-2.013 2.032-3.55 3.339-4.61 1.343-1.095 2.986-1.643 4.929-1.643 1.802 0 3.304.442 4.505 1.325 1.202.848 2.156 2.032 2.862 3.55.707 1.485 1.219 3.18 1.537 5.089a30.07 30.07 0 01.372 3.286c.106 1.166.159 2.35.159 3.55 0 1.944-.124 3.87-.372 5.778-.211 1.908-.565 3.64-1.06 5.194a1.525 1.525 0 01-.636.9 1.475 1.475 0 01-.901.319zm38.425 1.219c-3.321 0-6.236-.707-8.745-2.12-2.473-1.413-4.399-3.374-5.776-5.883-1.378-2.544-2.068-5.494-2.068-8.851 0-3.18.672-6.024 2.014-8.533 1.378-2.509 3.286-4.47 5.724-5.883 2.474-1.449 5.371-2.173 8.692-2.173 2.969 0 5.636.724 8.003 2.173 2.368 1.449 4.258 3.427 5.671 5.936 1.414 2.473 2.173 5.3 2.279 8.48 0 .919-.494 1.502-1.484 1.749-.777.106-1.925.194-3.445.265-1.519.07-3.268.141-5.247.212-1.978.035-4.063.07-6.254.106h-12.508c.248 2.297.954 4.293 2.12 5.989a11.664 11.664 0 004.611 3.869c1.908.919 4.029 1.378 6.361 1.378 2.084 0 4.133-.353 6.147-1.06 2.05-.707 3.781-1.678 5.194-2.915a1.99 1.99 0 011.166-.371c.495 0 .901.177 1.219.53.212.318.318.671.318 1.06 0 .53-.176.936-.53 1.219-1.943 1.625-4.08 2.827-6.413 3.604-2.331.813-4.681 1.219-7.049 1.219zm-13.25-17.861h7.261c2.544-.035 5.018-.07 7.421-.106 2.402-.07 4.557-.124 6.465-.16 1.944-.07 3.428-.123 4.452-.158-.282-2.473-1.024-4.593-2.226-6.36a12.194 12.194 0 00-4.61-4.081c-1.873-.954-3.993-1.431-6.361-1.431-2.296.035-4.345.583-6.147 1.643-1.802 1.06-3.251 2.509-4.346 4.346-1.096 1.802-1.732 3.904-1.909 6.307zm67.893 17.808c-3.392 0-6.324-.69-8.798-2.067-2.438-1.343-4.328-3.25-5.671-5.724-1.342-2.473-2.014-5.335-2.014-8.586 0-3.286.672-6.166 2.014-8.64a13.964 13.964 0 015.724-5.723c2.474-1.378 5.389-2.067 8.745-2.067 2.509 0 4.7.336 6.573 1.007 1.872.671 3.568 1.749 5.087 3.233.354.353.53.742.53 1.166 0 .389-.159.777-.477 1.166-.247.353-.6.53-1.059.53-.46 0-.884-.16-1.273-.477a10.3 10.3 0 00-4.24-2.491 16.477 16.477 0 00-5.141-.795c-2.685 0-5.017.53-6.996 1.59-1.943 1.06-3.462 2.58-4.558 4.558-1.06 1.943-1.589 4.258-1.589 6.943 0 2.58.582 4.858 1.748 6.837s2.739 3.516 4.718 4.61c2.013 1.096 4.239 1.644 6.677 1.644 1.838 0 3.693-.318 5.565-.954 1.873-.6 3.357-1.537 4.452-2.81.283-.317.672-.476 1.166-.476.424 0 .813.124 1.166.37.354.248.53.62.53 1.114 0 .424-.141.83-.423 1.219-1.696 1.696-3.569 2.915-5.619 3.657-2.049.777-4.328 1.166-6.837 1.166zm51.251-.636c-.494 0-.901-.16-1.219-.477-.318-.318-.477-.724-.477-1.22V14.748c-.706 0-1.678.018-2.915.053-1.236 0-2.526.018-3.869.053-1.342.035-2.544.07-3.604.106-1.06 0-1.766.018-2.12.053-.459 0-.848-.141-1.166-.424a2.228 2.228 0 01-.53-1.166c0-1.06.53-1.643 1.59-1.75.742-.07 1.891-.105 3.445-.105 1.555-.035 3.34-.053 5.353-.053 2.05-.035 4.117-.053 6.201-.053 2.756 0 5.371.018 7.844.053 2.474 0 4.364.018 5.672.053.494 0 .901.177 1.218.53.354.318.495.724.425 1.219 0 .565-.195.99-.583 1.272a1.914 1.914 0 01-1.114.37 22.24 22.24 0 00-2.385-.105 109.01 109.01 0 00-3.816-.053h-6.307v23.69c0 .46-.159.849-.477 1.167-.282.353-.671.53-1.166.53zm53.106.689c-3.321 0-6.236-.707-8.745-2.12-2.473-1.413-4.399-3.374-5.776-5.883-1.378-2.544-2.068-5.494-2.068-8.851 0-3.18.672-6.024 2.014-8.533 1.378-2.509 3.286-4.47 5.724-5.883 2.474-1.449 5.371-2.173 8.692-2.173 2.969 0 5.636.724 8.003 2.173 2.368 1.449 4.258 3.427 5.671 5.936 1.414 2.473 2.173 5.3 2.279 8.48 0 .919-.494 1.502-1.484 1.749-.777.106-1.925.194-3.445.265-1.519.07-3.268.141-5.247.212-1.978.035-4.063.07-6.254.106h-12.508c.248 2.297.954 4.293 2.12 5.989a11.664 11.664 0 004.611 3.869c1.908.919 4.029 1.378 6.361 1.378 2.084 0 4.133-.353 6.147-1.06 2.05-.707 3.781-1.678 5.194-2.915a1.99 1.99 0 011.166-.371c.495 0 .901.177 1.219.53.212.318.318.671.318 1.06 0 .53-.176.936-.53 1.219-1.943 1.625-4.08 2.827-6.413 3.604-2.331.813-4.681 1.219-7.049 1.219zm-13.25-17.861h7.261c2.544-.035 5.018-.07 7.421-.106 2.402-.07 4.557-.124 6.465-.16 1.944-.07 3.428-.123 4.452-.158-.282-2.473-1.024-4.593-2.226-6.36a12.194 12.194 0 00-4.61-4.081c-1.873-.954-3.993-1.431-6.361-1.431-2.296.035-4.345.583-6.147 1.643-1.802 1.06-3.251 2.509-4.346 4.346-1.096 1.802-1.732 3.904-1.909 6.307zM8.847 116.763c-.53 0-.918-.177-1.166-.53a2.4 2.4 0 01-.477-1.007c-.07-.565-.123-1.431-.159-2.597-.035-1.166-.07-2.791-.106-4.876a494.08 494.08 0 01-.053-8.056V87.454c0-.565.195-.972.583-1.22.389-.282.778-.423 1.166-.423.6.035 1.025.247 1.272.636.248.353.371.724.371 1.113 0 .318-.018.972-.053 1.96v3.605c0 1.378-.018 2.844-.053 4.399v4.505c2.544-.035 5-.371 7.367-1.007 2.403-.636 4.54-1.537 6.413-2.703 1.873-1.201 3.321-2.632 4.346-4.293 1.025-1.696 1.467-3.586 1.325-5.671 0-1.06.548-1.643 1.643-1.75 1.06 0 1.643.549 1.75 1.644.07 3.074-.69 5.742-2.28 8.003-1.59 2.261-3.657 4.134-6.2 5.618 2.296 2.403 4.257 4.629 5.882 6.678 1.66 2.014 2.72 3.692 3.18 5.035.106.212.16.442.16.689 0 .424-.16.795-.478 1.113-.318.353-.76.53-1.325.53-.706 0-1.201-.353-1.484-1.06-.46-1.06-1.236-2.279-2.332-3.657a61.776 61.776 0 00-3.445-4.187c-1.236-1.413-2.367-2.615-3.392-3.604-.565.247-1.325.495-2.279.742s-1.996.477-3.127.689a56.19 56.19 0 01-3.18.424c-.99.106-1.82.159-2.49.159.07 2.544.105 4.558.105 6.042.036 1.449.106 2.597.212 3.445.07.53-.053.972-.37 1.325-.283.353-.725.53-1.326.53zm108.523 0c-.459-.035-.865-.23-1.219-.583-.353-.318-.512-.724-.477-1.219V113c.036-.989.071-2.102.106-3.339.036-1.272.053-2.491.053-3.657.036-1.166.053-2.067.053-2.703H93.15v3.763c.035 1.131.07 2.314.105 3.551.036 1.201.071 2.65.107 4.346.07.459-.071.866-.424 1.219a1.57 1.57 0 01-1.22.53c-.565.071-.989-.088-1.272-.477a2.8 2.8 0 01-.477-1.113c-.035-.707-.07-1.837-.105-3.392 0-1.555-.018-3.339-.053-5.353V95.086c.035-1.66.052-3.11.052-4.346.036-1.237.071-2.12.106-2.65.107-1.06.637-1.59 1.59-1.59.707 0 1.184.194 1.431.583.283.353.39.76.319 1.219 0 .318-.018.99-.053 2.014 0 .99-.018 2.12-.053 3.392-.036 1.272-.071 2.473-.106 3.604v2.597h22.789c0-.6-.017-1.484-.053-2.65 0-1.166-.017-2.367-.053-3.604-.035-1.272-.07-2.403-.106-3.392v-1.961c-.035-.6.142-1.042.53-1.325.389-.318.796-.477 1.22-.477.424 0 .794.141 1.112.424.318.283.477.671.477 1.166.106.742.177 1.82.213 3.233.07 1.413.105 3.02.105 4.823.036 1.767.053 3.586.053 5.459 0 1.873-.017 3.71-.053 5.512a97.28 97.28 0 01-.105 4.77c-.036 1.378-.107 2.456-.213 3.233 0 .424-.159.795-.477 1.113a1.51 1.51 0 01-1.166.53zm40.015 1.06c-3.285 0-6.147-.689-8.586-2.067-2.402-1.378-4.275-3.304-5.617-5.777-1.308-2.509-1.962-5.459-1.962-8.851 0-3.392.636-6.342 1.908-8.851 1.272-2.509 3.11-4.452 5.513-5.83 2.402-1.378 5.317-2.067 8.744-2.067 3.534 0 6.502.689 8.904 2.067 2.403 1.378 4.223 3.321 5.46 5.83 1.236 2.473 1.855 5.424 1.855 8.851 0 5.441-1.396 9.575-4.187 12.402-2.756 2.862-6.767 4.293-12.032 4.293zm0-3.339c4.417 0 7.668-1.113 9.752-3.339 2.085-2.226 3.127-5.565 3.127-10.017 0-4.205-1.077-7.49-3.233-9.858-2.155-2.367-5.37-3.551-9.646-3.551-4.275 0-7.49 1.219-9.645 3.657-2.156 2.403-3.233 5.653-3.233 9.752 0 4.099 1.112 7.349 3.338 9.752 2.262 2.403 5.442 3.604 9.54 3.604zm51.622 2.438c-.954.035-2.049.035-3.286 0a36.975 36.975 0 01-3.498-.265c-1.13-.106-2.049-.23-2.756-.371a3.591 3.591 0 01-.901-.583c-.282-.247-.459-.53-.53-.848-.176-.53-.335-1.555-.477-3.074a311.387 311.387 0 01-.317-5.512c-.071-2.12-.142-4.328-.213-6.625a439.007 439.007 0 01-.052-6.572c0-1.802.017-3.392.052-4.77.036-1.413.089-2.456.159-3.127.248-.813.725-1.325 1.431-1.537a91.466 91.466 0 015.619-.636 53.792 53.792 0 015.246-.265c2.403 0 4.664.212 6.784.636 2.156.389 4.046 1.025 5.671 1.908 1.661.848 2.969 1.96 3.922 3.339.954 1.343 1.431 2.95 1.431 4.823 0 2.155-.742 3.922-2.226 5.3-1.448 1.343-3.286 2.385-5.512 3.127 1.414.53 2.562 1.466 3.445 2.809.919 1.343 1.379 2.844 1.379 4.505 0 1.519-.478 2.774-1.431 3.763-.919.989-2.138 1.749-3.658 2.279-1.484.565-3.127.972-4.929 1.219a55.938 55.938 0 01-5.353.477zm-1.325-3.392c2.226 0 4.346-.141 6.36-.424 2.05-.283 3.728-.742 5.035-1.378 1.308-.671 1.961-1.537 1.961-2.597 0-1.449-.512-2.562-1.537-3.339-.989-.813-2.296-1.413-3.922-1.802a31.796 31.796 0 00-5.035-.795 2.048 2.048 0 01-1.166-.583 1.682 1.682 0 01-.371-1.219c0-.601.212-1.025.636-1.272.424-.283.972-.424 1.643-.424 1.484.07 2.986-.018 4.506-.265 1.519-.283 2.897-.707 4.133-1.272 1.272-.6 2.262-1.325 2.968-2.173.742-.883 1.061-1.89.955-3.021-.142-1.66-.937-2.986-2.386-3.975-1.448-1.025-3.25-1.767-5.405-2.226a32.22 32.22 0 00-6.731-.69 93.954 93.954 0 00-4.453.213c-1.484.106-2.95.265-4.398.477a27.567 27.567 0 00-.16 2.279 88.963 88.963 0 00-.053 3.233c0 1.696.018 3.55.053 5.565.071 1.979.159 3.957.265 5.936.106 1.979.212 3.798.318 5.459.107 1.625.212 2.933.318 3.922a30.47 30.47 0 003.18.265 50.81 50.81 0 003.286.106zm55.703 4.293c-3.286 0-6.148-.689-8.586-2.067-2.402-1.378-4.275-3.304-5.617-5.777-1.308-2.509-1.962-5.459-1.962-8.851 0-3.392.636-6.342 1.908-8.851 1.272-2.509 3.11-4.452 5.512-5.83 2.403-1.378 5.318-2.067 8.745-2.067 3.534 0 6.502.689 8.904 2.067 2.403 1.378 4.223 3.321 5.459 5.83 1.237 2.473 1.855 5.424 1.855 8.851 0 5.441-1.395 9.575-4.187 12.402-2.756 2.862-6.766 4.293-12.031 4.293zm0-3.339c4.417 0 7.668-1.113 9.752-3.339 2.085-2.226 3.127-5.565 3.127-10.017 0-4.205-1.077-7.49-3.233-9.858-2.155-2.367-5.37-3.551-9.646-3.551-4.275 0-7.49 1.219-9.646 3.657-2.155 2.403-3.233 5.653-3.233 9.752 0 4.099 1.114 7.349 3.34 9.752 2.261 2.403 5.441 3.604 9.539 3.604zm67.469 2.173c-.105 0-.265-.035-.477-.106-.459-.177-.812-.442-1.06-.795-.212-.353-.265-.76-.159-1.219.46-1.519.795-3.18 1.007-4.982.212-1.837.318-3.675.318-5.512 0-1.06-.035-2.085-.106-3.074a34.499 34.499 0 00-.318-2.915c-.176-1.272-.494-2.438-.954-3.498-.459-1.095-1.077-1.961-1.855-2.597-.777-.671-1.766-1.007-2.968-1.007-1.236 0-2.279.406-3.127 1.219-.848.813-1.537 1.89-2.067 3.233-.494 1.343-.901 2.844-1.219 4.505-.106.777-.618 1.254-1.537 1.431-.918 0-1.484-.459-1.696-1.378a20.812 20.812 0 00-1.378-4.346c-.6-1.378-1.325-2.491-2.173-3.34-.848-.882-1.872-1.324-3.074-1.324-1.095 0-2.031.389-2.809 1.166-.777.777-1.395 1.802-1.855 3.074a23.629 23.629 0 00-.954 4.134 30.723 30.723 0 00-.318 4.346c0 1.802.106 3.639.318 5.512.212 1.873.495 3.692.848 5.459.071.601-.035 1.06-.318 1.378a1.548 1.548 0 01-1.007.583c-.494.141-.918.035-1.272-.318-.353-.318-.565-.654-.636-1.007a87.858 87.858 0 01-.901-5.565 53.234 53.234 0 01-.318-5.777c0-2.049.159-4.028.477-5.936.318-1.943.831-3.692 1.537-5.247.742-1.555 1.714-2.791 2.915-3.71 1.237-.919 2.756-1.378 4.558-1.378 1.237 0 2.385.3 3.445.9a9.028 9.028 0 012.703 2.333 8.838 8.838 0 011.696 3.02c.919-2.013 2.032-3.55 3.339-4.61 1.343-1.095 2.986-1.643 4.929-1.643 1.802 0 3.304.442 4.505 1.325 1.202.848 2.156 2.032 2.862 3.55.707 1.485 1.219 3.18 1.537 5.089a29.84 29.84 0 01.371 3.286c.106 1.166.159 2.35.159 3.551 0 1.943-.123 3.869-.371 5.777-.212 1.908-.565 3.639-1.06 5.194a1.524 1.524 0 01-.636.901 1.475 1.475 0 01-.901.318zm27.772 3.074a1.511 1.511 0 01-.53-1.166c0-.459.159-.866.477-1.219.813-.848 1.767-1.943 2.862-3.286a373.97 373.97 0 003.286-3.975 218.369 218.369 0 002.862-3.551c-.424-.459-1.077-1.237-1.961-2.332a716.853 716.853 0 01-2.968-3.71c-1.095-1.413-2.173-2.81-3.233-4.187a443.37 443.37 0 00-2.703-3.604c-.742-1.06-1.201-1.784-1.378-2.173a1.58 1.58 0 01-.212-.795c0-.6.283-1.095.848-1.484a1.58 1.58 0 01.795-.212c.566 0 1.06.265 1.484.795.283.495.76 1.237 1.431 2.226.707.99 1.52 2.102 2.438 3.339a323.98 323.98 0 012.862 3.657 279.94 279.94 0 002.756 3.392 144.822 144.822 0 001.961 2.332 1791.31 1791.31 0 003.127-4.24 132.738 132.738 0 002.385-3.34 73.755 73.755 0 002.067-3.285 112.927 112.927 0 002.173-3.975c.177-.353.407-.6.689-.742a1.89 1.89 0 01.848-.212c.283 0 .53.053.742.159.636.353.954.848.954 1.484 0 .247-.053.512-.159.795-.742 1.484-1.766 3.233-3.074 5.247a129.517 129.517 0 01-4.346 6.413 214.567 214.567 0 01-4.929 6.625 219.299 219.299 0 01-4.929 6.148c-1.59 1.908-3.003 3.516-4.24 4.823-.388.353-.812.53-1.272.53-.424 0-.795-.159-1.113-.477zm73.12-2.544c-.601 0-1.06-.159-1.378-.477a1.374 1.374 0 01-.424-1.007c0-.707.424-1.237 1.272-1.59a84.749 84.749 0 004.982-1.961 96.57 96.57 0 005.141-2.385 186.474 186.474 0 004.717-2.438 47.562 47.562 0 004.982-3.074 35.575 35.575 0 004.611-3.869c1.378-1.413 2.491-2.915 3.339-4.505.848-1.59 1.272-3.25 1.272-4.982 0-1.696-.389-3.233-1.166-4.611a11.33 11.33 0 00-3.127-3.604 14.11 14.11 0 00-4.452-2.332 15.224 15.224 0 00-5.035-.848c-1.838 0-3.675.3-5.512.9a16.473 16.473 0 00-4.982 2.492c-1.449 1.095-2.544 2.42-3.286 3.975-.248.6-.672.9-1.272.9a2.72 2.72 0 01-.848-.158c-.354-.177-.601-.371-.742-.583a1.87 1.87 0 01-.159-.742c0-.283.053-.548.159-.795a14.092 14.092 0 014.134-4.982 20.322 20.322 0 016.042-3.074 22.127 22.127 0 016.731-1.06c2.296 0 4.452.37 6.466 1.113 2.014.742 3.78 1.784 5.3 3.127 1.554 1.343 2.756 2.915 3.604 4.717.883 1.802 1.325 3.763 1.325 5.883 0 2.367-.583 4.54-1.749 6.519-1.166 1.979-2.739 3.834-4.717 5.565-1.944 1.731-4.152 3.445-6.625 5.141-2.686 1.837-6.113 3.692-10.282 5.565h21.518c.565 0 .971.177 1.219.53.247.353.371.707.371 1.06 0 .353-.142.707-.424 1.06-.283.353-.672.53-1.166.53h-29.839zm55.056 1.06c-4.134 0-7.632-.936-10.494-2.809-2.827-1.873-4.982-4.434-6.466-7.685-1.449-3.251-2.173-6.943-2.173-11.077 0-4.31.707-8.091 2.12-11.342 1.413-3.25 3.533-5.777 6.36-7.58 2.827-1.801 6.378-2.702 10.653-2.702 4.311 0 7.879.919 10.706 2.756 2.827 1.802 4.929 4.328 6.307 7.579 1.413 3.25 2.12 7.014 2.12 11.289 0 4.205-.777 7.932-2.332 11.183-1.519 3.251-3.71 5.795-6.572 7.632-2.827 1.837-6.236 2.756-10.229 2.756zm0-3.18c3.463 0 6.378-.777 8.745-2.332 2.367-1.59 4.152-3.763 5.353-6.519 1.237-2.791 1.855-5.971 1.855-9.54 0-3.71-.565-6.943-1.696-9.7-1.131-2.79-2.88-4.946-5.247-6.465-2.332-1.52-5.335-2.28-9.01-2.28-3.604 0-6.59.76-8.957 2.28-2.332 1.484-4.081 3.604-5.247 6.36-1.166 2.756-1.749 6.024-1.749 9.805 0 3.639.601 6.837 1.802 9.593 1.201 2.756 2.986 4.911 5.353 6.466 2.367 1.555 5.3 2.332 8.798 2.332zm25.427 2.12c-.6 0-1.06-.159-1.378-.477a1.378 1.378 0 01-.424-1.007c0-.707.424-1.237 1.272-1.59a84.475 84.475 0 004.982-1.961 96.57 96.57 0 005.141-2.385 184.787 184.787 0 004.717-2.438 47.355 47.355 0 004.982-3.074 35.575 35.575 0 004.611-3.869c1.378-1.413 2.491-2.915 3.339-4.505.848-1.59 1.272-3.25 1.272-4.982 0-1.696-.389-3.233-1.166-4.611a11.306 11.306 0 00-3.127-3.604 14.088 14.088 0 00-4.452-2.332 15.215 15.215 0 00-5.035-.848c-1.837 0-3.674.3-5.512.9a16.485 16.485 0 00-4.982 2.492c-1.448 1.095-2.544 2.42-3.286 3.975-.247.6-.671.9-1.272.9a2.72 2.72 0 01-.848-.158c-.353-.177-.601-.371-.742-.583a1.87 1.87 0 01-.159-.742c0-.283.053-.548.159-.795a14.102 14.102 0 014.134-4.982 20.322 20.322 0 016.042-3.074 22.132 22.132 0 016.731-1.06c2.297 0 4.452.37 6.466 1.113 2.014.742 3.781 1.784 5.3 3.127 1.555 1.343 2.756 2.915 3.604 4.717.884 1.802 1.325 3.763 1.325 5.883 0 2.367-.583 4.54-1.749 6.519-1.166 1.979-2.738 3.834-4.717 5.565-1.943 1.731-4.152 3.445-6.625 5.141-2.685 1.837-6.113 3.692-10.282 5.565h21.518c.565 0 .972.177 1.219.53.247.353.371.707.371 1.06 0 .353-.141.707-.424 1.06-.282.353-.671.53-1.166.53h-29.839zm37.99 0c-.6 0-1.06-.159-1.378-.477a1.378 1.378 0 01-.424-1.007c0-.707.424-1.237 1.272-1.59a84.475 84.475 0 004.982-1.961 96.206 96.206 0 005.141-2.385 184.787 184.787 0 004.717-2.438 47.355 47.355 0 004.982-3.074 35.575 35.575 0 004.611-3.869c1.378-1.413 2.491-2.915 3.339-4.505.848-1.59 1.272-3.25 1.272-4.982 0-1.696-.388-3.233-1.166-4.611a11.306 11.306 0 00-3.127-3.604 14.088 14.088 0 00-4.452-2.332 15.215 15.215 0 00-5.035-.848c-1.837 0-3.674.3-5.512.9a16.485 16.485 0 00-4.982 2.492c-1.448 1.095-2.544 2.42-3.286 3.975-.247.6-.671.9-1.272.9a2.72 2.72 0 01-.848-.158c-.353-.177-.6-.371-.742-.583a1.87 1.87 0 01-.159-.742c0-.283.053-.548.159-.795a14.113 14.113 0 014.134-4.982 20.322 20.322 0 016.042-3.074 22.132 22.132 0 016.731-1.06c2.297 0 4.452.37 6.466 1.113 2.014.742 3.781 1.784 5.3 3.127 1.555 1.343 2.756 2.915 3.604 4.717.884 1.802 1.325 3.763 1.325 5.883 0 2.367-.583 4.54-1.749 6.519-1.166 1.979-2.738 3.834-4.717 5.565-1.943 1.731-4.151 3.445-6.625 5.141-2.685 1.837-6.112 3.692-10.282 5.565h21.518c.566 0 .972.177 1.219.53.248.353.371.707.371 1.06 0 .353-.141.707-.424 1.06-.282.353-.671.53-1.166.53h-29.839zm80.741-.053c-.459 0-.866-.141-1.219-.424-.318-.283-.512-.654-.583-1.113-.106-.848-.194-1.961-.265-3.339a158.806 158.806 0 01-.159-4.664c-.035-1.696-.053-3.41-.053-5.141 0-2.509.035-4.894.106-7.155.106-2.297.23-4.028.371-5.194.071-.495.247-.848.53-1.06.318-.212.636-.336.954-.371 1.06-.177 2.332-.283 3.816-.318a106.2 106.2 0 014.876-.106c2.367 0 4.894.053 7.579.159 2.721.07 5.459.159 8.215.265.495.035.901.23 1.219.583.318.353.424.777.318 1.272-.035.46-.23.848-.583 1.166-.353.283-.777.406-1.272.37a117.56 117.56 0 00-4.24-.158c-1.625-.07-3.321-.124-5.088-.16a260.104 260.104 0 00-5.194-.052c-1.625 0-3.127.018-4.505.053a69.701 69.701 0 00-3.445.159c-.071.742-.141 1.926-.212 3.55a252.714 252.714 0 00-.053 5.407c0 1.873.018 3.781.053 5.724.035 1.908.088 3.639.159 5.194.071 1.519.141 2.668.212 3.445.106.495-.018.936-.371 1.325-.318.389-.707.583-1.166.583zm64.448.689c-3.286 0-6.148-.689-8.586-2.067-2.403-1.378-4.275-3.304-5.618-5.777-1.307-2.509-1.961-5.459-1.961-8.851 0-3.392.636-6.342 1.908-8.851 1.272-2.509 3.109-4.452 5.512-5.83 2.403-1.378 5.318-2.067 8.745-2.067 3.533 0 6.501.689 8.904 2.067 2.403 1.378 4.222 3.321 5.459 5.83 1.237 2.473 1.855 5.424 1.855 8.851 0 5.441-1.396 9.575-4.187 12.402-2.756 2.862-6.766 4.293-12.031 4.293zm0-3.339c4.417 0 7.667-1.113 9.752-3.339 2.085-2.226 3.127-5.565 3.127-10.017 0-4.205-1.078-7.49-3.233-9.858-2.155-2.367-5.371-3.551-9.646-3.551s-7.491 1.219-9.646 3.657c-2.155 2.403-3.233 5.653-3.233 9.752 0 4.099 1.113 7.349 3.339 9.752 2.261 2.403 5.441 3.604 9.54 3.604zm38.478 4.187c-.459 0-.83-.177-1.113-.53-.283-.353-.424-.777-.424-1.272.212-1.696.459-3.586.742-5.671.283-2.085.601-4.222.954-6.413a487.72 487.72 0 011.06-6.413c.389-2.085.76-3.94 1.113-5.565.353-1.66.671-2.968.954-3.922.141-.424.353-.724.636-.901a1.67 1.67 0 01.901-.265c.424 0 .813.124 1.166.37.177-.07.318-.14.424-.211.106-.07.247-.124.424-.16 1.307-.211 2.827-.37 4.558-.476a64.512 64.512 0 015.141-.212c2.544 0 4.646.177 6.307.53 1.696.353 2.95 1.06 3.763 2.12.848 1.025 1.272 2.544 1.272 4.558v.742c0 .247-.018.512-.053.795a119.734 119.734 0 00-.371 4.346 97.63 97.63 0 00-.106 4.558c0 2.191.141 4.205.424 6.042.283 1.837.777 3.109 1.484 3.816.353.353.689.583 1.007.689.353.106.777.141 1.272.106.495-.071.901.035 1.219.318.353.318.53.742.53 1.272.106 1.166-.548 1.749-1.961 1.749-1.873 0-3.339-.548-4.399-1.643s-1.802-2.509-2.226-4.24c-.106.247-.318.477-.636.689-.318.212-.636.318-.954.318h-20.935c-.035.212-.088.565-.159 1.06-.035.495-.071.954-.106 1.378-.035.459-.053.76-.053.901-.247 1.025-.866 1.537-1.855 1.537zm24.327-7.685a11.992 11.992 0 01-.318-1.749 41.867 41.867 0 01-.053-2.173c0-1.413.053-2.968.159-4.664.141-1.731.247-3.551.318-5.46a8.26 8.26 0 00.053-.9v-.795c0-1.555-.23-2.668-.689-3.34-.424-.706-1.201-1.13-2.332-1.271-1.131-.177-2.703-.265-4.717-.265-1.449 0-2.986.07-4.611.212-1.59.141-3.18.3-4.77.477-.353 0-.601-.018-.742-.053a2.879 2.879 0 01-.371-.16 75.084 75.084 0 00-1.59 6.838 147.534 147.534 0 00-1.007 6.36 159.114 159.114 0 01-1.007 6.413h20.458c.459 0 .866.177 1.219.53zm32.436 8.745a1.511 1.511 0 01-.53-1.166c0-.459.159-.866.477-1.219.813-.848 1.767-1.943 2.862-3.286a386.536 386.536 0 003.286-3.975 218.369 218.369 0 002.862-3.551c-.424-.459-1.078-1.237-1.961-2.332a667.08 667.08 0 01-2.968-3.71c-1.095-1.413-2.173-2.81-3.233-4.187a495.592 495.592 0 00-2.703-3.604c-.742-1.06-1.201-1.784-1.378-2.173a1.58 1.58 0 01-.212-.795c0-.6.283-1.095.848-1.484.247-.141.512-.212.795-.212.565 0 1.06.265 1.484.795.283.495.76 1.237 1.431 2.226.707.99 1.519 2.102 2.438 3.339a323.98 323.98 0 012.862 3.657 264.14 264.14 0 002.756 3.392 144.822 144.822 0 001.961 2.332c1.201-1.625 2.244-3.039 3.127-4.24a138.065 138.065 0 002.385-3.34 73.755 73.755 0 002.067-3.285 114.59 114.59 0 002.173-3.975c.177-.353.406-.6.689-.742.283-.141.565-.212.848-.212.283 0 .53.053.742.159.636.353.954.848.954 1.484 0 .247-.053.512-.159.795-.742 1.484-1.767 3.233-3.074 5.247a130.216 130.216 0 01-4.346 6.413 214.567 214.567 0 01-4.929 6.625 219.299 219.299 0 01-4.929 6.148c-1.59 1.908-3.003 3.516-4.24 4.823-.389.353-.813.53-1.272.53-.424 0-.795-.159-1.113-.477z" fill="#fff"/></svg>