<?xml version="1.0" encoding="utf-8"?><svg viewBox="0 0 52 58" xmlns="http://www.w3.org/2000/svg" xmlns:xlink="http://www.w3.org/1999/xlink"><style>:root>svg{display:none}:root>svg:target{display:block}</style><svg fill="none" viewBox="0 0 44 37" id="anticrisis" xmlns="http://www.w3.org/2000/svg"><path d="M37.908 2a4 4 0 014 4v27a4 4 0 01-4 4H13.245a6 6 0 01-5.076-2.802l-7.245-11.5a6 6 0 010-6.396l7.245-11.5A6 6 0 0113.245 2h24.663z" fill="#4479A3" fill-opacity=".12"/><path d="M30.447 21.986v-9.401m0 0V2h6.033a5.292 5.292 0 015.292 5.292v0a5.292 5.292 0 01-5.292 5.293h-6.033zm0 0h-3.998m0 5.1h11.992" stroke="#324C9A" stroke-width="3" stroke-linecap="round" stroke-linejoin="round"/></svg><svg fill="none" viewBox="0 0 6 5" id="arrow-select-dark" xmlns="http://www.w3.org/2000/svg"><path d="M3.866 4.5a1 1 0 01-1.732 0l-1.732-3A1 1 0 011.268 0h3.464a1 1 0 01.866 1.5l-1.732 3z" fill="#333"/></svg><svg fill="none" viewBox="0 0 25 24" id="basket-btn" xmlns="http://www.w3.org/2000/svg"><path d="M1.388 7.329A2 2 0 013.361 5h15.278a2 2 0 011.973 2.329l-1.055 6.329A4 4 0 0115.612 17H6.388a4 4 0 01-3.946-3.342l-1.055-6.33z" fill="#324C9A"/><path fill-rule="evenodd" clip-rule="evenodd" d="M24.407 1.06A1 1 0 0123.96 2.4l-2.735 1.37-1.353 7.898a1 1 0 11-1.97-.338l1.437-8.395a1 1 0 01.538-.726L23.064.613a1 1 0 011.342.446z" fill="#324C9A"/><circle cx="5" cy="21" r="2" fill="#324C9A"/><circle cx="15" cy="21" r="2" fill="#324C9A"/></svg><svg fill="none" viewBox="0 0 40 40" id="checkmark" xmlns="http://www.w3.org/2000/svg"><circle cx="20" cy="20" r="20" fill="#4479A3" fill-opacity=".12"/><path d="M28 15L17.073 26 12.5 21.5" stroke="#324C9A" stroke-width="3" stroke-linecap="round" stroke-linejoin="round"/></svg><svg fill="none" viewBox="0 0 24 24" id="close" xmlns="http://www.w3.org/2000/svg"><path d="M5 5l7 7m7 7l-7-7m0 0l7-7m-7 7l-7 7" stroke="#A4A9BB" stroke-width="2" stroke-linecap="round"/></svg><svg fill="none" viewBox="0 0 24 24" id="delivery" xmlns="http://www.w3.org/2000/svg"><path d="M23.998 11.68a.653.653 0 00-.109-.346l-3.694-5.543a.659.659 0 00-.546-.291H14.655a.656.656 0 00-.655.656v10.689c0 .361.293.655.656.655H16a3 3 0 006 0h1.344a.657.657 0 00.656-.656v-5.146l-.002-.019zM17 11.5v-4h2.53l2.667 4H17zm2 7.5c-.827 0-1.5-.673-1.5-1.5S18.173 16 19 16c.826 0 1.5.673 1.5 1.5S19.826 19 19 19zM12.129 3.5H.87A.87.87 0 000 4.371v12.258c0 .48.39.87.87.87H3a3 3 0 106 0h3.129c.48 0 .87-.39.87-.87V4.37a.87.87 0 00-.87-.87zM5.999 19c-.826 0-1.5-.673-1.5-1.5S5.174 16 6 16c.828 0 1.5.673 1.5 1.5S6.828 19 6 19z" fill="#324C9A"/></svg><svg fill="none" viewBox="0 0 47 46" id="email" xmlns="http://www.w3.org/2000/svg"><path d="M17.408 6.976a3.576 3.576 0 014.91 0l2.234 2.11a3.576 3.576 0 002.665.97l3.067-.18a3.576 3.576 0 013.762 3.155l.355 3.053a3.577 3.577 0 001.418 2.455l2.465 1.834a3.576 3.576 0 01.853 4.836l-1.69 2.566a3.576 3.576 0 00-.492 2.793l.71 2.99a3.576 3.576 0 01-2.455 4.252l-2.944.88a3.576 3.576 0 00-2.172 1.822l-1.378 2.747a3.576 3.576 0 01-4.614 1.68l-2.821-1.22a3.576 3.576 0 00-2.835 0l-2.821 1.22a3.576 3.576 0 01-4.614-1.68l-1.378-2.747A3.576 3.576 0 007.46 38.69l-2.945-.88a3.576 3.576 0 01-2.455-4.253l.71-2.99c.228-.958.05-1.969-.492-2.792L.589 25.21a3.576 3.576 0 01.853-4.836l2.465-1.834a3.576 3.576 0 001.418-2.455l.356-3.053a3.576 3.576 0 013.761-3.156l3.068.18a3.576 3.576 0 002.664-.97l2.234-2.11z" fill="#4479A3" fill-opacity=".12"/><path fill-rule="evenodd" clip-rule="evenodd" d="M23.387 3h18.818c.928 0 1.356 1.154.652 1.759l-9.085 7.802a1 1 0 01-1.277.022L22.761 4.78c-.737-.59-.319-1.78.626-1.78zm18.818-3H23.387c-2.538 0-4.126 2.146-4.001 4.272V17a4.5 4.5 0 004.5 4.5h17.83a4.5 4.5 0 004.5-4.5V4.184c0-.035 0-.069-.003-.102C46.237 2.016 44.658 0 42.205 0zm1.012 8.404l-7.49 6.433a4 4 0 01-5.108.087l-8.233-6.6V17a1.5 1.5 0 001.5 1.5h17.83a1.5 1.5 0 001.5-1.5V8.404z" fill="#324C9A"/></svg><svg fill="none" viewBox="0 0 24 25" id="empire" xmlns="http://www.w3.org/2000/svg"><path fill-rule="evenodd" clip-rule="evenodd" d="M3.429 15.23V3.534c0-.445.203-.867.571-1.112C5.48 1.44 8.265.027 10.984.027c2.004 0 3.456.776 3.958 1.344a.508.508 0 01.114.342v.553c0 .25.161.47.404.518.492.1 1.305.21 2.326.21 2.844 0 4.627-1.17 5.684-1.981a.328.328 0 01.53.262v12.218c0 .23-.05.462-.18.652-1.132 1.669-4.152 2.643-9.4 2.643h-1.576a.473.473 0 01-.471-.474v-1.04c0-.154-.066-.301-.196-.381-.457-.282-1.443-.669-2.911-.669-2.314 0-3.974.813-5.171 1.423a.458.458 0 01-.666-.417zM1.714 5.17A.857.857 0 000 5.17v18a.857.857 0 101.714 0v-18z" fill="#FF1616"/></svg><svg fill="none" viewBox="0 0 12 12" id="icon-accordion-close" xmlns="http://www.w3.org/2000/svg"><path d="M10.5 1.5l-9 9m0-9l9 9-9-9z" stroke="#324C9A" stroke-width="2" stroke-linecap="round" stroke-linejoin="round"/></svg><svg fill="none" viewBox="0 0 46 46" id="icon-accordion-open" xmlns="http://www.w3.org/2000/svg"><g clip-path="url(#ajclip0)" stroke="#A4A9BB" stroke-width="2" stroke-linecap="round" stroke-linejoin="round"><path d="M31.483 31.113c4.686-4.687 4.686-12.285 0-16.97-4.686-4.687-12.284-4.687-16.97 0-4.687 4.685-4.687 12.283 0 16.97 4.686 4.686 12.284 4.686 16.97 0zM22.998 18.856V26.4m-3.771-3.772h7.542-7.542z"/></g><defs><clipPath id="ajclip0"><path fill="#fff" transform="rotate(-45 27.5 10.866)" d="M0 0h32v32H0z"/></clipPath></defs></svg><svg fill="none" viewBox="0 0 46 46" id="icon-accordion-open-dark" xmlns="http://www.w3.org/2000/svg"><g clip-path="url(#akclip0)" stroke="#324C9A" stroke-width="2" stroke-linecap="round" stroke-linejoin="round"><path d="M31.112 31.858c4.686-4.686 4.686-12.284 0-16.97-4.686-4.687-12.284-4.687-16.97 0-4.687 4.686-4.687 12.284 0 16.97 4.686 4.686 12.284 4.686 16.97 0zM22.627 19.601v7.543m-3.771-3.771h7.542-7.543z"/></g><defs><clipPath id="akclip0"><path fill="#fff" transform="rotate(-45 28.213 11.686)" d="M0 0h32v32H0z"/></clipPath></defs></svg><svg fill="none" viewBox="0 0 34 28" id="icon-api" xmlns="http://www.w3.org/2000/svg"><path d="M30.877 0H2.457A2.463 2.463 0 000 2.456v23.088A2.441 2.441 0 002.456 28h28.386a2.441 2.441 0 002.456-2.456V2.456C33.333 1.088 32.211 0 30.878 0zm-20.35 2.526c.596 0 1.052.492 1.052 1.053 0 .596-.491 1.053-1.053 1.053a1.056 1.056 0 01-1.052-1.053c0-.597.456-1.053 1.052-1.053zm-3.229 0c.597 0 1.053.492 1.053 1.053 0 .596-.491 1.053-1.053 1.053a1.056 1.056 0 01-1.052-1.053c0-.597.49-1.053 1.052-1.053zm-3.228 0c.597 0 1.053.492 1.053 1.053 0 .596-.491 1.053-1.053 1.053a1.056 1.056 0 01-1.052-1.053c0-.597.49-1.053 1.052-1.053z" fill="#324C9A"/><path d="M11.261 20.07c.246.246.562.386.913.386.28 0 .596-.105.842-.316a1.219 1.219 0 00.07-1.719l-2.35-2.526 2.35-2.527a1.219 1.219 0 00-.07-1.719 1.219 1.219 0 00-1.72.07l-3.122 3.334a1.234 1.234 0 000 1.649l3.088 3.368zM20.35 20.14c.246.21.527.316.843.316.316 0 .666-.14.912-.386l3.088-3.368a1.234 1.234 0 000-1.65l-3.088-3.368a1.219 1.219 0 00-1.72-.07 1.219 1.219 0 00-.07 1.72l2.352 2.526-2.351 2.526c-.491.526-.491 1.298.035 1.754zM15.545 22c.07 0 .14.035.246.035.561 0 1.088-.421 1.193-.982l1.79-9.474c.14-.667-.316-1.298-.983-1.439-.667-.14-1.298.316-1.439.983l-1.789 9.438A1.258 1.258 0 0015.545 22z" fill="#fff"/></svg><svg fill="none" viewBox="0 0 25 24" id="icon-burger-dark" xmlns="http://www.w3.org/2000/svg"><rect x="4.512" y="4" width="16" height="2" rx="1" fill="#324C9A"/><rect x="4.512" y="11" width="16" height="2" rx="1" fill="#324C9A"/><rect x="4.512" y="18" width="16" height="2" rx="1" fill="#324C9A"/></svg><svg fill="none" viewBox="0 0 24 24" id="icon-burger-light" xmlns="http://www.w3.org/2000/svg"><rect x="2" y="5" width="20" height="2" rx="1" fill="#fff"/><rect x="2" y="17" width="20" height="2" rx="1" fill="#fff"/></svg><svg fill="none" viewBox="0 0 26 26" id="icon-card" xmlns="http://www.w3.org/2000/svg"><path d="M17.552 16.9a.65.65 0 000 1.3h2.6a.65.65 0 000-1.3h-2.6z" fill="#324C9A"/><path d="M2.602 8.45a3.25 3.25 0 013.25-3.25h14.3a3.25 3.25 0 013.25 3.25v9.1a3.25 3.25 0 01-3.25 3.25h-14.3a3.25 3.25 0 01-3.25-3.25v-9.1zm1.3 9.1a1.95 1.95 0 001.95 1.95h14.3a1.95 1.95 0 001.95-1.95V11.7h-18.2v5.85zm18.2-9.1a1.95 1.95 0 00-1.95-1.95h-14.3a1.95 1.95 0 00-1.95 1.95v1.95h18.2V8.45z" fill="#324C9A"/></svg><svg fill="none" viewBox="0 0 23 26" id="icon-cash" xmlns="http://www.w3.org/2000/svg"><path d="M21.594 12.55c-1.55 0-2.99-.868-3.85-2.324l-.308-.522-.31.522c-.86 1.456-2.299 2.324-3.85 2.324h-1.405v6.709c0 1.621.647 3.145 1.729 4.168H5.935v-1.674h4.823v-7.53h-7.79v3.347H.742V.837h16.322v7.53h.742V0H0v18.162l5.41 6.102h9.33L17.436 26l3.134-2.02C22.07 23.015 23 21.205 23 19.26V12.55h-1.406zm-16.4 10.285l-3.928-4.428h3.928v4.428zM3.71 17.57v-2.51h6.306v5.857h-4.08V17.57H3.71zm18.548 1.689c0 1.647-.788 3.178-2.056 3.995l-2.767 1.783-2.766-1.783c-1.268-.817-2.056-2.348-2.056-3.995v-5.872h.664c1.624 0 3.144-.822 4.159-2.225 1.014 1.403 2.534 2.225 4.158 2.225h.664v5.872z" fill="#324C9A"/><path d="M20.773 16.733v2.526c0 1.048-.501 2.022-1.308 2.542l.368.726c1.037-.668 1.682-1.92 1.682-3.268v-2.526h-.742zM2.227 1.673v2.51H15.58v-2.51H2.227zm12.612 1.674H2.97V2.51h11.87v.837zM20.513 14.346l-4.93 5.56-1.223-1.377-.524.592 1.746 1.969 5.456-6.152-.525-.592zM9.272 15.897H4.449v.836h4.823v-.836zM9.276 17.57H6.68v.837h2.596v-.837zM9.276 19.244H6.68v.836h2.596v-.836zM14.098 5.857H2.226v.836h11.87v-.836zM14.098 7.53H2.226v.837h11.87V7.53zM14.098 9.203H2.226v.837h11.87v-.837zM9.275 10.877H2.227v.836h7.048v-.836zM9.275 12.55H2.227v.837h7.048v-.837zM15.582 5.857h-.742v.836h.742v-.836zM15.582 7.53h-.742v.837h.742V7.53zM15.582 9.203h-.742v.837h.742v-.837zM10.758 10.877h-.742v.836h.742v-.836zM10.758 12.55h-.742v.837h.742v-.837z" fill="#324C9A"/></svg><svg fill="none" viewBox="0 0 11 11" id="icon-city-cart-light" xmlns="http://www.w3.org/2000/svg"><path fill-rule="evenodd" clip-rule="evenodd" d="M3.012 1.337a1 1 0 011-1h2a1 1 0 011 1v2a1 1 0 01-1 1h-2a1 1 0 01-1-1v-2zm-3 6a1 1 0 011-1h2a1 1 0 011 1v2a1 1 0 01-1 1h-2a1 1 0 01-1-1v-2zm7-1a1 1 0 00-1 1v2a1 1 0 001 1h2a1 1 0 001-1v-2a1 1 0 00-1-1h-2z" fill="#A4A9BB"/></svg><svg fill="none" viewBox="0 0 43 29" id="icon-gala-catalog" xmlns="http://www.w3.org/2000/svg"><path fill-rule="evenodd" clip-rule="evenodd" d="M23.361 14.5H9.665v4.833h12.263a8.861 8.861 0 11.467-8.861h6.038a14.447 14.447 0 00-2.277-4.598 8.886 8.886 0 012.037-.235 8.86 8.86 0 017.895 4.833h6.038C40.381 4.424 34.803 0 28.193 0c-2.476 0-4.808.62-6.847 1.715A14.436 14.436 0 0014.5 0C6.492 0 0 6.492 0 14.5S6.492 29 14.5 29c2.476 0 4.807-.62 6.846-1.715A14.436 14.436 0 0028.193 29c6.9 0 12.675-4.82 14.14-11.278H36.45a8.864 8.864 0 01-10.294 5.404A14.435 14.435 0 0029 14.5h-5.639z" fill="#324C9A"/></svg><svg fill="none" viewBox="0 0 26 20" id="icon-mail-blue" xmlns="http://www.w3.org/2000/svg"><path fill-rule="evenodd" clip-rule="evenodd" d="M3.217 17.522c.236.124.503.193.783.193h18c.281 0 .548-.07.784-.193l-7.09-7.143-2.312 2.037a.57.57 0 01-.763 0l-2.313-2.039-7.09 7.145zm-.846-.912a.68.68 0 01.017-.018l6.984-7.038-6.954-6.13a.626.626 0 01-.044-.043c-.115.26-.175.543-.175.831v11.576c0 .294.061.573.172.822zm21.259 0c.11-.249.171-.528.171-.822V4.212c0-.298-.062-.578-.175-.831a.62.62 0 01-.043.042l-6.954 6.131 6.984 7.038.017.018zm-.858-14.139A1.695 1.695 0 0022 2.285H4c-.276 0-.54.067-.772.186l9.772 8.617 9.773-8.617zM4 1h18c1.657 0 3 1.438 3 3.212v11.576C25 17.562 23.657 19 22 19H4c-1.657 0-3-1.438-3-3.212V4.212C1 2.438 2.343 1 4 1z" fill="#324C9A"/><path d="M3.217 17.522l-.249-.246-.334.337.42.22.163-.31zm19.567 0l.162.31.421-.22-.335-.336-.248.246zm-7.09-7.143l.249-.247-.232-.234-.248.218.231.263zm-2.312 2.037l-.231-.262.231.262zm-.763 0l.231-.262-.231.262zm-2.313-2.039l.232-.262-.248-.218-.232.234.248.246zM2.371 16.61l-.32.142.219.495.361-.403-.26-.234zm.017-.018l-.249-.246-.002.003.25.243zm6.984-7.038l.248.247.262-.264-.279-.245-.231.262zm-6.954-6.13l-.233.26.001.002.232-.263zm-.044-.043l.257-.238-.36-.39-.216.485.32.143zm-.175.831h.35-.35zm21.427-.831l.32-.143-.216-.485-.36.39.256.238zm-.043.042l.231.263.002-.001-.233-.262zm-6.954 6.131l-.232-.262-.278.245.262.264.248-.247zm6.984 7.038l.256-.239-.008-.007-.248.246zM21.999 2.285v.35-.35zM3.227 2.47l-.16-.311-.457.234.385.34.232-.263zm9.772 8.617l-.231.263.231.204.232-.204-.232-.263zM1 15.788H.65 1zm2.055 2.045c.284.148.606.232.945.232v-.7c-.222 0-.433-.055-.621-.153l-.324.62zm.945.232h18v-.7H4v.7zm18 0c.34 0 .661-.084.946-.232l-.324-.621a1.34 1.34 0 01-.622.153v.7zm1.032-.79l-7.09-7.143-.496.493 7.09 7.144.496-.493zm-7.569-7.159l-2.312 2.038.462.525 2.313-2.038-.463-.525zm-2.313 2.038a.22.22 0 01-.3 0l-.463.525a.92.92 0 001.227 0l-.464-.525zm-.3 0l-2.312-2.039-.463.525 2.312 2.039.463-.525zm-2.792-2.023l-7.09 7.145.497.493 7.09-7.145-.497-.493zm-7.427 6.713a.317.317 0 01.008-.008l-.502-.487a.907.907 0 00-.027.027l.521.468zm.005-.005L9.62 9.8l-.497-.493-6.984 7.038.497.493zm6.967-7.547L2.65 3.16l-.463.525 6.954 6.13.463-.524zM2.65 3.162a.276.276 0 01-.019-.019l-.514.475a.974.974 0 00.068.067l.465-.523zm-.595.076a2.383 2.383 0 00-.206.975l.7-.002c0-.238.05-.474.145-.688l-.64-.285zm-.206.974v11.576h.7V4.212h-.7zm0 11.576c0 .343.072.67.202.964l.64-.283a1.677 1.677 0 01-.142-.681h-.7zm22.1.964c.13-.294.202-.621.202-.964h-.7c0 .245-.05.476-.141.68l.64.284zm.202-.964V4.212h-.7v11.576h.7zm0-11.576c0-.348-.073-.676-.205-.974l-.64.285c.093.209.145.44.145.689h.7zm-.782-1.069a.297.297 0 01-.019.019l.466.523a.943.943 0 00.067-.067l-.514-.475zm-.018.018l-6.954 6.13.463.526 6.954-6.131-.463-.525zm-6.97 6.64l6.983 7.038.497-.493-6.984-7.038-.496.493zm6.976 7.03l.017.018.512-.478-.017-.018-.512.478zM22.931 2.16A2.045 2.045 0 0022 1.935v.7c.212 0 .422.05.614.148l.318-.624zM22 1.935H4v.7h18v-.7zm-18 0c-.332 0-.651.08-.932.225l.32.622c.184-.094.393-.147.612-.147v-.7zm-1.004.799l9.773 8.617.463-.525-9.773-8.617-.463.525zm10.236 8.617l9.773-8.617-.463-.525-9.773 8.617.463.525zM4 1.35h18v-.7H4v.7zm18 0c1.441 0 2.65 1.258 2.65 2.862h.7C25.35 2.268 23.872.65 22 .65v.7zm2.65 2.862v11.576h.7V4.212h-.7zm0 11.576c0 1.604-1.209 2.862-2.65 2.862v.7c1.872 0 3.35-1.618 3.35-3.562h-.7zM22 18.65H4v.7h18v-.7zm-18 0c-1.441 0-2.65-1.258-2.65-2.862h-.7c0 1.944 1.478 3.562 3.35 3.562v-.7zm-2.65-2.862V4.212h-.7v11.576h.7zm0-11.576C1.35 2.608 2.559 1.35 4 1.35v-.7C2.128.65.65 2.268.65 4.212h.7z" fill="#324C9A"/></svg><svg fill="none" viewBox="0 0 32 34" id="icon-manager" xmlns="http://www.w3.org/2000/svg"><path d="M16 2.267c-3.536 0-6.928 1.194-9.428 3.32-2.5 2.125-3.905 5.007-3.905 8.013v2.267h2.666c.708 0 1.386.238 1.886.664.5.425.781 1.001.781 1.602v6.8c0 .602-.28 1.178-.781 1.603-.5.425-1.178.664-1.886.664H2.667c-.708 0-1.386-.239-1.886-.664-.5-.425-.781-1.002-.781-1.603V13.6c0-1.786.414-3.554 1.218-5.204S3.2 5.245 4.686 3.982C6.172 2.72 7.936 1.72 9.877 1.035A18.48 18.48 0 0116 0c2.101 0 4.182.352 6.123 1.035 1.941.684 3.705 1.685 5.19 2.948 1.486 1.263 2.665 2.762 3.47 4.413A11.854 11.854 0 0132 13.6v13.6c0 1.503-.702 2.944-1.953 4.007-1.25 1.063-2.946 1.66-4.714 1.66h-5.69c-.234.344-.571.63-.976.83a3.036 3.036 0 01-1.334.303h-2.666c-.708 0-1.386-.239-1.886-.664-.5-.425-.781-1.002-.781-1.603 0-.6.281-1.177.781-1.602.5-.425 1.178-.664 1.886-.664h2.666c.468 0 .928.104 1.334.303.405.2.742.485.976.83h5.69c1.061 0 2.079-.358 2.829-.996.75-.637 1.171-1.502 1.171-2.404h-2.666c-.708 0-1.386-.239-1.886-.664-.5-.425-.781-1.002-.781-1.603v-6.8c0-.6.281-1.177.781-1.602.5-.425 1.178-.664 1.886-.664h2.666V13.6a9.877 9.877 0 00-1.015-4.337c-.67-1.375-1.652-2.624-2.89-3.677a13.694 13.694 0 00-4.326-2.457A15.398 15.398 0 0016 2.267z" fill="#324C9A"/></svg><svg fill="none" viewBox="0 0 24 24" id="icon-outline-phone" xmlns="http://www.w3.org/2000/svg"><path fill-rule="evenodd" clip-rule="evenodd" d="M5.903 2.493a1 1 0 00-1.414 0L3.12 3.862a1.018 1.018 0 00-.089.101l-.018.023-.018.022c-.713.827-1.177 2.559-.679 4.925.49 2.325 1.899 5.145 4.72 7.967 2.892 2.891 5.843 4.3 8.246 4.775 2.259.445 3.864.047 4.611-.51l.234-.206a1.03 1.03 0 00.046-.044l1.369-1.368a1 1 0 000-1.415l-2.473-2.472a1 1 0 00-1.414 0l-1.369 1.369a.946.946 0 00-.04.042l-.049.055-.04.033c-.9.867-2.355.933-3.627.646-1.357-.306-2.84-1.072-4.084-2.315-1.285-1.286-1.927-2.882-2.133-4.27a6.194 6.194 0 010-1.941c.091-.522.285-1.1.683-1.513l.015-.022L8.375 6.38a1 1 0 000-1.414L5.903 2.493zm15.61 19.908l-.015.015c-1.324 1.325-3.847 1.765-6.604 1.22-2.83-.558-6.13-2.18-9.272-5.322C2.567 15.259.941 12.102.36 9.345c-.57-2.703-.15-5.148 1.102-6.62.075-.097.157-.19.245-.277l1.368-1.369a3 3 0 014.243 0L9.79 3.552a3 3 0 010 4.242L8.526 9.058c-.03.035-.061.069-.095.101m13.082 13.242c.025-.023.05-.047.074-.072l1.369-1.368a3 3 0 000-4.243l-2.473-2.472a3 3 0 00-4.242 0l-1.369 1.368a3.008 3.008 0 00-.1.102c-.16.158-.743.377-1.802.138-.983-.222-2.13-.8-3.11-1.778-.935-.936-1.415-2.116-1.568-3.149a4.211 4.211 0 01-.009-1.305c.054-.306.131-.433.147-.46.003-.005.004-.006 0-.003" fill="#324C9A"/></svg><svg fill="none" viewBox="0 0 26 25" id="icon-pickup" xmlns="http://www.w3.org/2000/svg"><path d="M24.781 8.444c-.15 0-.3-.035-.435-.104L12.9 2.235 1.454 8.3a.978.978 0 01-.778.04 1.036 1.036 0 01-.578-.547 1.109 1.109 0 01-.038-.814 1.05 1.05 0 01.523-.604L12.9 0l12.317 6.374c.26.064.485.231.627.467.142.236.19.52.132.793a1.06 1.06 0 01-.438.661.978.978 0 01-.757.149zM7.95 18.79H2.01V25h5.94v-6.209zm7.921 0H9.93V25h5.94v-6.209zm7.921 0h-5.94V25h5.94v-6.209zm-3.96-8.278H13.89v6.209h5.94v-6.209zm-7.921 0H5.97v6.209h5.94v-6.209z" fill="#324C9A"/></svg><svg fill="none" viewBox="0 0 22 24" id="icon-placemark" xmlns="http://www.w3.org/2000/svg"><path d="M20.417 10.269c-.032 3.613-2.012 6.803-4.291 9.139-1.132 1.16-2.309 2.078-3.291 2.7-.492.312-.922.541-1.261.689-.36.156-.524.179-.536.18 0 0 0 0 0 0h-.001c-.011-.001-.176-.024-.532-.178a9.288 9.288 0 01-1.249-.683c-.971-.618-2.131-1.531-3.242-2.686-2.237-2.327-4.16-5.508-4.126-9.121.046-5.118 4.232-9.276 9.348-9.287a9.141 9.141 0 019.181 9.247z" stroke="#324C9A" stroke-width="2"/></svg><svg fill="none" viewBox="0 0 52 58" id="icon-price-list" xmlns="http://www.w3.org/2000/svg"><g clip-path="url(#axclip0)" fill="#333"><path d="M31.89 47.61l1.94-1.81 6.67 6.24V33.71h2.8v18.33l6.67-6.24 1.94 1.81-10.01 9.37-10.01-9.37zM3.65 57.3a3.83 3.83 0 01-2.6-1 3.23 3.23 0 01-1-2.36V3.36a3.23 3.23 0 011-2.36 3.83 3.83 0 012.6-1h22.51a1.24 1.24 0 01.95.37l15.78 14.78c.137.107.246.244.32.4.06.136.09.282.09.43v9.71h-2.8v-6.32H26.15a3.83 3.83 0 01-2.6-1A3.23 3.23 0 0122.5 16V2.51H2.8v52.27h22.5v2.52H3.65zM25.3 16.86h15.6L25.3 2.25v14.61z"/></g><defs><clipPath id="axclip0"><path fill="#fff" d="M0 0h51.91v57.3H0z"/></clipPath></defs></svg><svg fill="none" viewBox="0 0 20 26" id="icon-question-blue" xmlns="http://www.w3.org/2000/svg"><path d="M19.197 5.237a8.658 8.658 0 00-2.164-2.741C15.15.886 12.65 0 10 0 7.35 0 4.85.887 2.967 2.493A8.67 8.67 0 00.803 5.237 7.567 7.567 0 000 8.627v.906c0 .209.182.377.409.377h1.97c.227 0 .41-.168.41-.377v-.907c0-3.342 3.233-6.06 7.211-6.06s7.212 2.718 7.212 6.06c0 1.37-.53 2.66-1.533 3.736-.993 1.065-2.394 1.827-3.945 2.15a4.06 4.06 0 00-2.252 1.303 3.541 3.541 0 00-.873 2.304v1.055c0 .208.183.376.41.376h1.97c.226 0 .409-.168.409-.376V18.12c0-.527.398-.99.949-1.105 2.131-.443 4.065-1.501 5.449-2.98a8.356 8.356 0 001.616-2.485 7.565 7.565 0 00-.215-6.312zm-9.197 17c-1.128 0-2.044.844-2.044 1.882C7.956 25.157 8.872 26 10 26c1.128 0 2.044-.843 2.044-1.881s-.916-1.881-2.044-1.881z" fill="#324C9A"/></svg><svg fill="none" viewBox="0 0 16 18" id="icon-ruble" xmlns="http://www.w3.org/2000/svg"><path d="M2.755 18v-2.675h-2V12.9h2v-1.95h-2v-3.1h2V.15h5.7c2.3 0 3.975.467 5.025 1.4 1.066.933 1.6 2.217 1.6 3.85 0 .967-.217 1.875-.65 2.725-.433.85-1.158 1.533-2.175 2.05-1 .517-2.367.775-4.1.775H6.53v1.95h3.85v2.425H6.53V18H2.755zM7.78 7.85c1.067 0 1.908-.183 2.525-.55.633-.367.95-.958.95-1.775 0-1.517-1-2.275-3-2.275H6.53v4.6h1.25z" fill="#324C9A"/></svg><svg fill="none" viewBox="0 0 6 5" id="icon-select-dropdown-dark" xmlns="http://www.w3.org/2000/svg"><path d="M3.866 4.5a1 1 0 01-1.732 0l-1.732-3A1 1 0 011.268 0h3.464a1 1 0 01.866 1.5l-1.732 3z" fill="#333"/></svg><svg fill="none" viewBox="0 0 9 7" id="icon-select-dropdown-light" xmlns="http://www.w3.org/2000/svg"><path d="M5.282 6.498a1 1 0 01-1.69 0L.82 2.12A1 1 0 011.665.585H7.21a1 1 0 01.845 1.535L5.282 6.498z" fill="#A4A9BB"/></svg><svg fill="none" viewBox="0 0 22 21" id="icon-ship" xmlns="http://www.w3.org/2000/svg"><path d="M16.415 18.834c-.974 0-1.396-.325-2.033-.814-.736-.566-1.652-1.27-3.387-1.27s-2.65.704-3.386 1.271c-.636.488-1.056.813-2.03.813-.972 0-1.392-.325-2.028-.813-.735-.567-1.649-1.27-3.383-1.27v2.082c.973 0 1.393.325 2.03.813.735.567 1.649 1.27 3.381 1.27 1.735 0 2.649-.703 3.385-1.269.637-.49 1.057-.813 2.03-.813.976 0 1.421.341 2.035.813.736.566 1.651 1.27 3.386 1.27 1.734 0 2.65-.704 3.385-1.27.614-.472 1.06-.813 2.035-.813V16.75c-1.736 0-2.651.704-3.388 1.27-.637.49-1.058.814-2.032.814zM4.5 6.854l-2.166.521L4.5 15.71H5.58c1.735 0 2.649-.705 3.385-1.27.637-.49 1.057-.814 2.03-.814.976 0 1.421.342 2.035.814.736.565 1.651 1.27 3.386 1.27H17.5l.03-.112.339-1.304 1.798-6.918-2.167-.52V3.21c0-.241-.086-.475-.245-.661a1.092 1.092 0 00-.626-.361l-4.545-.874V.084H9.918v1.23l-4.546.874a1.092 1.092 0 00-.625.36c-.16.187-.246.42-.246.662v3.644zm2.167-2.792l4.333-.834 4.334.834v2.271L11 5.293 6.668 6.334V4.062z" fill="#324C9A"/></svg><svg fill="none" viewBox="0 0 25 17" id="icon-train" xmlns="http://www.w3.org/2000/svg"><path fill-rule="evenodd" clip-rule="evenodd" d="M24.906 16.281c0-1.508-1.41-3.08-1.41-3.08h-.072V8.523h-1.505V3.836l-3 .037v4.688l-1.613-.038V5.431H15.85v3.092h-4.66V3.74h1.53V.687H.554v3.028h1.53v8.008H.575v4.566h1.497a4.18 4.18 0 01-.073-.75c0-.019.008-.052.008-.052a4.012 4.012 0 011.15-2.776 3.843 3.843 0 012.727-1.15 3.843 3.843 0 012.73 1.149 4.012 4.012 0 011.15 2.777c0 .016.009.033.009.052 0 .256-.03.506-.075.75h13.726v-.006h1.481v-.002zM8.177 8.564h-3.07v-4.8h3.07v4.8z" fill="#324C9A"/></svg><svg fill="none" viewBox="0 0 31 32" id="icon-vk" xmlns="http://www.w3.org/2000/svg"><path d="M28.591 2.262C26.417 0 22.953 0 16.027 0h-1.289C7.813 0 4.268 0 2.175 2.262 0 4.524 0 8.126 0 15.33v1.34c0 7.204 0 10.89 2.175 13.068C4.349 32 7.812 32 14.739 32h1.288c6.926 0 10.47 0 12.564-2.262 2.175-2.262 2.175-5.864 2.175-13.068v-1.34c0-7.204 0-10.806-2.175-13.068z" fill="#2787F5"/><path d="M24.965 22.702H22.71c-.886 0-1.128-.67-2.658-2.262-1.37-1.34-1.933-1.508-2.255-1.508-.483 0-.564.168-.564.838v2.094c0 .586-.16.921-1.61.921-2.417 0-4.994-1.508-6.846-4.272-2.82-4.02-3.544-7.12-3.544-7.707 0-.335.161-.67.805-.67h2.255c.564 0 .806.251.967.922 1.127 3.35 2.98 6.199 3.705 6.199.322 0 .402-.168.402-.922V12.9c-.08-1.591-.886-1.675-.886-2.261 0-.252.242-.503.564-.503h3.544c.483 0 .644.251.644.838v4.607c0 .503.242.67.322.67.322 0 .483-.167 1.047-.754 1.611-1.842 2.739-4.774 2.739-4.774.16-.336.402-.67.966-.67h2.255c.644 0 .805.334.644.837-.322 1.34-3.06 5.361-3.06 5.361-.242.42-.322.587 0 1.006.242.335 1.047 1.005 1.53 1.675.967 1.089 1.692 2.094 1.933 2.764.322.67 0 1.006-.644 1.006z" fill="#fff"/></svg><svg fill="none" viewBox="0 0 24 24" id="like-blue" xmlns="http://www.w3.org/2000/svg"><path d="M1.613 13.059c-2.15-2.301-2.15-6.032 0-8.333 2.151-2.301 5.639-2.301 7.79 0 1.434 1.534 3.76 1.534 5.194 0 2.151-2.301 5.639-2.301 7.79 0 2.15 2.3 2.15 6.032 0 8.333l-6.925 7.407c-1.912 2.045-5.012 2.045-6.924 0l-6.925-7.407z" fill="#324C9A"/></svg><svg fill="none" viewBox="0 0 24 19" id="like-gray" xmlns="http://www.w3.org/2000/svg"><path d="M1.613 10.059c-2.15-2.301-2.15-6.032 0-8.333 2.151-2.301 5.639-2.301 7.79 0 1.434 1.534 3.76 1.534 5.194 0 2.151-2.301 5.639-2.301 7.79 0 2.15 2.3 2.15 6.032 0 8.333l-6.925 7.407c-1.912 2.045-5.012 2.045-6.924 0l-6.925-7.407z" fill="#A4A9BB"/></svg><svg fill="none" viewBox="0 0 25 19" id="like-red" xmlns="http://www.w3.org/2000/svg"><path d="M2.611 10.059c-2.15-2.301-2.15-6.032 0-8.333 2.151-2.301 5.639-2.301 7.79 0 1.434 1.534 3.76 1.534 5.194 0 2.151-2.301 5.639-2.301 7.79 0 2.15 2.3 2.15 6.032 0 8.333l-6.925 7.407c-1.912 2.045-5.012 2.045-6.924 0L2.61 10.059z" fill="#EB5757"/></svg><svg fill="none" viewBox="0 0 24 24" id="login" xmlns="http://www.w3.org/2000/svg"><path d="M6.977 7c0-2.761 2.249-5 5.023-5 2.774 0 5.023 2.239 5.023 5v1.667c0 2.761-2.249 5-5.023 5-2.774 0-5.023-2.239-5.023-5V7zM2.791 22c-.462 0-.842-.375-.785-.832.41-3.29 3.23-5.835 6.645-5.835h6.698c3.416 0 6.234 2.546 6.645 5.835.057.457-.323.832-.785.832H2.79z" fill="#324C9A"/></svg><svg fill="none" viewBox="0 0 24 24" id="search-blue" xmlns="http://www.w3.org/2000/svg"><path fill-rule="evenodd" clip-rule="evenodd" d="M10 17.97c4.418 0 8-3.576 8-7.987 0-4.41-3.582-7.986-8-7.986S2 5.572 2 9.983c0 4.41 3.582 7.986 8 7.986zm0 1.996c5.523 0 10-4.47 10-9.983C20 4.469 15.523 0 10 0S0 4.47 0 9.983c0 5.513 4.477 9.983 10 9.983zM23.675 23.7a1.001 1.001 0 01-1.414.016l-4.358-4.25a.997.997 0 01-.017-1.412 1.001 1.001 0 011.414-.017l4.358 4.25a.997.997 0 01.017 1.412z" fill="#324C9A"/></svg><svg fill="none" viewBox="0 0 24 24" id="search-gray" xmlns="http://www.w3.org/2000/svg"><path fill-rule="evenodd" clip-rule="evenodd" d="M10 17.97c4.418 0 8-3.576 8-7.987 0-4.41-3.582-7.986-8-7.986S2 5.572 2 9.983c0 4.41 3.582 7.986 8 7.986zm0 1.996c5.523 0 10-4.47 10-9.983C20 4.469 15.523 0 10 0S0 4.47 0 9.983c0 5.513 4.477 9.983 10 9.983zM23.675 23.7a1.001 1.001 0 01-1.414.016l-4.358-4.25a.997.997 0 01-.017-1.412 1.001 1.001 0 011.414-.016l4.358 4.25a.997.997 0 01.017 1.411z" fill="#A4A9BB"/></svg><svg fill="none" viewBox="0 0 9 14" id="slider-arrow" xmlns="http://www.w3.org/2000/svg"><path d="M7 2L2 7l5 5" stroke="#324C9A" stroke-width="3" stroke-linecap="round" stroke-linejoin="round"/></svg><svg fill="none" viewBox="0 0 11 20" id="slider-arrow-light" xmlns="http://www.w3.org/2000/svg"><path fill-rule="evenodd" clip-rule="evenodd" d="M.293.293a1 1 0 000 1.414L8.586 10 .293 18.293a1 1 0 101.414 1.414l9-9a1 1 0 000-1.414l-9-9a1 1 0 00-1.414 0z" fill="#fff"/></svg><svg fill="none" viewBox="0 0 22 20" id="star" xmlns="http://www.w3.org/2000/svg"><path d="M10.093.953a1 1 0 011.814 0l2.258 4.863a1 1 0 00.787.572l5.323.645a1 1 0 01.56 1.725l-3.927 3.65a1 1 0 00-.3.925l1.031 5.262a1 1 0 01-1.467 1.066l-4.686-2.607a1 1 0 00-.972 0l-4.686 2.607a1 1 0 01-1.467-1.066l1.031-5.262a1 1 0 00-.3-.924L1.164 8.758a1 1 0 01.561-1.725l5.323-.645a1 1 0 00.787-.572L10.093.953z" fill="#F2994A"/></svg><svg fill="none" viewBox="0 0 40 40" id="stock" xmlns="http://www.w3.org/2000/svg"><path d="M17.408.976a3.576 3.576 0 014.91 0l2.234 2.11a3.576 3.576 0 002.665.97l3.067-.18a3.576 3.576 0 013.762 3.156l.355 3.052a3.577 3.577 0 001.418 2.455l2.465 1.834a3.576 3.576 0 01.853 4.836l-1.69 2.566a3.576 3.576 0 00-.492 2.793l.71 2.99a3.576 3.576 0 01-2.455 4.252l-2.944.88a3.576 3.576 0 00-2.172 1.822l-1.378 2.747a3.576 3.576 0 01-4.614 1.68l-2.821-1.22a3.576 3.576 0 00-2.835 0l-2.821 1.22a3.576 3.576 0 01-4.614-1.68l-1.378-2.747A3.576 3.576 0 007.46 32.69l-2.945-.88a3.576 3.576 0 01-2.455-4.253l.71-2.99c.228-.958.05-1.969-.492-2.792L.589 19.21a3.576 3.576 0 01.853-4.836l2.465-1.834a3.576 3.576 0 001.418-2.455l.356-3.052a3.576 3.576 0 013.761-3.157l3.068.18a3.576 3.576 0 002.664-.97l2.234-2.11z" fill="#4479A3" fill-opacity=".12"/><path fill-rule="evenodd" clip-rule="evenodd" d="M19.03 19.855a1.5 1.5 0 002.132 2.111l18-18.17a1.5 1.5 0 00-2.132-2.11l-18 18.169zm4.48-11.698a1.936 1.936 0 100-3.87 1.936 1.936 0 000 3.87zm0 3a4.935 4.935 0 100-9.87 4.935 4.935 0 000 9.87zm11.28 8.281a1.935 1.935 0 100-3.87 1.935 1.935 0 000 3.87zm0 3a4.936 4.936 0 100-9.87 4.936 4.936 0 000 9.87z" fill="#324C9A"/></svg><svg fill="none" viewBox="0 0 23 23" id="time" xmlns="http://www.w3.org/2000/svg"><path d="M11.454 22c5.773 0 10.453-4.701 10.453-10.5S17.227 1 11.454 1C5.68 1 1 5.701 1 11.5S5.68 22 11.454 22z" stroke="#324C9A" stroke-width="2" stroke-linecap="round" stroke-linejoin="round"/><path d="M11.453 5.5v6l2.987 3" stroke="#324C9A" stroke-width="2" stroke-linecap="round" stroke-linejoin="round"/></svg></svg>