<svg width="88" height="70" fill="none" xmlns="http://www.w3.org/2000/svg"><path fill-rule="evenodd" clip-rule="evenodd" d="M85.527 20.43c4.102-5.893 2.651-13.995-3.24-18.098C76.393-1.77 68.291-.319 64.188 5.573l-6.856 9.848a12.943 12.943 0 00-2.319 8.015 12.944 12.944 0 002.319 8.014l6.856 9.848c4.103 5.893 12.205 7.344 18.097 3.241 5.892-4.102 7.343-12.204 3.241-18.097l-2.093-3.006 2.093-3.007zM5.573 2.331C-.319 6.435-1.77 14.537 2.333 20.43l2.093 3.007-2.094 3.006C-1.77 32.335-.319 40.437 5.573 44.54c5.893 4.103 13.995 2.652 18.097-3.24l6.857-9.849a12.942 12.942 0 002.318-8.014 12.943 12.943 0 00-2.318-8.015L23.67 5.573C19.568-.319 11.465-1.77 5.573 2.333zm38.22 20.918a5.5 5.5 0 00-6.946 3.816l-9.654 35.719a5.5 5.5 0 1010.619 2.87l5.98-22.129 5.982 22.129a5.5 5.5 0 0010.619-2.87l-9.654-35.718a5.5 5.5 0 00-6.946-3.817z" fill="#324C9A"/><path fill-rule="evenodd" clip-rule="evenodd" d="M54.043 28.494A11.002 11.002 0 0144 35a11.002 11.002 0 01-10.043-6.506l1.832-.916a4 4 0 000-7.156l-1.832-.916A11.002 11.002 0 0144 13c4.474 0 8.325 2.671 10.043 6.506l-1.832.916a4 4 0 000 7.156l1.832.916zm7.16 3.58C58.17 38.53 51.607 43 44 43s-14.17-4.47-17.204-10.926l-5.007 2.504a4 4 0 11-3.578-7.156L25 24.028v-.056l-6.789-3.394a4 4 0 113.578-7.156l5.007 2.504C29.83 9.47 36.394 5 44 5s14.169 4.47 17.204 10.926l5.007-2.504a4 4 0 113.578 7.156l-6.79 3.394v.056l6.79 3.394a4 4 0 11-3.578 7.156l-5.007-2.504z" fill="#fff"/><path d="M55 24c0 6.075-4.925 11-11 11s-11-4.925-11-11 4.925-11 11-11 11 4.925 11 11z" fill="#324C9A"/></svg>