<svg width="347" height="219" fill="none" xmlns="http://www.w3.org/2000/svg"><path d="M159.561 14.098C165.526 17.998 169 22.933 169 28a4 4 0 008 0c0-5.114 3.405-10.046 9.219-13.922C191.977 10.24 199.337 8 205.5 8c12.425 0 28 9.294 28 28 0 5.055-.558 8.855-2.001 12.3-1.442 3.443-3.902 6.848-8.193 10.876-8.649 8.118-23.794 17.95-50.306 35.063l-1.177-.76c-26.21-16.912-41.21-26.613-49.778-34.674-4.19-3.941-6.616-7.295-8.046-10.692C112.567 44.714 112 40.963 112 36c0-18.706 15.575-28 28-28 6.17 0 13.667 2.244 19.561 6.098z" fill="#324C9A"/><path fill-rule="evenodd" clip-rule="evenodd" d="M140 0c-15.575 0-36 11.706-36 36 0 5.565.632 10.484 2.626 15.218 1.994 4.735 5.22 8.976 9.937 13.414 8.2 7.715 21.58 16.606 42.545 30.16-1.296.06-2.575.13-3.838.208H8a8 8 0 00-8 8v38a8 8 0 008 8h67.335C70.448 166.532 69 188.452 69 215a4 4 0 008 0c0-27.954 1.677-49.555 6.66-66H339a8 8 0 008-8v-38a8 8 0 00-8-8H186.564c20.79-13.458 34.056-22.33 42.217-29.99 4.819-4.524 8.088-8.823 10.096-13.618C240.885 46.6 241.5 41.629 241.5 36c0-24.294-20.425-36-36-36-7.837 0-16.727 2.76-23.719 7.422-3.384 2.256-6.509 5.094-8.822 8.442-2.372-3.365-5.575-6.21-9.02-8.462C156.833 2.756 147.83 0 140 0zm19.561 14.098C165.526 17.998 169 22.933 169 28a4 4 0 008 0c0-5.114 3.405-10.046 9.219-13.922C191.977 10.24 199.337 8 205.5 8c12.425 0 28 9.294 28 28 0 5.055-.558 8.855-2.001 12.3-1.442 3.443-3.902 6.848-8.193 10.876-8.649 8.118-23.794 17.95-50.306 35.063l-1.177-.76c-26.21-16.912-41.21-26.613-49.778-34.674-4.19-3.941-6.616-7.295-8.046-10.692C112.567 44.714 112 40.963 112 36c0-18.706 15.575-28 28-28 6.17 0 13.667 2.244 19.561 6.098zM87.895 122.62c6.7-8.69 15.465-15.12 26.687-19.62H8v38h69.924c2.582-6.919 5.853-13.04 9.97-18.38zm6.335 4.885c11.227-14.56 29.829-22.516 61.287-24.505H339v38H86.518c2.123-5.07 4.672-9.552 7.712-13.495z" fill="#fff"/></svg>