<svg width="238" height="86" fill="none" xmlns="http://www.w3.org/2000/svg"><rect y="44" width="238" height="42" rx="8" fill="#324C9A"/><path fill-rule="evenodd" clip-rule="evenodd" d="M136 18.821C136 6.068 146.766 0 154.826 0c4.073 0 8.649 1.414 12.266 3.778a19.149 19.149 0 012.99 2.402 18.847 18.847 0 012.912-2.382c3.57-2.38 8.1-3.798 12.18-3.798C193.234 0 204 6.068 204 18.821c0 2.761-.301 5.378-1.382 7.959-1.083 2.584-2.815 4.815-5.189 7.043-4.487 4.21-12.086 9.113-24.114 16.873l-1.031.665a4 4 0 01-4.337 0l-2.107-1.36c-11.562-7.457-18.95-12.222-23.343-16.354-2.327-2.189-4.036-4.391-5.112-6.944C136.31 24.152 136 21.56 136 18.821zm30.116-3.705c0-1.309-.924-3.023-3.401-4.641C160.309 8.902 157.24 8 154.826 8 149.913 8 144 11.658 144 18.821c0 2.137.245 3.56.757 4.776.512 1.214 1.421 2.53 3.221 4.222 3.724 3.503 10.289 7.777 22.137 15.42 11.639-7.512 18.132-11.77 21.84-15.25 1.846-1.733 2.769-3.07 3.285-4.301.517-1.235.76-2.68.76-4.867C196 11.658 190.087 8 185.174 8c-2.407 0-5.406.897-7.743 2.455-2.393 1.594-3.315 3.306-3.315 4.66a4 4 0 01-8 0z" fill="#fff"/></svg>