<svg width="86" height="466" fill="none" xmlns="http://www.w3.org/2000/svg"><rect x="19" y="462" width="458" height="46" rx="4" transform="rotate(-90 19 462)" stroke="#fff" stroke-width="8"/><path d="M44.341 257.637C75.297 283.098 81 287.789 81 303.747 81 320.042 70.297 328 61.973 328c-8.324 0-19.622-7.579-19.622-18.189 0 10.61-11 18.189-19.324 18.189C14.703 328 4 320.042 4 303.747c0-16.195 5.58-20.786 37.757-47.258l.594-.489 1.99 1.637z" fill="#324C9A"/><path d="M42.351 256l-.594.489C9.58 282.961 4 287.552 4 303.747 4 320.042 14.703 328 23.027 328c8.324 0 19.324-7.579 19.324-18.189 0 10.61 11.298 18.189 19.622 18.189S81 320.042 81 303.747c0-15.958-5.703-20.649-36.659-46.11L42.351 256zm0 0v30" stroke="#fff" stroke-width="8" stroke-linecap="round" stroke-linejoin="round"/><path d="M44.341 206.363C75.297 180.902 81 176.211 81 160.253 81 143.958 70.297 136 61.973 136c-8.324 0-19.622 7.579-19.622 18.189 0-10.61-11-18.189-19.324-18.189C14.703 136 4 143.958 4 160.253c0 16.195 5.58 20.786 37.757 47.258l.594.489 1.99-1.637z" fill="#324C9A"/><path d="M42.351 208l-.594-.489C9.58 181.039 4 176.448 4 160.253 4 143.958 14.703 136 23.027 136c8.324 0 19.324 7.579 19.324 18.189 0-10.61 11.298-18.189 19.622-18.189S81 143.958 81 160.253c0 15.958-5.703 20.649-36.659 46.11L42.351 208zm0 0v-30" stroke="#fff" stroke-width="8" stroke-linecap="round" stroke-linejoin="round"/><circle cx="44" cy="233" r="38" transform="rotate(-90 44 233)" fill="#324C9A" stroke="#fff" stroke-width="8"/></svg>