<svg width="119" height="32" fill="none" xmlns="http://www.w3.org/2000/svg"><g clip-path="url(#clip0)"><path d="M110.686 0H7.591c-.292 0-.58 0-.871.002-.244.001-.486.006-.732.01-.535.006-1.068.053-1.595.141a5.127 5.127 0 00-3.74 2.741c-.243.48-.41.993-.498 1.523-.089.53-.137 1.065-.143 1.602-.007.245-.008.491-.012.736v18.492c.004.248.005.489.012.737.006.537.054 1.073.143 1.602.087.53.255 1.044.497 1.523.242.479.558.915.938 1.292.377.381.812.7 1.29.943a5.32 5.32 0 001.513.504c.527.088 1.06.135 1.595.142.246.005.488.008.732.008.29.002.58.002.871.002h103.095c.286 0 .577 0 .863-.002.242 0 .491-.003.734-.008a10.514 10.514 0 001.592-.142 5.385 5.385 0 001.519-.504 4.992 4.992 0 001.288-.943 5.1 5.1 0 00.941-1.292c.24-.48.406-.993.493-1.523.088-.53.138-1.065.147-1.602.004-.248.004-.489.004-.737.006-.29.006-.58.006-.875V7.629c0-.293 0-.584-.006-.874 0-.245 0-.49-.004-.736a10.882 10.882 0 00-.147-1.602 5.333 5.333 0 00-.493-1.522 5.163 5.163 0 00-2.229-2.24 5.355 5.355 0 00-1.519-.502 10.335 10.335 0 00-1.592-.141c-.243-.004-.492-.009-.734-.01-.286-.002-.577-.002-.863-.002z" fill="#000"/><path d="M38 16.15h5.312v1.36h-3.663v6.536H38v-7.895zm10.914 6.742c0 .175.009.32.027.435.021.11.048.2.08.268a.435.435 0 00.108.145c.043.029.088.05.134.065v.241h-1.681a3.45 3.45 0 01-.097-.268 1.54 1.54 0 01-.048-.414 7.61 7.61 0 01-.35.339 1.947 1.947 0 01-.375.274c-.14.075-.3.134-.484.177-.182.046-.402.07-.66.07a2.15 2.15 0 01-.725-.119 1.574 1.574 0 01-.57-.338 1.53 1.53 0 01-.376-.564 2.115 2.115 0 01-.134-.784c0-.24.038-.462.113-.666.075-.208.18-.389.317-.543a1.7 1.7 0 01.505-.386c.2-.104.424-.174.671-.21l1.488-.22c.054-.007.11-.018.172-.032a.592.592 0 00.177-.07.455.455 0 00.134-.14.474.474 0 00.054-.241.69.69 0 00-.048-.264.456.456 0 00-.15-.209.732.732 0 00-.29-.14 1.73 1.73 0 00-.447-.048c-.204 0-.368.021-.494.064a.68.68 0 00-.29.172.634.634 0 00-.155.258c-.033.097-.056.2-.07.312h-1.52c0-.072.01-.17.032-.296.025-.129.068-.268.129-.419a2.39 2.39 0 01.263-.456c.115-.154.263-.294.446-.42.186-.128.412-.234.677-.316.265-.082.581-.125.95-.129.523 0 .946.054 1.268.161.326.104.578.242.757.414.183.168.305.358.365.57.065.207.097.414.097.622v3.105zm-1.52-1.703a4.87 4.87 0 01-.28.14 1.862 1.862 0 01-.37.102l-.403.075c-.175.032-.33.07-.462.113a1.04 1.04 0 00-.333.172.685.685 0 00-.198.252.957.957 0 00-.065.376c0 .125.02.235.06.328a.65.65 0 00.16.225.74.74 0 00.248.13c.093.028.193.042.3.042.058 0 .131-.005.22-.016a1.604 1.604 0 00.586-.22c.1-.065.19-.147.269-.247.078-.1.143-.222.193-.366.05-.146.075-.318.075-.515v-.591zm8.492 2.857H54.37v-4.619h-1.794l-.032 1.09c-.018.613-.057 1.15-.118 1.612-.061.462-.161.848-.301 1.16-.136.308-.322.54-.559.698-.232.158-.531.237-.897.237-.172 0-.322-.011-.45-.033a1.232 1.232 0 01-.318-.08v-1.273a1.177 1.177 0 00.473.086.493.493 0 00.306-.102c.09-.072.167-.199.231-.382a3.58 3.58 0 00.15-.768c.036-.326.06-.746.07-1.262l.043-2.218h4.71v5.854zm6.327-1.154c0 .175.009.32.027.435.021.11.048.2.08.268a.435.435 0 00.108.145c.043.029.088.05.134.065v.241h-1.681a3.403 3.403 0 01-.097-.268 1.543 1.543 0 01-.048-.414 7.559 7.559 0 01-.35.339 1.947 1.947 0 01-.375.274 1.98 1.98 0 01-.484.177 2.73 2.73 0 01-.66.07c-.262 0-.503-.04-.725-.119a1.574 1.574 0 01-.57-.338 1.529 1.529 0 01-.376-.564 2.117 2.117 0 01-.134-.784c0-.24.038-.462.113-.666.075-.208.18-.389.317-.543a1.7 1.7 0 01.505-.386c.2-.104.424-.174.671-.21l1.488-.22c.053-.007.11-.018.172-.032a.59.59 0 00.177-.07.455.455 0 00.134-.14.474.474 0 00.054-.241.687.687 0 00-.048-.264.456.456 0 00-.15-.209.732.732 0 00-.29-.14 1.73 1.73 0 00-.447-.048c-.204 0-.369.021-.494.064a.68.68 0 00-.29.172.632.632 0 00-.156.258c-.032.097-.055.2-.07.312h-1.52c0-.072.011-.17.033-.296a2.3 2.3 0 01.129-.419 2.39 2.39 0 01.263-.456c.114-.154.263-.294.446-.42.186-.128.411-.234.676-.316.265-.082.582-.125.951-.129.523 0 .945.054 1.268.161.325.104.578.242.757.414.183.168.304.358.365.57.065.207.097.414.097.622v3.105zm-1.52-1.703a4.87 4.87 0 01-.28.14 1.862 1.862 0 01-.37.102l-.403.075c-.175.032-.33.07-.462.113a1.04 1.04 0 00-.333.172.686.686 0 00-.198.252.957.957 0 00-.065.376c0 .125.02.235.06.328a.65.65 0 00.16.225.74.74 0 00.247.13c.093.028.194.042.301.042.057 0 .13-.005.22-.016a1.604 1.604 0 00.586-.22c.1-.065.19-.147.268-.247.08-.1.144-.222.194-.366.05-.146.075-.318.075-.515v-.591zm2.438-.935h3.083v1.45h-3.083v-1.45zm4.367-4.104h1.649v3.213l3.018-3.212h2.133l-3.223 3.233 3.41 4.662h-2.088l-2.444-3.496-.806.822v2.674h-1.649v-7.895zm12.45 6.742c0 .175.01.32.027.435.022.11.048.2.08.268a.435.435 0 00.108.145c.043.029.088.05.134.065v.241h-1.68a3.444 3.444 0 01-.098-.268 1.544 1.544 0 01-.048-.414 7.61 7.61 0 01-.349.339 1.95 1.95 0 01-.376.274c-.14.075-.3.134-.483.177-.183.046-.403.07-.66.07-.262 0-.504-.04-.726-.119a1.574 1.574 0 01-.57-.338 1.531 1.531 0 01-.375-.564 2.117 2.117 0 01-.135-.784c0-.24.038-.462.113-.666.075-.208.181-.389.317-.543a1.7 1.7 0 01.505-.386c.2-.104.424-.174.671-.21l1.488-.22a1.82 1.82 0 00.172-.032.591.591 0 00.177-.07.455.455 0 00.135-.14.474.474 0 00.053-.241.69.69 0 00-.048-.264.457.457 0 00-.15-.209.732.732 0 00-.29-.14 1.73 1.73 0 00-.446-.048c-.204 0-.37.021-.495.064a.68.68 0 00-.29.172.632.632 0 00-.155.258c-.032.097-.056.2-.07.312h-1.52c0-.072.01-.17.032-.296.025-.129.068-.268.129-.419a2.39 2.39 0 01.263-.456c.115-.154.263-.294.446-.42.186-.128.412-.234.677-.316.265-.082.582-.125.95-.129.523 0 .946.054 1.268.161.326.104.578.242.757.414.183.168.305.358.366.57.064.207.096.414.096.622v3.105zm-1.52-1.703a4.87 4.87 0 01-.28.14 1.862 1.862 0 01-.37.102l-.403.075a3.58 3.58 0 00-.461.113 1.04 1.04 0 00-.333.172.686.686 0 00-.2.252.959.959 0 00-.064.376c0 .125.02.235.06.328a.65.65 0 00.16.225.74.74 0 00.248.13c.093.028.193.042.3.042.058 0 .131-.005.22-.016a1.6 1.6 0 00.586-.22c.1-.065.19-.147.269-.247.078-.1.143-.222.193-.366.05-.146.075-.318.075-.515v-.591zm4.179-1.762h-1.772v-1.235h5.059v1.235h-1.772v4.62h-1.515v-4.62zm8.964 3.465c0 .175.01.32.027.435.022.11.049.2.08.268a.435.435 0 00.108.145c.043.029.088.05.134.065v.241h-1.68a3.403 3.403 0 01-.097-.268 1.543 1.543 0 01-.049-.414 7.559 7.559 0 01-.349.339 1.947 1.947 0 01-.376.274c-.14.075-.3.134-.483.177-.183.046-.403.07-.66.07-.262 0-.504-.04-.726-.119a1.574 1.574 0 01-.57-.338 1.529 1.529 0 01-.375-.564 2.117 2.117 0 01-.135-.784c0-.24.038-.462.113-.666.075-.208.181-.389.317-.543a1.7 1.7 0 01.505-.386c.2-.104.424-.174.671-.21l1.488-.22a1.82 1.82 0 00.172-.032.59.59 0 00.177-.07.455.455 0 00.135-.14.474.474 0 00.053-.241.687.687 0 00-.048-.264.456.456 0 00-.15-.209.732.732 0 00-.29-.14 1.73 1.73 0 00-.446-.048c-.204 0-.37.021-.494.064a.68.68 0 00-.29.172.632.632 0 00-.156.258c-.033.097-.056.2-.07.312h-1.52c0-.072.01-.17.032-.296a2.3 2.3 0 01.129-.419 2.39 2.39 0 01.263-.456c.115-.154.263-.294.446-.42.186-.128.412-.234.677-.316.265-.082.582-.125.95-.129.523 0 .946.054 1.268.161.326.104.578.242.757.414.183.168.305.358.366.57.064.207.096.414.096.622v3.105zm-1.52-1.703c-.093.05-.186.097-.279.14a1.902 1.902 0 01-.37.102l-.403.075c-.176.032-.33.07-.462.113a1.04 1.04 0 00-.333.172.686.686 0 00-.2.252.957.957 0 00-.064.376c0 .125.02.235.06.328a.65.65 0 00.16.225.74.74 0 00.248.13c.093.028.193.042.3.042.058 0 .131-.005.22-.016a1.604 1.604 0 00.586-.22c.1-.065.19-.147.269-.247.079-.1.143-.222.193-.366.05-.146.075-.318.075-.515v-.591zm8.492 2.857h-1.515v-4.619h-1.794l-.032 1.09c-.018.613-.057 1.15-.118 1.612-.06.462-.161.848-.3 1.16-.137.308-.323.54-.56.698-.232.158-.531.237-.896.237-.172 0-.323-.011-.452-.033a1.23 1.23 0 01-.316-.08v-1.273a1.174 1.174 0 00.472.086.493.493 0 00.306-.102c.09-.072.167-.199.231-.382a3.58 3.58 0 00.15-.768c.037-.326.06-.746.07-1.262l.043-2.218h4.711v5.854zm1.247-2.926c0-.452.067-.867.203-1.247.14-.38.339-.705.596-.978.262-.275.577-.49.946-.644a3.203 3.203 0 011.246-.231c.469 0 .888.077 1.257.231.372.154.685.369.94.644.257.273.454.599.59.978.136.38.204.795.204 1.246 0 .451-.068.867-.204 1.246-.136.38-.333.707-.59.983a2.63 2.63 0 01-.94.645 3.24 3.24 0 01-1.257.23c-.462 0-.878-.076-1.246-.23a2.744 2.744 0 01-.946-.645 2.886 2.886 0 01-.596-.983 3.667 3.667 0 01-.204-1.246zm1.584 0c0 .221.023.441.069.66.05.215.131.408.242.58.111.168.256.304.435.408.179.104.399.156.661.156.272 0 .497-.05.677-.15a1.26 1.26 0 00.435-.403c.107-.169.182-.36.225-.575.047-.218.07-.444.07-.677 0-.229-.023-.453-.07-.671a1.617 1.617 0 00-.225-.575 1.19 1.19 0 00-.435-.403c-.18-.104-.405-.155-.677-.155-.262 0-.482.051-.661.155a1.267 1.267 0 00-.435.414 1.754 1.754 0 00-.242.58 3.12 3.12 0 00-.069.655zm5.5-2.928h3.937v1.235h-2.417v4.62h-1.52v-5.855zM38.67 9.632c0 .314.04.6.12.854.08.253.191.469.334.646.146.178.32.316.523.414.206.096.431.144.677.144.214 0 .406-.04.574-.117.171-.077.318-.179.441-.304a1.6 1.6 0 00.298-.43 1.77 1.77 0 00.15-.486h.65a2.039 2.039 0 01-.096.448 2.359 2.359 0 01-.496.844 2 2 0 01-.909.55 2.17 2.17 0 01-.612.082 2.76 2.76 0 01-.492-.047 2.302 2.302 0 01-1.015-.461 1.948 1.948 0 01-.417-.48 2.557 2.557 0 01-.29-.676A3.42 3.42 0 0138 9.7c0-.34.032-.642.096-.909a2.79 2.79 0 01.266-.697c.114-.2.246-.37.397-.51a2.161 2.161 0 011.029-.526 2.738 2.738 0 011.179.014 2.014 2.014 0 01.899.471 1.81 1.81 0 01.458.708c.043.125.07.247.078.366h-.656a1.471 1.471 0 00-.191-.434 1.217 1.217 0 00-.308-.322 1.29 1.29 0 00-.403-.201 1.549 1.549 0 00-.479-.072c-.257 0-.49.048-.7.143a1.511 1.511 0 00-.534.41 1.877 1.877 0 00-.341.647c-.08.25-.12.532-.12.844zm4.577-1.142h.629v1.77l1.849-1.77h.823l-1.719 1.617 1.747 2.044h-.81l-1.43-1.661-.46.386v1.275h-.63V8.49zm3.828 1.097a1.33 1.33 0 01.126-.564c.078-.155.182-.28.315-.376a1.27 1.27 0 01.468-.205 2.571 2.571 0 011.11-.01c.17.037.319.096.448.178.13.08.234.184.311.314.08.128.12.284.12.469v2.129c0 .06.016.11.048.154.032.04.083.061.154.061a.76.76 0 00.205-.027v.434a3.894 3.894 0 01-.157.038 1.29 1.29 0 01-.465-.01.527.527 0 01-.198-.09.446.446 0 01-.123-.164.822.822 0 01-.059-.25c-.077.085-.16.164-.246.237-.086.07-.183.133-.29.188a1.914 1.914 0 01-.807.17c-.141 0-.279-.022-.413-.068a1.14 1.14 0 01-.36-.201 1.006 1.006 0 01-.252-.329 1.041 1.041 0 01-.096-.457c0-.19.032-.353.096-.49.064-.138.147-.253.25-.345a1.1 1.1 0 01.351-.215c.133-.05.267-.083.404-.099l1.029-.126a.34.34 0 00.229-.113c.056-.066.085-.171.085-.315 0-.22-.073-.379-.219-.475-.143-.098-.35-.147-.622-.147-.278 0-.485.06-.622.178-.137.116-.214.292-.232.526h-.588zm2.27.701a.69.69 0 01-.189.092 2.01 2.01 0 01-.242.058 7.78 7.78 0 01-.284.045c-.1.011-.2.024-.3.037a2.004 2.004 0 00-.315.069.934.934 0 00-.25.116.518.518 0 00-.164.174.458.458 0 00-.058.236.62.62 0 00.184.479c.06.054.13.096.213.123a.85.85 0 00.27.04c.061 0 .132-.006.211-.02a1.749 1.749 0 00.493-.181c.082-.048.154-.105.218-.17a.808.808 0 00.154-.226.67.67 0 00.058-.284v-.588zm3.838.386a4.24 4.24 0 01-.452.093 2.973 2.973 0 01-.454.037c-.49 0-.854-.093-1.09-.28-.237-.19-.356-.487-.356-.892V8.49h.629v1.015c0 .137.016.256.048.356a.57.57 0 00.164.25.74.74 0 00.297.143 1.841 1.841 0 00.626.034 3.558 3.558 0 00.413-.079c.069-.018.127-.036.175-.054V8.49h.632v3.66h-.632v-1.476zm1.555-1.087c.007-.223.049-.41.126-.564.078-.155.183-.28.315-.376a1.27 1.27 0 01.468-.205 2.571 2.571 0 011.11-.01c.17.037.319.096.449.178.13.08.233.184.31.314.08.128.12.284.12.469v2.129c0 .06.016.11.048.154.032.04.083.061.154.061a.76.76 0 00.205-.027v.434a3.858 3.858 0 01-.157.038 1.29 1.29 0 01-.465-.01.526.526 0 01-.198-.09.445.445 0 01-.123-.164.822.822 0 01-.059-.25 2.5 2.5 0 01-.246.237c-.086.07-.183.133-.29.188a1.914 1.914 0 01-.807.17c-.141 0-.279-.022-.413-.068a1.14 1.14 0 01-.36-.201 1.006 1.006 0 01-.252-.329 1.04 1.04 0 01-.096-.457c0-.19.032-.353.096-.49.064-.138.147-.253.25-.345a1.1 1.1 0 01.351-.215c.133-.05.267-.083.404-.099l1.029-.126a.34.34 0 00.228-.113c.057-.066.086-.171.086-.315 0-.22-.073-.379-.219-.475-.143-.098-.35-.147-.622-.147-.278 0-.485.06-.622.178-.137.116-.214.292-.232.526h-.588zm2.27.701a.69.69 0 01-.189.092 2.01 2.01 0 01-.242.058 7.78 7.78 0 01-.284.045c-.1.011-.2.024-.3.037a2.002 2.002 0 00-.315.069.934.934 0 00-.25.116.518.518 0 00-.164.174.458.458 0 00-.058.236.74.74 0 00.048.277c.034.08.08.147.137.202a.58.58 0 00.212.123.852.852 0 00.27.04c.061 0 .132-.006.212-.02.08-.016.161-.038.246-.068a1.51 1.51 0 00.246-.113 1.02 1.02 0 00.218-.17.808.808 0 00.154-.226.67.67 0 00.058-.284v-.588zm2.621-3.22c.03.146.091.262.184.349.094.084.232.126.414.126.185 0 .324-.04.417-.123a.602.602 0 00.181-.352h.585a.84.84 0 01-.09.373.814.814 0 01-.242.28 1.158 1.158 0 01-.372.181 1.74 1.74 0 01-.479.062 1.74 1.74 0 01-.478-.062 1.113 1.113 0 01-.37-.177.866.866 0 01-.242-.28.846.846 0 01-.09-.377h.582zM58.64 8.49h.629v2.806h.014L61.08 8.49h.722v3.66h-.633V9.346h-.013l-1.795 2.806h-.72V8.49zm5.063.547h-1.261V8.49h3.151v.547h-1.261v3.114h-.629V9.037zm5.643 1.945a1.524 1.524 0 01-.495.878 1.589 1.589 0 01-.486.29 1.6 1.6 0 01-.615.114c-.246 0-.474-.04-.684-.12a1.483 1.483 0 01-.54-.366 1.762 1.762 0 01-.355-.615 2.617 2.617 0 01-.13-.868c0-.223.024-.425.072-.605a2.04 2.04 0 01.198-.485c.084-.144.181-.267.29-.37a1.63 1.63 0 011.09-.458c.251 0 .48.038.688.113.207.075.385.19.533.345.15.153.267.346.349.578.084.23.126.501.126.814v.314h-2.676c.002.178.027.34.075.485.048.144.116.267.205.37a.93.93 0 00.322.239c.127.055.27.082.43.082.162 0 .299-.023.41-.069a.89.89 0 00.461-.41c.049-.086.088-.172.12-.256h.612zm-.591-.943a1.513 1.513 0 00-.082-.476.944.944 0 00-.205-.348.817.817 0 00-.315-.215 1.077 1.077 0 00-.41-.076.963.963 0 00-.714.318 1.122 1.122 0 00-.219.352 1.44 1.44 0 00-.1.445h2.045z" fill="#fff"/><path fill-rule="evenodd" clip-rule="evenodd" d="M20.431 18.96a5.023 5.023 0 11.265-5.023h3.423a8.19 8.19 0 00-1.29-2.607 5.023 5.023 0 015.631 2.607h3.422a8.224 8.224 0 00-11.78-4.965 8.22 8.22 0 100 14.495A8.223 8.223 0 0032 18.047h-3.335a5.025 5.025 0 01-5.837 3.064 8.184 8.184 0 001.612-4.89H13.48v2.74h6.951z" fill="#fff"/></g><defs><clipPath id="clip0"><path fill="#fff" d="M0 0h119v32H0z"/></clipPath></defs></svg>