<svg width="96" height="32" fill="none" xmlns="http://www.w3.org/2000/svg"><g clip-path="url(#clip0)"><path d="M87.686 0H7.59c-.292 0-.58 0-.871.002-.244.001-.486.006-.732.01-.535.006-1.068.053-1.595.141a5.127 5.127 0 00-3.74 2.741c-.243.48-.41.993-.498 1.523-.089.53-.137 1.065-.143 1.602-.007.245-.008.491-.012.736v18.492c.004.248.005.489.012.737.006.537.054 1.072.143 1.602.087.53.255 1.044.497 1.523.242.479.558.915.938 1.292.377.381.812.7 1.29.943.476.243.986.413 1.513.504.527.087 1.06.135 1.595.142.246.005.488.008.732.008.29.002.58.002.871.002h80.095c.286 0 .577 0 .863-.002.242 0 .491-.003.734-.008a10.531 10.531 0 001.592-.142 5.396 5.396 0 001.52-.504 5 5 0 001.287-.943c.38-.378.697-.814.94-1.292.241-.48.407-.993.494-1.523.088-.53.138-1.065.147-1.602.003-.248.003-.489.003-.737.007-.29.007-.58.007-.875V7.629c0-.293 0-.584-.007-.874 0-.245 0-.491-.003-.736a10.856 10.856 0 00-.147-1.602 5.31 5.31 0 00-.493-1.523 5.16 5.16 0 00-2.229-2.24 5.37 5.37 0 00-1.519-.501 10.337 10.337 0 00-1.592-.141c-.243-.004-.492-.009-.734-.01C88.263 0 87.972 0 87.686 0z" fill="#000"/><path d="M36.502 7.151c1.849-.636 3.474 1.749 2.338 3.302-.687 1.126-2.45 1.24-3.293.243-1.007-1.087-.524-3.176.955-3.545zm.148.611c-1.112.361-1.36 2.037-.397 2.708.861.75 2.343-.024 2.279-1.157.15-1.01-.935-1.91-1.882-1.551z" fill="#fff"/><path d="M40.352 7.526c.835-.689 2.144-.555 2.885.22l-.379.465c-.513-.428-1.234-.726-1.861-.349-1.047.517-1.04 2.215.006 2.73.658.406 1.424.045 1.938-.423.14.145.28.291.422.436-.738.863-2.12 1.043-3.008.323-1.039-.794-1.042-2.604-.003-3.402zm18.808-.375c1.846-.635 3.474 1.752 2.335 3.303-.686 1.125-2.448 1.238-3.292.242-1.007-1.087-.524-3.176.957-3.545zm.146.611c-1.114.361-1.36 2.038-.396 2.708.862.75 2.34-.025 2.278-1.157.148-1.007-.935-1.912-1.882-1.55zM31.53 7.167a120 120 0 012.75.001c.008 1.152-.002 2.306.006 3.46.104.017.31.052.414.071-.005.484-.006.97-.006 1.453l-.578.005c-.006-.3-.016-.599-.022-.898h-2.837c-.014.295-.033.587-.046.882-.187.006-.375.012-.563.02-.003-.475-.004-.951-.003-1.427.296-.071.626-.184.703-.525.31-.982.136-2.03.183-3.042zm.604.655c.014.954.08 1.93-.243 2.845.573-.004 1.147-.004 1.72 0 .04-.958.038-1.917.002-2.876-.493.003-.987.008-1.48.031zm11.458-.655c.947-.01 1.896-.006 2.844-.002v.624c-.368.008-.735.016-1.101.027.005 1.14-.002 2.283.006 3.424l-.656.008c.002-1.142-.003-2.283.005-3.424-.367-.016-.733-.027-1.1-.04l.002-.617zm3.045.011c.234-.011.47-.022.706-.035.356.722.636 1.478.985 2.204.51-.74.433-2.393 1.635-2.193a73.73 73.73 0 01-1.632 3.679c-.239.549-.875.614-1.375.44a32.7 32.7 0 01.19-.488l.605-.095c.07-.22.267-.45.15-.69-.402-.95-.85-1.877-1.264-2.822zm3.676-.005c.988-.022 1.974-.01 2.962-.008-.008 1.365-.003 2.73-.003 4.094h-.603c-.003-1.155.026-2.31-.018-3.464-.575.004-1.147.004-1.72-.001-.04 1.155-.013 2.312-.02 3.467l-.597-.008c-.003-1.359 0-2.72-.002-4.08zm3.777.007l.6-.023c-.002.567-.002 1.135 0 1.701.635.007 1.27.007 1.905 0 .003-.566.003-1.134 0-1.7.2.006.4.014.6.022 0 1.357.002 2.716 0 4.073l-.599.008c.002-.6.002-1.198-.003-1.798a84.08 84.08 0 00-1.9.002 179.07 179.07 0 00-.004 1.796l-.598-.008c-.003-1.357 0-2.716-.001-4.073zm9.754-.005c.809.048 1.834-.264 2.451.426.41.459.22 1.105-.088 1.56.606.507.609 1.557-.124 1.947-.702.295-1.498.104-2.238.143-.003-1.358 0-2.717-.001-4.076zm.598.624c0 .356.001.71.003 1.067.499-.052 1.355.212 1.432-.518-.035-.767-.927-.513-1.435-.55zm.003 1.658c-.002.4-.003.803-.003 1.204.37.002.742.026 1.11-.024.518-.078.581-.918.101-1.1-.387-.133-.807-.064-1.208-.08zM31.931 14.92c1.63-1.455 4.326-1.422 5.879.137-.279.293-.562.581-.847.87-1.167-1.053-3.074-1.142-4.225-.02-1.458 1.278-1.304 3.876.313 4.949 1.579 1.217 4.345.394 4.586-1.736-.946-.048-1.895-.012-2.842-.03-.002-.42-.002-.84 0-1.262 1.347-.008 2.694-.011 4.04.003.319 1.834-.572 3.91-2.383 4.547-1.992.766-4.453-.062-5.491-1.97-1.048-1.756-.594-4.197.97-5.488zm41.659-.762c.421.004.843.004 1.266 0 .047 2.772.017 5.547.014 8.32-.43-.001-.857 0-1.285.002-.005-2.773-.014-5.548.004-8.322zm-15.94.005c.42 0 .841.003 1.261.014-.014 2.768 0 5.533-.006 8.3-.418 0-.834 0-1.25.002-.017-2.772-.009-5.544-.006-8.316zm9.636.005c1.048 0 2.096-.02 3.144.002 1.348.014 2.612 1.225 2.528 2.622.036 1.304-1.1 2.424-2.354 2.525-.673.044-1.348.008-2.022.022 0 1.045.008 2.092-.006 3.14-.43-.002-.857 0-1.285 0-.011-2.77-.002-5.541-.005-8.311zm1.295 1.195c.003.92.008 1.84-.003 2.757 1.137.081 3.02.274 3.118-1.335-.017-1.667-1.962-1.497-3.115-1.422zM41.388 17.05c1.064-.25 2.27.11 2.934 1.008.89 1.15.727 2.979-.385 3.921-1.295 1.168-3.638.773-4.382-.848-.837-1.552.085-3.747 1.833-4.081zm.14 1.185c-1.271.47-1.34 2.51-.135 3.1.963.54 2.204-.285 2.226-1.364.175-1.124-1.015-2.21-2.091-1.736zm5.992-1.193c1.024-.222 2.179.1 2.846.94 1.03 1.217.78 3.316-.573 4.186-1.36.968-3.51.441-4.184-1.126-.749-1.568.18-3.677 1.91-4zm0 1.242c-1.096.519-1.203 2.26-.202 2.934.79.622 2.04.153 2.308-.8.562-1.254-.834-2.823-2.105-2.134zm3.947 1.529c-.135-2.063 2.535-3.761 4.154-2.273.016-.1.044-.301.058-.401.395.006.789.008 1.184.01-.008 1.781.017 3.563-.011 5.344-.01 1.09-.608 2.245-1.701 2.554-1.35.488-2.935-.207-3.487-1.548.359-.156.719-.309 1.078-.462.395.668 1.134 1.233 1.94.93.823-.214 1.024-1.16.98-1.905-1.616 1.525-4.352-.148-4.195-2.249zm2.184-1.543c-1.147.533-1.233 2.412-.113 3.025.828.55 1.981-.065 2.146-1.01.38-1.184-.807-2.651-2.033-2.015zm7.526-1.127c1.493-.646 3.147.46 3.49 1.981-1.239.53-2.485 1.038-3.725 1.561.535 1.116 2.08.995 2.73.056.304.22.694.363.916.675-.91 1.511-3.28 1.653-4.409.326-1.241-1.36-.794-3.965.998-4.599zm-.496 2.533c.863-.292 1.695-.671 2.529-1.039-.84-1.133-2.515-.229-2.529 1.04zm14.94-1.403c.831-1.955 4.272-1.7 4.677.442.108 1.25.022 2.511.042 3.765a93.774 93.774 0 00-1.186 0c-.016-.12-.044-.36-.058-.48-.782.785-2.106.862-2.965.165-.821-.624-.859-2.029-.037-2.67.863-.72 2.078-.686 3.087-.333-.214-1.175-1.837-1.368-2.485-.456l-1.075-.433zm1.165 2.738c.638 1.028 2.32.282 2.338-.843-.784-.339-2.467-.385-2.338.843zm3.601-3.841c.453-.022.908-.026 1.362-.028.515 1.168.91 2.387 1.48 3.53.48-1.17.909-2.36 1.393-3.53.466.003.933.005 1.402.01-1.11 2.607-2.252 5.204-3.353 7.817a33.11 33.11 0 01-1.337.011c.398-.934.821-1.859 1.232-2.788-.711-1.681-1.45-3.35-2.18-5.023z" fill="#fff"/><path d="M10.348 7.428c.465-.19.981-.186 1.41.092 3.2 1.827 6.397 3.661 9.587 5.509-.932.908-1.81 1.873-2.765 2.755l-.116.107c-2.598-2.923-5.605-5.467-8.116-8.463z" fill="#01EE76"/><path d="M10.016 8.664c-.022-.44.138-.851.332-1.236 2.511 2.996 5.518 5.54 8.116 8.463-2.72 2.672-5.369 5.42-8.058 8.124l-.1.045c-.274-.337-.282-.807-.298-1.222.011-4.724 0-9.45.008-14.174z" fill="#00D3FF"/><path d="M18.582 15.784c.955-.883 1.833-1.847 2.765-2.755 1.145.678 2.34 1.277 3.447 2.02.607.374.503 1.307-.098 1.631-1.091.688-2.234 1.296-3.353 1.941-.942-.922-1.888-1.845-2.761-2.837z" fill="#FFCB00"/><path d="M18.465 15.891l.116-.107c.874.992 1.82 1.915 2.762 2.838-3.158 1.82-6.327 3.621-9.485 5.443-.44.267-1.051.455-1.48.057l.03-.107c2.688-2.704 5.336-5.452 8.057-8.124z" fill="#F3324A"/></g><defs><clipPath id="clip0"><path fill="#fff" d="M0 0h95.273v32H0z"/></clipPath></defs></svg>