<svg width="96" height="32" fill="none" xmlns="http://www.w3.org/2000/svg"><g clip-path="url(#clip0)"><path d="M87.686 0H7.59c-.292 0-.58 0-.871.002-.244.001-.486.006-.732.01-.535.006-1.068.053-1.595.141a5.127 5.127 0 00-3.74 2.741c-.243.48-.41.993-.498 1.523-.089.53-.137 1.065-.143 1.602-.007.245-.008.491-.012.736v18.492c.004.248.005.489.012.737.006.537.054 1.073.143 1.602.087.53.255 1.044.497 1.523.242.479.558.915.938 1.292.377.381.812.7 1.29.943.476.243.986.413 1.513.504.527.088 1.06.135 1.595.142.246.005.488.008.732.008.29.002.58.002.871.002h80.095c.286 0 .577 0 .863-.002.242 0 .491-.003.734-.008a10.531 10.531 0 001.592-.142 5.396 5.396 0 001.52-.504 5 5 0 001.287-.943c.38-.378.697-.814.94-1.292.241-.48.407-.993.494-1.523.088-.53.138-1.065.147-1.602.003-.248.003-.489.003-.737.007-.29.007-.58.007-.875V7.629c0-.293 0-.584-.007-.874 0-.245 0-.49-.003-.736a10.856 10.856 0 00-.147-1.602 5.31 5.31 0 00-.493-1.523 5.16 5.16 0 00-2.229-2.24 5.37 5.37 0 00-1.519-.501 10.337 10.337 0 00-1.592-.141c-.243-.004-.492-.009-.734-.01C88.263 0 87.972 0 87.686 0z" fill="#000"/><path d="M19.9 15.912a4.133 4.133 0 01.533-1.98 4.108 4.108 0 011.418-1.475 4.199 4.199 0 00-3.305-1.795c-1.39-.146-2.738.836-3.446.836-.723 0-1.813-.821-2.988-.797-.76.025-1.5.247-2.15.645A4.412 4.412 0 008.41 12.97c-1.601 2.785-.407 6.88 1.127 9.13.767 1.103 1.664 2.335 2.838 2.291 1.148-.048 1.577-.735 2.963-.735 1.373 0 1.776.735 2.973.707 1.233-.02 2.009-1.107 2.75-2.22a9.134 9.134 0 001.257-2.573 3.963 3.963 0 01-1.757-1.464 3.992 3.992 0 01-.66-2.195zm-2.262-6.731a4.067 4.067 0 00.923-2.903 4.098 4.098 0 00-2.656 1.38 3.863 3.863 0 00-.947 2.797 3.379 3.379 0 002.68-1.274zm16.04 12.531h-3.77l-.904 2.685h-1.596l3.57-9.934h1.658l3.57 9.934h-1.624l-.904-2.685zm-3.379-1.24h2.987l-1.472-4.357h-.041l-1.474 4.358zm13.615.304c0 2.25-1.199 3.697-3.008 3.697a2.434 2.434 0 01-2.268-1.267h-.034v3.587h-1.48v-9.639h1.432v1.205h.028a2.548 2.548 0 012.295-1.28c1.83 0 3.035 1.452 3.035 3.697zm-1.52 0c0-1.467-.755-2.43-1.906-2.43-1.13 0-1.89.984-1.89 2.43 0 1.46.76 2.437 1.89 2.437 1.151 0 1.905-.957 1.905-2.437zm9.454 0c0 2.25-1.2 3.697-3.008 3.697a2.434 2.434 0 01-2.268-1.267h-.035v3.587h-1.48v-9.639h1.433v1.205h.027a2.548 2.548 0 012.295-1.28c1.83 0 3.036 1.452 3.036 3.697zm-1.521 0c0-1.467-.754-2.43-1.905-2.43-1.13 0-1.89.984-1.89 2.43 0 1.46.76 2.437 1.89 2.437 1.15 0 1.905-.957 1.905-2.437zm6.764.853c.11.985 1.062 1.632 2.364 1.632 1.247 0 2.144-.647 2.144-1.535 0-.771-.541-1.233-1.822-1.55l-1.282-.31c-1.815-.44-2.658-1.293-2.658-2.678 0-1.714 1.486-2.891 3.597-2.891 2.09 0 3.522 1.177 3.57 2.891H61.51c-.09-.991-.905-1.59-2.097-1.59-1.191 0-2.007.606-2.007 1.487 0 .703.52 1.116 1.795 1.432l1.09.269c2.028.482 2.87 1.3 2.87 2.754 0 1.858-1.473 3.023-3.816 3.023-2.193 0-3.673-1.137-3.769-2.934h1.515zm9.265-6.189v1.714h1.37v1.177h-1.37v3.993c0 .62.274.91.877.91a4.58 4.58 0 00.486-.035v1.17c-.27.051-.546.075-.821.07-1.46 0-2.029-.552-2.029-1.956V18.33h-1.048v-1.177h1.048V15.44h1.487zm2.164 5.336c0-2.28 1.335-3.711 3.418-3.711 2.09 0 3.42 1.432 3.42 3.71 0 2.286-1.323 3.712-3.42 3.712-2.096 0-3.418-1.426-3.418-3.711zm5.33 0c0-1.563-.713-2.486-1.912-2.486-1.199 0-1.912.93-1.912 2.486 0 1.57.713 2.485 1.912 2.485 1.2 0 1.912-.916 1.912-2.485zm2.728-3.622h1.41v1.233h.035a1.716 1.716 0 011.734-1.309c.17 0 .34.018.507.056v1.39a2.059 2.059 0 00-.665-.09 1.486 1.486 0 00-1.477 1.03c-.067.205-.09.422-.065.637v4.296h-1.48v-7.243zm10.508 5.116c-.2 1.314-1.474 2.217-3.104 2.217-2.097 0-3.399-1.412-3.399-3.677 0-2.272 1.309-3.745 3.337-3.745 1.994 0 3.248 1.376 3.248 3.572v.51h-5.091v.09a1.895 1.895 0 00.509 1.465 1.878 1.878 0 001.43.586 1.624 1.624 0 001.665-1.018h1.405zm-5.002-2.162h3.604a1.75 1.75 0 00-.485-1.307 1.732 1.732 0 00-1.283-.531 1.816 1.816 0 00-1.3.534 1.835 1.835 0 00-.536 1.304zM29.248 9.003h.635a.795.795 0 00.815-.443.806.806 0 00.08-.318c0-.44-.329-.725-.888-.725a.843.843 0 00-.855.427.854.854 0 00-.104.32h-.697a1.502 1.502 0 01.537-1.064 1.487 1.487 0 011.142-.331c.935 0 1.594.526 1.594 1.283a1.112 1.112 0 01-.864 1.092V9.3a1.105 1.105 0 011.057 1.155 1.6 1.6 0 01-.59 1.084 1.586 1.586 0 01-1.184.335 1.573 1.573 0 01-1.598-.809 1.593 1.593 0 01-.186-.604h.708c.043.457.46.752 1.076.752.616 0 1.018-.331 1.018-.798 0-.473-.379-.764-1.04-.764h-.656v-.648zm3.257 1.737c0-.649.481-1.023 1.333-1.076l.971-.056v-.311c0-.38-.25-.595-.734-.595-.395 0-.667.145-.747.4h-.685c.073-.619.653-1.016 1.466-1.016.899 0 1.406.45 1.406 1.21v2.462h-.682v-.506h-.056a1.208 1.208 0 01-1.077.566 1.078 1.078 0 01-1.1-.637 1.093 1.093 0 01-.095-.441zm2.304-.308v-.302l-.875.057c-.494.033-.718.202-.718.52 0 .323.28.512.665.512a.842.842 0 00.84-.461.853.853 0 00.088-.326zm2.583-1.678v3.004h-.707V8.156h2.36v.598h-1.653zm5.941 1.202c0 1.144-.576 1.862-1.48 1.862a1.163 1.163 0 01-1.104-.605h-.056v1.743h-.708v-4.8h.681v.595h.053a1.25 1.25 0 011.126-.655c.912 0 1.488.715 1.488 1.86zm-.727 0c0-.761-.359-1.221-.958-1.221-.596 0-.968.47-.968 1.224 0 .75.372 1.22.965 1.22.602 0 .96-.46.96-1.223zm1.67 3.093v-.613c.076.01.153.015.23.014a.611.611 0 00.649-.503l.053-.175-1.298-3.616h.77l.9 2.861h.055l.896-2.861h.75l-1.336 3.751c-.306.877-.645 1.158-1.376 1.158-.06 0-.227-.007-.293-.016zm3.557-2.313h.704c.07.318.366.483.78.483.471 0 .76-.208.76-.533 0-.347-.26-.512-.76-.512h-.537V9.62h.528c.427 0 .645-.165.645-.466 0-.265-.21-.467-.645-.467-.396 0-.685.17-.731.453h-.682a1.256 1.256 0 011.412-1.055c.853 0 1.34.388 1.34.996a.742.742 0 01-.566.738v.056a.803.803 0 01.701.81c0 .685-.58 1.138-1.465 1.138-.783 0-1.419-.36-1.484-1.088zm3.968 1.022V8.156h.702v2.478h.056l1.652-2.478h.701v3.602h-.701v-2.49h-.053l-1.655 2.49H51.8zm6.975-3.004h-1.13v3.004h-.708V8.754H55.81v-.598h2.967v.598zm3.811 2.032a1.46 1.46 0 01-1.554 1.042 1.623 1.623 0 01-1.6-1.158 1.644 1.644 0 01-.056-.702 1.67 1.67 0 01.399-1.32 1.654 1.654 0 011.254-.562c.997 0 1.6.685 1.6 1.816v.248h-2.532v.04a.957.957 0 00.57.955.943.943 0 00.385.077.856.856 0 00.852-.436h.682zm-2.489-1.161h1.81a.874.874 0 00-.53-.867.86.86 0 00-.351-.067.912.912 0 00-.862.575.925.925 0 00-.067.359zm5.489-1.469h1.616c.701 0 1.113.357 1.113.916a.777.777 0 01-.606.76v.057a.817.817 0 01.767.83c0 .63-.47 1.04-1.258 1.04h-1.632V8.155zm.701.546v.932h.701c.428 0 .632-.165.632-.47 0-.28-.178-.462-.553-.462h-.78zm0 1.455v1.056h.839c.418 0 .642-.186.642-.527 0-.36-.253-.529-.73-.529h-.751z" fill="#fff"/></g><defs><clipPath id="clip0"><path fill="#fff" d="M0 0h95.273v32H0z"/></clipPath></defs></svg>