<svg width="277" height="629" fill="none" xmlns="http://www.w3.org/2000/svg"><path fill-rule="evenodd" clip-rule="evenodd" d="M26 13c0 7.18-5.82 13-13 13S0 20.18 0 13 5.82 0 13 0s13 5.82 13 13zm-13 8a8 8 0 100-16 8 8 0 000 16zm259 233c0 7.18-5.82 13-13 13s-13-5.82-13-13 5.82-13 13-13 13 5.82 13 13zm-13 8a8 8 0 100-16 8 8 0 000 16zm5-155c7.18 0 13-5.82 13-13s-5.82-13-13-13-13 5.82-13 13 5.82 13 13 13zm8-13a8 8 0 11-16 0 8 8 0 0116 0zM87 560c0 7.18-5.82 13-13 13s-13-5.82-13-13 5.82-13 13-13 13 5.82 13 13zm-13 8a8 8 0 100-16 8 8 0 000 16zm174 33c7.18 0 13-5.82 13-13s-5.82-13-13-13-13 5.82-13 13 5.82 13 13 13zm8-13a8 8 0 11-16 0 8 8 0 0116 0z" fill="#fff"/><path d="M93 162.5a5.5 5.5 0 11-11 0 5.5 5.5 0 0111 0zm57.5 16.5a5.5 5.5 0 100-11 5.5 5.5 0 100 11zM93 223.5a5.5 5.5 0 11-11 0 5.5 5.5 0 0111 0zM196.5 336a5.5 5.5 0 100-11 5.5 5.5 0 100 11zM69 433.5a5.5 5.5 0 11-11 0 5.5 5.5 0 0111 0zm59.5-5.5a5.5 5.5 0 100-11 5.5 5.5 0 100 11zM181 534.5a5.5 5.5 0 11-11 0 5.5 5.5 0 1111 0zM106.5 629a5.5 5.5 0 100-11 5.5 5.5 0 100 11z" fill="#fff"/></svg>