<svg width="1361" height="1245" fill="none" xmlns="http://www.w3.org/2000/svg"><path fill-rule="evenodd" clip-rule="evenodd" d="M0 40C0 17.909 17.909 0 40 0h1280.01c22.1 0 40 17.91 40 40v69c0 38.661-31.34 70-70 70h-1v996h-1c28.72 0 52 23.28 52 52v18H23v-18c0-28.72 23.281-52 52-52h2V179h-7c-38.66 0-70-31.34-70-70V40z" fill="#324C9A"/><path d="M495.146 1176a18.984 18.984 0 01-18.283-13.86c-1.203-4.29-.86-8.87.97-12.93l70.891-157.377c5.669-12.585 23.393-12.983 29.622-.666 6.199 12.263 23.815 11.943 29.564-.538l52.201-113.293c8.217-17.833 33.561-17.833 41.778 0l52.201 113.293c5.749 12.481 23.365 12.801 29.564.538 6.229-12.317 23.954-11.919 29.623.666l70.891 157.377c1.83 4.06 2.173 8.64.969 12.93a18.984 18.984 0 01-18.283 13.86H495.146z" fill="#40BEB7"/><path fill-rule="evenodd" clip-rule="evenodd" d="M66.65 179.093a4 4 0 014-4h1218.7a4 4 0 110 8H70.65a4 4 0 01-4-4zm0 510.907a4 4 0 014-4h1218.7a4 4 0 110 8H70.65a4 4 0 01-4-4zm4 93a4 4 0 000 8H420v89H71a4 4 0 000 8h349v89H71a4 4 0 000 8h349v89H71a4 4 0 100 8h349v94a4 4 0 108 0V791h505v385a4 4 0 108 0v-94h348c2.21 0 4-1.79 4-4s-1.79-4-4-4H941v-89h348a4 4 0 100-8H941v-89h348a4 4 0 100-8H941v-89h348.35a4 4 0 100-8H70.65zm522.153 386.99a8.231 8.231 0 007.922 6.01h160.55a8.23 8.23 0 007.504-11.6l-30.631-68.17c-2.445-5.44-10.11-5.62-12.797-.29-2.675 5.3-10.293 5.17-12.773-.23l-21.583-46.96c-3.926-8.54-16.064-8.54-19.99 0l-21.583 46.96c-2.48 5.4-10.098 5.53-12.772.23-2.688-5.33-10.352-5.15-12.798.29l-30.63 68.17a8.23 8.23 0 00-.419 5.59z" fill="#fff"/></svg>