<svg width="704" height="941" fill="none" xmlns="http://www.w3.org/2000/svg"><path fill-rule="evenodd" clip-rule="evenodd" d="M.001 24.45C.001 10.947 9.271 0 20.707 0h662.588c11.436 0 20.706 10.947 20.706 24.45v42.176c0 23.63-16.223 42.787-36.235 42.787h-.518v788.8h-.517c14.866 0 26.917 14.23 26.917 31.785V941H11.907v-11.003c0-17.554 12.051-31.784 26.917-31.784h1.035v-788.8h-3.623C16.224 109.413 0 90.257 0 66.626V24.45z" fill="#324C9A"/><path d="M247.615 900a10.609 10.609 0 01-10.219-7.729 10.563 10.563 0 01.542-7.209l39.625-87.758c3.169-7.017 13.076-7.24 16.558-.371 3.465 6.836 13.312 6.657 16.525-.3l29.179-63.175c4.593-9.944 18.759-9.944 23.352 0l29.179 63.175c3.213 6.957 13.06 7.136 16.525.3 3.482-6.869 13.389-6.646 16.558.371l39.625 87.758a10.563 10.563 0 01.542 7.209A10.609 10.609 0 01455.387 900H247.615z" fill="#40BEB7"/><path fill-rule="evenodd" clip-rule="evenodd" d="M38.501 126a2.5 2.5 0 100 5h629a2.5 2.5 0 100-5h-629zm0 518a2.5 2.5 0 100 5h629a2.5 2.5 0 100-5h-629zm-2.5 52.5a2.5 2.5 0 012.5-2.5h629a2.5 2.5 0 110 5h-179v46h179a2.5 2.5 0 110 5h-179v45h179a2.5 2.5 0 110 5h-179v46h179a2.5 2.5 0 110 5h-179v49a2.5 2.5 0 11-5 0V699.5h-261V900a2.5 2.5 0 11-5 0v-49h-179a2.5 2.5 0 110-5h179v-46h-179a2.5 2.5 0 110-5h179v-45h-179a2.5 2.5 0 110-5h179v-46h-179a2.5 2.5 0 01-2.5-2.5zm266.17 200.173c.556 1.967 2.367 3.327 4.431 3.327H396.4c2.063 0 3.875-1.36 4.431-3.327a4.515 4.515 0 00-.234-3.094l-17.132-37.744c-1.368-3.013-5.655-3.109-7.158-.159-1.496 2.935-5.757 2.859-7.144-.129l-12.072-26c-2.195-4.729-8.985-4.729-11.18 0l-12.072 26c-1.387 2.988-5.648 3.064-7.144.129-1.503-2.95-5.79-2.854-7.158.159l-17.132 37.744a4.515 4.515 0 00-.234 3.094z" fill="#fff"/></svg>