<svg width="156" height="193" fill="none" xmlns="http://www.w3.org/2000/svg"><circle cx="78" cy="78" r="74" stroke="#fff" stroke-width="8"/><path d="M60 140.5v-33h-5L79 94l23 13.5h-5v33H60z" stroke="#fff" stroke-width="8" stroke-linecap="round" stroke-linejoin="round"/><path d="M8 152.383c0-12.617 11.54-22.016 24.004-20.061 34.398 5.396 60.054 5.379 92.851.15 12.514-1.995 24.145 7.409 24.145 20.081V173c0 11.046-8.954 20-20 20H28c-11.046 0-20-8.954-20-20v-20.617z" fill="#324C9A"/><circle cx="32" cy="104" r="4" fill="#fff"/><circle cx="120" cy="42" r="4" fill="#fff"/><circle cx="93" cy="64" r="4" fill="#fff"/><circle cx="32" cy="53" r="4" fill="#fff"/><circle cx="62" cy="28" r="4" fill="#fff"/><circle cx="120" cy="98" r="4" fill="#fff"/></svg>