<svg width="286" height="157" fill="none" xmlns="http://www.w3.org/2000/svg"><path d="M21.18 88.074c0-9.941 8.06-18 18-18h227.862c9.941 0 18 8.059 18 18v50.468c0 9.941-8.059 18-18 18H39.181c-9.941 0-18-8.059-18-18V88.074z" fill="#40BEB7"/><path fill-rule="evenodd" clip-rule="evenodd" d="M267.041 70.074h-9.745l-.14-.832a18.344 18.344 0 00-2.186-6.09l-13.314-23.194c-5.051-8.8-16.279-11.838-25.079-6.787l-24.731 14.197C180.444 19.573 153.116 0 121.214 0c-39.9 0-72.643 30.617-76.026 69.642l-.037.432h-5.97c-.779 0-1.546.05-2.298.145.076-.5.116-1.018.117-1.555.016-11.915-.43-25.229-2.316-29.9-3.697-9.15-14.111-13.57-23.261-9.874-9.15 3.697-13.57 14.111-9.874 23.261 1.894 4.687 11.03 14.563 19.492 23.083 1.08 1.086 2.286 1.845 3.54 2.309a17.919 17.919 0 00-3.4 10.53v50.469c0 9.941 8.058 18 18 18h227.86c9.942 0 18-8.059 18-18V88.074c0-9.941-8.058-18-18-18zM121.214 48.33c13.306 0 24.452 9.292 27.286 21.743H93.929c2.833-12.45 13.979-21.743 27.285-21.743zm76.063 21.742h54.949a13.359 13.359 0 00-1.592-4.432L237.32 42.447a7.315 7.315 0 00-.077-.132l-.016-.027-.032-.054-.026-.044c-3.746-6.206-11.784-8.31-18.102-4.682l-25.455 14.611a75.732 75.732 0 013.628 17.523l.037.431zm-147.107 0C53.331 33.612 83.932 5 121.215 5 85.654 5 56.171 31.03 50.781 65.074a71.414 71.414 0 00-.61 5zm-10.99 5c-7.18 0-13 5.821-13 13v50.469c0 7.179 5.82 13 13 13h20.36a2.532 2.532 0 01-.027-.369v-43a2.5 2.5 0 115 0v43c0 .125-.01.248-.028.369H95.54a2.518 2.518 0 01-.027-.369v-28a2.5 2.5 0 115 0v28c0 .125-.01.248-.027.369h31.054a2.504 2.504 0 01-.027-.369v-43a2.5 2.5 0 115 0v43c0 .125-.01.248-.027.369h31.054a2.504 2.504 0 01-.027-.369v-28a2.5 2.5 0 115 0v28c0 .125-.01.248-.027.369h31.054a2.504 2.504 0 01-.027-.369v-43a2.5 2.5 0 115 0v43c0 .125-.01.248-.027.369h31.054a2.504 2.504 0 01-.027-.369v-28a2.5 2.5 0 115 0v28a2.626 2.626 0 01-.027.369h22.555c7.18 0 13-5.821 13-13V88.074c0-7.18-5.82-13-13-13H39.181zm-9.132-34.436c.243.601.557 1.831.849 3.82.28 1.907.501 4.235.669 6.86.335 5.245.442 11.43.434 17.34-.006 4.06-4.556 5.928-7.412 3.053-4.197-4.226-8.508-8.735-11.981-12.733-1.738-2.001-3.224-3.826-4.366-5.39-1.193-1.632-1.82-2.726-2.056-3.309-2.662-6.59.521-14.09 7.11-16.752 6.59-2.662 14.09.521 16.753 7.11z" fill="#fff"/><path d="M176.014 70.073h76.211a13.359 13.359 0 00-1.592-4.432l-13.314-23.193c-3.676-6.405-11.849-8.617-18.253-4.94L182.73 58.365a13.366 13.366 0 00-6.716 11.708z" fill="#324C9A"/></svg>