<svg width="285" height="157" fill="none" xmlns="http://www.w3.org/2000/svg"><path d="M20.938 88.074c0-9.941 8.058-18 18-18h227.86c9.942 0 18 8.059 18 18v50.468c0 9.941-8.058 18-18 18H38.938c-9.942 0-18-8.059-18-18V88.074z" fill="#324C9A"/><path fill-rule="evenodd" clip-rule="evenodd" d="M197.034 70.074h69.764c9.942 0 18 8.059 18 18v50.468c0 9.941-8.058 18-18 18H38.938c-9.942 0-18-8.059-18-18V88.074c0-3.932 1.26-7.57 3.4-10.531-1.254-.464-2.46-1.223-3.54-2.31C12.336 66.715 3.2 56.839 1.306 52.152c-3.697-9.15.724-19.564 9.873-23.26 9.15-3.698 19.565.723 23.261 9.873 1.888 4.671 2.333 17.985 2.317 29.9a10.462 10.462 0 01-.117 1.555 18.138 18.138 0 012.297-.145h5.97l.038-.432C48.328 30.617 81.072 0 120.971 0c39.9 0 72.643 30.617 76.026 69.642l.037.432zm-48.777 0c-2.834-12.45-13.98-21.743-27.286-21.743-13.306 0-24.452 9.292-27.285 21.743h54.571zM120.971 43.33c16.083 0 29.477 11.51 32.393 26.743h38.652a71.422 71.422 0 00-.612-5C186.014 31.029 156.532 5 120.971 5c-35.56 0-65.043 26.029-70.433 60.074a71.414 71.414 0 00-.611 5h38.651c2.917-15.232 16.311-26.743 32.393-26.743zm-91.166-2.694c.242.6.557 1.831.849 3.82.28 1.907.5 4.235.669 6.86.335 5.245.442 11.43.434 17.34-.006 4.06-4.556 5.928-7.412 3.053-4.197-4.226-8.508-8.735-11.981-12.734-1.738-2-3.224-3.825-4.366-5.388-1.193-1.633-1.82-2.727-2.056-3.31-2.663-6.59.521-14.09 7.11-16.752 6.59-2.662 14.09.521 16.752 7.11zm29.464 110.536v-43a2.5 2.5 0 115 0v43c0 .125-.009.248-.027.369h31.054a2.532 2.532 0 01-.027-.369v-28a2.5 2.5 0 115 0v28c0 .125-.009.248-.027.369h31.054a2.649 2.649 0 01-.027-.369v-43a2.5 2.5 0 015 0v43c0 .125-.009.248-.027.369h31.054a2.649 2.649 0 01-.027-.369v-28a2.5 2.5 0 015 0v28c0 .125-.009.248-.027.369h31.054a2.649 2.649 0 01-.027-.369v-43a2.5 2.5 0 015 0v43c0 .125-.009.248-.027.369h31.054a2.649 2.649 0 01-.027-.369v-28a2.5 2.5 0 015 0v28a2.692 2.692 0 01-.027.369h22.556c7.18 0 13-5.821 13-13V88.074c0-7.18-5.82-13-13-13H38.938c-7.18 0-13 5.82-13 13v50.468c0 7.179 5.82 13 13 13h20.358a2.532 2.532 0 01-.027-.369z" fill="#fff"/><path d="M175.77 70.073h76.212a13.339 13.339 0 00-1.593-4.432l-13.313-23.193c-3.676-6.405-11.849-8.617-18.253-4.94l-36.336 20.857a13.369 13.369 0 00-6.717 11.708z" fill="#40BEB7"/></svg>