<svg width="25" height="24" viewBox="0 0 25 24" fill="none" xmlns="http://www.w3.org/2000/svg">
<path d="M1.38813 7.3288C1.18496 6.10973 2.12504 5 3.36092 5H18.6391C19.875 5 20.815 6.10973 20.6119 7.3288L19.5571 13.6576C19.2356 15.5863 17.5668 17 15.6115 17H6.38851C4.43315 17 2.76439 15.5863 2.44293 13.6576L1.38813 7.3288Z" fill="#324C9A"/>
<path fill-rule="evenodd" clip-rule="evenodd" d="M24.4066 1.05913C24.654 1.55292 24.4543 2.15375 23.9605 2.40113L21.2247 3.77176L19.8725 11.6687C19.7793 12.2131 19.2625 12.5788 18.7181 12.4856C18.1738 12.3924 17.808 11.8755 17.9012 11.3312L19.3387 2.93555C19.3924 2.62201 19.5921 2.35272 19.8765 2.21024L23.0647 0.612982C23.5584 0.365601 24.1593 0.56535 24.4066 1.05913Z" fill="#324C9A"/>
<circle cx="5" cy="21" r="2" fill="#324C9A"/>
<circle cx="15" cy="21" r="2" fill="#324C9A"/>
</svg>
