<svg width="24" height="24" viewBox="0 0 24 24" fill="none" xmlns="http://www.w3.org/2000/svg">
<path d="M0.388133 7.3288C0.184956 6.10973 1.12504 5 2.36092 5H17.6391C18.875 5 19.815 6.10973 19.6119 7.3288L18.5571 13.6576C18.2356 15.5863 16.5668 17 14.6115 17H5.38851C3.43315 17 1.76439 15.5863 1.44293 13.6576L0.388133 7.3288Z" fill="white"/>
<path fill-rule="evenodd" clip-rule="evenodd" d="M23.4066 1.05925C23.654 1.55304 23.4543 2.15387 22.9605 2.40125L20.2247 3.77188L18.8725 11.6688C18.7793 12.2132 18.2625 12.5789 17.7181 12.4857C17.1738 12.3925 16.808 11.8757 16.9012 11.3313L18.3387 2.93567C18.3924 2.62213 18.5921 2.35284 18.8765 2.21036L22.0647 0.613104C22.5584 0.365723 23.1593 0.565472 23.4066 1.05925Z" fill="white"/>
<circle cx="5" cy="21" r="2" fill="white"/>
<circle cx="15" cy="21" r="2" fill="white"/>
</svg>
