<svg width="24" height="24" viewBox="0 0 24 24" fill="none" xmlns="http://www.w3.org/2000/svg">
<path d="M23.998 11.6792C23.9946 11.557 23.9577 11.4368 23.8892 11.3344L20.1945 5.79083C20.0727 5.60976 19.8677 5.50005 19.6487 5.50005H16.9999H14.6558H14.655C14.2935 5.50005 13.9997 5.79383 13.9997 6.15619V16.8449C13.9997 17.2062 14.2935 17.5 14.6558 17.5H15.9996H16C16 19.1569 17.3432 20.5 19 20.5C20.6567 20.5 21.9996 19.1569 22 17.5H23.3438C23.7055 17.5 23.9999 17.2062 23.9999 16.8441V11.698C23.9997 11.6918 23.9984 11.6854 23.998 11.6792ZM16.9999 11.5V7.49976H19.5304L22.1972 11.5H16.9999ZM18.9996 19C18.1729 19 17.4996 18.3269 17.4996 17.5C17.4996 16.6731 18.1729 16 18.9996 16C19.8265 16 20.4996 16.6731 20.4996 17.5C20.4996 18.3269 19.8265 19 18.9996 19ZM12.1288 3.50012H0.870855C0.389785 3.50012 0 3.88991 0 4.37098V16.6289C0 17.1098 0.389785 17.4998 0.870641 17.4998H2.99956C2.99956 19.1567 4.3427 20.4998 5.99956 20.4998C7.65641 20.4998 8.99955 19.1567 8.99955 17.4998H12.1288C12.6096 17.4998 12.9994 17.1098 12.9994 16.6289V4.37076C12.9996 3.88991 12.61 3.50012 12.1288 3.50012ZM5.99977 19C5.17306 19 4.49978 18.3269 4.49978 17.5C4.49978 16.6731 5.17306 16 5.99977 16C6.8267 16 7.49977 16.6731 7.49977 17.5C7.49977 18.3269 6.8267 19 5.99977 19Z" fill="#324C9A"/>
</svg>
