<svg width="47" height="46" viewBox="0 0 47 46" fill="none" xmlns="http://www.w3.org/2000/svg">
<path d="M17.4082 6.97589C18.7863 5.6747 20.9402 5.6747 22.3183 6.9759L24.5525 9.08544C25.2691 9.76202 26.2331 10.1129 27.2169 10.0552L30.2844 9.87533C32.1765 9.76438 33.8265 11.1489 34.0458 13.0315L34.4013 16.0836C34.5154 17.0625 35.0283 17.951 35.819 18.5392L38.2845 20.3731C39.8052 21.5043 40.1793 23.6256 39.1371 25.2087L37.4476 27.7753C36.9058 28.5984 36.7276 29.6087 36.9553 30.5676L37.6651 33.5573C38.1029 35.4013 37.0259 37.2667 35.21 37.8096L32.266 38.6897C31.3217 38.972 30.5359 39.6314 30.0939 40.5122L28.7159 43.2587C27.866 44.9528 25.842 45.6895 24.1019 44.9381L21.2809 43.7199C20.3762 43.3292 19.3503 43.3292 18.4455 43.7199L15.6246 44.9381C13.8845 45.6895 11.8605 44.9528 11.0105 43.2587L9.63256 40.5122C9.19061 39.6314 8.40474 38.972 7.46052 38.6897L4.51649 37.8096C2.70057 37.2667 1.6236 35.4013 2.06142 33.5572L2.77123 30.5676C2.99888 29.6087 2.82074 28.5984 2.27887 27.7753L0.58934 25.2087C-0.452781 23.6256 -0.0787522 21.5043 1.44198 20.3731L3.90744 18.5392C4.69817 17.951 5.21111 17.0625 5.32514 16.0836L5.68067 13.0315C5.89996 11.1489 7.54997 9.76438 9.44205 9.87533L12.5096 10.0552C13.4934 10.1129 14.4574 9.76202 15.174 9.08544L17.4082 6.97589Z" fill="#4479A3" fill-opacity="0.12"/>
<path fill-rule="evenodd" clip-rule="evenodd" d="M23.3868 3H42.2054C43.1333 3 43.5608 4.15402 42.8569 4.7586L33.7721 12.5614C33.4071 12.8749 32.8705 12.884 32.4951 12.5831L22.7613 4.78025C22.0242 4.18932 22.442 3 23.3868 3ZM42.2054 0H23.3868C20.8486 0 19.2612 2.14603 19.3857 4.27152V17C19.3857 19.4853 21.4005 21.5 23.8857 21.5H41.7165C44.2018 21.5 46.2165 19.4853 46.2165 17V4.18359C46.2165 4.14937 46.2154 4.11541 46.2131 4.08176C46.2372 2.01624 44.6584 0 42.2054 0ZM43.2165 8.4044L35.7268 14.8372C34.2667 16.0913 32.1204 16.1277 30.6187 14.9238L22.3857 8.32408V17C22.3857 17.8284 23.0573 18.5 23.8857 18.5H41.7165C42.5449 18.5 43.2165 17.8284 43.2165 17V8.4044Z" fill="#324C9A"/>
</svg>
