<svg width="24" height="25" viewBox="0 0 24 25" fill="none" xmlns="http://www.w3.org/2000/svg">
<path fill-rule="evenodd" clip-rule="evenodd" d="M3.42864 15.2305V3.53405C3.42864 3.08927 3.63194 2.66696 4.00022 2.42237C5.47955 1.43989 8.26505 0.0266113 10.9841 0.0266113C12.9884 0.0266113 14.4402 0.802954 14.9418 1.37136C15.024 1.46442 15.056 1.58843 15.056 1.71302V2.26561C15.056 2.51541 15.2174 2.7353 15.4602 2.78443C15.9519 2.88394 16.7655 2.99437 17.7863 2.99437C20.6302 2.99437 22.4135 1.82428 23.4701 1.01289C23.688 0.845499 24.0001 0.998217 24.0001 1.27455V13.4929C24.0001 13.7238 23.9496 13.9547 23.8203 14.1452C22.6883 15.814 19.6675 16.7885 14.4205 16.7885H12.8435C12.5835 16.7885 12.3727 16.5759 12.3727 16.3137V15.2731C12.3727 15.1199 12.3071 14.9725 12.1774 14.8926C11.7199 14.611 10.7341 14.2244 9.26584 14.2244C6.9523 14.2244 5.29204 15.0371 4.09459 15.6471C3.78601 15.8042 3.42864 15.5792 3.42864 15.2305ZM1.71429 5.16952C1.71429 4.69613 1.33053 4.31238 0.857144 4.31238C0.383757 4.31238 8.07493e-07 4.69613 7.868e-07 5.16952L0 23.1695C-2.06928e-08 23.6429 0.383756 24.0267 0.857143 24.0267C1.33053 24.0267 1.71429 23.6429 1.71429 23.1695L1.71429 5.16952Z" fill="#FF1616"/>
</svg>
