<svg width="34" height="28" viewBox="0 0 34 28" fill="none" xmlns="http://www.w3.org/2000/svg">
<path d="M30.8772 0H2.45614C1.08772 0 0 1.12281 0 2.45614V25.5439C0 26.9123 1.08772 28 2.45614 28H30.8421C32.2105 28 33.2982 26.9123 33.2982 25.5439V2.45614C33.3333 1.08772 32.2105 0 30.8772 0ZM10.5263 2.52632C11.1228 2.52632 11.5789 3.01754 11.5789 3.57895C11.5789 4.17544 11.0877 4.63158 10.5263 4.63158C9.92983 4.63158 9.47369 4.14035 9.47369 3.57895C9.47369 2.98246 9.92983 2.52632 10.5263 2.52632ZM7.29825 2.52632C7.89474 2.52632 8.35088 3.01754 8.35088 3.57895C8.35088 4.17544 7.85965 4.63158 7.29825 4.63158C6.70175 4.63158 6.24561 4.14035 6.24561 3.57895C6.24561 2.98246 6.73684 2.52632 7.29825 2.52632ZM4.07018 2.52632C4.66667 2.52632 5.12281 3.01754 5.12281 3.57895C5.12281 4.17544 4.63158 4.63158 4.07018 4.63158C3.47368 4.63158 3.01754 4.14035 3.01754 3.57895C3.01754 2.98246 3.50877 2.52632 4.07018 2.52632Z" fill="#324C9A"/>
<path d="M11.2615 20.0702C11.5072 20.3158 11.8229 20.4562 12.1738 20.4562C12.4545 20.4562 12.7703 20.3509 13.0159 20.1404C13.5072 19.6842 13.5422 18.9123 13.0861 18.4211L10.7352 15.8948L13.0861 13.3685C13.5422 12.8772 13.5072 12.1053 13.0159 11.6492C12.5247 11.193 11.7528 11.2281 11.2966 11.7193L8.17382 15.0527C7.75277 15.5088 7.75277 16.2456 8.17382 16.7018L11.2615 20.0702Z" fill="white"/>
<path d="M20.3508 20.1403C20.5964 20.3508 20.8771 20.4561 21.1929 20.4561C21.5087 20.4561 21.8595 20.3157 22.1052 20.0701L25.1929 16.7017C25.6139 16.2456 25.6139 15.5087 25.1929 15.0526L22.1052 11.6842C21.649 11.1929 20.8771 11.1579 20.3859 11.614C19.8946 12.0701 19.8595 12.8421 20.3157 13.3333L22.6666 15.8596L20.3157 18.3859C19.8245 18.9122 19.8245 19.6842 20.3508 20.1403Z" fill="white"/>
<path d="M15.5454 22C15.6156 22 15.6858 22.035 15.791 22.035C16.3524 22.035 16.8787 21.614 16.984 21.0526L18.7735 11.5789C18.9138 10.9122 18.4577 10.2807 17.791 10.1403C17.1244 9.99995 16.4928 10.4561 16.3524 11.1228L14.563 20.5614C14.4577 21.228 14.8787 21.8596 15.5454 22Z" fill="white"/>
</svg>
