<svg width="23" height="26" viewBox="0 0 23 26" fill="none" xmlns="http://www.w3.org/2000/svg">
<path d="M21.5944 12.5501C20.0438 12.5501 18.6044 11.6816 17.7441 10.2262L17.4355 9.70414L17.1268 10.2262C16.2666 11.6816 14.8272 12.5501 13.2766 12.5501H11.871V19.2585C11.871 20.88 12.5183 22.404 13.6 23.4268H5.93548V21.7535H10.7581V14.2234H2.96774V17.5701H0.741935V0.836672H17.0645V8.36672H17.8065V0H0V18.1616L5.41094 24.2635H14.7404L17.4355 26L20.5702 23.9803C22.0689 23.0148 23 21.205 23 19.2585V12.5501H21.5944ZM5.19355 22.8353L1.26648 18.4068H5.19355V22.8353ZM3.70968 17.5701V15.0601H10.0161V20.9168H5.93548V17.5701H3.70968ZM22.2581 19.2585C22.2581 20.9059 21.4701 22.4366 20.2022 23.254L17.4355 25.037L14.6688 23.254C13.4008 22.4366 12.6129 20.9059 12.6129 19.2585V13.3868H13.2766C14.9014 13.3868 16.4209 12.5647 17.4355 11.162C18.4501 12.5647 19.9696 13.3868 21.5944 13.3868H22.2581V19.2585Z" fill="#324C9A"/>
<path d="M20.7732 16.7334V19.2585C20.7732 20.3068 20.2717 21.2811 19.4648 21.8011L19.8328 22.5274C20.8704 21.8589 21.5152 20.6064 21.5152 19.2585V16.7334H20.7732Z" fill="#324C9A"/>
<path d="M2.22656 1.67334V4.18336H15.5814V1.67334H2.22656ZM14.8395 3.34668H2.9685V2.51001H14.8395V3.34668Z" fill="#324C9A"/>
<path d="M20.5134 14.3459L15.5821 19.9069L14.3605 18.5293L13.8359 19.1208L15.5821 21.0899L21.0379 14.9375L20.5134 14.3459Z" fill="#324C9A"/>
<path d="M9.2718 15.8967H4.44922V16.7334H9.2718V15.8967Z" fill="#324C9A"/>
<path d="M9.27646 17.5703H6.67969V18.407H9.27646V17.5703Z" fill="#324C9A"/>
<path d="M9.27646 19.2437H6.67969V20.0803H9.27646V19.2437Z" fill="#324C9A"/>
<path d="M14.0975 5.85669H2.22656V6.69336H14.0975V5.85669Z" fill="#324C9A"/>
<path d="M14.0975 7.53027H2.22656V8.36695H14.0975V7.53027Z" fill="#324C9A"/>
<path d="M14.0975 9.20337H2.22656V10.04H14.0975V9.20337Z" fill="#324C9A"/>
<path d="M9.27495 10.8767H2.22656V11.7134H9.27495V10.8767Z" fill="#324C9A"/>
<path d="M9.27495 12.5503H2.22656V13.387H9.27495V12.5503Z" fill="#324C9A"/>
<path d="M15.5818 5.85669H14.8398V6.69336H15.5818V5.85669Z" fill="#324C9A"/>
<path d="M15.5818 7.53027H14.8398V8.36695H15.5818V7.53027Z" fill="#324C9A"/>
<path d="M15.5818 9.20337H14.8398V10.04H15.5818V9.20337Z" fill="#324C9A"/>
<path d="M10.7576 10.8767H10.0156V11.7134H10.7576V10.8767Z" fill="#324C9A"/>
<path d="M10.7576 12.5503H10.0156V13.387H10.7576V12.5503Z" fill="#324C9A"/>
</svg>
