<svg width="52" height="58" viewBox="0 0 52 58" fill="none" xmlns="http://www.w3.org/2000/svg">
<g clip-path="url(#clip0)">
<path d="M31.8906 47.6101L33.8306 45.8001L40.5006 52.0401V33.7101H43.3006V52.0401L49.9706 45.8001L51.9106 47.6101L41.9006 56.9801L31.8906 47.6101Z" fill="#333333"/>
<path d="M3.65087 57.3C2.6894 57.3049 1.76129 56.9479 1.05086 56.3C0.731966 55.9957 0.478732 55.6293 0.306753 55.2235C0.134774 54.8176 0.0476912 54.3808 0.050865 53.94V3.36003C0.0476912 2.91924 0.134774 2.48247 0.306753 2.0766C0.478732 1.67073 0.731966 1.30435 1.05086 1.00003C1.76129 0.352166 2.6894 -0.0047999 3.65087 3.24291e-05H26.1609C26.3418 -0.00553103 26.5219 0.0250666 26.6909 0.0900324C26.8486 0.153582 26.9915 0.248889 27.1109 0.370032L42.8909 15.15C43.0267 15.2571 43.1362 15.394 43.2109 15.55C43.2703 15.6856 43.3009 15.832 43.3009 15.98V25.69H40.5009V19.37H26.1509C25.1894 19.3749 24.2613 19.0179 23.5509 18.37C23.2217 18.0689 22.9584 17.7029 22.7777 17.295C22.597 16.8871 22.5027 16.4462 22.5009 16V2.51003H2.80086V54.78H25.3009V57.3H3.65087ZM25.3009 16.86H40.9009L25.3009 2.25003V16.86Z" fill="#333333"/>
</g>
<defs>
<clipPath id="clip0">
<rect width="51.91" height="57.3" fill="white"/>
</clipPath>
</defs>
</svg>
