<svg width="20" height="26" viewBox="0 0 20 26" fill="none" xmlns="http://www.w3.org/2000/svg">
<path d="M19.1971 5.23695C18.6861 4.20904 17.9599 3.28527 17.0328 2.49587C15.1496 0.886822 12.6496 0 10 0C7.35036 0 4.85036 0.886822 2.96715 2.49251C2.04015 3.28527 1.31387 4.20568 0.80292 5.23695C0.270073 6.31189 0 7.45065 0 8.62636V9.53333C0 9.7416 0.182482 9.90956 0.408759 9.90956H2.37956C2.60584 9.90956 2.78832 9.7416 2.78832 9.53333V8.62636C2.78832 5.28398 6.0219 2.56641 10 2.56641C13.9781 2.56641 17.2117 5.28398 17.2117 8.62636C17.2117 9.9969 16.6825 11.2868 15.6788 12.3618C14.6861 13.4266 13.2847 14.1891 11.7336 14.5116C10.8467 14.6964 10.0474 15.1566 9.48175 15.815C8.91803 16.4711 8.61077 17.2829 8.60949 18.1194V19.1742C8.60949 19.3824 8.79197 19.5504 9.01825 19.5504H10.989C11.2153 19.5504 11.3978 19.3824 11.3978 19.1742V18.1194C11.3978 17.592 11.7956 17.1284 12.3467 17.0142C14.4781 16.5708 16.4124 15.5127 17.7956 14.0346C18.4927 13.2855 19.0365 12.4525 19.4124 11.5488C19.8029 10.6116 20 9.62739 20 8.62636C20 7.45065 19.7299 6.30853 19.1971 5.23695ZM10 22.2377C8.87226 22.2377 7.9562 23.0809 7.9562 24.1189C7.9562 25.1568 8.87226 26 10 26C11.1277 26 12.0438 25.1568 12.0438 24.1189C12.0438 23.0809 11.1277 22.2377 10 22.2377Z" fill="#324C9A"/>
</svg>
