<svg width="24" height="24" viewBox="0 0 24 24" fill="none" xmlns="http://www.w3.org/2000/svg">
<path fill-rule="evenodd" clip-rule="evenodd" d="M5.90285 2.49333C5.51232 2.10281 4.87915 2.10281 4.48863 2.49333L3.12002 3.86194C3.08739 3.89457 3.05779 3.9285 3.03108 3.96343L3.01346 3.98647L2.99453 4.00845C2.28247 4.83544 1.81752 6.56667 2.31638 8.93251C2.80662 11.2575 4.21505 14.078 7.03665 16.8996C9.92809 19.791 12.8794 21.2005 15.2816 21.6746C17.5408 22.1205 19.1462 21.7218 19.893 21.1657L20.1272 20.9585C20.1428 20.9447 20.1581 20.9303 20.1731 20.9153L21.5417 19.5467C21.9323 19.1562 21.9323 18.523 21.5417 18.1325L19.0691 15.6598C18.6786 15.2693 18.0454 15.2693 17.6549 15.6598L16.2863 17.0285C16.2723 17.0424 16.2589 17.0566 16.246 17.0711L16.1972 17.1258L16.157 17.1593C15.2577 18.026 13.8019 18.0917 12.5295 17.8046C11.1727 17.4985 9.68912 16.7327 8.44636 15.4899C7.16054 14.2041 6.51894 12.6076 6.31324 11.2207C6.21032 10.5268 6.21217 9.85786 6.31306 9.27876C6.404 8.7568 6.59838 8.17828 6.99568 7.76649L7.01142 7.7442L8.37546 6.38016C8.76599 5.98964 8.76599 5.35647 8.37546 4.96595L5.90285 2.49333ZM21.5131 22.4012L21.4983 22.416C20.1736 23.7407 17.6506 24.1807 14.8944 23.6367C12.0643 23.0782 8.76494 21.4563 5.62244 18.3138C2.56748 15.2589 0.940794 12.1023 0.359417 9.34516C-0.210587 6.64194 0.209516 4.19662 1.46078 2.72469C1.53602 2.62833 1.61774 2.5358 1.70581 2.44773L3.07442 1.07912C4.24599 -0.0924565 6.14549 -0.0924512 7.31706 1.07912L9.78968 3.55174C10.9612 4.72331 10.9612 6.6228 9.78968 7.79438L8.52582 9.05823C8.49632 9.09315 8.46465 9.12694 8.43074 9.15937M21.5131 22.4012C21.5382 22.3778 21.5629 22.3539 21.5873 22.3295L22.9559 20.9609C24.1275 19.7893 24.1275 17.8898 22.9559 16.7183L20.4833 14.2456C19.3118 13.0741 17.4123 13.0741 16.2407 14.2456L14.8721 15.6142C14.8453 15.641 14.8192 15.6681 14.7936 15.6957C14.7864 15.7025 14.7792 15.7094 14.7722 15.7163C14.6121 15.8736 14.0292 16.0927 12.9697 15.8537C11.9866 15.6319 10.8395 15.0546 9.86057 14.0757C8.92475 13.1399 8.44475 11.9598 8.2916 10.9273C8.2151 10.4115 8.2245 9.96004 8.28339 9.62203C8.33668 9.31613 8.41419 9.1888 8.43004 9.16277C8.43349 9.15711 8.43401 9.15624 8.43074 9.15937" fill="#324C9A"/>
</svg>
