<svg width="22" height="21" viewBox="0 0 22 21" fill="none" xmlns="http://www.w3.org/2000/svg">
<path d="M16.4147 18.8335C15.4408 18.8335 15.0194 18.5095 14.3824 18.02C13.6457 17.4543 12.7303 16.7502 10.9948 16.7502C9.26039 16.7502 8.34497 17.4543 7.60939 18.021C6.97347 18.5095 6.55313 18.8335 5.57922 18.8335C4.60747 18.8335 4.18714 18.5095 3.55122 18.021C2.81564 17.4543 1.90239 16.7502 0.167969 16.7502L0.167969 18.8335C1.1408 18.8335 1.56114 19.1575 2.19705 19.646C2.93264 20.2127 3.84697 20.9168 5.57922 20.9168C7.31363 20.9168 8.22797 20.2127 8.96355 19.647C9.60055 19.1575 10.0209 18.8335 10.9948 18.8335C11.9698 18.8335 12.4151 19.1752 13.0293 19.647C13.7649 20.2127 14.6803 20.9168 16.4147 20.9168C18.1491 20.9168 19.0646 20.2127 19.8001 19.647C20.4144 19.1752 20.8596 18.8335 21.8346 18.8335V16.7502C20.0991 16.7502 19.1837 17.4543 18.4471 18.02C17.81 18.5095 17.3886 18.8335 16.4147 18.8335ZM4.5013 6.85433L2.33464 7.37516L4.5013 15.7085H5.57922C7.31363 15.7085 8.22797 15.0043 8.96355 14.4387C9.60055 13.9491 10.0209 13.6252 10.9948 13.6252C11.9698 13.6252 12.4151 13.9668 13.0293 14.4387C13.7649 15.0043 14.6803 15.7085 16.4147 15.7085H17.5013L17.5306 15.597L17.8696 14.2929L19.668 7.37516L17.5013 6.85433V3.20954C17.5014 2.96864 17.4147 2.73515 17.2558 2.54883C17.097 2.36251 16.876 2.23488 16.6303 2.18766L12.0846 1.3137V0.0834961L9.91797 0.0834961V1.3137L5.3723 2.18766C5.12663 2.23488 4.90556 2.36251 4.74675 2.54883C4.58794 2.73515 4.5012 2.96864 4.5013 3.20954V6.85433ZM6.66797 4.06162L11.0013 3.22829L15.3346 4.06162V6.3335L11.0013 5.29183L6.66797 6.3335V4.06162Z" fill="#324C9A"/>
</svg>
