<svg width="16" height="18" viewBox="0 0 16 18" fill="none" xmlns="http://www.w3.org/2000/svg">
<path d="M2.75488 18V15.325H0.754883V12.9H2.75488V10.95H0.754883V7.85H2.75488V0.149999H8.45488C10.7549 0.149999 12.4299 0.616665 13.4799 1.55C14.5465 2.48333 15.0799 3.76667 15.0799 5.4C15.0799 6.36667 14.8632 7.275 14.4299 8.125C13.9966 8.975 13.2716 9.65833 12.2549 10.175C11.2549 10.6917 9.88822 10.95 8.15488 10.95H6.52988V12.9H10.3799V15.325H6.52988V18H2.75488ZM7.77988 7.85C8.84655 7.85 9.68822 7.66667 10.3049 7.3C10.9382 6.93333 11.2549 6.34167 11.2549 5.525C11.2549 4.00833 10.2549 3.25 8.25488 3.25H6.52988V7.85H7.77988Z" fill="#324C9A"/>
</svg>
