<svg width="44" height="44" viewBox="0 0 44 44" fill="none" xmlns="http://www.w3.org/2000/svg">
<path fill-rule="evenodd" clip-rule="evenodd" d="M10 14C10 13.4477 10.4477 13 11 13H33C33.5523 13 34 13.4477 34 14C34 14.5523 33.5523 15 33 15H11C10.4477 15 10 14.5523 10 14ZM10 30C10 29.4477 10.4477 29 11 29H33C33.5523 29 34 29.4477 34 30C34 30.5523 33.5523 31 33 31H11C10.4477 31 10 30.5523 10 30ZM34 22C34 21.4477 33.5523 21 33 21H11C10.4477 21 10 21.4477 10 22C10 22.5523 10.4477 23 11 23H33C33.5523 23 34 22.5523 34 22Z" fill="#A4A9BB"/>
</svg>
