<svg width="44" height="44" viewBox="0 0 44 44" fill="none" xmlns="http://www.w3.org/2000/svg">
<path d="M21.99 0L27.7292 8.13441L37.5393 6.44072L35.8456 16.2508L43.98 21.99L35.8456 27.7292L37.5393 37.5393L27.7292 35.8456L21.99 43.98L16.2508 35.8456L6.44072 37.5393L8.13441 27.7292L0 21.99L8.13441 16.2508L6.44072 6.44072L16.2508 8.13441L21.99 0Z" fill="#4479A3" fill-opacity="0.12"/>
<path d="M41.001 2.04407L28.8662 2.04407L27.1629 11.3961C27.8989 10.325 31.988 9.49098 33.9863 9.73808C39.6593 10.4395 40.6184 15.3498 40.2176 18.0919C39.6074 22.2677 35.9547 24.9131 31.4997 24.6755C27.0448 24.4379 25.4902 20.6364 25.4902 19.2702" stroke="#324C9A" stroke-width="3" stroke-linecap="round" stroke-linejoin="round"/>
</svg>
