<svg width="31" height="32" viewBox="0 0 31 32" fill="none" xmlns="http://www.w3.org/2000/svg">
<path d="M28.5912 2.26178C26.4166 -2.59639e-06 22.9535 0 16.0272 0H14.7385C7.81223 0 4.26853 -2.59639e-06 2.17453 2.26178C-1.47854e-05 4.52356 0 8.12566 0 15.3298V16.6702C0 23.8743 -1.47854e-05 27.5602 2.17453 29.7382C4.34906 32 7.81223 32 14.7385 32H16.0272C22.9535 32 26.4972 32 28.5912 29.7382C30.7657 27.4764 30.7657 23.8743 30.7657 16.6702V15.3298C30.7657 8.12566 30.7657 4.52356 28.5912 2.26178Z" fill="#2787F5"/>
<path d="M24.9649 22.7016H22.7098C21.8238 22.7016 21.5822 22.0314 20.052 20.4398C18.6828 19.0995 18.1191 18.9319 17.7969 18.9319C17.3137 18.9319 17.2331 19.0995 17.2331 19.7696V21.8639C17.2331 22.4503 17.0721 22.7853 15.6224 22.7853C13.2062 22.7853 10.629 21.2775 8.7766 18.5131C5.95775 14.4922 5.23291 11.3927 5.23291 10.8063C5.23291 10.4712 5.39399 10.1361 6.0383 10.1361H8.29336C8.85713 10.1361 9.09876 10.3874 9.25984 11.0576C10.3874 14.4084 12.2397 17.2566 12.9646 17.2566C13.2867 17.2566 13.3673 17.089 13.3673 16.3351V12.9005C13.2867 11.3089 12.4814 11.2251 12.4814 10.6388C12.4814 10.3874 12.723 10.1361 13.0451 10.1361H16.5888C17.0721 10.1361 17.2331 10.3874 17.2331 10.9738V15.5812C17.2331 16.0838 17.4748 16.2513 17.5553 16.2513C17.8774 16.2513 18.0385 16.0838 18.6023 15.4974C20.2131 13.6545 21.3406 10.7225 21.3406 10.7225C21.5017 10.3874 21.7433 10.0524 22.3071 10.0524H24.5622C25.2065 10.0524 25.3675 10.3874 25.2065 10.8901C24.8843 12.2304 22.146 16.2513 22.146 16.2513C21.9044 16.6702 21.8238 16.8377 22.146 17.2566C22.3876 17.5916 23.193 18.2618 23.6762 18.9319C24.6427 20.021 25.3675 21.0262 25.6091 21.6963C25.9313 22.3665 25.6092 22.7016 24.9649 22.7016Z" fill="white"/>
</svg>
