<svg width="32" height="34" viewBox="0 0 32 34" fill="none" xmlns="http://www.w3.org/2000/svg">
<path d="M16 2.26667C12.4638 2.26667 9.0724 3.46071 6.57191 5.58612C4.07142 7.71154 2.66667 10.5942 2.66667 13.6V15.8667H5.33333C6.04058 15.8667 6.71885 16.1055 7.21895 16.5306C7.71905 16.9556 8 17.5322 8 18.1333V24.9333C8 25.5345 7.71905 26.111 7.21895 26.5361C6.71885 26.9612 6.04058 27.2 5.33333 27.2H2.66667C1.95942 27.2 1.28115 26.9612 0.781048 26.5361C0.280951 26.111 0 25.5345 0 24.9333V13.6C-3.13096e-08 11.814 0.413852 10.0455 1.21793 8.3955C2.022 6.74548 3.20055 5.24622 4.68629 3.98335C6.17203 2.72047 7.93586 1.7187 9.87707 1.03524C11.8183 0.351774 13.8989 0 16 0C18.1012 0 20.1817 0.351774 22.1229 1.03524C24.0641 1.7187 25.828 2.72047 27.3137 3.98335C28.7994 5.24622 29.978 6.74548 30.7821 8.3955C31.5861 10.0455 32 11.814 32 13.6V27.2C32 28.7029 31.2976 30.1442 30.0474 31.2069C28.7971 32.2696 27.1014 32.8667 25.3333 32.8667H19.6427C19.4086 33.2112 19.072 33.4974 18.6666 33.6963C18.2613 33.8953 17.8014 34 17.3333 34H14.6667C13.9594 34 13.2811 33.7612 12.781 33.3361C12.281 32.911 12 32.3345 12 31.7333C12 31.1322 12.281 30.5556 12.781 30.1306C13.2811 29.7055 13.9594 29.4667 14.6667 29.4667H17.3333C17.8014 29.4667 18.2613 29.5714 18.6666 29.7704C19.072 29.9693 19.4086 30.2554 19.6427 30.6H25.3333C26.3942 30.6 27.4116 30.2418 28.1618 29.6042C28.9119 28.9665 29.3333 28.1017 29.3333 27.2H26.6667C25.9594 27.2 25.2811 26.9612 24.781 26.5361C24.281 26.111 24 25.5345 24 24.9333V18.1333C24 17.5322 24.281 16.9556 24.781 16.5306C25.2811 16.1055 25.9594 15.8667 26.6667 15.8667H29.3333V13.6C29.3333 12.1117 28.9885 10.6379 28.3184 9.26292C27.6483 7.8879 26.6662 6.63852 25.4281 5.58612C24.19 4.53373 22.7201 3.69892 21.1024 3.12937C19.4848 2.55981 17.751 2.26667 16 2.26667Z" fill="#324C9A"/>
</svg>
