<svg width="25" height="17" viewBox="0 0 25 17" fill="none" xmlns="http://www.w3.org/2000/svg">
<path fill-rule="evenodd" clip-rule="evenodd" d="M24.906 16.281C24.906 14.7732 23.4959 13.2013 23.4959 13.2013H23.424V8.52319H21.919V3.83569L18.9183 3.87319V8.56069L17.3063 8.52319V5.43101L15.8488 5.43101V8.52319H11.1887V3.73882H12.7181V0.687256L0.554688 0.687256L0.554687 3.71538H2.0841L2.0841 11.7232H0.576099L0.576099 16.2888H2.07339C2.02641 16.0417 2.00183 15.7906 1.99998 15.5388C1.99998 15.5201 2.00763 15.4873 2.00763 15.4873C2.01849 14.4434 2.43151 13.4459 3.15721 12.7109C3.88291 11.9759 4.86284 11.5627 5.88469 11.5607C6.90707 11.5619 7.88778 11.9748 8.61414 12.7098C9.3405 13.4449 9.75394 14.4428 9.76481 15.4873C9.76481 15.5029 9.77398 15.5201 9.77398 15.5388C9.77398 15.7951 9.74339 16.0451 9.69904 16.2888H23.4255V16.2826H24.906V16.281ZM8.17728 8.56382H5.10622L5.10622 3.76382H8.17728V8.56382Z" fill="#324C9A"/>
</svg>
