<svg width="26" height="20" viewBox="0 0 26 20" fill="none" xmlns="http://www.w3.org/2000/svg">
<path fill-rule="evenodd" clip-rule="evenodd" d="M3.2168 17.5223C3.4532 17.6456 3.7196 17.715 4.0004 17.715H22.0004C22.2812 17.715 22.5476 17.6456 22.784 17.5223L15.6944 10.3788L13.382 12.4165C13.1604 12.612 12.8404 12.612 12.6188 12.4165L10.3064 10.3775L3.2168 17.5223ZM2.37082 16.6103C2.37631 16.6042 2.38191 16.5982 2.38762 16.5923L9.37162 9.55421L2.41762 3.42316C2.40259 3.40978 2.38818 3.39563 2.37442 3.38076C2.25859 3.6403 2.19871 3.92438 2.19922 4.21203V15.788C2.19922 16.0823 2.26042 16.3611 2.37082 16.6103ZM23.6297 16.6103C23.7401 16.3611 23.8013 16.0823 23.8013 15.788V4.21203C23.8013 3.91395 23.7389 3.63387 23.6261 3.38076C23.6124 3.39563 23.5979 3.40978 23.5829 3.42316L16.6289 9.55421L23.6129 16.5923L23.6297 16.6103ZM22.7722 2.47109C22.5308 2.34808 22.2667 2.28443 21.9994 2.2848H3.99936C3.72336 2.2848 3.45936 2.35161 3.22656 2.47109L12.9994 11.0882L22.7722 2.47109ZM4 1H22C23.6569 1 25 2.43806 25 4.21199V15.788C25 17.5619 23.6569 19 22 19H4C2.34315 19 1 17.5619 1 15.788V4.21199C1 2.43806 2.34315 1 4 1Z" fill="#324C9A"/>
<path d="M3.2168 17.5223L2.96835 17.2757L2.63382 17.6129L3.0549 17.8326L3.2168 17.5223ZM22.784 17.5223L22.9459 17.8326L23.367 17.6128L23.0324 17.2757L22.784 17.5223ZM15.6944 10.3788L15.9428 10.1322L15.7105 9.89813L15.463 10.1162L15.6944 10.3788ZM13.382 12.4165L13.1506 12.1539L13.1504 12.154L13.382 12.4165ZM12.6188 12.4165L12.8504 12.154L12.8503 12.154L12.6188 12.4165ZM10.3064 10.3775L10.5379 10.115L10.2904 9.89675L10.058 10.131L10.3064 10.3775ZM2.37082 16.6103L2.05081 16.7521L2.2698 17.2465L2.63119 16.8442L2.37082 16.6103ZM2.38762 16.5923L2.13917 16.3458L2.13653 16.3485L2.38762 16.5923ZM9.37162 9.55421L9.62006 9.80074L9.88157 9.5372L9.60309 9.29168L9.37162 9.55421ZM2.41762 3.42316L2.18489 3.68458L2.18616 3.68569L2.41762 3.42316ZM2.37442 3.38076L2.63135 3.14309L2.27106 2.7536L2.05481 3.23811L2.37442 3.38076ZM2.19922 4.21203H2.54922L2.54922 4.2114L2.19922 4.21203ZM23.6261 3.38076L23.9458 3.23829L23.7297 2.75337L23.3692 3.14309L23.6261 3.38076ZM23.5829 3.42316L23.8144 3.6857L23.8156 3.68457L23.5829 3.42316ZM16.6289 9.55421L16.3974 9.29168L16.119 9.5372L16.3805 9.80074L16.6289 9.55421ZM23.6129 16.5923L23.8688 16.3533L23.8613 16.3458L23.6129 16.5923ZM21.9994 2.2848V2.6348L21.9999 2.6348L21.9994 2.2848ZM3.22656 2.47109L3.06674 2.15971L2.61005 2.39411L2.99508 2.73362L3.22656 2.47109ZM12.9994 11.0882L12.7679 11.3507L12.9994 11.5549L13.2308 11.3507L12.9994 11.0882ZM1 15.788H0.65H1ZM3.0549 17.8326C3.33949 17.981 3.66123 18.065 4.0004 18.065V17.365C3.77796 17.365 3.56691 17.3102 3.3787 17.212L3.0549 17.8326ZM4.0004 18.065H22.0004V17.365H4.0004V18.065ZM22.0004 18.065C22.3396 18.065 22.6613 17.981 22.9459 17.8326L22.6221 17.212C22.4339 17.3102 22.2228 17.365 22.0004 17.365V18.065ZM23.0324 17.2757L15.9428 10.1322L15.446 10.6253L22.5356 17.7688L23.0324 17.2757ZM15.463 10.1162L13.1506 12.1539L13.6134 12.6791L15.9258 10.6414L15.463 10.1162ZM13.1504 12.154C13.0611 12.2328 12.9397 12.2328 12.8504 12.154L12.3872 12.6789C12.7411 12.9912 13.2596 12.9912 13.6136 12.6789L13.1504 12.154ZM12.8503 12.154L10.5379 10.115L10.0749 10.64L12.3873 12.679L12.8503 12.154ZM10.058 10.131L2.96835 17.2757L3.46524 17.7688L10.5548 10.624L10.058 10.131ZM2.63119 16.8442C2.63366 16.8415 2.63617 16.8388 2.63872 16.8362L2.13653 16.3485C2.12766 16.3576 2.11897 16.3669 2.11046 16.3764L2.63119 16.8442ZM2.63606 16.8389L9.62006 9.80074L9.12318 9.30768L2.13918 16.3458L2.63606 16.8389ZM9.60309 9.29168L2.64909 3.16063L2.18616 3.68569L9.14016 9.81674L9.60309 9.29168ZM2.65035 3.16175C2.64383 3.15594 2.63748 3.14972 2.63135 3.14309L2.11749 3.61843C2.13887 3.64155 2.16136 3.66362 2.18489 3.68457L2.65035 3.16175ZM2.05481 3.23811C1.91861 3.54328 1.84862 3.87625 1.84922 4.21265L2.54922 4.2114C2.5488 3.97251 2.59857 3.73731 2.69403 3.52341L2.05481 3.23811ZM1.84922 4.21203V15.788H2.54922V4.21203H1.84922ZM1.84922 15.788C1.84922 16.131 1.92061 16.4581 2.05081 16.7521L2.69084 16.4686C2.60023 16.264 2.54922 16.0335 2.54922 15.788H1.84922ZM23.9497 16.7521C24.0799 16.4581 24.1513 16.131 24.1513 15.788H23.4513C23.4513 16.0335 23.4003 16.264 23.3097 16.4686L23.9497 16.7521ZM24.1513 15.788V4.21203H23.4513V15.788H24.1513ZM24.1513 4.21203C24.1513 3.86438 24.0784 3.5358 23.9458 3.23829L23.3064 3.52324C23.3994 3.73194 23.4513 3.96352 23.4513 4.21203H24.1513ZM23.3692 3.14309C23.363 3.14972 23.3567 3.15594 23.3502 3.16175L23.8156 3.68457C23.8392 3.66362 23.8617 3.64154 23.883 3.61843L23.3692 3.14309ZM23.3514 3.16063L16.3974 9.29168L16.8604 9.81674L23.8144 3.68569L23.3514 3.16063ZM16.3805 9.80074L23.3645 16.8389L23.8613 16.3458L16.8773 9.30768L16.3805 9.80074ZM23.3571 16.8312L23.3739 16.8492L23.8855 16.3714L23.8687 16.3534L23.3571 16.8312ZM22.9311 2.15925C22.641 2.01143 22.3224 1.93435 21.9989 1.9348L21.9999 2.6348C22.211 2.6345 22.4205 2.68473 22.6133 2.78294L22.9311 2.15925ZM21.9994 1.9348H3.99936V2.6348H21.9994V1.9348ZM3.99936 1.9348C3.66666 1.9348 3.34799 2.01536 3.06674 2.15971L3.38638 2.78247C3.57073 2.68785 3.78006 2.6348 3.99936 2.6348V1.9348ZM2.99508 2.73362L12.7679 11.3507L13.2308 10.8257L3.45804 2.20857L2.99508 2.73362ZM13.2308 11.3507L23.0036 2.73362L22.5407 2.20857L12.7679 10.8257L13.2308 11.3507ZM4 1.35H22V0.65H4V1.35ZM22 1.35C23.4414 1.35 24.65 2.60846 24.65 4.21199H25.35C25.35 2.26765 23.8723 0.65 22 0.65V1.35ZM24.65 4.21199V15.788H25.35V4.21199H24.65ZM24.65 15.788C24.65 17.3915 23.4414 18.65 22 18.65V19.35C23.8723 19.35 25.35 17.7323 25.35 15.788H24.65ZM22 18.65H4V19.35H22V18.65ZM4 18.65C2.55857 18.65 1.35 17.3915 1.35 15.788H0.65C0.65 17.7323 2.12772 19.35 4 19.35V18.65ZM1.35 15.788V4.21199H0.65V15.788H1.35ZM1.35 4.21199C1.35 2.60846 2.55857 1.35 4 1.35V0.65C2.12772 0.65 0.65 2.26765 0.65 4.21199H1.35Z" fill="#324C9A"/>
</svg>
