<svg width="26" height="25" viewBox="0 0 26 25" fill="none" xmlns="http://www.w3.org/2000/svg">
<path d="M24.7811 8.44371C24.6303 8.44435 24.4813 8.40896 24.3455 8.34023L12.8999 2.2351L1.4543 8.29884C1.21009 8.41959 0.929982 8.43401 0.6756 8.33892C0.421217 8.24384 0.213397 8.04703 0.0978565 7.7918C-0.0176839 7.53658 -0.0314796 7.24384 0.0595038 6.97798C0.150487 6.71212 0.338797 6.49492 0.583007 6.37417L12.8999 0L25.2168 6.37417C25.4764 6.43756 25.7017 6.60529 25.8439 6.84102C25.986 7.07675 26.0336 7.36152 25.9763 7.63366C25.919 7.9058 25.7615 8.1434 25.5378 8.29501C25.3141 8.44663 25.0422 8.50005 24.7811 8.44371ZM7.94938 18.7914H2.00876V25H7.94938V18.7914ZM15.8702 18.7914H9.92958V25H15.8702V18.7914ZM23.791 18.7914H17.8504V25H23.791V18.7914ZM19.8306 10.5132H13.89V16.7219H19.8306V10.5132ZM11.9098 10.5132H5.96917V16.7219H11.9098V10.5132Z" fill="#324C9A"/>
</svg>
