<svg width="26" height="26" viewBox="0 0 26 26" fill="none" xmlns="http://www.w3.org/2000/svg">
<path d="M17.5523 16.8999C17.38 16.8999 17.2146 16.9684 17.0927 17.0903C16.9708 17.2122 16.9023 17.3775 16.9023 17.5499C16.9023 17.7223 16.9708 17.8876 17.0927 18.0095C17.2146 18.1314 17.38 18.1999 17.5523 18.1999H20.1523C20.3247 18.1999 20.4901 18.1314 20.612 18.0095C20.7339 17.8876 20.8023 17.7223 20.8023 17.5499C20.8023 17.3775 20.7339 17.2122 20.612 17.0903C20.4901 16.9684 20.3247 16.8999 20.1523 16.8999H17.5523Z" fill="#324C9A"/>
<path d="M2.60156 8.44995C2.60156 7.588 2.94397 6.76135 3.55347 6.15185C4.16296 5.54236 4.98961 5.19995 5.85156 5.19995H20.1516C21.0135 5.19995 21.8402 5.54236 22.4497 6.15185C23.0592 6.76135 23.4016 7.588 23.4016 8.44995V17.5499C23.4016 18.4119 23.0592 19.2386 22.4497 19.848C21.8402 20.4575 21.0135 20.7999 20.1516 20.7999H5.85156C4.98961 20.7999 4.16296 20.4575 3.55347 19.848C2.94397 19.2386 2.60156 18.4119 2.60156 17.5499V8.44995ZM3.90156 17.5499C3.90156 18.0671 4.10701 18.5631 4.4727 18.9288C4.8384 19.2945 5.33439 19.4999 5.85156 19.4999H20.1516C20.6687 19.4999 21.1647 19.2945 21.5304 18.9288C21.8961 18.5631 22.1016 18.0671 22.1016 17.5499V11.7H3.90156V17.5499ZM22.1016 8.44995C22.1016 7.93278 21.8961 7.43679 21.5304 7.07109C21.1647 6.7054 20.6687 6.49995 20.1516 6.49995H5.85156C5.33439 6.49995 4.8384 6.7054 4.4727 7.07109C4.10701 7.43679 3.90156 7.93278 3.90156 8.44995V10.4H22.1016V8.44995Z" fill="#324C9A"/>
</svg>
