<svg width="17" height="16" viewBox="0 0 17 16" fill="none" xmlns="http://www.w3.org/2000/svg">
<path fill-rule="evenodd" clip-rule="evenodd" d="M7.92969 15C7.92969 15.5523 8.3774 16 8.92969 16C9.48197 16 9.92969 15.5523 9.92969 15V9H15.9297C16.482 9 16.9297 8.55229 16.9297 8C16.9297 7.44772 16.482 7 15.9297 7H9.92969V1C9.92969 0.447715 9.48197 0 8.92969 0C8.3774 0 7.92969 0.447715 7.92969 1V7H1.92969C1.3774 7 0.929688 7.44772 0.929688 8C0.929688 8.55229 1.3774 9 1.92969 9H7.92969V15Z" fill="#A4A9BB"/>
</svg>
