<svg width="22" height="24" viewBox="0 0 22 24" fill="none" xmlns="http://www.w3.org/2000/svg">
<path d="M20.4173 10.2686C20.3846 13.8819 18.4052 17.0717 16.1256 19.408C14.9939 20.5678 13.8172 21.4862 12.835 22.1086C12.3433 22.4201 11.9134 22.6491 11.5737 22.7966C11.2143 22.9526 11.0495 22.9756 11.0382 22.9772C11.0378 22.9772 11.0376 22.9772 11.0376 22.9772C11.0377 22.9772 11.0375 22.9772 11.037 22.9772C11.0258 22.9756 10.8614 22.9533 10.5048 22.7989C10.1677 22.6529 9.74205 22.4257 9.25596 22.1163C8.28495 21.4981 7.12479 20.5847 6.0141 19.4298C3.77661 17.1033 1.85489 13.9219 1.88759 10.3085C1.9339 5.19059 6.11964 1.03306 11.2363 1.02202C16.3529 1.01098 20.4636 5.15061 20.4173 10.2686Z" stroke="#324C9A" stroke-width="2"/>
</svg>
