<svg width="43" height="29" viewBox="0 0 43 29" fill="none" xmlns="http://www.w3.org/2000/svg">
<path fill-rule="evenodd" clip-rule="evenodd" d="M23.3611 14.5V14.5H9.66532V19.3333H21.9281C20.347 21.7582 17.6107 23.3611 14.5 23.3611C9.60614 23.3611 5.63889 19.3939 5.63889 14.5C5.63889 9.60614 9.60614 5.63889 14.5 5.63889C17.9435 5.63889 20.9282 7.60308 22.3949 10.4722H28.4333C27.9492 8.79456 27.1703 7.24192 26.1563 5.87401C26.8101 5.72024 27.4919 5.63889 28.1927 5.63889C31.6362 5.63889 34.6209 7.60308 36.0876 10.4722H42.126C40.3806 4.42364 34.8032 0 28.1927 0C25.7166 0 23.3855 0.62065 21.3464 1.71487C19.3073 0.620649 16.9761 0 14.5 0C6.49187 0 0 6.49187 0 14.5C0 22.5081 6.49187 29 14.5 29C16.9761 29 19.3073 28.3794 21.3464 27.2851C23.3855 28.3793 25.7166 29 28.1927 29C35.0934 29 40.8682 24.1795 42.3334 17.7222H36.4498C35.1608 21.0229 31.9498 23.3611 28.1927 23.3611C27.4919 23.3611 26.8101 23.2798 26.1563 23.126C27.9432 20.7154 29 17.7311 29 14.5V14.5H23.3611Z" fill="#324C9A"/>
</svg>
