<svg width="11" height="11" viewBox="0 0 11 11" fill="none" xmlns="http://www.w3.org/2000/svg">
<path fill-rule="evenodd" clip-rule="evenodd" d="M3.01172 1.33716C3.01172 0.784873 3.45943 0.337158 4.01172 0.337158H6.01172C6.564 0.337158 7.01172 0.784873 7.01172 1.33716V3.33716C7.01172 3.88944 6.564 4.33716 6.01172 4.33716H4.01172C3.45943 4.33716 3.01172 3.88944 3.01172 3.33716V1.33716ZM0.0117188 7.33716C0.0117188 6.78487 0.459434 6.33716 1.01172 6.33716H3.01172C3.564 6.33716 4.01172 6.78487 4.01172 7.33716V9.33716C4.01172 9.88944 3.564 10.3372 3.01172 10.3372H1.01172C0.459434 10.3372 0.0117188 9.88944 0.0117188 9.33716V7.33716ZM7.01172 6.33716C6.45943 6.33716 6.01172 6.78487 6.01172 7.33716V9.33716C6.01172 9.88944 6.45943 10.3372 7.01172 10.3372H9.01172C9.564 10.3372 10.0117 9.88944 10.0117 9.33716V7.33716C10.0117 6.78487 9.564 6.33716 9.01172 6.33716H7.01172Z" fill="#A4A9BB"/>
</svg>
