<svg width="28" height="24" viewBox="0 0 28 24" fill="none" xmlns="http://www.w3.org/2000/svg">
<path fill-rule="evenodd" clip-rule="evenodd" d="M13.7586 7.95332C13.9126 7.66993 14 7.34518 14 7C14 6.63571 13.9026 6.29417 13.7324 6C13.3866 5.4022 12.7403 5 12 5C11.2597 5 10.6134 5.4022 10.2676 6C10.2586 6.01543 10.2499 6.03099 10.2414 6.04668C10.0874 6.33007 10 6.65482 10 7C10 7.36429 10.0974 7.70583 10.2676 8C10.6134 8.5978 11.2597 9 12 9C12.7403 9 13.3866 8.5978 13.7324 8C13.7414 7.98457 13.7501 7.96901 13.7586 7.95332ZM15.874 8C15.4299 9.72523 13.8638 11 12 11C10.1362 11 8.57006 9.72523 8.12602 8H5C4.44772 8 4 7.55228 4 7C4 6.44772 4.44772 6 5 6H8.12602C8.57006 4.27477 10.1362 3 12 3C13.8638 3 15.4299 4.27477 15.874 6H27C27.5523 6 28 6.44772 28 7C28 7.55228 27.5523 8 27 8H15.874ZM21.7586 17.9533C21.9126 17.6699 22 17.3452 22 17C22 16.6357 21.9026 16.2942 21.7324 16C21.3866 15.4022 20.7403 15 20 15C19.2597 15 18.6134 15.4022 18.2676 16C18.2586 16.0154 18.2499 16.031 18.2414 16.0467C18.0874 16.3301 18 16.6548 18 17C18 17.3643 18.0974 17.7058 18.2676 18C18.6134 18.5978 19.2597 19 20 19C20.7403 19 21.3866 18.5978 21.7324 18C21.7414 17.9846 21.7501 17.969 21.7586 17.9533ZM23.874 18C23.4299 19.7252 21.8638 21 20 21C18.1362 21 16.5701 19.7252 16.126 18H5C4.44772 18 4 17.5523 4 17C4 16.4477 4.44772 16 5 16H16.126C16.5701 14.2748 18.1362 13 20 13C21.8638 13 23.4299 14.2748 23.874 16H27C27.5523 16 28 16.4477 28 17C28 17.5523 27.5523 18 27 18H23.874Z" fill="#324C9A"/>
</svg>
