<svg width="44" height="44" viewBox="0 0 44 44" fill="none" xmlns="http://www.w3.org/2000/svg">
<path fill-rule="evenodd" clip-rule="evenodd" d="M10 14C10 13.4477 10.4477 13 11 13H13C13.5523 13 14 13.4477 14 14V16C14 16.5523 13.5523 17 13 17H11C10.4477 17 10 16.5523 10 16V14ZM10 28C10 27.4477 10.4477 27 11 27H13C13.5523 27 14 27.4477 14 28V30C14 30.5523 13.5523 31 13 31H11C10.4477 31 10 30.5523 10 30V28ZM14 21C14 20.4477 13.5523 20 13 20H11C10.4477 20 10 20.4477 10 21V23C10 23.5523 10.4477 24 11 24H13C13.5523 24 14 23.5523 14 23V21ZM30 14C30 13.4477 30.4477 13 31 13H33C33.5523 13 34 13.4477 34 14V16C34 16.5523 33.5523 17 33 17H31C30.4477 17 30 16.5523 30 16V14ZM34 28C34 27.4477 33.5523 27 33 27H31C30.4477 27 30 27.4477 30 28V30C30 30.5523 30.4477 31 31 31H33C33.5523 31 34 30.5523 34 30V28ZM30 21C30 20.4477 30.4477 20 31 20H33C33.5523 20 34 20.4477 34 21V23C34 23.5523 33.5523 24 33 24H31C30.4477 24 30 23.5523 30 23V21ZM24 14C24 13.4477 23.5523 13 23 13H21C20.4477 13 20 13.4477 20 14V16C20 16.5523 20.4477 17 21 17H23C23.5523 17 24 16.5523 24 16V14ZM20 28C20 27.4477 20.4477 27 21 27H23C23.5523 27 24 27.4477 24 28V30C24 30.5523 23.5523 31 23 31H21C20.4477 31 20 30.5523 20 30V28ZM24 21C24 20.4477 23.5523 20 23 20H21C20.4477 20 20 20.4477 20 21V23C20 23.5523 20.4477 24 21 24H23C23.5523 24 24 23.5523 24 23V21Z" fill="#A4A9BB"/>
</svg>
