<svg width="24" height="24" viewBox="0 0 24 24" fill="none" xmlns="http://www.w3.org/2000/svg">
<path fill-rule="evenodd" clip-rule="evenodd" d="M10 17.9691C14.4183 17.9691 18 14.3935 18 9.98285C18 5.57215 14.4183 1.99657 10 1.99657C5.58172 1.99657 2 5.57215 2 9.98285C2 14.3935 5.58172 17.9691 10 17.9691ZM10 19.9657C15.5228 19.9657 20 15.4962 20 9.98285C20 4.46947 15.5228 0 10 0C4.47715 0 0 4.46947 0 9.98285C0 15.4962 4.47715 19.9657 10 19.9657Z" fill="#324C9A"/>
<path fill-rule="evenodd" clip-rule="evenodd" d="M23.6749 23.6992C23.289 24.0936 22.6559 24.101 22.2608 23.7157L17.9028 19.4655C17.5077 19.0803 17.5003 18.4482 17.8862 18.0539C18.2722 17.6595 18.9053 17.6521 19.3004 18.0374L23.6584 22.2875C24.0535 22.6728 24.0609 23.3048 23.6749 23.6992Z" fill="#324C9A"/>
</svg>
