<svg width="22" height="20" viewBox="0 0 22 20" fill="none" xmlns="http://www.w3.org/2000/svg">
<path d="M10.093 0.952963C10.4514 0.181231 11.5486 0.181231 11.907 0.952963L14.1654 5.81605C14.3111 6.1298 14.6086 6.34596 14.9521 6.38759L20.275 7.03272C21.1197 7.13509 21.4588 8.17854 20.8356 8.75787L16.9084 12.4086C16.655 12.6441 16.5414 12.9938 16.6079 13.3333L17.6393 18.5951C17.8029 19.4301 16.9153 20.075 16.1717 19.6613L11.4862 17.0545C11.1839 16.8863 10.8161 16.8863 10.5138 17.0545L5.82825 19.6613C5.08469 20.075 4.19708 19.4301 4.36075 18.5951L5.39208 13.3333C5.45862 12.9938 5.34497 12.6441 5.0916 12.4086L1.16443 8.75787C0.541222 8.17854 0.880257 7.13509 1.72497 7.03272L7.04794 6.38759C7.39136 6.34596 7.68888 6.1298 7.83459 5.81605L10.093 0.952963Z" fill="#F2994A"/>
</svg>
