<svg width="40" height="40" viewBox="0 0 40 40" fill="none" xmlns="http://www.w3.org/2000/svg">
<path d="M17.4082 0.975894C18.7863 -0.325299 20.9402 -0.325297 22.3183 0.975896L24.5525 3.08544C25.2691 3.76202 26.2331 4.11289 27.2169 4.0552L30.2844 3.87533C32.1765 3.76438 33.8265 5.14891 34.0458 7.0315L34.4013 10.0836C34.5154 11.0625 35.0283 11.951 35.819 12.5392L38.2845 14.3731C39.8052 15.5043 40.1793 17.6256 39.1371 19.2087L37.4476 21.7753C36.9058 22.5984 36.7276 23.6087 36.9553 24.5676L37.6651 27.5573C38.1029 29.4013 37.0259 31.2667 35.21 31.8096L32.266 32.6897C31.3217 32.972 30.5359 33.6314 30.0939 34.5122L28.7159 37.2587C27.866 38.9528 25.842 39.6895 24.1019 38.9381L21.2809 37.7199C20.3762 37.3292 19.3503 37.3292 18.4455 37.7199L15.6246 38.9381C13.8845 39.6895 11.8605 38.9528 11.0105 37.2587L9.63256 34.5122C9.19061 33.6314 8.40474 32.972 7.46052 32.6897L4.51649 31.8096C2.70057 31.2667 1.6236 29.4013 2.06142 27.5572L2.77123 24.5676C2.99888 23.6087 2.82074 22.5984 2.27887 21.7753L0.58934 19.2087C-0.452781 17.6256 -0.0787522 15.5043 1.44198 14.3731L3.90744 12.5392C4.69817 11.951 5.21111 11.0625 5.32514 10.0836L5.68067 7.0315C5.89996 5.1489 7.54997 3.76438 9.44205 3.87533L12.5096 4.0552C13.4934 4.11289 14.4574 3.76202 15.174 3.08544L17.4082 0.975894Z" fill="#4479A3" fill-opacity="0.12"/>
<path fill-rule="evenodd" clip-rule="evenodd" d="M19.0306 19.855C18.4476 20.4435 18.4521 21.3932 19.0406 21.9763C19.6292 22.5593 20.5789 22.5548 21.1619 21.9663L39.1611 3.79687C39.7441 3.20833 39.7396 2.25859 39.1511 1.67557C38.5625 1.09255 37.6128 1.09702 37.0298 1.68556L19.0306 19.855ZM23.5097 8.15731C24.5786 8.15731 25.4452 7.29077 25.4452 6.22184C25.4452 5.1529 24.5786 4.28636 23.5097 4.28636C22.4408 4.28636 21.5742 5.1529 21.5742 6.22184C21.5742 7.29077 22.4408 8.15731 23.5097 8.15731ZM23.5097 11.1573C26.2355 11.1573 28.4452 8.94762 28.4452 6.22184C28.4452 3.49605 26.2355 1.28636 23.5097 1.28636C20.7839 1.28636 18.5742 3.49605 18.5742 6.22184C18.5742 8.94762 20.7839 11.1573 23.5097 11.1573ZM34.7907 19.4384C35.8596 19.4384 36.7262 18.5719 36.7262 17.5029C36.7262 16.434 35.8596 15.5674 34.7907 15.5674C33.7218 15.5674 32.8552 16.434 32.8552 17.5029C32.8552 18.5719 33.7218 19.4384 34.7907 19.4384ZM34.7907 22.4384C37.5165 22.4384 39.7262 20.2287 39.7262 17.5029C39.7262 14.7771 37.5165 12.5674 34.7907 12.5674C32.0649 12.5674 29.8552 14.7771 29.8552 17.5029C29.8552 20.2287 32.0649 22.4384 34.7907 22.4384Z" fill="#324C9A"/>
</svg>
