<?xml version="1.0" encoding="utf-8"?><svg viewBox="0 0 44 44" xmlns="http://www.w3.org/2000/svg" xmlns:xlink="http://www.w3.org/1999/xlink"><style>:root>svg{display:none}:root>svg:target{display:block}</style><svg fill="none" viewBox="0 0 44 44" id="facebook" xmlns="http://www.w3.org/2000/svg"><circle cx="22" cy="22" r="22" fill="#324C9A"/><path fill-rule="evenodd" clip-rule="evenodd" d="M23.202 32v-8.936h3.063l.458-3.557h-3.52v-2.27c0-1.028.285-1.73 1.762-1.73l1.882-.001v-3.18c-.326-.044-1.444-.14-2.744-.14-2.713 0-4.572 1.656-4.572 4.7v2.621h-3.07v3.556h3.07V32h3.671z" fill="#EFF8FF"/></svg><svg fill="none" viewBox="0 0 42 43" id="facebook-outline" xmlns="http://www.w3.org/2000/svg"><path fill-rule="evenodd" clip-rule="evenodd" d="M21.963 29.011v-7.149h2.45l.367-2.845h-2.817v-1.816c0-.823.23-1.384 1.41-1.384h1.506v-2.545a20.072 20.072 0 00-2.195-.112c-2.17 0-3.658 1.325-3.658 3.76v2.097H16.57v2.845h2.456v7.15h2.937z" fill="#324C9A"/><circle cx="21" cy="21.011" r="20.5" stroke="#324C9A"/></svg><svg fill="none" viewBox="0 0 44 44" id="instagram" xmlns="http://www.w3.org/2000/svg"><circle cx="22" cy="22" r="22" fill="#324C9A"/><path fill-rule="evenodd" clip-rule="evenodd" d="M26.4 32h-8.8a5.602 5.602 0 01-5.6-5.6v-8.8c0-3.091 2.509-5.6 5.6-5.6h8.8c3.091 0 5.6 2.509 5.6 5.6v8.8c0 3.091-2.509 5.6-5.6 5.6zm-.05-17.5h-8.7a3.151 3.151 0 00-3.15 3.15v8.7a3.151 3.151 0 003.15 3.15h8.7a3.151 3.151 0 003.15-3.15v-8.7a3.151 3.151 0 00-3.15-3.15zm.65 1.25a1.25 1.25 0 110 2.5 1.25 1.25 0 010-2.5zM22 17c2.76 0 5 2.24 5 5s-2.24 5-5 5-5-2.24-5-5 2.24-5 5-5zm0 2.5a2.5 2.5 0 010 5 2.5 2.5 0 010-5z" fill="#EFF8FF"/></svg><svg fill="none" viewBox="0 0 42 43" id="instagram-outline" xmlns="http://www.w3.org/2000/svg"><path fill-rule="evenodd" clip-rule="evenodd" d="M24.52 29.011h-7.04a4.482 4.482 0 01-4.48-4.48v-7.04a4.482 4.482 0 014.48-4.48h7.04a4.482 4.482 0 014.48 4.48v7.04a4.482 4.482 0 01-4.48 4.48zm-.04-14h-6.96a2.521 2.521 0 00-2.52 2.52v6.96a2.521 2.521 0 002.52 2.52h6.96a2.521 2.521 0 002.52-2.52v-6.96a2.521 2.521 0 00-2.52-2.52zm.52 1a1 1 0 110 2 1 1 0 010-2zm-4 1c2.208 0 4 1.792 4 4s-1.792 4-4 4-4-1.792-4-4 1.792-4 4-4zm0 2a2 2 0 11-.001 4.002A2 2 0 0121 19.01z" fill="#324C9A"/><circle cx="21" cy="21.011" r="20.5" stroke="#324C9A"/></svg><svg fill="none" viewBox="0 0 42 43" id="odnoklasniki-outline" xmlns="http://www.w3.org/2000/svg"><path fill-rule="evenodd" clip-rule="evenodd" d="M17.325 24.04a1.345 1.345 0 01.569-2.562c.223 0 .433.055.619.151a5.636 5.636 0 002.487.574c.894 0 1.739-.207 2.492-.576a1.344 1.344 0 111.181 2.413 8.21 8.21 0 01-1.6.59l1.835 2.08a1.345 1.345 0 01-2.015 1.778l-1.894-2.146-1.894 2.146a1.345 1.345 0 01-2.015-1.778l1.835-2.08a8.303 8.303 0 01-1.6-.59zM21 13.08a4.117 4.117 0 014.114 4.113A4.117 4.117 0 0121 21.307a4.117 4.117 0 01-4.114-4.114A4.117 4.117 0 0121 13.08zm0 2.498a1.616 1.616 0 010 3.23 1.616 1.616 0 010-3.23z" fill="#324C9A"/><circle cx="21" cy="21.011" r="20.5" stroke="#324C9A"/></svg><svg fill="none" viewBox="0 0 44 44" id="vkontakte" xmlns="http://www.w3.org/2000/svg"><circle cx="22" cy="22" r="22" fill="#324C9A"/><path fill-rule="evenodd" clip-rule="evenodd" d="M32 18.933c0-5.6-1.333-6.933-6.933-6.933h-6.134C13.333 12 12 13.333 12 18.933v6.134c0 5.6 1.333 6.933 6.933 6.933h6.134c5.6 0 6.933-1.333 6.933-6.933v-6.134zm-16.25-.683h1.458c.373 0 .513.163.653.567.713 2.078 1.916 3.893 2.41 3.893.186 0 .27-.085.27-.556v-2.147c-.033-.612-.246-.876-.404-1.072-.098-.12-.175-.216-.175-.35 0-.163.14-.335.371-.335h2.292c.31 0 .417.165.417.536v2.89c0 .308.134.416.227.416.185 0 .34-.108.68-.448 1.05-1.174 1.792-2.982 1.792-2.982.092-.216.263-.412.634-.412h1.458c.441 0 .534.227.441.536-.172.79-1.716 3.004-1.936 3.316l-.026.037c-.154.247-.216.37 0 .649.076.106.239.265.425.448.191.187.407.398.58.602.626.705 1.098 1.3 1.23 1.71.12.41-.089.619-.505.619h-1.459c-.39 0-.587-.22-1.012-.692-.18-.2-.401-.446-.696-.74-.865-.835-1.236-.943-1.452-.943-.293 0-.381.083-.381.5v1.307c0 .36-.115.568-1.042.568-1.545 0-3.243-.938-4.448-2.669-1.807-2.534-2.302-4.45-2.302-4.836 0-.216.083-.412.5-.412z" fill="#EFF8FF"/></svg><svg fill="none" viewBox="0 0 42 43" id="vkontakte-outline" xmlns="http://www.w3.org/2000/svg"><path fill-rule="evenodd" clip-rule="evenodd" d="M29 16.011c0-1.656-1.344-3-3-3H16c-1.656 0-3 1.344-3 3v10c0 1.656 1.344 3 3 3h10c1.656 0 3-1.344 3-3v-10zm-13.555 1.514h1.322c.33 0 .457.14.584.508.648 1.868 1.729 3.508 2.173 3.508.166 0 .242-.077.242-.496v-1.932c-.031-.549-.223-.788-.364-.965-.088-.11-.157-.197-.157-.318 0-.153.127-.305.33-.305h2.059c.28 0 .381.152.381.483v2.605c0 .28.115.381.204.381.165 0 .305-.102.61-.407.94-1.054 1.614-2.68 1.614-2.68.089-.192.241-.37.572-.37h1.309c.394 0 .483.204.394.483-.14.64-1.288 2.334-1.647 2.864-.07.102-.11.161-.107.161-.14.23-.191.33 0 .585.069.094.214.236.38.399.172.169.367.36.522.541.559.635.991 1.17 1.106 1.538.101.368-.076.56-.458.56h-1.309c-.346 0-.525-.2-.906-.624a16.125 16.125 0 00-.632-.673c-.775-.75-1.118-.852-1.309-.852-.266 0-.343.064-.343.445v1.182c0 .318-.101.508-.94.508-1.385 0-2.923-.839-4.003-2.402C15.445 19.965 15 18.236 15 17.893c0-.19.064-.368.445-.368z" fill="#324C9A"/><circle cx="21" cy="21.011" r="20.5" stroke="#324C9A"/></svg><svg fill="none" viewBox="0 0 44 44" id="youtube" xmlns="http://www.w3.org/2000/svg"><circle cx="22" cy="22" r="22" fill="#324C9A"/><path fill-rule="evenodd" clip-rule="evenodd" d="M12 22c0-2.301.414-4.331 1.041-5.529.3-.727.808-1.346 1.449-1.782 1.15-.84 4.08-1.439 7.51-1.439 3.43 0 6.36.599 7.51 1.439a4.004 4.004 0 011.449 1.782C31.586 17.67 32 19.7 32 22c0 2.301-.414 4.331-1.041 5.529a4.004 4.004 0 01-1.449 1.782c-1.15.84-4.08 1.439-7.51 1.439-3.43 0-6.36-.599-7.51-1.439a4.005 4.005 0 01-1.449-1.782C12.414 26.33 12 24.3 12 22zm8.541 3.621a.652.652 0 01-1.041-.523v-6.197a.652.652 0 011.041-.522l4.914 3.053-.002.004a.683.683 0 010 1.128l.002.003-4.914 3.054z" fill="#EFF8FF"/></svg><svg fill="none" viewBox="0 0 42 43" id="youtube-outline" xmlns="http://www.w3.org/2000/svg"><path fill-rule="evenodd" clip-rule="evenodd" d="M13 21.011c0-1.84.331-3.465.833-4.423a3.204 3.204 0 011.159-1.426c.92-.672 3.264-1.15 6.008-1.15s5.088.478 6.008 1.15c.513.35.919.844 1.159 1.426.502.958.833 2.582.833 4.423 0 1.841-.331 3.465-.833 4.423a3.204 3.204 0 01-1.159 1.426c-.92.672-3.264 1.151-6.008 1.151s-5.088-.479-6.008-1.15a3.204 3.204 0 01-1.159-1.427c-.502-.958-.833-2.582-.833-4.423zm6.833 2.897A.522.522 0 0119 23.49v-4.958a.522.522 0 01.833-.418l3.931 2.443-.002.003a.546.546 0 010 .902l.002.003-3.931 2.443z" fill="#324C9A"/><circle cx="21" cy="21.011" r="20.5" stroke="#324C9A"/></svg></svg>