<svg width="44" height="37" viewBox="0 0 44 37" fill="none" xmlns="http://www.w3.org/2000/svg">
<path d="M37.9085 2C40.1176 2 41.9085 3.79086 41.9085 6V33C41.9085 35.2091 40.1176 37 37.9085 37H13.2454C11.1844 37 9.26761 35.9422 8.16896 34.1984L0.923537 22.6984C-0.307843 20.7439 -0.307847 18.2561 0.923533 16.3016L8.16895 4.80165C9.2676 3.05785 11.1844 2 13.2454 2H37.9085Z" fill="#4479A3" fill-opacity="0.12"/>
<path d="M30.4465 21.9862V12.5846M30.4465 12.5846V2H36.4797C39.4025 2 41.772 4.36945 41.772 7.29232V7.29232C41.772 10.2152 39.4025 12.5846 36.4797 12.5846H30.4465ZM30.4465 12.5846H26.4492M26.4492 17.685H38.4409" stroke="#324C9A" stroke-width="3" stroke-linecap="round" stroke-linejoin="round"/>
</svg>
