<svg width="238" height="86" viewBox="0 0 238 86" fill="none" xmlns="http://www.w3.org/2000/svg">
<rect y="44" width="238" height="42" rx="8" fill="#324C9A"/>
<path fill-rule="evenodd" clip-rule="evenodd" d="M136 18.8211C136 6.06794 146.766 0 154.826 0C158.899 0 163.475 1.41386 167.092 3.77809C168.122 4.45154 169.147 5.25383 170.082 6.18016C170.99 5.2657 171.986 4.46982 172.994 3.79776C176.564 1.41855 181.094 0 185.174 0C193.234 0 204 6.06794 204 18.8211C204 21.5825 203.699 24.1994 202.618 26.78C201.535 29.3641 199.803 31.595 197.429 33.8231C192.942 38.0332 185.343 42.9361 173.315 50.6963L172.284 51.3611C170.964 52.213 169.267 52.213 167.947 51.3611L165.84 50.0017C154.278 42.5443 146.89 37.7788 142.497 33.6465C140.17 31.4582 138.461 29.2558 137.385 26.7034C136.31 24.152 136 21.5603 136 18.8211ZM166.116 15.1158C166.116 13.8073 165.192 12.0934 162.715 10.4745C160.309 8.90193 157.24 8 154.826 8C149.913 8 144 11.6584 144 18.8211C144 20.9581 144.245 22.3819 144.757 23.5971C145.269 24.8113 146.178 26.1267 147.978 27.819C151.702 31.3216 158.267 35.5956 170.115 43.2397C181.754 35.7265 188.247 31.4682 191.955 27.9891C193.801 26.2565 194.724 24.9191 195.24 23.688C195.757 22.4535 196 21.0083 196 18.8211C196 11.6584 190.087 8 185.174 8C182.767 8 179.768 8.89724 177.431 10.4549C175.038 12.0493 174.116 13.7608 174.116 15.1158C174.116 17.3249 172.325 19.1158 170.116 19.1158C167.907 19.1158 166.116 17.3249 166.116 15.1158Z" fill="white"/>
</svg>
