<svg width="88" height="70" viewBox="0 0 88 70" fill="none" xmlns="http://www.w3.org/2000/svg">
<path fill-rule="evenodd" clip-rule="evenodd" d="M85.5271 20.4291C89.6295 14.5368 88.1785 6.43457 82.2862 2.33223C76.3939 -1.77011 68.2917 -0.319073 64.1893 5.5732L57.3328 15.4214C55.6344 17.8609 54.8878 20.6791 55.0142 23.4355C54.8877 26.192 55.6342 29.0105 57.3327 31.4501L64.1893 41.2983C68.2916 47.1906 76.3939 48.6416 82.2861 44.5393C88.1784 40.4369 89.6295 32.3347 85.5271 26.4424L83.4338 23.4358L85.5271 20.4291ZM5.5732 2.33223C-0.319073 6.43457 -1.77011 14.5368 2.33223 20.4291L4.42556 23.4358L2.33226 26.4424C-1.77008 32.3347 -0.319048 40.4369 5.57323 44.5393C11.4655 48.6416 19.5677 47.1906 23.6701 41.2983L30.5266 31.4501C32.2252 29.0105 32.9717 26.192 32.8451 23.4355C32.9716 20.6791 32.225 17.8609 30.5266 15.4214L23.6701 5.5732C19.5677 -0.319073 11.4655 -1.77011 5.5732 2.33223ZM43.7932 23.2504C43.7267 23.2298 43.6595 23.2102 43.5917 23.1919C40.6593 22.3993 37.6397 24.1339 36.8471 27.0663L27.1929 62.7846C26.4003 65.7169 28.1349 68.7365 31.0673 69.5291C33.9996 70.3217 37.0192 68.5871 37.8118 65.6547L43.7928 43.5265L49.7739 65.655C50.5665 68.5873 53.5861 70.3219 56.5185 69.5293C59.4508 68.7368 61.1854 65.7171 60.3928 62.7848L50.7386 27.0665C49.946 24.1341 46.9264 22.3995 43.994 23.1921C43.9265 23.2104 43.8595 23.2298 43.7932 23.2504Z" fill="#324C9A"/>
<path fill-rule="evenodd" clip-rule="evenodd" d="M54.0431 28.4937C52.3246 32.3286 48.4742 35 43.9999 35C39.5256 35 35.6752 32.3286 33.9567 28.4937L35.7888 27.5777C37.1439 26.9001 37.9999 25.5151 37.9999 24C37.9999 22.4849 37.1439 21.0998 35.7888 20.4223L33.9567 19.5062C35.6752 15.6714 39.5256 13 43.9999 13C48.4742 13 52.3246 15.6714 54.0431 19.5062L52.211 20.4223C50.8559 21.0998 49.9999 22.4849 49.9999 24C49.9999 25.5151 50.8559 26.9001 52.211 27.5777L54.0431 28.4937ZM61.2039 32.0742C58.1687 38.5303 51.6063 43 43.9999 43C36.3935 43 29.8311 38.5303 26.7959 32.0742L21.7888 34.5777C19.8128 35.5657 17.4101 34.7648 16.4222 32.7888C15.4342 30.8129 16.2351 28.4102 18.211 27.4223L24.9999 24.0278C24.9999 24.0186 24.9999 24.0093 24.9999 24C24.9999 23.9907 24.9999 23.9814 24.9999 23.9721L18.211 20.5777C16.2351 19.5897 15.4342 17.1871 16.4222 15.2111C17.4101 13.2352 19.8128 12.4343 21.7888 13.4223L26.7959 15.9258C29.8311 9.46968 36.3935 5 43.9999 5C51.6063 5 58.1687 9.46968 61.2039 15.9258L66.211 13.4223C68.187 12.4343 70.5897 13.2352 71.5776 15.2111C72.5656 17.1871 71.7647 19.5897 69.7888 20.5777L62.9999 23.9721C62.9999 23.9814 62.9999 23.9907 62.9999 24C62.9999 24.0093 62.9999 24.0186 62.9999 24.0278L69.7888 27.4223C71.7647 28.4102 72.5656 30.8129 71.5776 32.7888C70.5897 34.7648 68.187 35.5657 66.211 34.5777L61.2039 32.0742Z" fill="white"/>
<path d="M55 24C55 30.0751 50.0751 35 44 35C37.9249 35 33 30.0751 33 24C33 17.9249 37.9249 13 44 13C50.0751 13 55 17.9249 55 24Z" fill="#324C9A"/>
</svg>
