<svg width="86" height="466" viewBox="0 0 86 466" fill="none" xmlns="http://www.w3.org/2000/svg">
<rect x="19" y="462" width="458" height="46" rx="4" transform="rotate(-90 19 462)" stroke="white" stroke-width="8"/>
<path d="M44.341 257.637C75.2968 283.098 81 287.789 81 303.747C81 320.042 70.2973 328 61.973 328C53.6486 328 42.3514 320.421 42.3514 309.811C42.3514 320.421 31.3514 328 23.027 328C14.7027 328 4 320.042 4 303.747C4 287.552 9.58009 282.961 41.7571 256.489L42.3514 256C43.0259 256.555 43.6891 257.1 44.341 257.637Z" fill="#324C9A"/>
<path d="M42.3514 256L41.7571 256.489C9.58009 282.961 4 287.552 4 303.747C4 320.042 14.7027 328 23.027 328C31.3514 328 42.3514 320.421 42.3514 309.811C42.3514 320.421 53.6486 328 61.973 328C70.2973 328 81 320.042 81 303.747C81 287.789 75.2968 283.098 44.341 257.637C43.6891 257.1 43.0259 256.555 42.3514 256ZM42.3514 256V286" stroke="white" stroke-width="8" stroke-linecap="round" stroke-linejoin="round"/>
<path d="M44.341 206.363C75.2968 180.902 81 176.211 81 160.253C81 143.958 70.2973 136 61.973 136C53.6486 136 42.3514 143.579 42.3514 154.189C42.3514 143.579 31.3514 136 23.027 136C14.7027 136 4 143.958 4 160.253C4 176.448 9.58009 181.039 41.7571 207.511L42.3514 208C43.0259 207.445 43.6891 206.9 44.341 206.363Z" fill="#324C9A"/>
<path d="M42.3514 208L41.7571 207.511C9.58009 181.039 4 176.448 4 160.253C4 143.958 14.7027 136 23.027 136C31.3514 136 42.3514 143.579 42.3514 154.189C42.3514 143.579 53.6486 136 61.973 136C70.2973 136 81 143.958 81 160.253C81 176.211 75.2968 180.902 44.341 206.363C43.6891 206.9 43.0259 207.445 42.3514 208ZM42.3514 208V178" stroke="white" stroke-width="8" stroke-linecap="round" stroke-linejoin="round"/>
<circle cx="44" cy="233" r="38" transform="rotate(-90 44 233)" fill="#324C9A" stroke="white" stroke-width="8"/>
</svg>
