<svg width="347" height="219" viewBox="0 0 347 219" fill="none" xmlns="http://www.w3.org/2000/svg">
<path d="M159.561 14.0979C165.526 17.9981 169 22.933 169 28C169 30.2091 170.791 32 173 32C175.209 32 177 30.2091 177 28C177 22.8864 180.405 17.9539 186.219 14.0782C191.977 10.2392 199.337 8 205.5 8C217.925 8 233.5 17.294 233.5 36C233.5 41.0553 232.942 44.855 231.499 48.3007C230.057 51.743 227.597 55.1482 223.306 59.1762C214.657 67.2937 199.512 77.1262 173 94.2392L171.823 93.4795C145.613 76.5668 130.613 66.8662 122.045 58.8052C117.855 54.8639 115.429 51.5099 113.999 48.1126C112.567 44.7143 112 40.9632 112 36C112 17.294 127.575 8 140 8C146.17 8 153.667 10.2438 159.561 14.0979Z" fill="#324C9A"/>
<path fill-rule="evenodd" clip-rule="evenodd" d="M140 0C124.425 0 104 11.706 104 36C104 41.5651 104.632 46.4838 106.626 51.218C108.62 55.9532 111.846 60.1943 116.563 64.6318C124.763 72.3465 138.143 81.2376 159.108 94.7929C157.812 94.8526 156.533 94.9216 155.27 95H8C3.58172 95 0 98.5817 0 103V141C0 145.418 3.58173 149 8.00001 149H75.3352C70.4483 166.532 69 188.452 69 215C69 217.209 70.7909 219 73 219C75.2091 219 77 217.209 77 215C77 187.046 78.677 165.445 83.6596 149H339C343.418 149 347 145.418 347 141V103C347 98.5817 343.418 95 339 95H186.564C207.354 81.5416 220.62 72.6693 228.781 65.0092C233.6 60.4856 236.869 56.1868 238.877 51.3918C240.885 46.6002 241.5 41.6293 241.5 36C241.5 11.706 221.075 0 205.5 0C197.663 0 188.773 2.76085 181.781 7.4218C178.397 9.67819 175.272 12.5163 172.959 15.8635C170.587 12.4986 167.384 9.65475 163.939 7.40212C156.833 2.75616 147.83 0 140 0ZM159.561 14.0979C165.526 17.9981 169 22.933 169 28C169 30.2091 170.791 32 173 32C175.209 32 177 30.2091 177 28C177 22.8864 180.405 17.9539 186.219 14.0782C191.977 10.2392 199.337 8 205.5 8C217.925 8 233.5 17.294 233.5 36C233.5 41.0553 232.942 44.855 231.499 48.3007C230.057 51.743 227.597 55.1482 223.306 59.1762C214.657 67.2937 199.512 77.1262 173 94.2392L171.823 93.4795C145.613 76.5668 130.613 66.8662 122.045 58.8052C117.855 54.8639 115.429 51.5099 113.999 48.1126C112.567 44.7143 112 40.9632 112 36C112 17.294 127.575 8 140 8C146.17 8 153.667 10.2438 159.561 14.0979ZM87.8948 122.62C94.5952 113.93 103.36 107.5 114.582 103H8V141H77.9236C80.5058 134.081 83.7774 127.96 87.8948 122.62ZM94.2302 127.505C105.457 112.945 124.059 104.989 155.517 103H339V141H86.518C88.6411 135.93 91.1896 131.448 94.2302 127.505Z" fill="white"/>
</svg>
