<svg width="96" height="32" viewBox="0 0 96 32" fill="none" xmlns="http://www.w3.org/2000/svg">
<g clip-path="url(#clip0)">
<path d="M87.6858 -1.80706e-05H7.59121C7.29925 -1.80706e-05 7.0108 -1.80705e-05 6.71962 0.00158192C6.47587 0.00318192 6.23407 0.0078299 5.98798 0.0117419C5.45336 0.0180633 4.92001 0.0653227 4.39254 0.153109C3.86581 0.242807 3.35559 0.411913 2.87912 0.654708C2.40323 0.899556 1.9684 1.21771 1.5904 1.59763C1.21042 1.97649 0.89367 2.41439 0.65234 2.8945C0.410345 3.37366 0.242545 3.88712 0.154735 4.41715C0.0660907 4.94651 0.0183902 5.48198 0.0120619 6.01875C0.00467351 6.26403 0.00389326 6.51012 0 6.75543V25.2468C0.00389326 25.4952 0.00467351 25.7358 0.0120619 25.9843C0.0183921 26.521 0.0660926 27.0565 0.154735 27.5858C0.242303 28.1162 0.410113 28.6299 0.65234 29.1092C0.89356 29.5878 1.21035 30.0239 1.5904 30.4007C1.96697 30.7823 2.40208 31.1007 2.87912 31.3436C3.35558 31.5871 3.86576 31.7572 4.39254 31.8483C4.9201 31.9354 5.4534 31.9826 5.98798 31.9897C6.23407 31.9952 6.47587 31.9983 6.71962 31.9983C7.0108 31.9999 7.29927 31.9999 7.59121 31.9999H87.6858C87.972 31.9999 88.2627 31.9999 88.5489 31.9983C88.7915 31.9983 89.0403 31.9952 89.2828 31.9897C89.8164 31.983 90.3487 31.9357 90.8752 31.8483C91.4037 31.7566 91.9157 31.5865 92.3944 31.3436C92.871 31.1005 93.3057 30.7822 93.682 30.4007C94.0611 30.0225 94.3785 29.5867 94.6227 29.1092C94.8632 28.6296 95.0294 28.1158 95.1156 27.5858C95.2044 27.0564 95.2538 26.5211 95.2634 25.9843C95.2665 25.7358 95.2665 25.4952 95.2665 25.2468C95.2727 24.9561 95.2727 24.6671 95.2727 24.3717V7.62886C95.2727 7.33589 95.2727 7.04527 95.2665 6.75543C95.2665 6.51012 95.2665 6.26403 95.2634 6.01871C95.2538 5.4819 95.2044 4.94655 95.1156 4.41712C95.0291 3.88739 94.8629 3.37397 94.6227 2.89447C94.1313 1.93213 93.352 1.1488 92.3944 0.654636C91.9157 0.412434 91.4036 0.243373 90.8752 0.153037C90.3488 0.064864 89.8165 0.0175881 89.2828 0.0116299C89.0403 0.0077259 88.7915 0.00303792 88.5489 0.00147792C88.2627 -0.00012207 87.972 -0.00012207 87.6858 -0.00012207V-1.80706e-05Z" fill="black"/>
<path d="M36.502 7.15098C38.3509 6.51453 39.9762 8.89965 38.8402 10.4526C38.1526 11.5791 36.3903 11.6921 35.5468 10.6961C34.5399 9.6093 35.023 7.52013 36.502 7.15098ZM36.6499 7.76198C35.5375 8.12317 35.2903 9.79865 36.2533 10.4701C37.114 11.2195 38.5963 10.4462 38.5316 9.31335C38.6813 8.30297 37.5972 7.40238 36.6499 7.76198Z" fill="white"/>
<path d="M40.3515 7.52645C41.187 6.83749 42.4961 6.97114 43.2372 7.74603C43.1114 7.90037 42.9839 8.0563 42.858 8.21064C42.3451 7.78263 41.6244 7.48508 40.9966 7.86218C39.9503 8.37931 39.9566 10.0771 41.0029 10.5926C41.6606 10.9983 42.4269 10.6371 42.9414 10.1693C43.0815 10.3141 43.2213 10.4605 43.3631 10.6053C42.6252 11.4677 41.2437 11.6475 40.3547 10.9283C39.3162 10.1343 39.313 8.32362 40.3515 7.52645Z" fill="white"/>
<path d="M59.1598 7.15106C61.0055 6.51619 62.634 8.90291 61.4948 10.4543C60.8089 11.5792 59.0465 11.6922 58.2031 10.6961C57.1961 9.60937 57.679 7.5202 59.1598 7.15106ZM59.306 7.76206C58.192 8.12325 57.9451 9.80031 58.9095 10.4702C59.7717 11.2196 61.2508 10.4447 61.1878 9.31342C61.3359 8.30623 60.2533 7.40087 59.306 7.76206Z" fill="white"/>
<path d="M31.5309 7.16688C32.4483 7.15718 33.364 7.15718 34.2798 7.16847C34.2876 8.32046 34.2782 9.47404 34.2861 10.6276C34.3899 10.6451 34.596 10.6801 34.6999 10.6992C34.6953 11.1829 34.6936 11.6682 34.6936 12.1519C34.5016 12.1535 34.3082 12.1551 34.1161 12.1567C34.1098 11.8576 34.1004 11.5584 34.0941 11.2593C33.1485 11.2593 32.2026 11.2593 31.2572 11.2593C31.243 11.5537 31.2241 11.8464 31.2115 12.1408C31.0244 12.1472 30.8355 12.1535 30.6482 12.1615C30.6451 11.6857 30.6437 11.21 30.6451 10.7342C30.9409 10.6626 31.2712 10.5497 31.3484 10.2091C31.6584 9.22741 31.4837 8.17885 31.5309 7.16688ZM32.1336 7.82243C32.1477 8.77553 32.2138 9.75249 31.8913 10.6674C32.464 10.6626 33.0383 10.6626 33.611 10.6674C33.6504 9.70937 33.6488 8.75007 33.6126 7.79061C33.1201 7.79379 32.6261 7.79857 32.1336 7.82243Z" fill="white"/>
<path d="M43.5916 7.16689C44.5388 7.15718 45.4876 7.16052 46.4362 7.1653C46.4362 7.32123 46.4362 7.63309 46.4362 7.78903C46.068 7.79698 45.7014 7.80494 45.3348 7.81608C45.3395 8.95693 45.3332 10.0994 45.3411 11.2402C45.121 11.2434 44.9021 11.245 44.685 11.2482C44.6867 10.1057 44.6818 8.96488 44.6897 7.82403C44.3231 7.80812 43.9565 7.79698 43.5898 7.78425C43.59 7.62991 43.5916 7.32123 43.5916 7.16689Z" fill="white"/>
<path d="M46.6367 7.17805C46.8712 7.16691 47.1072 7.15577 47.3432 7.14304C47.6988 7.86542 47.9789 8.62121 48.3282 9.34677C48.838 8.60689 48.7609 6.9537 49.9632 7.15418C49.4502 8.39368 48.9105 9.62522 48.3315 10.8329C48.0922 11.3818 47.4565 11.4471 46.9563 11.2736C47.0178 11.1098 47.0806 10.9475 47.1451 10.7852C47.3465 10.7533 47.5479 10.7215 47.7509 10.6897C47.8201 10.4701 48.0184 10.2394 47.9004 10.0007C47.499 9.05082 47.0505 8.12319 46.6367 7.17805Z" fill="white"/>
<path d="M50.3125 7.17323C51.3006 7.15095 52.2872 7.16209 53.2753 7.16527C53.2675 8.53047 53.272 9.89408 53.272 11.2593C53.0708 11.2593 52.8692 11.2593 52.6694 11.2593C52.6662 10.1041 52.6946 8.94894 52.6505 7.79537C52.0763 7.79855 51.5036 7.79855 50.9307 7.79377C50.8914 8.94894 50.9181 10.1057 50.9118 11.2609C50.712 11.2577 50.5139 11.2561 50.3139 11.2529C50.3109 9.89408 50.3141 8.53366 50.3125 7.17323Z" fill="white"/>
<path d="M54.0899 7.17962C54.2897 7.17167 54.4896 7.16371 54.6908 7.15735C54.6876 7.72395 54.6876 8.29183 54.6908 8.85828C55.3249 8.86464 55.9592 8.86464 56.5948 8.85828C56.598 8.29183 56.598 7.7238 56.5948 7.15735C56.7947 7.16371 56.9945 7.17167 57.1957 7.17962C57.1942 8.53687 57.1975 9.8957 57.1942 11.2529C56.9943 11.2561 56.7945 11.2577 56.5963 11.2609C56.5978 10.661 56.5978 10.0628 56.593 9.46291C55.959 9.45655 55.3247 9.45655 54.6924 9.46451C54.6877 10.0628 54.6876 10.6612 54.6891 11.2609C54.4892 11.2577 54.2894 11.2561 54.0911 11.2529C54.0882 9.8957 54.0915 8.53687 54.0899 7.17962Z" fill="white"/>
<path d="M63.8438 7.17492C64.6525 7.22265 65.6782 6.91079 66.295 7.60135C66.7043 8.0596 66.5153 8.7056 66.2069 9.16067C66.8129 9.66824 66.8158 10.7184 66.0826 11.1082C65.3809 11.4026 64.5847 11.2116 63.8452 11.2514C63.842 9.89259 63.8453 8.53376 63.8438 7.17492ZM64.4417 7.79865C64.4417 8.15506 64.4432 8.50989 64.4448 8.8663C64.9436 8.8138 65.7996 9.07793 65.8768 8.34759C65.8419 7.58066 64.9497 7.83524 64.4417 7.79865ZM64.4447 9.45662C64.4431 9.85759 64.4415 10.2601 64.4415 10.6611C64.8113 10.6627 65.1842 10.6866 65.5524 10.6372C66.07 10.5593 66.133 9.71916 65.6532 9.53618C65.2662 9.40411 64.846 9.47253 64.4447 9.45662Z" fill="white"/>
<path d="M31.9314 14.9205C33.5601 13.4646 36.2568 13.498 37.8098 15.0573C37.5312 15.3501 37.2481 15.6381 36.9633 15.9261C35.7958 14.8743 33.8888 14.7852 32.7384 15.907C31.2798 17.1847 31.434 19.783 33.0515 20.8556C34.6297 22.0727 37.3958 21.2501 37.6366 19.1197C36.6909 19.0718 35.7421 19.1085 34.7949 19.0909C34.7933 18.6694 34.7933 18.2492 34.7949 17.8277C36.1418 17.8197 37.4887 17.8165 38.8355 17.8308C39.1535 19.6654 38.2628 21.7419 36.4519 22.3783C34.4599 23.1437 31.9989 22.3163 30.9606 20.4085C29.9126 18.6517 30.3674 16.2109 31.9314 14.9205Z" fill="white"/>
<path d="M73.5894 14.1584C74.0111 14.1618 74.4328 14.1618 74.8561 14.1584C74.9033 16.9304 74.8734 19.7052 74.8702 22.4785C74.4408 22.4769 74.0128 22.4785 73.5847 22.4801C73.58 19.7068 73.5705 16.9318 73.5894 14.1584Z" fill="white"/>
<path d="M57.6493 14.1632C58.0694 14.1632 58.4911 14.1664 58.9113 14.1775C58.8971 16.9447 58.9113 19.7099 58.9051 22.4769C58.4866 22.4769 58.071 22.4769 57.6542 22.4785C57.6382 19.7068 57.6462 16.935 57.6493 14.1632Z" fill="white"/>
<path d="M67.2861 14.1679C68.3339 14.1679 69.3818 14.1472 70.4297 14.1695C71.7781 14.1838 73.0416 15.3947 72.9582 16.7916C72.9943 18.0963 71.8584 19.2165 70.6043 19.3169C69.9309 19.3613 69.2559 19.3247 68.5823 19.3391C68.5823 20.3844 68.5902 21.4313 68.576 22.4783C68.1466 22.4767 67.7186 22.4783 67.2905 22.4799C67.2796 19.7097 67.2892 16.9379 67.2861 14.1679ZM68.581 15.3629C68.5843 16.2825 68.5889 17.2022 68.5777 18.1203C69.7153 18.2015 71.5972 18.394 71.6963 16.7853C71.6792 15.1178 69.7344 15.2881 68.581 15.3629Z" fill="white"/>
<path d="M41.388 17.0496C42.4517 16.7998 43.6585 17.1592 44.3223 18.0584C45.2129 19.2072 45.0493 21.037 43.9368 21.979C42.642 23.1469 40.299 22.7523 39.5548 21.1309C38.7179 19.5794 39.6399 17.3836 41.388 17.0496ZM41.528 18.2348C40.2567 18.7042 40.1873 20.7441 41.3927 21.3344C42.3557 21.8752 43.5973 21.0496 43.6192 19.9708C43.7938 18.8473 42.6043 17.7605 41.528 18.2348Z" fill="white"/>
<path d="M47.5194 17.0416C48.5437 16.8204 49.6986 17.1418 50.3657 17.9819C51.3964 19.1992 51.1462 21.2979 49.793 22.1684C48.4335 23.1358 46.2825 22.6091 45.6092 21.0419C44.8602 19.4744 45.7886 17.3646 47.5194 17.0416ZM47.5209 18.2843C46.4242 18.803 46.3174 20.5435 47.318 21.2182C48.108 21.8403 49.3589 21.3709 49.6262 20.418C50.1879 19.1642 48.7923 17.5953 47.5209 18.2843Z" fill="white"/>
<path d="M51.4674 19.8133C51.3321 17.7496 54.0021 16.0519 55.6212 17.5396C55.6369 17.4393 55.6653 17.2388 55.6794 17.1386C56.0743 17.145 56.4677 17.1466 56.8628 17.1482C56.8548 18.9302 56.88 20.7123 56.8518 22.4928C56.8422 23.5829 56.2444 24.7379 55.1507 25.0467C53.8007 25.5351 52.2164 24.8397 51.6641 23.4986C52.0227 23.3426 52.383 23.19 52.7419 23.0371C53.1369 23.7054 53.8764 24.2703 54.682 23.9664C55.5048 23.7531 55.7063 22.8066 55.6621 22.0619C54.0463 23.5875 51.3101 21.9136 51.4674 19.8133ZM53.6514 18.2701C52.5043 18.8031 52.4178 20.6821 53.5381 21.2948C54.3657 21.8454 55.5191 21.2296 55.6843 20.2843C56.0635 19.1005 54.8771 17.6336 53.6514 18.2701Z" fill="white"/>
<path d="M61.1769 17.1433C62.6699 16.4972 64.3238 17.6032 64.6668 19.1241C63.4285 19.654 62.1823 20.1617 60.9424 20.6852C61.4773 21.8006 63.0225 21.6797 63.6724 20.7409C63.9761 20.9605 64.3663 21.1037 64.5881 21.4156C63.6771 22.9271 61.3075 23.0687 60.1792 21.7417C58.9379 20.3829 59.3847 17.7766 61.1769 17.1433ZM60.6813 19.6764C61.5435 19.3837 62.3759 19.0048 63.2098 18.6374C62.3696 17.5045 60.6954 18.4083 60.6813 19.6764Z" fill="white"/>
<path d="M75.6214 18.2731C76.4521 16.3176 79.8933 16.5737 80.2977 18.7153C80.4062 19.9659 80.3198 21.2262 80.3403 22.4799C79.9436 22.4783 79.5489 22.4767 79.1539 22.4799C79.138 22.3606 79.1099 22.1203 79.0957 21.9994C78.3137 22.7853 76.9904 22.8618 76.1313 22.1649C75.31 21.5411 75.2722 20.1362 76.0935 19.4949C76.9574 18.7757 78.1721 18.8091 79.1807 19.1624C78.9667 17.9865 77.3444 17.794 76.6962 18.7057C76.3373 18.5612 75.9785 18.4163 75.6214 18.2731ZM76.7857 21.0114C77.4245 22.0393 79.1066 21.2932 79.1237 20.1681C78.3403 19.8291 76.6567 19.7831 76.7857 21.0114Z" fill="white"/>
<path d="M80.3867 17.1691C80.8399 17.1482 81.2946 17.1436 81.7493 17.1418C82.2639 18.3099 82.6586 19.5286 83.2282 20.6726C83.7099 19.5015 84.1377 18.3113 84.6223 17.1418C85.0881 17.1452 85.5554 17.1466 86.0243 17.1516C84.9132 19.7594 83.7725 22.3562 82.6711 24.9688C82.2258 24.9816 81.7789 24.9847 81.3336 24.98C81.7317 24.0458 82.1551 23.1214 82.5656 22.1921C81.8548 20.5105 81.1152 18.8412 80.3867 17.1691Z" fill="white"/>
<path d="M10.3477 7.42787C10.8134 7.23853 11.3295 7.24171 11.7575 7.52016C14.9579 9.34679 18.1551 11.1814 21.3445 13.0287C20.413 13.9372 19.5351 14.9015 18.5801 15.7844C18.5502 15.8114 18.4919 15.8639 18.4637 15.891C15.8658 12.9682 12.8589 10.424 10.3477 7.42787Z" fill="#01EE76"/>
<path d="M10.0158 8.66417C9.99381 8.22343 10.1543 7.81291 10.3478 7.42786C12.8591 10.424 15.8659 12.9682 18.4637 15.891C15.7432 18.5627 13.0951 21.3106 10.4061 24.0155L10.3052 24.0601C10.0316 23.7227 10.0235 23.2534 10.0078 22.8379C10.019 18.114 10.008 13.3883 10.0158 8.66417Z" fill="#00D3FF"/>
<path d="M18.582 15.7844C19.5371 14.9015 20.4151 13.9372 21.3466 13.0287C22.4921 13.7065 23.6879 14.3064 24.794 15.0494C25.4014 15.4234 25.2975 16.3558 24.6965 16.6804C23.6047 17.3677 22.4622 17.9755 21.3434 18.6214C20.4009 17.6987 19.4553 16.7758 18.582 15.7844Z" fill="#FFCB00"/>
<path d="M18.4649 15.891C18.4932 15.864 18.5514 15.8115 18.5813 15.7844C19.4546 16.7759 20.4002 17.6987 21.3427 18.6216C18.1848 20.4419 15.0159 22.243 11.858 24.0649C11.4174 24.3322 10.8069 24.5198 10.3789 24.122L10.4074 24.0154C13.0963 21.3106 15.7444 18.5627 18.4649 15.891Z" fill="#F3324A"/>
</g>
<defs>
<clipPath id="clip0">
<rect width="95.2727" height="32" fill="white"/>
</clipPath>
</defs>
</svg>
