<svg width="96" height="32" viewBox="0 0 96 32" fill="none" xmlns="http://www.w3.org/2000/svg">
<g clip-path="url(#clip0)">
<path d="M87.6858 -1.80703e-05H7.59121C7.29925 -1.80703e-05 7.0108 -1.80704e-05 6.71962 0.00158193C6.47587 0.00318193 6.23407 0.00782993 5.98798 0.0117419C5.45336 0.0180634 4.92001 0.0653229 4.39254 0.15311C3.86581 0.242808 3.35559 0.411915 2.87912 0.65471C2.40323 0.899559 1.9684 1.21772 1.5904 1.59764C1.21042 1.97649 0.89367 2.41439 0.65234 2.89451C0.410345 3.37367 0.242545 3.88713 0.154735 4.41717C0.0660907 4.94653 0.0183902 5.482 0.0120619 6.01877C0.00467351 6.26405 0.00389326 6.51014 0 6.75545V25.2469C0.00389326 25.4953 0.00467351 25.7359 0.0120619 25.9844C0.0183921 26.5211 0.0660926 27.0566 0.154735 27.5859C0.242303 28.1162 0.410113 28.63 0.65234 29.1093C0.89356 29.5879 1.21035 30.024 1.5904 30.4008C1.96697 30.7824 2.40208 31.1008 2.87912 31.3437C3.35558 31.5872 3.86576 31.7573 4.39254 31.8484C4.9201 31.9355 5.4534 31.9827 5.98798 31.9898C6.23407 31.9953 6.47587 31.9984 6.71962 31.9984C7.0108 32 7.29927 32 7.59121 32H87.6858C87.972 32 88.2627 32 88.5489 31.9984C88.7915 31.9984 89.0403 31.9953 89.2828 31.9898C89.8164 31.9831 90.3487 31.9358 90.8752 31.8484C91.4037 31.7567 91.9157 31.5866 92.3944 31.3437C92.871 31.1006 93.3057 30.7823 93.682 30.4008C94.0611 30.0226 94.3785 29.5867 94.6227 29.1093C94.8632 28.6297 95.0294 28.1159 95.1156 27.5859C95.2044 27.0565 95.2538 26.5212 95.2634 25.9844C95.2665 25.7359 95.2665 25.4953 95.2665 25.2469C95.2727 24.9562 95.2727 24.6672 95.2727 24.3718V7.62889C95.2727 7.33592 95.2727 7.04529 95.2665 6.75545C95.2665 6.51014 95.2665 6.26405 95.2634 6.01873C95.2538 5.48192 95.2044 4.94657 95.1156 4.41713C95.0291 3.88741 94.8629 3.37398 94.6227 2.89448C94.1313 1.93214 93.352 1.1488 92.3944 0.654638C91.9157 0.412436 91.4036 0.243374 90.8752 0.153038C90.3488 0.0648642 89.8165 0.0175881 89.2828 0.0116299C89.0403 0.00772593 88.7915 0.00303793 88.5489 0.00147793C88.2627 -0.00012207 87.972 -0.00012207 87.6858 -0.00012207V-1.80703e-05Z" fill="black"/>
<path d="M19.8996 15.9115C19.9085 15.2172 20.0921 14.5363 20.4332 13.9324C20.7743 13.3285 21.2619 12.8211 21.8507 12.4574C21.4767 11.9206 20.9833 11.4789 20.4097 11.1674C19.836 10.8558 19.198 10.6828 18.5463 10.6624C17.156 10.5157 15.8081 11.4983 15.0997 11.4983C14.3775 11.4983 13.2867 10.6769 12.1121 10.7012C11.3523 10.7259 10.6118 10.9479 9.96283 11.3456C9.31383 11.7433 8.77843 12.3031 8.40878 12.9706C6.8076 15.7562 8.00194 19.8501 9.53577 22.1018C10.3032 23.2043 11.2001 24.4359 12.3736 24.3923C13.522 24.3444 13.9509 23.6565 15.3371 23.6565C16.7105 23.6565 17.1128 24.3923 18.3102 24.3645C19.5425 24.3444 20.3189 23.257 21.0594 22.144C21.6108 21.3584 22.0351 20.4901 22.3165 19.5713C21.6006 19.267 20.9897 18.7578 20.5599 18.1069C20.1301 17.4561 19.9004 16.6926 19.8996 15.9115Z" fill="white"/>
<path d="M17.638 9.1815C18.3099 8.37104 18.6409 7.32933 18.5608 6.27759C17.5343 6.38592 16.5861 6.87888 15.9051 7.65824C15.5722 8.03898 15.3172 8.48193 15.1547 8.96175C14.9922 9.44158 14.9254 9.94887 14.9582 10.4546C15.4716 10.46 15.9796 10.3481 16.4437 10.1276C16.9079 9.90707 17.3163 9.58359 17.638 9.1815Z" fill="white"/>
<path d="M33.6775 21.7118H29.9089L29.0039 24.3969H27.4077L30.9772 14.4625H32.6356L36.2052 24.3969H34.5817L33.6775 21.7118ZM30.2992 20.4727H33.2864L31.8138 16.1149H31.7726L30.2992 20.4727Z" fill="white"/>
<path d="M43.9142 20.7758C43.9142 23.0266 42.7152 24.4727 40.906 24.4727C40.4477 24.4968 39.9918 24.3907 39.5907 24.1666C39.1896 23.9425 38.8595 23.6094 38.638 23.2055H38.6038V26.793H37.1242V17.154H38.5563V18.3586H38.5835C38.8152 17.9567 39.151 17.6253 39.5551 17.3998C39.9593 17.1744 40.4167 17.0632 40.8787 17.0782C42.7082 17.0782 43.9142 18.5313 43.9142 20.7758ZM42.3933 20.7758C42.3933 19.3094 41.6392 18.3454 40.4884 18.3454C39.358 18.3454 38.5975 19.3297 38.5975 20.7758C38.5975 22.2352 39.358 23.2126 40.4884 23.2126C41.6392 23.2126 42.3933 22.2555 42.3933 20.7758Z" fill="white"/>
<path d="M51.8482 20.7758C51.8482 23.0266 50.6489 24.4727 48.8397 24.4727C48.3813 24.4968 47.9255 24.3907 47.5244 24.1666C47.1233 23.9425 46.7931 23.6094 46.5717 23.2055H46.5374V26.793H45.0578V17.154H46.49V18.3586H46.5172C46.7489 17.9567 47.0846 17.6253 47.4888 17.3998C47.893 17.1744 48.3504 17.0632 48.8124 17.0782C50.6419 17.0782 51.8482 18.5313 51.8482 20.7758ZM50.327 20.7758C50.327 19.3094 49.5729 18.3454 48.4221 18.3454C47.2916 18.3454 46.5312 19.3297 46.5312 20.7758C46.5312 22.2352 47.2916 23.2126 48.4221 23.2126C49.5729 23.2126 50.327 22.2555 50.327 20.7758Z" fill="white"/>
<path d="M57.091 21.629C57.2006 22.6141 58.1531 23.261 59.4546 23.261C60.7017 23.261 61.599 22.6141 61.599 21.7258C61.599 20.9547 61.0578 20.493 59.7765 20.1766L58.4952 19.8664C56.6797 19.4258 55.8368 18.5727 55.8368 17.1883C55.8368 15.4742 57.3234 14.2969 59.4336 14.2969C61.5235 14.2969 62.9557 15.4742 63.0039 17.1883H61.5103C61.4209 16.1969 60.6053 15.5984 59.4134 15.5984C58.2215 15.5984 57.4059 16.2039 57.4059 17.0852C57.4059 17.7875 57.9268 18.2008 59.2011 18.5172L60.2904 18.7859C62.3189 19.268 63.161 20.0867 63.161 21.5398C63.161 23.3984 61.6884 24.5625 59.3449 24.5625C57.1523 24.5625 55.672 23.4258 55.5763 21.6289L57.091 21.629Z" fill="white"/>
<path d="M66.3558 15.4399V17.154H67.7265V18.3313H66.3558V22.3243C66.3558 22.9446 66.6302 23.2336 67.2328 23.2336C67.3955 23.2308 67.558 23.2193 67.7195 23.1992V24.3696C67.4486 24.4204 67.1732 24.4435 66.8977 24.4383C65.4383 24.4383 64.8692 23.8875 64.8692 22.4828V18.3313H63.8211V17.154H64.8691V15.4399H66.3558Z" fill="white"/>
<path d="M68.5196 20.7758C68.5196 18.4969 69.8553 17.0649 71.9383 17.0649C74.0282 17.0649 75.3578 18.4969 75.3578 20.7758C75.3578 23.061 74.0352 24.4868 71.9383 24.4868C69.8421 24.4868 68.5196 23.061 68.5196 20.7758ZM73.8502 20.7758C73.8502 19.2126 73.1372 18.2899 71.9383 18.2899C70.7394 18.2899 70.0264 19.2196 70.0264 20.7758C70.0264 22.3454 70.7394 23.261 71.9383 23.261C73.1372 23.261 73.8502 22.3454 73.8502 20.7758Z" fill="white"/>
<path d="M76.5777 17.154H77.9888V18.3868H78.0231C78.1185 18.0017 78.343 17.6615 78.6588 17.4232C78.9745 17.1848 79.3623 17.063 79.7569 17.0782C79.9274 17.0776 80.0975 17.0962 80.2638 17.1336V18.5243C80.0486 18.4582 79.824 18.4278 79.599 18.4344C79.3841 18.4257 79.1698 18.4637 78.9709 18.546C78.772 18.6284 78.5931 18.7529 78.4467 18.9113C78.3002 19.0696 78.1895 19.2579 78.1223 19.4632C78.0551 19.6685 78.0329 19.886 78.0573 20.1008V24.3969H76.5776L76.5777 17.154Z" fill="white"/>
<path d="M87.0857 22.2696C86.8866 23.5844 85.6123 24.4868 83.9819 24.4868C81.8849 24.4868 80.5834 23.075 80.5834 20.8102C80.5834 18.5383 81.8919 17.0649 83.9197 17.0649C85.914 17.0649 87.1681 18.4414 87.1681 20.6375V21.1469H82.077V21.2368C82.0535 21.5033 82.0867 21.7719 82.1744 22.0245C82.2621 22.2772 82.4023 22.5082 82.5857 22.7023C82.7691 22.8963 82.9915 23.0489 83.2382 23.15C83.4848 23.251 83.7499 23.2982 84.0161 23.2883C84.3657 23.3212 84.7166 23.2399 85.0165 23.0563C85.3165 22.8728 85.5494 22.5968 85.6807 22.2696L87.0857 22.2696ZM82.084 20.1079H85.6877C85.701 19.8682 85.6648 19.6283 85.5815 19.4034C85.4981 19.1784 85.3694 18.9732 85.2034 18.8006C85.0374 18.6279 84.8377 18.4917 84.6168 18.4003C84.3958 18.3089 84.1585 18.2644 83.9197 18.2696C83.6787 18.2681 83.4399 18.3146 83.2169 18.4064C82.994 18.4982 82.7913 18.6335 82.6206 18.8044C82.45 18.9753 82.3147 19.1785 82.2226 19.4022C82.1304 19.6259 82.0833 19.8657 82.084 20.1079Z" fill="white"/>
<path d="M29.2479 9.00279H29.8831C29.9925 9.01647 30.1034 9.00724 30.2091 8.97569C30.3147 8.94413 30.4127 8.89094 30.4968 8.81945C30.581 8.74796 30.6495 8.65973 30.698 8.56032C30.7465 8.46091 30.774 8.35247 30.7788 8.24185C30.7788 7.80162 30.4491 7.51724 29.8901 7.51724C29.7781 7.50151 29.664 7.5085 29.5547 7.53779C29.4454 7.56707 29.3431 7.61807 29.2537 7.68776C29.1644 7.75745 29.0898 7.84443 29.0345 7.94356C28.9791 8.04268 28.9441 8.15195 28.9314 8.2649H28.234C28.246 8.05986 28.2999 7.8595 28.3923 7.67629C28.4847 7.49308 28.6136 7.33095 28.7711 7.19999C28.9286 7.06902 29.1112 6.97203 29.3076 6.91506C29.504 6.85808 29.7099 6.84234 29.9126 6.8688C30.848 6.8688 31.5066 7.39497 31.5066 8.1524C31.5088 8.40614 31.4243 8.65296 31.2672 8.85166C31.1101 9.05036 30.89 9.18891 30.6435 9.2442V9.30044C30.9357 9.31347 31.2109 9.4422 31.4089 9.6585C31.6069 9.8748 31.7116 10.1611 31.7002 10.4547C31.6785 10.6659 31.6152 10.8705 31.5138 11.0567C31.4125 11.2429 31.2751 11.4069 31.1099 11.5391C30.9446 11.6712 30.7548 11.7689 30.5515 11.8264C30.3482 11.8839 30.1355 11.9001 29.9259 11.8739C29.7158 11.9027 29.5022 11.8886 29.2976 11.8327C29.0931 11.7767 28.9019 11.6799 28.7354 11.5481C28.5689 11.4163 28.4305 11.2522 28.3284 11.0655C28.2264 10.8787 28.1628 10.6733 28.1415 10.4614H28.8498C28.8926 10.918 29.3101 11.2126 29.9259 11.2126C30.5417 11.2126 30.9436 10.8817 30.9436 10.4153C30.9436 9.94228 30.565 9.65087 29.9033 9.65087H29.2479V9.00279Z" fill="white"/>
<path d="M32.5049 10.7395C32.5049 10.0911 32.9861 9.71724 33.8383 9.66412L34.8094 9.60787V9.29693C34.8094 8.91646 34.5598 8.70162 34.0754 8.70162C33.6805 8.70162 33.4076 8.84732 33.3282 9.10201H32.6433C32.7156 8.48326 33.2956 8.08639 34.1089 8.08639C35.0077 8.08639 35.5146 8.53599 35.5146 9.29693V11.7583H34.8327V11.252H34.7767C34.6631 11.4336 34.5036 11.5816 34.3144 11.681C34.1252 11.7804 33.9131 11.8275 33.6999 11.8176C33.5494 11.8333 33.3973 11.8172 33.2534 11.7702C33.1094 11.7233 32.9769 11.6465 32.8643 11.545C32.7517 11.4434 32.6616 11.3192 32.5997 11.1805C32.5378 11.0418 32.5055 10.8915 32.5049 10.7395ZM34.8094 10.4317V10.1305L33.9339 10.1868C33.4402 10.22 33.2162 10.3887 33.2162 10.7063C33.2162 11.0305 33.4961 11.2192 33.881 11.2192C33.9938 11.2307 34.1077 11.2192 34.216 11.1856C34.3243 11.1519 34.4248 11.0967 34.5114 11.0232C34.598 10.9497 34.669 10.8595 34.7202 10.7579C34.7714 10.6563 34.8017 10.5453 34.8094 10.4317Z" fill="white"/>
<path d="M37.3923 8.75435V11.7583H36.6847V8.15591H39.0453V8.75431L37.3923 8.75435Z" fill="white"/>
<path d="M43.3332 9.95552C43.3332 11.1001 42.7571 11.8176 41.8521 11.8176C41.6299 11.8329 41.408 11.784 41.2126 11.6768C41.0171 11.5696 40.8562 11.4086 40.7488 11.2126H40.6928V12.9559H39.9853V8.15592H40.6664V8.75125H40.7192C40.8286 8.54841 40.9916 8.37987 41.1903 8.26427C41.3889 8.14867 41.6156 8.09049 41.8451 8.09617C42.7571 8.09615 43.3332 8.8106 43.3332 9.95552ZM42.6055 9.95552C42.6055 9.19459 42.247 8.73482 41.6476 8.73482C41.0521 8.73482 40.6796 9.20435 40.6796 9.95865C40.6796 10.7094 41.052 11.1794 41.6445 11.1794C42.247 11.1793 42.6055 10.7196 42.6055 9.95552Z" fill="white"/>
<path d="M44.2756 13.0485V12.4364C44.3521 12.4462 44.4293 12.4506 44.5064 12.4497C44.6572 12.4609 44.8067 12.4158 44.9264 12.323C45.0461 12.2302 45.1275 12.0963 45.1549 11.9469L45.2078 11.7715L43.9101 8.15591H44.6806L45.5794 11.0172H45.6354L46.5311 8.15591H47.2814L45.9449 11.9071C45.6385 12.7836 45.2995 13.0649 44.5687 13.0649C44.5096 13.0649 44.3416 13.0583 44.2756 13.0485Z" fill="white"/>
<path d="M47.8327 10.736H48.5371C48.6063 11.0536 48.9025 11.2192 49.3169 11.2192C49.7881 11.2192 50.0773 11.0106 50.0773 10.6864C50.0773 10.3391 49.8176 10.1735 49.3169 10.1735H48.7804V9.62116H49.3076C49.7352 9.62116 49.9529 9.45592 49.9529 9.15476C49.9529 8.8903 49.7422 8.68836 49.3076 8.68836C48.9118 8.68836 48.6226 8.85711 48.5767 9.14148H47.8949C47.9458 8.81472 48.1224 8.5211 48.3866 8.32379C48.6508 8.12649 48.9815 8.04124 49.3076 8.0864C50.1597 8.0864 50.6472 8.47352 50.6472 9.08211C50.6512 9.25158 50.5972 9.41729 50.4941 9.55153C50.3911 9.68578 50.2453 9.78041 50.0812 9.81961V9.87586C50.2766 9.90119 50.456 9.99771 50.5853 10.1471C50.7145 10.2965 50.7847 10.4884 50.7825 10.6864C50.7825 11.3712 50.2025 11.8243 49.3169 11.8243C48.534 11.8243 47.898 11.4637 47.8327 10.736Z" fill="white"/>
<path d="M51.8015 11.7583V8.15591H52.5028V10.6337H52.5587L54.2109 8.15592H54.9123V11.7583H54.2109V9.26725H54.1581L52.5028 11.7583L51.8015 11.7583Z" fill="white"/>
<path d="M58.7757 8.75435H57.6467V11.7583H56.9384V8.75435H55.8094V8.15595H58.7757V8.75435Z" fill="white"/>
<path d="M62.587 10.7856C62.4906 11.1148 62.2822 11.3995 61.9981 11.59C61.714 11.7805 61.3724 11.8647 61.0328 11.8278C60.7966 11.834 60.5619 11.7886 60.3449 11.6946C60.128 11.6005 59.934 11.4602 59.7764 11.2833C59.6188 11.1064 59.5015 10.8971 59.4324 10.6701C59.3634 10.443 59.3444 10.2036 59.3767 9.9684C59.3453 9.73249 59.3646 9.49255 59.4335 9.26481C59.5023 9.03707 59.6191 8.82686 59.7758 8.6484C59.9326 8.46994 60.1256 8.32741 60.342 8.23044C60.5583 8.13347 60.7928 8.08434 61.0297 8.08637C62.0272 8.08637 62.6298 8.77117 62.6298 9.90237V10.1505H60.0982V10.1903C60.087 10.3225 60.1035 10.4556 60.1465 10.5811C60.1896 10.7066 60.2582 10.8216 60.3482 10.9188C60.4381 11.016 60.5472 11.0932 60.6686 11.1454C60.79 11.1977 60.921 11.2239 61.053 11.2223C61.2221 11.2426 61.3935 11.2119 61.5452 11.1342C61.6969 11.0564 61.8222 10.9351 61.9052 10.7856L62.587 10.7856ZM60.0982 9.62466H61.9083C61.9172 9.50382 61.9009 9.38243 61.8604 9.2683C61.8199 9.15417 61.756 9.04982 61.673 8.96194C61.59 8.87406 61.4896 8.8046 61.3782 8.75802C61.2669 8.71144 61.1471 8.68876 61.0266 8.69146C60.9042 8.68979 60.7827 8.71278 60.6693 8.75909C60.5558 8.8054 60.4528 8.87409 60.3663 8.96108C60.2797 9.04808 60.2114 9.15163 60.1654 9.2656C60.1194 9.37958 60.0965 9.50167 60.0982 9.62466Z" fill="white"/>
<path d="M65.5867 8.15591H67.2031C67.9044 8.15591 68.3157 8.51294 68.3157 9.07191C68.3168 9.24927 68.2572 9.42164 68.147 9.56015C68.0367 9.69867 67.8825 9.79493 67.71 9.83284V9.88909C67.9194 9.90238 68.1157 9.99597 68.2584 10.1505C68.401 10.3051 68.4792 10.5088 68.4767 10.7196C68.4767 11.3481 68.0063 11.7582 67.2194 11.7582H65.5867V8.15591ZM66.288 8.70161V9.63441H66.9893C67.4169 9.63441 67.6214 9.46918 67.6214 9.16449C67.6214 8.88364 67.4434 8.7016 67.0678 8.7016L66.288 8.70161ZM66.288 10.1571V11.2126H67.1269C67.5452 11.2126 67.7692 11.027 67.7692 10.6864C67.7692 10.3258 67.5157 10.1571 67.0383 10.1571L66.288 10.1571Z" fill="white"/>
</g>
<defs>
<clipPath id="clip0">
<rect width="95.2727" height="32" fill="white"/>
</clipPath>
</defs>
</svg>
