<svg width="119" height="32" viewBox="0 0 119 32" fill="none" xmlns="http://www.w3.org/2000/svg">
<g clip-path="url(#clip0)">
<path d="M110.686 1.37646e-06H7.59121C7.29925 1.37646e-06 7.0108 1.37649e-06 6.71962 0.00160138C6.47587 0.00320138 6.23407 0.00784938 5.98798 0.0117614C5.45337 0.0180828 4.92001 0.0653424 4.39254 0.153129C3.86581 0.242827 3.35559 0.411934 2.87912 0.654729C2.40323 0.899579 1.9684 1.21774 1.5904 1.59766C1.21042 1.97651 0.89367 2.41441 0.65234 2.89453C0.410345 3.37369 0.242545 3.88715 0.154735 4.41719C0.0660907 4.94655 0.0183902 5.48202 0.0120619 6.01879C0.00467351 6.26407 0.00389326 6.51016 0 6.75547V25.2469C0.00389326 25.4953 0.00467351 25.7359 0.0120619 25.9844C0.0183921 26.5211 0.0660926 27.0566 0.154735 27.5859C0.242303 28.1163 0.410113 28.63 0.65234 29.1094C0.89356 29.5879 1.21035 30.0241 1.5904 30.4008C1.96697 30.7824 2.40208 31.1008 2.87912 31.3438C3.35558 31.5872 3.86576 31.7573 4.39254 31.8484C4.9201 31.9355 5.4534 31.9828 5.98798 31.9898C6.23407 31.9953 6.47587 31.9984 6.71962 31.9984C7.0108 32 7.29927 32 7.59121 32H110.686C110.972 32 111.263 32 111.549 31.9984C111.791 31.9984 112.04 31.9953 112.283 31.9898C112.816 31.9831 113.349 31.9359 113.875 31.8484C114.404 31.7567 114.916 31.5866 115.394 31.3438C115.871 31.1006 116.306 30.7823 116.682 30.4008C117.061 30.0226 117.379 29.5868 117.623 29.1094C117.863 28.6297 118.029 28.116 118.116 27.5859C118.204 27.0565 118.254 26.5212 118.263 25.9844C118.267 25.7359 118.267 25.4953 118.267 25.2469C118.273 24.9562 118.273 24.6672 118.273 24.3718V7.62891C118.273 7.33594 118.273 7.04531 118.267 6.75547C118.267 6.51016 118.267 6.26407 118.263 6.01875C118.254 5.48194 118.204 4.94659 118.116 4.41715C118.029 3.88743 117.863 3.374 117.623 2.8945C117.131 1.93216 116.352 1.14882 115.394 0.654657C114.916 0.412455 114.404 0.243394 113.875 0.153057C113.349 0.0648836 112.816 0.0176076 112.283 0.0116494C112.04 0.00774538 111.791 0.00305738 111.549 0.00149738C111.263 -0.000102623 110.972 1.37646e-06 110.686 1.37646e-06Z" fill="black"/>
<path d="M38 16.1509H43.312V17.5098H39.6489V24.0464H38V16.1509Z" fill="white"/>
<path d="M48.9141 22.8916C48.9141 23.0671 48.923 23.2121 48.9409 23.3267C48.9624 23.4377 48.9893 23.5272 49.0215 23.5952C49.0537 23.6597 49.0895 23.708 49.1289 23.7402C49.1719 23.7689 49.2166 23.7904 49.2632 23.8047V24.0464H47.582C47.5534 23.9784 47.5212 23.8888 47.4854 23.7778C47.4531 23.6632 47.437 23.5254 47.437 23.3643C47.3188 23.486 47.2025 23.5988 47.0879 23.7026C46.9769 23.8065 46.8516 23.8978 46.7119 23.9766C46.5723 24.0518 46.4111 24.1108 46.2285 24.1538C46.0459 24.2004 45.8257 24.2236 45.5679 24.2236C45.3065 24.2236 45.0648 24.1842 44.8428 24.1055C44.6243 24.0303 44.4346 23.9175 44.2734 23.7671C44.1123 23.6167 43.987 23.4287 43.8975 23.2031C43.8079 22.9775 43.7632 22.7161 43.7632 22.4189C43.7632 22.179 43.8008 21.957 43.876 21.7529C43.9512 21.5452 44.0568 21.3644 44.1929 21.2104C44.3325 21.0529 44.5008 20.924 44.6978 20.8237C44.8983 20.7199 45.1221 20.6501 45.3691 20.6143L46.8569 20.394C46.9106 20.3869 46.9679 20.3761 47.0288 20.3618C47.0933 20.3475 47.1523 20.3242 47.2061 20.292C47.2598 20.2562 47.3045 20.2096 47.3403 20.1523C47.3761 20.0915 47.394 20.0109 47.394 19.9106C47.394 19.814 47.3779 19.7262 47.3457 19.6475C47.3171 19.5651 47.2669 19.4953 47.1953 19.438C47.1237 19.3771 47.027 19.3306 46.9053 19.2983C46.7871 19.2661 46.6385 19.25 46.4595 19.25C46.2554 19.25 46.0907 19.2715 45.9653 19.3145C45.8436 19.3538 45.7469 19.4111 45.6753 19.4863C45.6037 19.5579 45.5518 19.6439 45.5195 19.7441C45.4873 19.8408 45.464 19.9447 45.4497 20.0557H43.9297C43.9297 19.984 43.9404 19.8856 43.9619 19.7603C43.987 19.6313 44.0299 19.4917 44.0908 19.3413C44.1553 19.1909 44.243 19.0387 44.354 18.8848C44.4686 18.7308 44.6172 18.5911 44.7998 18.4658C44.986 18.3369 45.2116 18.2313 45.4766 18.1489C45.7415 18.0666 46.0584 18.0236 46.4272 18.02C46.95 18.02 47.3726 18.0737 47.6948 18.1812C48.0207 18.285 48.2731 18.4229 48.4521 18.5947C48.6348 18.763 48.7565 18.9528 48.8174 19.1641C48.8818 19.3717 48.9141 19.5794 48.9141 19.7871V22.8916ZM47.394 21.189C47.3009 21.2391 47.2078 21.2856 47.1147 21.3286C47.0216 21.368 46.8981 21.402 46.7441 21.4307L46.3413 21.5059C46.1659 21.5381 46.0119 21.5757 45.8794 21.6187C45.7469 21.6616 45.6359 21.7189 45.5464 21.7905C45.4604 21.8586 45.3942 21.9427 45.3477 22.043C45.3047 22.1432 45.2832 22.2686 45.2832 22.4189C45.2832 22.5443 45.3029 22.6535 45.3423 22.7466C45.3817 22.8361 45.4354 22.9113 45.5034 22.9722C45.575 23.0295 45.6574 23.0724 45.7505 23.1011C45.8436 23.1297 45.9438 23.144 46.0513 23.144C46.1086 23.144 46.182 23.1387 46.2715 23.1279C46.361 23.1136 46.4559 23.0885 46.5562 23.0527C46.6564 23.0169 46.7567 22.9686 46.8569 22.9077C46.9572 22.8433 47.0467 22.7609 47.1255 22.6606C47.2043 22.5604 47.2687 22.4386 47.3188 22.2954C47.369 22.1486 47.394 21.9767 47.394 21.7798V21.189Z" fill="white"/>
<path d="M55.8857 24.0464H54.3711V19.4272H52.5771L52.5449 20.5176C52.527 21.1299 52.4876 21.667 52.4268 22.1289C52.3659 22.5908 52.2656 22.9775 52.126 23.2891C51.9899 23.597 51.8037 23.8298 51.5674 23.9873C51.3346 24.1449 51.0356 24.2236 50.6704 24.2236C50.4985 24.2236 50.3481 24.2129 50.2192 24.1914C50.0903 24.1735 49.9847 24.1466 49.9023 24.1108V22.8379C49.9525 22.8594 50.0151 22.8791 50.0903 22.897C50.1691 22.9149 50.264 22.9238 50.375 22.9238C50.4896 22.9238 50.5916 22.8898 50.6812 22.8218C50.7707 22.7502 50.8477 22.623 50.9121 22.4404C50.9766 22.2542 51.0267 21.9982 51.0625 21.6724C51.0983 21.3465 51.1216 20.9258 51.1323 20.4102L51.1753 18.1919H55.8857V24.0464Z" fill="white"/>
<path d="M62.2129 22.8916C62.2129 23.0671 62.2218 23.2121 62.2397 23.3267C62.2612 23.4377 62.2881 23.5272 62.3203 23.5952C62.3525 23.6597 62.3883 23.708 62.4277 23.7402C62.4707 23.7689 62.5155 23.7904 62.562 23.8047V24.0464H60.8809C60.8522 23.9784 60.82 23.8888 60.7842 23.7778C60.752 23.6632 60.7358 23.5254 60.7358 23.3643C60.6177 23.486 60.5013 23.5988 60.3867 23.7026C60.2757 23.8065 60.1504 23.8978 60.0107 23.9766C59.8711 24.0518 59.71 24.1108 59.5273 24.1538C59.3447 24.2004 59.1245 24.2236 58.8667 24.2236C58.6053 24.2236 58.3636 24.1842 58.1416 24.1055C57.9232 24.0303 57.7334 23.9175 57.5723 23.7671C57.4111 23.6167 57.2858 23.4287 57.1963 23.2031C57.1068 22.9775 57.062 22.7161 57.062 22.4189C57.062 22.179 57.0996 21.957 57.1748 21.7529C57.25 21.5452 57.3556 21.3644 57.4917 21.2104C57.6313 21.0529 57.7996 20.924 57.9966 20.8237C58.1971 20.7199 58.4209 20.6501 58.668 20.6143L60.1558 20.394C60.2095 20.3869 60.2668 20.3761 60.3276 20.3618C60.3921 20.3475 60.4512 20.3242 60.5049 20.292C60.5586 20.2562 60.6034 20.2096 60.6392 20.1523C60.675 20.0915 60.6929 20.0109 60.6929 19.9106C60.6929 19.814 60.6768 19.7262 60.6445 19.6475C60.6159 19.5651 60.5658 19.4953 60.4941 19.438C60.4225 19.3771 60.3258 19.3306 60.2041 19.2983C60.0859 19.2661 59.9373 19.25 59.7583 19.25C59.5542 19.25 59.3895 19.2715 59.2642 19.3145C59.1424 19.3538 59.0457 19.4111 58.9741 19.4863C58.9025 19.5579 58.8506 19.6439 58.8184 19.7441C58.7861 19.8408 58.7629 19.9447 58.7485 20.0557H57.2285C57.2285 19.984 57.2393 19.8856 57.2607 19.7603C57.2858 19.6313 57.3288 19.4917 57.3896 19.3413C57.4541 19.1909 57.5418 19.0387 57.6528 18.8848C57.7674 18.7308 57.916 18.5911 58.0986 18.4658C58.2848 18.3369 58.5104 18.2313 58.7754 18.1489C59.0404 18.0666 59.3573 18.0236 59.7261 18.02C60.2489 18.02 60.6714 18.0737 60.9937 18.1812C61.3195 18.285 61.5719 18.4229 61.751 18.5947C61.9336 18.763 62.0553 18.9528 62.1162 19.1641C62.1807 19.3717 62.2129 19.5794 62.2129 19.7871V22.8916ZM60.6929 21.189C60.5998 21.2391 60.5067 21.2856 60.4136 21.3286C60.3205 21.368 60.1969 21.402 60.043 21.4307L59.6401 21.5059C59.4647 21.5381 59.3107 21.5757 59.1782 21.6187C59.0457 21.6616 58.9347 21.7189 58.8452 21.7905C58.7593 21.8586 58.693 21.9427 58.6465 22.043C58.6035 22.1432 58.582 22.2686 58.582 22.4189C58.582 22.5443 58.6017 22.6535 58.6411 22.7466C58.6805 22.8361 58.7342 22.9113 58.8022 22.9722C58.8739 23.0295 58.9562 23.0724 59.0493 23.1011C59.1424 23.1297 59.2427 23.144 59.3501 23.144C59.4074 23.144 59.4808 23.1387 59.5703 23.1279C59.6598 23.1136 59.7547 23.0885 59.855 23.0527C59.9552 23.0169 60.0555 22.9686 60.1558 22.9077C60.256 22.8433 60.3455 22.7609 60.4243 22.6606C60.5031 22.5604 60.5675 22.4386 60.6177 22.2954C60.6678 22.1486 60.6929 21.9767 60.6929 21.7798V21.189Z" fill="white"/>
<path d="M63.1313 20.2544H66.2144V21.7046H63.1313V20.2544Z" fill="white"/>
<path d="M67.498 16.1509H69.147V19.3628L72.1655 16.1509H74.2979L71.0752 19.3843L74.4858 24.0464H72.3965L69.9526 20.5498L69.147 21.3716V24.0464H67.498V16.1509Z" fill="white"/>
<path d="M79.9482 22.8916C79.9482 23.0671 79.9572 23.2121 79.9751 23.3267C79.9966 23.4377 80.0234 23.5272 80.0557 23.5952C80.0879 23.6597 80.1237 23.708 80.1631 23.7402C80.2061 23.7689 80.2508 23.7904 80.2974 23.8047V24.0464H78.6162C78.5876 23.9784 78.5553 23.8888 78.5195 23.7778C78.4873 23.6632 78.4712 23.5254 78.4712 23.3643C78.353 23.486 78.2367 23.5988 78.1221 23.7026C78.0111 23.8065 77.8857 23.8978 77.7461 23.9766C77.6064 24.0518 77.4453 24.1108 77.2627 24.1538C77.0801 24.2004 76.8599 24.2236 76.6021 24.2236C76.3407 24.2236 76.099 24.1842 75.877 24.1055C75.6585 24.0303 75.4688 23.9175 75.3076 23.7671C75.1465 23.6167 75.0212 23.4287 74.9316 23.2031C74.8421 22.9775 74.7974 22.7161 74.7974 22.4189C74.7974 22.179 74.835 21.957 74.9102 21.7529C74.9854 21.5452 75.091 21.3644 75.2271 21.2104C75.3667 21.0529 75.535 20.924 75.7319 20.8237C75.9325 20.7199 76.1562 20.6501 76.4033 20.6143L77.8911 20.394C77.9448 20.3869 78.0021 20.3761 78.063 20.3618C78.1274 20.3475 78.1865 20.3242 78.2402 20.292C78.2939 20.2562 78.3387 20.2096 78.3745 20.1523C78.4103 20.0915 78.4282 20.0109 78.4282 19.9106C78.4282 19.814 78.4121 19.7262 78.3799 19.6475C78.3512 19.5651 78.3011 19.4953 78.2295 19.438C78.1579 19.3771 78.0612 19.3306 77.9395 19.2983C77.8213 19.2661 77.6727 19.25 77.4937 19.25C77.2896 19.25 77.1248 19.2715 76.9995 19.3145C76.8778 19.3538 76.7811 19.4111 76.7095 19.4863C76.6379 19.5579 76.5859 19.6439 76.5537 19.7441C76.5215 19.8408 76.4982 19.9447 76.4839 20.0557H74.9639C74.9639 19.984 74.9746 19.8856 74.9961 19.7603C75.0212 19.6313 75.0641 19.4917 75.125 19.3413C75.1895 19.1909 75.2772 19.0387 75.3882 18.8848C75.5028 18.7308 75.6514 18.5911 75.834 18.4658C76.0202 18.3369 76.2458 18.2313 76.5107 18.1489C76.7757 18.0666 77.0926 18.0236 77.4614 18.02C77.9842 18.02 78.4067 18.0737 78.729 18.1812C79.0549 18.285 79.3073 18.4229 79.4863 18.5947C79.6689 18.763 79.7907 18.9528 79.8516 19.1641C79.916 19.3717 79.9482 19.5794 79.9482 19.7871V22.8916ZM78.4282 21.189C78.3351 21.2391 78.242 21.2856 78.1489 21.3286C78.0558 21.368 77.9323 21.402 77.7783 21.4307L77.3755 21.5059C77.2 21.5381 77.0461 21.5757 76.9136 21.6187C76.7811 21.6616 76.6701 21.7189 76.5806 21.7905C76.4946 21.8586 76.4284 21.9427 76.3818 22.043C76.3389 22.1432 76.3174 22.2686 76.3174 22.4189C76.3174 22.5443 76.3371 22.6535 76.3765 22.7466C76.4159 22.8361 76.4696 22.9113 76.5376 22.9722C76.6092 23.0295 76.6916 23.0724 76.7847 23.1011C76.8778 23.1297 76.978 23.144 77.0854 23.144C77.1427 23.144 77.2161 23.1387 77.3057 23.1279C77.3952 23.1136 77.4901 23.0885 77.5903 23.0527C77.6906 23.0169 77.7909 22.9686 77.8911 22.9077C77.9914 22.8433 78.0809 22.7609 78.1597 22.6606C78.2384 22.5604 78.3029 22.4386 78.353 22.2954C78.4032 22.1486 78.4282 21.9767 78.4282 21.7798V21.189Z" fill="white"/>
<path d="M82.6069 19.4272H80.8345V18.1919H85.894V19.4272H84.1216V24.0464H82.6069V19.4272Z" fill="white"/>
<path d="M91.5713 22.8916C91.5713 23.0671 91.5802 23.2121 91.5981 23.3267C91.6196 23.4377 91.6465 23.5272 91.6787 23.5952C91.7109 23.6597 91.7467 23.708 91.7861 23.7402C91.8291 23.7689 91.8739 23.7904 91.9204 23.8047V24.0464H90.2393C90.2106 23.9784 90.1784 23.8888 90.1426 23.7778C90.1104 23.6632 90.0942 23.5254 90.0942 23.3643C89.9761 23.486 89.8597 23.5988 89.7451 23.7026C89.6341 23.8065 89.5088 23.8978 89.3691 23.9766C89.2295 24.0518 89.0684 24.1108 88.8857 24.1538C88.7031 24.2004 88.4829 24.2236 88.2251 24.2236C87.9637 24.2236 87.722 24.1842 87.5 24.1055C87.2816 24.0303 87.0918 23.9175 86.9307 23.7671C86.7695 23.6167 86.6442 23.4287 86.5547 23.2031C86.4652 22.9775 86.4204 22.7161 86.4204 22.4189C86.4204 22.179 86.458 21.957 86.5332 21.7529C86.6084 21.5452 86.714 21.3644 86.8501 21.2104C86.9897 21.0529 87.158 20.924 87.355 20.8237C87.5555 20.7199 87.7793 20.6501 88.0264 20.6143L89.5142 20.394C89.5679 20.3869 89.6252 20.3761 89.686 20.3618C89.7505 20.3475 89.8096 20.3242 89.8633 20.292C89.917 20.2562 89.9618 20.2096 89.9976 20.1523C90.0334 20.0915 90.0513 20.0109 90.0513 19.9106C90.0513 19.814 90.0352 19.7262 90.0029 19.6475C89.9743 19.5651 89.9242 19.4953 89.8525 19.438C89.7809 19.3771 89.6842 19.3306 89.5625 19.2983C89.4443 19.2661 89.2957 19.25 89.1167 19.25C88.9126 19.25 88.7479 19.2715 88.6226 19.3145C88.5008 19.3538 88.4041 19.4111 88.3325 19.4863C88.2609 19.5579 88.209 19.6439 88.1768 19.7441C88.1445 19.8408 88.1213 19.9447 88.1069 20.0557H86.5869C86.5869 19.984 86.5977 19.8856 86.6191 19.7603C86.6442 19.6313 86.6872 19.4917 86.748 19.3413C86.8125 19.1909 86.9002 19.0387 87.0112 18.8848C87.1258 18.7308 87.2744 18.5911 87.457 18.4658C87.6432 18.3369 87.8688 18.2313 88.1338 18.1489C88.3988 18.0666 88.7157 18.0236 89.0845 18.02C89.6073 18.02 90.0298 18.0737 90.3521 18.1812C90.6779 18.285 90.9303 18.4229 91.1094 18.5947C91.292 18.763 91.4137 18.9528 91.4746 19.1641C91.5391 19.3717 91.5713 19.5794 91.5713 19.7871V22.8916ZM90.0513 21.189C89.9582 21.2391 89.8651 21.2856 89.772 21.3286C89.6789 21.368 89.5553 21.402 89.4014 21.4307L88.9985 21.5059C88.8231 21.5381 88.6691 21.5757 88.5366 21.6187C88.4041 21.6616 88.2931 21.7189 88.2036 21.7905C88.1177 21.8586 88.0514 21.9427 88.0049 22.043C87.9619 22.1432 87.9404 22.2686 87.9404 22.4189C87.9404 22.5443 87.9601 22.6535 87.9995 22.7466C88.0389 22.8361 88.0926 22.9113 88.1606 22.9722C88.2323 23.0295 88.3146 23.0724 88.4077 23.1011C88.5008 23.1297 88.6011 23.144 88.7085 23.144C88.7658 23.144 88.8392 23.1387 88.9287 23.1279C89.0182 23.1136 89.1131 23.0885 89.2134 23.0527C89.3136 23.0169 89.4139 22.9686 89.5142 22.9077C89.6144 22.8433 89.7039 22.7609 89.7827 22.6606C89.8615 22.5604 89.9259 22.4386 89.9761 22.2954C90.0262 22.1486 90.0513 21.9767 90.0513 21.7798V21.189Z" fill="white"/>
<path d="M98.543 24.0464H97.0283V19.4272H95.2344L95.2021 20.5176C95.1842 21.1299 95.1449 21.667 95.084 22.1289C95.0231 22.5908 94.9229 22.9775 94.7832 23.2891C94.6471 23.597 94.4609 23.8298 94.2246 23.9873C93.9919 24.1449 93.6929 24.2236 93.3276 24.2236C93.1558 24.2236 93.0054 24.2129 92.8765 24.1914C92.7476 24.1735 92.6419 24.1466 92.5596 24.1108V22.8379C92.6097 22.8594 92.6724 22.8791 92.7476 22.897C92.8263 22.9149 92.9212 22.9238 93.0322 22.9238C93.1468 22.9238 93.2489 22.8898 93.3384 22.8218C93.4279 22.7502 93.5049 22.623 93.5693 22.4404C93.6338 22.2542 93.6839 21.9982 93.7197 21.6724C93.7555 21.3465 93.7788 20.9258 93.7896 20.4102L93.8325 18.1919H98.543V24.0464Z" fill="white"/>
<path d="M99.7891 21.1191C99.7891 20.668 99.8571 20.2526 99.9932 19.873C100.133 19.4935 100.332 19.1676 100.589 18.8955C100.851 18.6198 101.166 18.4049 101.535 18.251C101.903 18.097 102.319 18.02 102.781 18.02C103.25 18.02 103.669 18.097 104.038 18.251C104.41 18.4049 104.723 18.6198 104.978 18.8955C105.235 19.1676 105.432 19.4935 105.568 19.873C105.704 20.2526 105.772 20.668 105.772 21.1191C105.772 21.5703 105.704 21.9857 105.568 22.3652C105.432 22.7448 105.235 23.0724 104.978 23.3481C104.723 23.6239 104.41 23.8387 104.038 23.9927C103.669 24.1466 103.25 24.2236 102.781 24.2236C102.319 24.2236 101.903 24.1466 101.535 23.9927C101.166 23.8387 100.851 23.6239 100.589 23.3481C100.332 23.0724 100.133 22.7448 99.9932 22.3652C99.8571 21.9857 99.7891 21.5703 99.7891 21.1191ZM101.374 21.1191C101.374 21.3411 101.397 21.5614 101.443 21.7798C101.493 21.9946 101.574 22.188 101.685 22.3599C101.796 22.5282 101.941 22.6642 102.12 22.7681C102.299 22.8719 102.519 22.9238 102.781 22.9238C103.053 22.9238 103.278 22.8737 103.458 22.7734C103.64 22.6696 103.785 22.5353 103.893 22.3706C104 22.2023 104.075 22.0107 104.118 21.7959C104.165 21.5775 104.188 21.3519 104.188 21.1191C104.188 20.89 104.165 20.6662 104.118 20.4478C104.075 20.2293 104 20.0378 103.893 19.873C103.785 19.7048 103.64 19.5705 103.458 19.4702C103.278 19.3664 103.053 19.3145 102.781 19.3145C102.519 19.3145 102.299 19.3664 102.12 19.4702C101.941 19.5741 101.796 19.7119 101.685 19.8838C101.574 20.0521 101.493 20.2454 101.443 20.4639C101.397 20.6787 101.374 20.8971 101.374 21.1191Z" fill="white"/>
<path d="M106.874 18.1919H110.811V19.4272H108.394V24.0464H106.874V18.1919Z" fill="white"/>
<path d="M38.6699 9.63184C38.6699 9.94629 38.7098 10.2311 38.7896 10.4863C38.8693 10.7393 38.981 10.9546 39.1245 11.1323C39.2703 11.3101 39.4447 11.4479 39.6475 11.5459C39.8525 11.6416 40.0781 11.6895 40.3242 11.6895C40.5384 11.6895 40.7298 11.6507 40.8984 11.5732C41.0693 11.4958 41.2163 11.3944 41.3394 11.269C41.4624 11.1414 41.5615 10.9979 41.6367 10.8384C41.7119 10.6789 41.762 10.5171 41.7871 10.353H42.4365C42.4229 10.4989 42.391 10.6481 42.3408 10.8008C42.293 10.9512 42.2269 11.0981 42.1426 11.2417C42.0605 11.383 41.9614 11.5174 41.8452 11.645C41.729 11.7703 41.5946 11.8797 41.4419 11.9731C41.2915 12.0666 41.1229 12.1406 40.936 12.1953C40.7492 12.25 40.5452 12.2773 40.3242 12.2773C40.1715 12.2773 40.0075 12.2614 39.832 12.2295C39.6589 12.1976 39.4857 12.144 39.3125 12.0688C39.1416 11.9937 38.9764 11.8934 38.8169 11.7681C38.6597 11.6405 38.5207 11.481 38.3999 11.2896C38.2791 11.0981 38.1823 10.8726 38.1094 10.6128C38.0365 10.3507 38 10.0465 38 9.7002C38 9.36068 38.0319 9.05762 38.0957 8.79102C38.1618 8.52441 38.2507 8.29199 38.3623 8.09375C38.4762 7.89323 38.6084 7.72347 38.7588 7.58447C38.9115 7.44548 39.0744 7.33268 39.2476 7.24609C39.4207 7.15951 39.6007 7.09684 39.7876 7.05811C39.9744 7.01937 40.1602 7 40.3447 7C40.5726 7 40.7799 7.02393 40.9668 7.07178C41.1559 7.11735 41.3245 7.18115 41.4727 7.26318C41.623 7.34294 41.7541 7.43636 41.8657 7.54346C41.9774 7.65055 42.0708 7.76449 42.146 7.88525C42.2235 8.00374 42.2827 8.12565 42.3237 8.25098C42.367 8.3763 42.3932 8.49821 42.4023 8.6167H41.7461C41.7028 8.45492 41.639 8.31022 41.5547 8.18262C41.4704 8.05501 41.3678 7.94792 41.2471 7.86133C41.1286 7.77246 40.9941 7.70524 40.8438 7.65967C40.6956 7.61182 40.5361 7.58789 40.3652 7.58789C40.1077 7.58789 39.8742 7.63574 39.6646 7.73145C39.4572 7.82715 39.2795 7.96387 39.1313 8.1416C38.9832 8.31934 38.8693 8.53467 38.7896 8.7876C38.7098 9.03825 38.6699 9.31966 38.6699 9.63184Z" fill="white"/>
<path d="M43.2466 8.49023H43.8755V10.2607L45.7246 8.49023H46.5483L44.8291 10.1069L46.5757 12.1509H45.7656L44.3369 10.4897L43.8755 10.876V12.1509H43.2466V8.49023Z" fill="white"/>
<path d="M47.0747 9.5874C47.0815 9.36409 47.1237 9.17611 47.2012 9.02344C47.2786 8.86849 47.3835 8.74316 47.5156 8.64746C47.6478 8.55176 47.8039 8.4834 47.9839 8.44238C48.1662 8.39909 48.3644 8.37744 48.5786 8.37744C48.7563 8.37744 48.9284 8.39567 49.0947 8.43213C49.2633 8.46859 49.4126 8.52783 49.5425 8.60986C49.6724 8.68962 49.776 8.79443 49.8535 8.92432C49.9333 9.05192 49.9731 9.20801 49.9731 9.39258V11.522C49.9731 11.5812 49.9891 11.6325 50.021 11.6758C50.0529 11.7168 50.1042 11.7373 50.1748 11.7373C50.2067 11.7373 50.2397 11.735 50.2739 11.7305C50.3081 11.7236 50.3434 11.7168 50.3799 11.71V12.144C50.3275 12.1577 50.2751 12.1702 50.2227 12.1816C50.1725 12.193 50.1121 12.1987 50.0415 12.1987C49.9321 12.1987 49.8376 12.1896 49.7578 12.1714C49.6803 12.1532 49.6143 12.1235 49.5596 12.0825C49.5072 12.0392 49.4661 11.9845 49.4365 11.9185C49.4069 11.8501 49.3875 11.7669 49.3784 11.6689C49.3009 11.7533 49.2189 11.8319 49.1323 11.9048C49.0457 11.9754 48.9489 12.0381 48.8418 12.0928C48.7347 12.1452 48.6151 12.1862 48.4829 12.2158C48.3507 12.2477 48.2015 12.2637 48.0352 12.2637C47.8939 12.2637 47.756 12.2409 47.6216 12.1953C47.4894 12.1497 47.3698 12.0825 47.2627 11.9937C47.1579 11.9048 47.0736 11.7954 47.0098 11.6655C46.946 11.5334 46.9141 11.3807 46.9141 11.2075C46.9141 11.0184 46.946 10.8555 47.0098 10.7188C47.0736 10.5798 47.1567 10.4647 47.2593 10.3735C47.3618 10.2801 47.4792 10.2083 47.6113 10.1582C47.7435 10.1081 47.8779 10.075 48.0146 10.0591L49.0435 9.93262C49.1414 9.92122 49.2178 9.88363 49.2725 9.81982C49.3294 9.75374 49.3579 9.64893 49.3579 9.50537C49.3579 9.28434 49.285 9.12598 49.1392 9.03027C48.9956 8.93229 48.7882 8.8833 48.5171 8.8833C48.2391 8.8833 48.0317 8.94255 47.895 9.06104C47.7583 9.17725 47.6808 9.3527 47.6626 9.5874H47.0747ZM49.3442 10.2881C49.2941 10.3245 49.2314 10.3553 49.1562 10.3804C49.0833 10.4032 49.0024 10.4225 48.9136 10.4385C48.8247 10.4544 48.7301 10.4692 48.6299 10.4829C48.5296 10.4943 48.4294 10.5068 48.3291 10.5205C48.2152 10.5365 48.1104 10.5592 48.0146 10.5889C47.9189 10.6185 47.8358 10.6572 47.7651 10.7051C47.6945 10.7529 47.6398 10.811 47.6011 10.8794C47.5623 10.9455 47.543 11.0241 47.543 11.1152C47.543 11.2201 47.5589 11.3123 47.5908 11.3921C47.625 11.4718 47.6706 11.5391 47.7275 11.5938C47.7868 11.6484 47.8574 11.6895 47.9395 11.7168C48.0215 11.7441 48.1115 11.7578 48.2095 11.7578C48.271 11.7578 48.3416 11.751 48.4214 11.7373C48.5011 11.7214 48.5832 11.6986 48.6675 11.6689C48.7518 11.6393 48.8338 11.6017 48.9136 11.5562C48.9956 11.5083 49.0685 11.4513 49.1323 11.3853C49.1961 11.3192 49.2474 11.244 49.2861 11.1597C49.3249 11.0754 49.3442 10.9808 49.3442 10.876V10.2881Z" fill="white"/>
<path d="M53.1826 10.6743C53.0459 10.7108 52.8955 10.7415 52.7314 10.7666C52.5697 10.7917 52.4181 10.8042 52.2769 10.8042C51.7869 10.8042 51.4235 10.7108 51.1865 10.5239C50.9495 10.3348 50.8311 10.0374 50.8311 9.63184V8.49023H51.46V9.50537C51.46 9.64209 51.4759 9.76058 51.5078 9.86084C51.542 9.9611 51.5967 10.0443 51.6719 10.1104C51.7471 10.1742 51.8462 10.222 51.9692 10.2539C52.0923 10.2858 52.2438 10.3018 52.4238 10.3018C52.4717 10.3018 52.5286 10.2972 52.5947 10.2881C52.6631 10.279 52.7326 10.2676 52.8032 10.2539C52.8739 10.2402 52.9422 10.2254 53.0083 10.2095C53.0767 10.1912 53.1348 10.173 53.1826 10.1548V8.49023H53.8149V12.1509H53.1826V10.6743Z" fill="white"/>
<path d="M54.7378 9.5874C54.7446 9.36409 54.7868 9.17611 54.8643 9.02344C54.9417 8.86849 55.0465 8.74316 55.1787 8.64746C55.3109 8.55176 55.467 8.4834 55.647 8.44238C55.8293 8.39909 56.0275 8.37744 56.2417 8.37744C56.4194 8.37744 56.5915 8.39567 56.7578 8.43213C56.9264 8.46859 57.0757 8.52783 57.2056 8.60986C57.3354 8.68962 57.4391 8.79443 57.5166 8.92432C57.5964 9.05192 57.6362 9.20801 57.6362 9.39258V11.522C57.6362 11.5812 57.6522 11.6325 57.6841 11.6758C57.716 11.7168 57.7673 11.7373 57.8379 11.7373C57.8698 11.7373 57.9028 11.735 57.937 11.7305C57.9712 11.7236 58.0065 11.7168 58.043 11.71V12.144C57.9906 12.1577 57.9382 12.1702 57.8857 12.1816C57.8356 12.193 57.7752 12.1987 57.7046 12.1987C57.5952 12.1987 57.5007 12.1896 57.4209 12.1714C57.3434 12.1532 57.2773 12.1235 57.2227 12.0825C57.1702 12.0392 57.1292 11.9845 57.0996 11.9185C57.07 11.8501 57.0506 11.7669 57.0415 11.6689C56.964 11.7533 56.882 11.8319 56.7954 11.9048C56.7088 11.9754 56.612 12.0381 56.5049 12.0928C56.3978 12.1452 56.2782 12.1862 56.146 12.2158C56.0138 12.2477 55.8646 12.2637 55.6982 12.2637C55.557 12.2637 55.4191 12.2409 55.2847 12.1953C55.1525 12.1497 55.0329 12.0825 54.9258 11.9937C54.821 11.9048 54.7367 11.7954 54.6729 11.6655C54.609 11.5334 54.5771 11.3807 54.5771 11.2075C54.5771 11.0184 54.609 10.8555 54.6729 10.7188C54.7367 10.5798 54.8198 10.4647 54.9224 10.3735C55.0249 10.2801 55.1423 10.2083 55.2744 10.1582C55.4066 10.1081 55.541 10.075 55.6777 10.0591L56.7065 9.93262C56.8045 9.92122 56.8809 9.88363 56.9355 9.81982C56.9925 9.75374 57.021 9.64893 57.021 9.50537C57.021 9.28434 56.9481 9.12598 56.8022 9.03027C56.6587 8.93229 56.4513 8.8833 56.1802 8.8833C55.9022 8.8833 55.6948 8.94255 55.5581 9.06104C55.4214 9.17725 55.3439 9.3527 55.3257 9.5874H54.7378ZM57.0073 10.2881C56.9572 10.3245 56.8945 10.3553 56.8193 10.3804C56.7464 10.4032 56.6655 10.4225 56.5767 10.4385C56.4878 10.4544 56.3932 10.4692 56.293 10.4829C56.1927 10.4943 56.0924 10.5068 55.9922 10.5205C55.8783 10.5365 55.7734 10.5592 55.6777 10.5889C55.582 10.6185 55.4989 10.6572 55.4282 10.7051C55.3576 10.7529 55.3029 10.811 55.2642 10.8794C55.2254 10.9455 55.2061 11.0241 55.2061 11.1152C55.2061 11.2201 55.222 11.3123 55.2539 11.3921C55.2881 11.4718 55.3337 11.5391 55.3906 11.5938C55.4499 11.6484 55.5205 11.6895 55.6025 11.7168C55.6846 11.7441 55.7746 11.7578 55.8726 11.7578C55.9341 11.7578 56.0047 11.751 56.0845 11.7373C56.1642 11.7214 56.2463 11.6986 56.3306 11.6689C56.4149 11.6393 56.4969 11.6017 56.5767 11.5562C56.6587 11.5083 56.7316 11.4513 56.7954 11.3853C56.8592 11.3192 56.9105 11.244 56.9492 11.1597C56.988 11.0754 57.0073 10.9808 57.0073 10.876V10.2881Z" fill="white"/>
<path d="M59.6289 7.06836C59.6585 7.21419 59.7201 7.3304 59.8135 7.41699C59.9069 7.5013 60.0448 7.54346 60.2271 7.54346C60.4116 7.54346 60.5506 7.50244 60.644 7.42041C60.7375 7.3361 60.7979 7.21875 60.8252 7.06836H61.4097C61.4074 7.20508 61.3778 7.32926 61.3208 7.44092C61.2638 7.55029 61.1829 7.64372 61.0781 7.72119C60.9756 7.79867 60.8514 7.85905 60.7056 7.90234C60.562 7.94336 60.4025 7.96387 60.2271 7.96387C60.0516 7.96387 59.8921 7.94336 59.7485 7.90234C59.605 7.86133 59.4819 7.80208 59.3794 7.72461C59.2769 7.64714 59.196 7.55371 59.1367 7.44434C59.0798 7.33268 59.0501 7.20736 59.0479 7.06836H59.6289ZM58.6411 8.49023H59.27V11.2964H59.2837L61.0815 8.49023H61.8027V12.1509H61.1704V9.34473H61.1567L59.3623 12.1509H58.6411V8.49023Z" fill="white"/>
<path d="M63.7031 9.03711H62.4419V8.49023H65.5933V9.03711H64.332V12.1509H63.7031V9.03711Z" fill="white"/>
<path d="M69.3462 10.9819C69.3211 11.1414 69.2664 11.2975 69.1821 11.4502C69.0978 11.6029 68.9873 11.7396 68.8506 11.8604C68.7139 11.9811 68.5521 12.078 68.3652 12.1509C68.1807 12.2261 67.9756 12.2637 67.75 12.2637C67.5039 12.2637 67.276 12.2238 67.0664 12.144C66.859 12.062 66.679 11.9401 66.5264 11.7783C66.376 11.6143 66.2575 11.4092 66.1709 11.1631C66.0843 10.917 66.041 10.6276 66.041 10.2949C66.041 10.0716 66.0649 9.86995 66.1128 9.68994C66.1629 9.50765 66.229 9.34587 66.311 9.20459C66.3953 9.06104 66.4922 8.93799 66.6016 8.83545C66.7109 8.73063 66.826 8.64518 66.9468 8.5791C67.0698 8.51074 67.1952 8.46061 67.3228 8.42871C67.4504 8.39453 67.5734 8.37744 67.6919 8.37744C67.9425 8.37744 68.1715 8.41504 68.3789 8.49023C68.5863 8.56543 68.764 8.6805 68.9121 8.83545C69.0625 8.98812 69.1787 9.18066 69.2607 9.41309C69.3451 9.64323 69.3872 9.91439 69.3872 10.2266V10.541H66.7109C66.7132 10.7188 66.7383 10.8805 66.7861 11.0264C66.834 11.1699 66.9023 11.293 66.9912 11.3955C67.0801 11.498 67.1872 11.5778 67.3125 11.6348C67.4401 11.6895 67.5837 11.7168 67.7432 11.7168C67.9049 11.7168 68.0417 11.694 68.1533 11.6484C68.265 11.6029 68.3584 11.5448 68.4336 11.4741C68.5088 11.4035 68.5692 11.3249 68.6147 11.2383C68.6626 11.1517 68.7025 11.0662 68.7344 10.9819H69.3462ZM68.7549 10.0386C68.7503 9.86084 68.723 9.70247 68.6729 9.56348C68.625 9.42448 68.5566 9.30827 68.4678 9.21484C68.3812 9.11914 68.2764 9.04736 68.1533 8.99951C68.0303 8.94938 67.8936 8.92432 67.7432 8.92432C67.5996 8.92432 67.4674 8.9528 67.3467 9.00977C67.2259 9.06445 67.12 9.14193 67.0288 9.24219C66.9377 9.34017 66.8647 9.45752 66.8101 9.59424C66.7554 9.72868 66.7223 9.87679 66.7109 10.0386H68.7549Z" fill="white"/>
<path fill-rule="evenodd" clip-rule="evenodd" d="M20.4311 18.9601C19.5348 20.3348 17.9836 21.2435 16.2201 21.2435C13.4458 21.2435 11.1967 18.9944 11.1967 16.2201C11.1967 13.4458 13.4458 11.1967 16.2201 11.1967C18.1722 11.1967 19.8643 12.3102 20.6957 13.9367H24.1189C23.8445 12.9858 23.403 12.1056 22.8282 11.3302C23.1992 11.2429 23.586 11.1967 23.9836 11.1967C25.9357 11.1967 27.6278 12.3102 28.4592 13.9367H31.8824C30.8929 10.5078 27.7311 8 23.9836 8C22.5797 8 21.2579 8.35195 20.1018 8.97244C18.9457 8.35195 17.624 8 16.2201 8C11.6803 8 8 11.6803 8 16.2201C8 20.7599 11.6803 24.4402 16.2201 24.4402C17.624 24.4402 18.9457 24.0882 20.1018 23.4678C21.2579 24.0882 22.5797 24.4402 23.9836 24.4402C27.8956 24.4402 31.1693 21.7074 32 18.0468H28.6645C27.9338 19.9179 26.1135 21.2435 23.9836 21.2435C23.586 21.2435 23.1992 21.1973 22.8282 21.11C23.8411 19.7434 24.4402 18.0517 24.4402 16.2201L21.7003 16.2201L21.2435 16.2201L13.4802 16.2201V18.9601H20.4311Z" fill="white"/>
</g>
<defs>
<clipPath id="clip0">
<rect width="119" height="32" fill="white"/>
</clipPath>
</defs>
</svg>
