<?xml version="1.0" encoding="utf-8"?><svg viewBox="0 0 47 46" xmlns="http://www.w3.org/2000/svg" xmlns:xlink="http://www.w3.org/1999/xlink"><style>:root>svg{display:none}:root>svg:target{display:block}</style><svg fill="none" viewBox="0 0 44 37" id="anticrisis" xmlns="http://www.w3.org/2000/svg"><path d="M37.908 2a4 4 0 014 4v27a4 4 0 01-4 4H13.245a6 6 0 01-5.076-2.802l-7.245-11.5a6 6 0 010-6.396l7.245-11.5A6 6 0 0113.245 2h24.663z" fill="#4479A3" fill-opacity=".12"/><path d="M30.447 21.986v-9.401m0 0V2h6.033a5.292 5.292 0 015.292 5.292v0a5.292 5.292 0 01-5.292 5.293h-6.033zm0 0h-3.998m0 5.1h11.992" stroke="#324C9A" stroke-width="3" stroke-linecap="round" stroke-linejoin="round"/></svg><svg fill="none" viewBox="0 0 25 24" id="basket-btn" xmlns="http://www.w3.org/2000/svg"><path d="M1.388 7.329A2 2 0 013.361 5h15.278a2 2 0 011.973 2.329l-1.055 6.329A4 4 0 0115.612 17H6.388a4 4 0 01-3.946-3.342l-1.055-6.33z" fill="#324C9A"/><path fill-rule="evenodd" clip-rule="evenodd" d="M24.407 1.06A1 1 0 0123.96 2.4l-2.735 1.37-1.353 7.898a1 1 0 11-1.97-.338l1.437-8.395a1 1 0 01.538-.726L23.064.613a1 1 0 011.342.446z" fill="#324C9A"/><circle cx="5" cy="21" r="2" fill="#324C9A"/><circle cx="15" cy="21" r="2" fill="#324C9A"/></svg><svg fill="none" viewBox="0 0 40 40" id="checkmark" xmlns="http://www.w3.org/2000/svg"><circle cx="20" cy="20" r="20" fill="#4479A3" fill-opacity=".12"/><path d="M28 15L17.073 26 12.5 21.5" stroke="#324C9A" stroke-width="3" stroke-linecap="round" stroke-linejoin="round"/></svg><svg fill="none" viewBox="0 0 24 24" id="close" xmlns="http://www.w3.org/2000/svg"><path d="M5 5l7 7m7 7l-7-7m0 0l7-7m-7 7l-7 7" stroke="#A4A9BB" stroke-width="2" stroke-linecap="round"/></svg><svg fill="none" viewBox="0 0 24 24" id="delivery" xmlns="http://www.w3.org/2000/svg"><path d="M23.998 11.68a.653.653 0 00-.109-.346l-3.694-5.543a.659.659 0 00-.546-.291H14.655a.656.656 0 00-.655.656v10.689c0 .361.293.655.656.655H16a3 3 0 006 0h1.344a.657.657 0 00.656-.656v-5.146l-.002-.019zM17 11.5v-4h2.53l2.667 4H17zm2 7.5c-.827 0-1.5-.673-1.5-1.5S18.173 16 19 16c.826 0 1.5.673 1.5 1.5S19.826 19 19 19zM12.129 3.5H.87A.87.87 0 000 4.371v12.258c0 .48.39.87.87.87H3a3 3 0 106 0h3.129c.48 0 .87-.39.87-.87V4.37a.87.87 0 00-.87-.87zM5.999 19c-.826 0-1.5-.673-1.5-1.5S5.174 16 6 16c.828 0 1.5.673 1.5 1.5S6.828 19 6 19z" fill="#324C9A"/></svg><svg fill="none" viewBox="0 0 47 46" id="email" xmlns="http://www.w3.org/2000/svg"><path d="M17.408 6.976a3.576 3.576 0 014.91 0l2.234 2.11a3.576 3.576 0 002.665.97l3.067-.18a3.576 3.576 0 013.762 3.155l.355 3.053a3.577 3.577 0 001.418 2.455l2.465 1.834a3.576 3.576 0 01.853 4.836l-1.69 2.566a3.576 3.576 0 00-.492 2.793l.71 2.99a3.576 3.576 0 01-2.455 4.252l-2.944.88a3.576 3.576 0 00-2.172 1.822l-1.378 2.747a3.576 3.576 0 01-4.614 1.68l-2.821-1.22a3.576 3.576 0 00-2.835 0l-2.821 1.22a3.576 3.576 0 01-4.614-1.68l-1.378-2.747A3.576 3.576 0 007.46 38.69l-2.945-.88a3.576 3.576 0 01-2.455-4.253l.71-2.99c.228-.958.05-1.969-.492-2.792L.589 25.21a3.576 3.576 0 01.853-4.836l2.465-1.834a3.576 3.576 0 001.418-2.455l.356-3.053a3.576 3.576 0 013.761-3.156l3.068.18a3.576 3.576 0 002.664-.97l2.234-2.11z" fill="#4479A3" fill-opacity=".12"/><path fill-rule="evenodd" clip-rule="evenodd" d="M23.387 3h18.818c.928 0 1.356 1.154.652 1.759l-9.085 7.802a1 1 0 01-1.277.022L22.761 4.78c-.737-.59-.319-1.78.626-1.78zm18.818-3H23.387c-2.538 0-4.126 2.146-4.001 4.272V17a4.5 4.5 0 004.5 4.5h17.83a4.5 4.5 0 004.5-4.5V4.184c0-.035 0-.069-.003-.102C46.237 2.016 44.658 0 42.205 0zm1.012 8.404l-7.49 6.433a4 4 0 01-5.108.087l-8.233-6.6V17a1.5 1.5 0 001.5 1.5h17.83a1.5 1.5 0 001.5-1.5V8.404z" fill="#324C9A"/></svg><svg fill="none" viewBox="0 0 24 25" id="empire" xmlns="http://www.w3.org/2000/svg"><path fill-rule="evenodd" clip-rule="evenodd" d="M3.429 15.23V3.534c0-.445.203-.867.571-1.112C5.48 1.44 8.265.027 10.984.027c2.004 0 3.456.776 3.958 1.344a.508.508 0 01.114.342v.553c0 .25.161.47.404.518.492.1 1.305.21 2.326.21 2.844 0 4.627-1.17 5.684-1.981a.328.328 0 01.53.262v12.218c0 .23-.05.462-.18.652-1.132 1.669-4.152 2.643-9.4 2.643h-1.576a.473.473 0 01-.471-.474v-1.04c0-.154-.066-.301-.196-.381-.457-.282-1.443-.669-2.911-.669-2.314 0-3.974.813-5.171 1.423a.458.458 0 01-.666-.417zM1.714 5.17A.857.857 0 000 5.17v18a.857.857 0 101.714 0v-18z" fill="#FF1616"/></svg><svg fill="none" viewBox="0 0 25 24" id="icon-burger-dark" xmlns="http://www.w3.org/2000/svg"><rect x="4.512" y="4" width="16" height="2" rx="1" fill="#324C9A"/><rect x="4.512" y="11" width="16" height="2" rx="1" fill="#324C9A"/><rect x="4.512" y="18" width="16" height="2" rx="1" fill="#324C9A"/></svg><svg fill="none" viewBox="0 0 24 24" id="icon-burger-light" xmlns="http://www.w3.org/2000/svg"><rect x="2" y="5" width="20" height="2" rx="1" fill="#fff"/><rect x="2" y="17" width="20" height="2" rx="1" fill="#fff"/></svg><svg fill="none" viewBox="0 0 11 11" id="icon-city-cart-light" xmlns="http://www.w3.org/2000/svg"><path fill-rule="evenodd" clip-rule="evenodd" d="M3.012 1.337a1 1 0 011-1h2a1 1 0 011 1v2a1 1 0 01-1 1h-2a1 1 0 01-1-1v-2zm-3 6a1 1 0 011-1h2a1 1 0 011 1v2a1 1 0 01-1 1h-2a1 1 0 01-1-1v-2zm7-1a1 1 0 00-1 1v2a1 1 0 001 1h2a1 1 0 001-1v-2a1 1 0 00-1-1h-2z" fill="#A4A9BB"/></svg><svg fill="none" viewBox="0 0 6 5" id="icon-select-dropdown-dark" xmlns="http://www.w3.org/2000/svg"><path d="M3.866 4.5a1 1 0 01-1.732 0l-1.732-3A1 1 0 011.268 0h3.464a1 1 0 01.866 1.5l-1.732 3z" fill="#333"/></svg><svg fill="none" viewBox="0 0 9 7" id="icon-select-dropdown-light" xmlns="http://www.w3.org/2000/svg"><path d="M5.282 6.498a1 1 0 01-1.69 0L.82 2.12A1 1 0 011.665.585H7.21a1 1 0 01.845 1.535L5.282 6.498z" fill="#A4A9BB"/></svg><svg fill="none" viewBox="0 0 24 24" id="like-blue" xmlns="http://www.w3.org/2000/svg"><path d="M1.613 13.059c-2.15-2.301-2.15-6.032 0-8.333 2.151-2.301 5.639-2.301 7.79 0 1.434 1.534 3.76 1.534 5.194 0 2.151-2.301 5.639-2.301 7.79 0 2.15 2.3 2.15 6.032 0 8.333l-6.925 7.407c-1.912 2.045-5.012 2.045-6.924 0l-6.925-7.407z" fill="#324C9A"/></svg><svg fill="none" viewBox="0 0 24 19" id="like-gray" xmlns="http://www.w3.org/2000/svg"><path d="M1.613 10.059c-2.15-2.301-2.15-6.032 0-8.333 2.151-2.301 5.639-2.301 7.79 0 1.434 1.534 3.76 1.534 5.194 0 2.151-2.301 5.639-2.301 7.79 0 2.15 2.3 2.15 6.032 0 8.333l-6.925 7.407c-1.912 2.045-5.012 2.045-6.924 0l-6.925-7.407z" fill="#A4A9BB"/></svg><svg fill="none" viewBox="0 0 25 19" id="like-red" xmlns="http://www.w3.org/2000/svg"><path d="M2.611 10.059c-2.15-2.301-2.15-6.032 0-8.333 2.151-2.301 5.639-2.301 7.79 0 1.434 1.534 3.76 1.534 5.194 0 2.151-2.301 5.639-2.301 7.79 0 2.15 2.3 2.15 6.032 0 8.333l-6.925 7.407c-1.912 2.045-5.012 2.045-6.924 0L2.61 10.059z" fill="#EB5757"/></svg><svg fill="none" viewBox="0 0 24 24" id="login" xmlns="http://www.w3.org/2000/svg"><path d="M6.977 7c0-2.761 2.249-5 5.023-5 2.774 0 5.023 2.239 5.023 5v1.667c0 2.761-2.249 5-5.023 5-2.774 0-5.023-2.239-5.023-5V7zM2.791 22c-.462 0-.842-.375-.785-.832.41-3.29 3.23-5.835 6.645-5.835h6.698c3.416 0 6.234 2.546 6.645 5.835.057.457-.323.832-.785.832H2.79z" fill="#324C9A"/></svg><svg fill="none" viewBox="0 0 24 24" id="search-blue" xmlns="http://www.w3.org/2000/svg"><path fill-rule="evenodd" clip-rule="evenodd" d="M10 17.97c4.418 0 8-3.576 8-7.987 0-4.41-3.582-7.986-8-7.986S2 5.572 2 9.983c0 4.41 3.582 7.986 8 7.986zm0 1.996c5.523 0 10-4.47 10-9.983C20 4.469 15.523 0 10 0S0 4.47 0 9.983c0 5.513 4.477 9.983 10 9.983zM23.675 23.7a1.001 1.001 0 01-1.414.016l-4.358-4.25a.997.997 0 01-.017-1.412 1.001 1.001 0 011.414-.017l4.358 4.25a.997.997 0 01.017 1.412z" fill="#324C9A"/></svg><svg fill="none" viewBox="0 0 24 24" id="search-gray" xmlns="http://www.w3.org/2000/svg"><path fill-rule="evenodd" clip-rule="evenodd" d="M10 17.97c4.418 0 8-3.576 8-7.987 0-4.41-3.582-7.986-8-7.986S2 5.572 2 9.983c0 4.41 3.582 7.986 8 7.986zm0 1.996c5.523 0 10-4.47 10-9.983C20 4.469 15.523 0 10 0S0 4.47 0 9.983c0 5.513 4.477 9.983 10 9.983zM23.675 23.7a1.001 1.001 0 01-1.414.016l-4.358-4.25a.997.997 0 01-.017-1.412 1.001 1.001 0 011.414-.016l4.358 4.25a.997.997 0 01.017 1.411z" fill="#A4A9BB"/></svg><svg fill="none" viewBox="0 0 9 14" id="slider-arrow" xmlns="http://www.w3.org/2000/svg"><path d="M7 2L2 7l5 5" stroke="#324C9A" stroke-width="3" stroke-linecap="round" stroke-linejoin="round"/></svg><svg fill="none" viewBox="0 0 11 20" id="slider-arrow-light" xmlns="http://www.w3.org/2000/svg"><path fill-rule="evenodd" clip-rule="evenodd" d="M.293.293a1 1 0 000 1.414L8.586 10 .293 18.293a1 1 0 101.414 1.414l9-9a1 1 0 000-1.414l-9-9a1 1 0 00-1.414 0z" fill="#fff"/></svg><svg fill="none" viewBox="0 0 22 20" id="star" xmlns="http://www.w3.org/2000/svg"><path d="M10.093.953a1 1 0 011.814 0l2.258 4.863a1 1 0 00.787.572l5.323.645a1 1 0 01.56 1.725l-3.927 3.65a1 1 0 00-.3.925l1.031 5.262a1 1 0 01-1.467 1.066l-4.686-2.607a1 1 0 00-.972 0l-4.686 2.607a1 1 0 01-1.467-1.066l1.031-5.262a1 1 0 00-.3-.924L1.164 8.758a1 1 0 01.561-1.725l5.323-.645a1 1 0 00.787-.572L10.093.953z" fill="#F2994A"/></svg><svg fill="none" viewBox="0 0 40 40" id="stock" xmlns="http://www.w3.org/2000/svg"><path d="M17.408.976a3.576 3.576 0 014.91 0l2.234 2.11a3.576 3.576 0 002.665.97l3.067-.18a3.576 3.576 0 013.762 3.156l.355 3.052a3.577 3.577 0 001.418 2.455l2.465 1.834a3.576 3.576 0 01.853 4.836l-1.69 2.566a3.576 3.576 0 00-.492 2.793l.71 2.99a3.576 3.576 0 01-2.455 4.252l-2.944.88a3.576 3.576 0 00-2.172 1.822l-1.378 2.747a3.576 3.576 0 01-4.614 1.68l-2.821-1.22a3.576 3.576 0 00-2.835 0l-2.821 1.22a3.576 3.576 0 01-4.614-1.68l-1.378-2.747A3.576 3.576 0 007.46 32.69l-2.945-.88a3.576 3.576 0 01-2.455-4.253l.71-2.99c.228-.958.05-1.969-.492-2.792L.589 19.21a3.576 3.576 0 01.853-4.836l2.465-1.834a3.576 3.576 0 001.418-2.455l.356-3.052a3.576 3.576 0 013.761-3.157l3.068.18a3.576 3.576 0 002.664-.97l2.234-2.11z" fill="#4479A3" fill-opacity=".12"/><path fill-rule="evenodd" clip-rule="evenodd" d="M19.03 19.855a1.5 1.5 0 002.132 2.111l18-18.17a1.5 1.5 0 00-2.132-2.11l-18 18.169zm4.48-11.698a1.936 1.936 0 100-3.87 1.936 1.936 0 000 3.87zm0 3a4.935 4.935 0 100-9.87 4.935 4.935 0 000 9.87zm11.28 8.281a1.935 1.935 0 100-3.87 1.935 1.935 0 000 3.87zm0 3a4.936 4.936 0 100-9.87 4.936 4.936 0 000 9.87z" fill="#324C9A"/></svg><svg fill="none" viewBox="0 0 23 23" id="time" xmlns="http://www.w3.org/2000/svg"><path d="M11.454 22c5.773 0 10.453-4.701 10.453-10.5S17.227 1 11.454 1C5.68 1 1 5.701 1 11.5S5.68 22 11.454 22z" stroke="#324C9A" stroke-width="2" stroke-linecap="round" stroke-linejoin="round"/><path d="M11.453 5.5v6l2.987 3" stroke="#324C9A" stroke-width="2" stroke-linecap="round" stroke-linejoin="round"/></svg></svg>