<svg width="74" height="61" viewBox="0 0 74 61" fill="none" xmlns="http://www.w3.org/2000/svg">
<path fill-rule="evenodd" clip-rule="evenodd" d="M69 50.5C69 54.6421 65.6421 58 61.5 58C57.3579 58 54 54.6421 54 50.5C54 46.3579 57.3579 43 61.5 43C65.6421 43 69 46.3579 69 50.5ZM61.5 55C63.9853 55 66 52.9853 66 50.5C66 48.0147 63.9853 46 61.5 46C59.0147 46 57 48.0147 57 50.5C57 52.9853 59.0147 55 61.5 55Z" fill="white"/>
<path d="M74 3C74 4.65685 72.6569 6 71 6C69.3431 6 68 4.65685 68 3C68 1.34315 69.3431 0 71 0C72.6569 0 74 1.34315 74 3Z" fill="white"/>
<path d="M6 58C6 59.6569 4.65685 61 3 61C1.34315 61 0 59.6569 0 58C0 56.3431 1.34315 55 3 55C4.65685 55 6 56.3431 6 58Z" fill="white"/>
</svg>
