<svg width="277" height="629" viewBox="0 0 277 629" fill="none" xmlns="http://www.w3.org/2000/svg">
<path fill-rule="evenodd" clip-rule="evenodd" d="M26 13C26 20.1797 20.1797 26 13 26C5.82031 26 0 20.1797 0 13C0 5.82031 5.82031 0 13 0C20.1797 0 26 5.82031 26 13ZM13 21C17.4183 21 21 17.4182 21 13C21 8.58179 17.4183 5 13 5C8.58167 5 5 8.58179 5 13C5 17.4182 8.58167 21 13 21Z" fill="white"/>
<path fill-rule="evenodd" clip-rule="evenodd" d="M272 254C272 261.18 266.18 267 259 267C251.82 267 246 261.18 246 254C246 246.82 251.82 241 259 241C266.18 241 272 246.82 272 254ZM259 262C263.418 262 267 258.418 267 254C267 249.582 263.418 246 259 246C254.582 246 251 249.582 251 254C251 258.418 254.582 262 259 262Z" fill="white"/>
<path fill-rule="evenodd" clip-rule="evenodd" d="M264 107C271.18 107 277 101.18 277 94C277 86.8203 271.18 81 264 81C256.82 81 251 86.8203 251 94C251 101.18 256.82 107 264 107ZM272 94C272 98.4182 268.418 102 264 102C259.582 102 256 98.4182 256 94C256 89.5818 259.582 86 264 86C268.418 86 272 89.5818 272 94Z" fill="white"/>
<path fill-rule="evenodd" clip-rule="evenodd" d="M87 560C87 567.18 81.1797 573 74 573C66.8203 573 61 567.18 61 560C61 552.82 66.8203 547 74 547C81.1797 547 87 552.82 87 560ZM74 568C78.4183 568 82 564.418 82 560C82 555.582 78.4183 552 74 552C69.5817 552 66 555.582 66 560C66 564.418 69.5817 568 74 568Z" fill="white"/>
<path fill-rule="evenodd" clip-rule="evenodd" d="M248 601C255.18 601 261 595.18 261 588C261 580.82 255.18 575 248 575C240.82 575 235 580.82 235 588C235 595.18 240.82 601 248 601ZM256 588C256 592.418 252.418 596 248 596C243.582 596 240 592.418 240 588C240 583.582 243.582 580 248 580C252.418 580 256 583.582 256 588Z" fill="white"/>
<path d="M93 162.5C93 165.538 90.5376 168 87.5 168C84.4624 168 82 165.538 82 162.5C82 159.462 84.4624 157 87.5 157C90.5376 157 93 159.462 93 162.5Z" fill="white"/>
<path d="M150.5 179C153.538 179 156 176.538 156 173.5C156 170.462 153.538 168 150.5 168C147.462 168 145 170.462 145 173.5C145 176.538 147.462 179 150.5 179Z" fill="white"/>
<path d="M93 223.5C93 226.538 90.5376 229 87.5 229C84.4624 229 82 226.538 82 223.5C82 220.462 84.4624 218 87.5 218C90.5376 218 93 220.462 93 223.5Z" fill="white"/>
<path d="M196.5 336C199.538 336 202 333.538 202 330.5C202 327.462 199.538 325 196.5 325C193.462 325 191 327.462 191 330.5C191 333.538 193.462 336 196.5 336Z" fill="white"/>
<path d="M69 433.5C69 436.538 66.5376 439 63.5 439C60.4624 439 58 436.538 58 433.5C58 430.462 60.4624 428 63.5 428C66.5376 428 69 430.462 69 433.5Z" fill="white"/>
<path d="M128.5 428C131.538 428 134 425.538 134 422.5C134 419.462 131.538 417 128.5 417C125.462 417 123 419.462 123 422.5C123 425.538 125.462 428 128.5 428Z" fill="white"/>
<path d="M181 534.5C181 537.538 178.538 540 175.5 540C172.462 540 170 537.538 170 534.5C170 531.462 172.462 529 175.5 529C178.538 529 181 531.462 181 534.5Z" fill="white"/>
<path d="M106.5 629C109.538 629 112 626.538 112 623.5C112 620.462 109.538 618 106.5 618C103.462 618 101 620.462 101 623.5C101 626.538 103.462 629 106.5 629Z" fill="white"/>
</svg>
