<svg width="704" height="941" viewBox="0 0 704 941" fill="none" xmlns="http://www.w3.org/2000/svg">
<path fill-rule="evenodd" clip-rule="evenodd" d="M0.000976562 24.4498C0.000976562 10.9466 9.27122 0 20.7066 0H39.8594L667.248 0.0002985H683.295C694.731 0.0002985 704.001 10.9469 704.001 24.4501V66.626C704.001 90.2568 687.778 109.413 667.766 109.413H667.248V898.213H666.731C681.597 898.213 693.648 912.443 693.648 929.998V941L11.9067 941V929.997C11.9067 912.443 23.958 898.213 38.8241 898.213H39.8594V109.413H36.2359C16.2239 109.413 0.000976562 90.2565 0.000976562 66.6257V24.4498Z" fill="#324C9A"/>
<path d="M247.615 900C242.857 900 238.681 896.842 237.396 892.271C236.723 889.879 236.915 887.328 237.938 885.062L277.563 797.304C280.732 790.287 290.639 790.064 294.121 796.933C297.586 803.769 307.433 803.59 310.646 796.633L339.825 733.458C344.418 723.514 358.584 723.514 363.177 733.458L392.356 796.633C395.569 803.59 405.416 803.769 408.881 796.933C412.363 790.064 422.27 790.287 425.439 797.304L465.064 885.062C466.087 887.328 466.279 889.879 465.606 892.271C464.321 896.842 460.145 900 455.387 900H247.615Z" fill="#40BEB7"/>
<path fill-rule="evenodd" clip-rule="evenodd" d="M38.501 126C37.1203 126 36.001 127.119 36.001 128.5C36.001 129.881 37.1203 131 38.501 131H667.501C668.882 131 670.001 129.881 670.001 128.5C670.001 127.119 668.882 126 667.501 126H38.501ZM38.501 644C37.1203 644 36.001 645.119 36.001 646.5C36.001 647.881 37.1203 649 38.501 649H667.501C668.882 649 670.001 647.881 670.001 646.5C670.001 645.119 668.882 644 667.501 644H38.501ZM36.001 696.5C36.001 695.119 37.1203 694 38.501 694H667.501C668.882 694 670.001 695.119 670.001 696.5C670.001 697.881 668.882 699 667.501 699H488.501V745H667.501C668.882 745 670.001 746.119 670.001 747.5C670.001 748.881 668.882 750 667.501 750H488.501V795H667.501C668.882 795 670.001 796.119 670.001 797.5C670.001 798.881 668.882 800 667.501 800H488.501V846H667.501C668.882 846 670.001 847.119 670.001 848.5C670.001 849.881 668.882 851 667.501 851H488.501V900C488.501 901.381 487.382 902.5 486.001 902.5C484.62 902.5 483.501 901.381 483.501 900V699.5H222.501V900C222.501 901.381 221.382 902.5 220.001 902.5C218.62 902.5 217.501 901.381 217.501 900V851H38.501C37.1203 851 36.001 849.881 36.001 848.5C36.001 847.119 37.1203 846 38.501 846H217.501V800H38.501C37.1203 800 36.001 798.881 36.001 797.5C36.001 796.119 37.1203 795 38.501 795H217.501V750H38.501C37.1203 750 36.001 748.881 36.001 747.5C36.001 746.119 37.1203 745 38.501 745H217.501V699H38.501C37.1203 699 36.001 697.881 36.001 696.5ZM302.171 896.673C302.727 898.64 304.538 900 306.602 900H396.4C398.463 900 400.275 898.64 400.831 896.673C401.121 895.646 401.038 894.551 400.597 893.579L383.465 855.835C382.097 852.822 377.81 852.726 376.307 855.676C374.811 858.611 370.55 858.535 369.163 855.547L357.091 829.547C354.896 824.818 348.106 824.818 345.911 829.547L333.839 855.547C332.452 858.535 328.191 858.611 326.695 855.676C325.192 852.726 320.905 852.822 319.537 855.835L302.405 893.579C301.964 894.551 301.881 895.646 302.171 896.673Z" fill="white"/>
</svg>
