<svg width="286" height="157" viewBox="0 0 286 157" fill="none" xmlns="http://www.w3.org/2000/svg">
<path d="M21.1807 88.0737C21.1807 78.1326 29.2395 70.0737 39.1807 70.0737H267.042C276.983 70.0737 285.042 78.1326 285.042 88.0737V138.542C285.042 148.483 276.983 156.542 267.042 156.542H39.1806C29.2395 156.542 21.1807 148.483 21.1807 138.542V88.0737Z" fill="#40BEB7"/>
<path fill-rule="evenodd" clip-rule="evenodd" d="M267.041 70.0738H257.296L257.156 69.2424C256.803 67.1492 256.081 65.086 254.97 63.1512L241.656 39.9583C236.605 31.1585 225.377 28.12 216.577 33.1714L191.846 47.3677C180.444 19.5732 153.116 0 121.214 0C81.3146 0 48.5713 30.6168 45.1884 69.642L45.151 70.0738H39.1806C38.4021 70.0738 37.6352 70.1232 36.8828 70.2191C36.9589 69.7193 36.999 69.2005 36.9997 68.6642C37.0161 56.7492 36.5709 43.435 34.6836 38.7639C30.9868 29.614 20.5726 25.1934 11.4227 28.8902C2.27281 32.587 -2.14778 43.0013 1.54901 52.1511C3.4427 56.8382 12.5791 66.7144 21.0411 75.2336C22.1204 76.3202 23.3273 77.0789 24.581 77.5429C22.4415 80.5039 21.1806 84.1416 21.1806 88.0738V138.542C21.1806 148.483 29.2394 156.542 39.1806 156.542H267.041C276.983 156.542 285.041 148.483 285.041 138.542V88.0738C285.041 78.1327 276.983 70.0738 267.041 70.0738ZM121.214 48.3311C134.52 48.3311 145.666 57.6231 148.5 70.0738H93.9288C96.7622 57.6231 107.908 48.3311 121.214 48.3311ZM197.277 70.0733L252.226 70.0733C251.97 68.5547 251.445 67.0543 250.634 65.6406L237.32 42.4475C237.295 42.4033 237.269 42.3592 237.243 42.3154L237.227 42.2881L237.195 42.2343L237.169 42.1903C233.423 35.9839 225.385 33.8807 219.067 37.5077L193.612 52.1192C194.738 55.4888 195.635 58.9631 196.285 62.5237C196.711 64.861 197.031 67.2355 197.24 69.642L197.277 70.0733ZM50.1704 70.0738C53.3313 33.6105 83.9319 5.00015 121.215 5.00015C85.6538 5.00015 56.1714 31.0287 50.7812 65.0738C50.5202 66.7223 50.3164 68.3897 50.1704 70.0738ZM39.1806 75.0738C32.0009 75.0738 26.1806 80.8941 26.1806 88.0738V138.542C26.1806 145.721 32.0009 151.542 39.1806 151.542H59.5396C59.5218 151.421 59.5126 151.298 59.5126 151.173L59.5126 108.173C59.5126 106.792 60.6319 105.673 62.0126 105.673C63.3933 105.673 64.5126 106.792 64.5126 108.173V151.173C64.5126 151.298 64.5034 151.421 64.4855 151.542H95.5397C95.5218 151.421 95.5126 151.298 95.5126 151.173V123.173C95.5126 121.792 96.6319 120.673 98.0126 120.673C99.3933 120.673 100.513 121.792 100.513 123.173V151.173C100.513 151.298 100.503 151.421 100.486 151.542H131.54C131.522 151.421 131.513 151.298 131.513 151.173V108.173C131.513 106.792 132.632 105.673 134.013 105.673C135.393 105.673 136.513 106.792 136.513 108.173V151.173C136.513 151.298 136.503 151.421 136.486 151.542H167.54C167.522 151.421 167.513 151.298 167.513 151.173V123.173C167.513 121.792 168.632 120.673 170.013 120.673C171.393 120.673 172.513 121.792 172.513 123.173V151.173C172.513 151.298 172.503 151.421 172.486 151.542H203.54C203.522 151.421 203.513 151.298 203.513 151.173V108.173C203.513 106.792 204.632 105.673 206.013 105.673C207.393 105.673 208.513 106.792 208.513 108.173V151.173C208.513 151.298 208.503 151.421 208.486 151.542H239.54C239.522 151.421 239.513 151.298 239.513 151.173V123.173C239.513 121.792 240.632 120.673 242.013 120.673C243.393 120.673 244.513 121.792 244.513 123.173V151.173C244.513 151.24 244.51 151.306 244.505 151.372C244.5 151.429 244.494 151.486 244.486 151.542H267.041C274.221 151.542 280.041 145.721 280.041 138.542V88.0738C280.041 80.8941 274.221 75.0738 267.041 75.0738H39.1806ZM30.0477 40.6369C30.2905 41.238 30.6052 42.4683 30.897 44.4568C31.1769 46.3643 31.398 48.6917 31.5657 51.3164C31.9009 56.562 32.0078 62.7467 31.9997 68.6573C31.9942 72.7174 27.4442 74.585 24.5885 71.71C20.3912 67.4843 16.0799 62.975 12.6067 58.9765C10.8688 56.9757 9.38323 55.1513 8.24109 53.5878C7.04826 51.9549 6.42062 50.8615 6.18493 50.2781C3.52258 43.6886 6.70619 36.1885 13.2957 33.5261C19.8852 30.8638 27.3854 34.0474 30.0477 40.6369Z" fill="white"/>
<path d="M176.014 70.0734L252.225 70.0734C251.969 68.5548 251.444 67.0544 250.633 65.6407L237.319 42.4476C233.643 36.0427 225.47 33.8311 219.066 37.5078L182.73 58.3652C178.393 60.8549 175.979 65.4056 176.014 70.0734Z" fill="#324C9A"/>
</svg>
