<svg width="1361" height="1245" viewBox="0 0 1361 1245" fill="none" xmlns="http://www.w3.org/2000/svg">
<path fill-rule="evenodd" clip-rule="evenodd" d="M0 40C0 17.9087 17.9086 0 40 0H77L1289.01 0.000488281H1320.01C1342.11 0.000488281 1360.01 17.9092 1360.01 40.0005V109C1360.01 147.661 1328.67 179 1290.01 179H1289.01V1175H1288.01C1316.73 1175 1340.01 1198.28 1340.01 1227V1245L23 1245V1227C23 1198.28 46.2812 1175 75 1175H77V179H70C31.34 179 0 147.66 0 109V40Z" fill="#324C9A"/>
<path d="M495.146 1176C486.634 1176 479.162 1170.34 476.863 1162.14C475.66 1157.85 476.003 1153.27 477.833 1149.21L548.724 991.833C554.393 979.248 572.117 978.85 578.346 991.167C584.545 1003.43 602.161 1003.11 607.91 990.629L660.111 877.336C668.328 859.503 693.672 859.503 701.889 877.336L754.09 990.629C759.839 1003.11 777.455 1003.43 783.654 991.167C789.883 978.85 807.608 979.248 813.277 991.833L884.168 1149.21C885.998 1153.27 886.341 1157.85 885.137 1162.14C882.838 1170.34 875.366 1176 866.854 1176H495.146Z" fill="#40BEB7"/>
<path fill-rule="evenodd" clip-rule="evenodd" d="M66.6494 179.093C66.6494 176.884 68.4403 175.093 70.6494 175.093H1289.35C1291.56 175.093 1293.35 176.884 1293.35 179.093C1293.35 181.302 1291.56 183.093 1289.35 183.093H70.6494C68.4403 183.093 66.6494 181.302 66.6494 179.093ZM66.6494 690C66.6494 687.791 68.4403 686 70.6494 686H1289.35C1291.56 686 1293.35 687.791 1293.35 690C1293.35 692.21 1291.56 694 1289.35 694H70.6494C68.4403 694 66.6494 692.21 66.6494 690ZM70.6494 783C68.4403 783 66.6494 784.791 66.6494 787C66.6494 789.21 68.4403 791 70.6494 791H420V880H71C68.7909 880 67 881.791 67 884C67 886.21 68.7909 888 71 888H420V977H71C68.7909 977 67 978.791 67 981C67 983.21 68.7909 985 71 985H420V1074H71C68.7909 1074 67 1075.79 67 1078C67 1080.21 68.7909 1082 71 1082H420V1176C420 1178.21 421.791 1180 424 1180C426.209 1180 428 1178.21 428 1176V791H933V1176C933 1178.21 934.791 1180 937 1180C939.209 1180 941 1178.21 941 1176V1082H1289C1291.21 1082 1293 1080.21 1293 1078C1293 1075.79 1291.21 1074 1289 1074H941V985H1289C1291.21 985 1293 983.21 1293 981C1293 978.791 1291.21 977 1289 977H941V888H1289C1291.21 888 1293 886.21 1293 884C1293 881.791 1291.21 880 1289 880H941V791H1289.35C1291.56 791 1293.35 789.21 1293.35 787C1293.35 784.791 1291.56 783 1289.35 783H937H424H70.6494ZM592.803 1169.99C593.798 1173.54 597.036 1176 600.725 1176H761.275C764.965 1176 768.203 1173.54 769.197 1169.99C769.716 1168.14 769.568 1166.16 768.779 1164.4L738.148 1096.23C735.703 1090.79 728.038 1090.61 725.351 1095.94C722.676 1101.24 715.058 1101.11 712.578 1095.71L690.995 1048.75C687.069 1040.21 674.931 1040.21 671.005 1048.75L649.422 1095.71C646.942 1101.11 639.324 1101.24 636.65 1095.94C633.962 1090.61 626.298 1090.79 623.852 1096.23L593.222 1164.4C592.432 1166.16 592.284 1168.14 592.803 1169.99Z" fill="white"/>
</svg>
