<svg width="285" height="157" viewBox="0 0 285 157" fill="none" xmlns="http://www.w3.org/2000/svg">
<path d="M20.9375 88.0737C20.9375 78.1326 28.9964 70.0737 38.9375 70.0737H266.798C276.74 70.0737 284.798 78.1326 284.798 88.0737V138.542C284.798 148.483 276.74 156.542 266.798 156.542H38.9375C28.9964 156.542 20.9375 148.483 20.9375 138.542V88.0737Z" fill="#324C9A"/>
<path fill-rule="evenodd" clip-rule="evenodd" d="M197.034 70.0738H266.798C276.74 70.0738 284.798 78.1327 284.798 88.0738V138.542C284.798 148.483 276.74 156.542 266.798 156.542H38.9375C28.9964 156.542 20.9375 148.483 20.9375 138.542V88.0738C20.9375 84.1416 22.1984 80.5039 24.3379 77.5429C23.0842 77.0789 21.8773 76.3202 20.798 75.2336C12.3359 66.7144 3.19953 56.8381 1.30584 52.1511C-2.39095 43.0012 2.02965 32.5869 11.1795 28.8902C20.3294 25.1934 30.7437 29.614 34.4405 38.7638C36.3277 43.435 36.7729 56.7491 36.7566 68.6641C36.7558 69.2005 36.7157 69.7193 36.6396 70.2191C37.392 70.1232 38.159 70.0738 38.9375 70.0738H44.9079L44.9453 69.642C48.3282 30.6168 81.0715 0 120.971 0C160.871 0 193.614 30.6168 196.997 69.642L197.034 70.0738ZM148.257 70.0738C145.423 57.6231 134.277 48.3311 120.971 48.3311C107.665 48.3311 96.5191 57.6231 93.6857 70.0738H148.257ZM120.971 43.3311C137.054 43.3311 150.448 54.8417 153.364 70.0738L192.016 70.0738C191.87 68.3897 191.665 66.7224 191.404 65.0738C186.014 31.0287 156.532 5 120.971 5C85.4101 5 55.9283 31.0287 50.5381 65.0738C50.2771 66.7223 50.0726 68.3897 49.9266 70.0738H88.578C91.4947 54.8417 104.889 43.3311 120.971 43.3311ZM29.8045 40.6369C30.0474 41.2379 30.362 42.4682 30.6538 44.4568C30.9337 46.3643 31.1548 48.6917 31.3225 51.3164C31.6577 56.5619 31.7647 62.7467 31.7566 68.6573C31.751 72.7173 27.201 74.5849 24.3454 71.71C20.1481 67.4843 15.8368 62.975 12.3636 58.9764C10.6256 56.9756 9.14007 55.1513 7.99793 53.5877C6.8051 51.9548 6.17745 50.8614 5.94176 50.2781C3.27942 43.6885 6.46303 36.1884 13.0526 33.5261C19.6421 30.8637 27.1422 34.0473 29.8045 40.6369ZM59.2694 151.173L59.2694 108.173C59.2694 106.792 60.3887 105.673 61.7694 105.673C63.1502 105.673 64.2694 106.792 64.2694 108.173V151.173C64.2694 151.298 64.2602 151.421 64.2424 151.542H95.2965C95.2787 151.421 95.2694 151.298 95.2694 151.173V123.173C95.2694 121.792 96.3887 120.673 97.7694 120.673C99.1502 120.673 100.269 121.792 100.269 123.173V151.173C100.269 151.298 100.26 151.421 100.242 151.542H131.296C131.279 151.421 131.269 151.298 131.269 151.173V108.173C131.269 106.792 132.389 105.673 133.769 105.673C135.15 105.673 136.269 106.792 136.269 108.173V151.173C136.269 151.298 136.26 151.421 136.242 151.542H167.296C167.279 151.421 167.269 151.298 167.269 151.173V123.173C167.269 121.792 168.389 120.673 169.769 120.673C171.15 120.673 172.269 121.792 172.269 123.173V151.173C172.269 151.298 172.26 151.421 172.242 151.542H203.296C203.279 151.421 203.269 151.298 203.269 151.173V108.173C203.269 106.792 204.389 105.673 205.769 105.673C207.15 105.673 208.269 106.792 208.269 108.173V151.173C208.269 151.298 208.26 151.421 208.242 151.542H239.296C239.279 151.421 239.269 151.298 239.269 151.173V123.173C239.269 121.792 240.389 120.673 241.769 120.673C243.15 120.673 244.269 121.792 244.269 123.173V151.173C244.269 151.235 244.267 151.297 244.263 151.359C244.258 151.421 244.251 151.482 244.242 151.542H266.798C273.978 151.542 279.798 145.721 279.798 138.542V88.0738C279.798 80.8941 273.978 75.0738 266.798 75.0738H38.9375C31.7578 75.0738 25.9375 80.8941 25.9375 88.0738V138.542C25.9375 145.721 31.7578 151.542 38.9375 151.542H59.2965C59.2787 151.421 59.2694 151.298 59.2694 151.173Z" fill="white"/>
<path d="M175.77 70.0734L251.982 70.0734C251.726 68.5548 251.201 67.0544 250.389 65.6407L237.076 42.4476C233.4 36.0427 225.227 33.8311 218.823 37.5078L182.487 58.3652C178.15 60.8549 175.736 65.4056 175.77 70.0734Z" fill="#40BEB7"/>
</svg>
